<svg xmlns="http://www.w3.org/2000/svg" viewBox="0 0 628.6 90" enable-background="new 0 0 628.6 90"><style type="text/css">.st0{fill:#EC1C24;} .st1{fill:none;stroke:#FFFFFF;stroke-miterlimit:10;} .st2{fill:#FFFFFF;} .st3{fill:none;stroke:#FFFFFF;stroke-width:0.5;stroke-miterlimit:10;} .st4{fill:none;stroke:#FFFFFF;stroke-width:1.15;stroke-linecap:round;stroke-linejoin:round;stroke-miterlimit:10;} .st5{fill:none;stroke:#FFFFFF;stroke-width:1.15;stroke-miterlimit:10;} .st6{fill:none;stroke:#FFFFFF;stroke-width:0.8282;stroke-miterlimit:10;} .st7{fill:none;stroke:#FFFFFF;stroke-linecap:round;stroke-linejoin:round;stroke-miterlimit:10;} .st8{fill:none;stroke:#FFFFFF;stroke-linejoin:round;stroke-miterlimit:10;} .st9{fill:none;stroke:#FFFFFF;stroke-width:0.5;stroke-linejoin:round;stroke-miterlimit:10;}</style><path class="st0" d="M350 2.1"/><path class="st1" d="M572.5 77.9c-2 0-3.6-1.6-3.6-3.6 0-.7.2-1.3.5-1.8h-.5c-3.5 0-6.4-2.9-6.4-6.4 0-2.7 1.7-5.1 4.2-6-.2-.4-.4-.9-.4-1.5 0-1.7 1.4-3.1 3.1-3.1.6 0 1.1.1 1.5.4v-.4c0-3 2.5-5.5 5.5-5.5s5.5 2.5 5.5 5.5c0 .5-.1 1.1-.2 1.6h.1c1.9 0 3.5 1.6 3.5 3.5 0 1.6-1.1 3-2.5 3.4.4.8.6 1.6.6 2.6 0 .8-.2 1.6-.5 2.3.5.8.7 1.7.7 2.7 0 2.9-2.4 5.3-5.3 5.3-1 0-1.9-.3-2.6-.7-.3.4-.6.8-1.1 1.1M571 91c2.2-11.4 1.3-23.5 1.3-23.5M574.9 68.5s-1.8 10.1 1.2 22.5"/><path class="st2" d="M576.9 69.1c-.2.1-.4.1-.6.1-.2 0-.4 0-.7-.1-.2 0-.4-.2-.6-.3l-.6-.4c-.2-.1-.3-.3-.5-.5l-.4-.6-.3-.6c-.1-.2-.2-.4-.2-.6h.9l-.3.6c-.1.2-.2.3-.4.5-.1.2-.3.3-.4.4-.1.1-.3.2-.5.3-.2.1-.3.2-.5.2s-.4.1-.5.1h-1c.2-.1.3-.2.5-.2l.4-.2c.1-.1.3-.2.4-.2.1-.1.2-.2.4-.3l.3-.3.3-.3c.1-.1.2-.2.2-.4.1-.1.1-.3.2-.3l.4-1.3.5 1.3c.1.2.2.4.2.5.1.2.1.4.2.5l.3.5.3.5c.1.1.2.3.4.4l.4.4.5.3c.2-.1.4-.1.7 0zM583.2 67.5s-.5 1.9-1.6 2.3"/><path class="st2" d="M583.7 67.7l-.2.4c-.1.3-.4.6-.6.9-.1.2-.3.3-.4.4-.2.1-.3.2-.4.3-.3.1-.4.2-.4.2s.1-.1.4-.3c.1-.1.2-.2.3-.4.1-.2.2-.3.2-.5.1-.3.2-.7.2-.9 0-.2.1-.4.1-.4l.8.3zM570.9 54.7s-.2 1.5.8 2.7"/><path class="st2" d="M571.4 54.7s0 .1-.1.4c0 .2-.1.6 0 .9 0 .2 0 .3.1.5s.1.3.1.4l.2.4-.3-.3c-.1-.1-.2-.2-.3-.4-.1-.1-.2-.3-.3-.5-.2-.4-.3-.7-.3-1-.1-.3-.1-.5-.1-.5l1 .1zM568.2 72.4s1.9 0 2.1-.9"/><path class="st2" d="M568.2 71.9s.1 0 .3.1c.2 0 .5.1.8 0 .3 0 .6-.1.7-.2.2-.1.2-.3.2-.3s0 .2-.1.4-.4.4-.7.6c-.3.2-.6.3-.8.3-.2.1-.4.1-.4.1v-1z"/><path class="st3" d="M574.1 67.4c-1.8 16.5 1.6 23.6 1.6 23.6M333 67.4c1.8 16.5-1.9 22.4-1.9 22.4"/><path class="st4" d="M453.4 45.7l-9.1 1.8-46.5-3.2-54-14.9v-2.9l53.9 15.2 46.6 3.5 9.1-1.7z"/><path class="st5" d="M347.7 30.8v2.4l50.1 13.6 46.5 3 5.8-1.2v-2.1"/><path class="st2" d="M347.7 31.8l12.6 3.3 12.5 3.3 25 6.8 23.3 1.5 11.6.8 11.7.9h-.1l5.8-1.2-5.7 1.3h-.1l-11.6-.7-11.7-.7-23.2-1.4-.1-.1-25-6.8-12.5-3.5z"/><path class="st5" d="M349.3 33.8v49.3"/><path class="st3" d="M356.6 35.7v43.2M374.5 40.3v38.9M397.3 46.8v32.7"/><path class="st1" d="M448.5 49v14.9"/><path class="st4" d="M442.9 89.6v-14.2h-34.2v-11.5h79.4v25.7"/><path class="st2" d="M408.7 65s5-.1 12.4-.1 17.4-.1 27.3-.1c9.9 0 19.9.1 27.3.1 7.4.1 12.4.1 12.4.1s-5 .1-12.4.1-17.4.1-27.3.1c-9.9 0-19.9-.1-27.3-.1-7.5 0-12.4-.1-12.4-.1z"/><path class="st5" d="M448.5 52.5s22.5-1.4 23.1 1.8c.5 2.6.4 9.2.4 9.2"/><path class="st1" d="M448.5 53.8s22.5-1.4 23.1 1.8"/><path class="st6" d="M448.5 58.9s22-1.1 23.5 1.5"/><path class="st3" d="M397.3 46.8h-48M448.5 54.9h-99.2M448.5 63h-99.2M408.7 71.2h-59.4M442.9 87.5h-31.8"/><circle class="st7" cx="426.9" cy="71.9" r="1.4"/><path class="st7" d="M456 74.3c0 1.3-1.1 3.8-2.4 3.8s-2.4-2.5-2.4-3.8h4.8zM453.5 78.1v11.5"/><path class="st7" d="M499.2 71.8c0 1.3-1.1 3.8-2.4 3.8s-2.4-2.5-2.4-3.8h4.8zM496.8 75.6v14.7"/><path class="st7" d="M524.4 71.8c0 1.3-1.1 3.8-2.4 3.8-1.3 0-2.4-2.5-2.4-3.8h4.8zM522 75.6v14.7"/><path class="st7" d="M549.1 71.8c0 1.3-1.1 3.8-2.4 3.8-1.3 0-2.4-2.5-2.4-3.8h4.8zM546.7 75.6v14.7"/><path class="st4" d="M567.8 72.8v17.9M488.1 68.2h74.4M567.8 72.3M488.1 69.4h75.1"/><path class="st7" d="M488.1 77.7h75c3.7 0 4.6 0 4.6 2.5M419.4 75.4v14.2"/><path class="st2" d="M418.5 75.4s.1.9.1 2.2c.1 1.3.1 3.1.1 4.9 0 1.8 0 3.5-.1 4.9-.1 1.3-.1 2.2-.1 2.2s-.1-.9-.1-2.2c-.1-1.3-.1-3.1-.1-4.9 0-1.8.1-3.5.1-4.9 0-1.3.1-2.2.1-2.2zM435.4 75.4s.1.9.1 2.2c.1 1.3.1 3.1.1 4.9 0 1.8 0 3.5-.1 4.9-.1 1.3-.1 2.2-.1 2.2s-.1-.9-.1-2.2c-.1-1.3-.1-3.1-.1-4.9 0-1.8.1-3.5.1-4.9 0-1.3.1-2.2.1-2.2z"/><path class="st7" d="M434.5 75.4v14.2M419.4 82.5h15.1"/><path class="st8" d="M409.9 82.1h8.6M435.4 82.1h7.5"/><path class="st9" d="M426.9 75.4v14.2"/><path class="st5" d="M339 23.5h17.6"/><path class="st7" d="M505.5 90.3v-11.3h9.8v11.3M505.7 79.9h8.7v9.3M510 79.9v9.6M488.1 83.3h17.4M488.3 84.2h17.2"/><ellipse class="st7" cx="510.1" cy="75.2" rx=".6" ry="1.1"/><path class="st7" d="M529.5 90.3v-11.3h9.9v11.3M529.8 79.9h8.7v9.3M534 79.9v9.6M555 90.3v-11.3h5.4v11.3M555.3 79.9h4.2v9.3"/><ellipse class="st7" cx="534.1" cy="75.2" rx=".6" ry="1.1"/><ellipse class="st7" cx="557.4" cy="75.2" rx=".6" ry="1.1"/><path class="st7" d="M560.4 83.3h1.5c1.5 0 5 0 5.8.5M539.4 83.3h15.5M515.3 83.3h14M560.4 84.2h1.5c1.6 0 4.9 0 5.8.6M539.5 84.2h15.4M515.3 84.2h14.2"/><path class="st2" d="M480.3 73.7s-.1.1-.4.2c-.3.1-.7.1-1.1.1h-.7c-.2 0-.5.1-.8.1h-.9c-.3 0-.7-.2-.9-.2-.1 0-.2-.1-.3 0l-.4.1c-.3.1-.6.1-.8.1l-.4.1c-.2 0-.3 0-.4.1h-.8c-.9-.1-1.5-.3-1.5-.3h.4c.3 0 .6 0 1.1-.1.2 0 .5 0 .7-.1l.4-.1.4-.1.9-.2.4-.1h.6c.3.1.6.2.8.2h.8l.8-.1c.3 0 .6.1.8.1.4.1.8.2 1 .3.1-.1.3-.1.3-.1zM481.7 68.7s-.1.2-.4.4c-.3.2-.8.4-1.4.4-.3 0-.7-.1-1-.2-.3-.1-.6-.1-.9 0-.4.1-.7.2-1.2.2h-.6c-.2 0-.4 0-.6-.1h-1.1c-.3.1-.5.3-1.1.4-.6.1-.9-.3-1.2-.5l-.2-.1h-.2c-.2-.1-.3-.1-.4-.1-.6-.1-1.1-.1-1.4-.1h-.6s.2-.1.5-.1c.3-.1.8-.2 1.5-.2h.6l.2.1.3.1c.3.2.6.3.8.3l1-.4c.5-.1.9-.1 1.3-.1.2 0 .4 0 .6.1h.5c.3 0 .7 0 1.1-.1.4 0 .9 0 1.2.2.3.2.6.2.8.3.6.1 1 0 1.3-.2l.6-.3zM484.5 71.2s-.3 0-.8.1c-.5 0-1.3.2-2.1.4-.4.1-.9.2-1.5.3-.5.1-1.1.1-1.7 0-.6-.1-1.2-.3-1.7-.3-.3-.1-.5-.1-.8 0l-.9.2c-.6.1-1.2.2-1.8.2-.6 0-1.3-.1-1.8-.2s-1.1-.2-1.6-.2h-1.4c-.4.1-.9.2-1.2.1-.4 0-.7 0-1-.1-.5-.1-.8-.2-.8-.2h.8c.3 0 .6 0 .9-.1.3-.1.7-.2 1.2-.3.9-.2 2.1-.2 3.2 0 .6.1 1.1.2 1.7.2.6 0 1.1-.1 1.7-.2l.9-.1c.4-.1.7 0 1 0 .6.1 1.2.3 1.7.4.5.1 1.1.1 1.6.1s1-.1 1.4-.2c.9-.2 1.7-.1 2.2-.1.5-.1.8 0 .8 0z"/><path class="st3" d="M356.3 79.3h-7M374.1 79.3h-15.3M383.7 79.3h-5.1M401.6 79.3h-15M409.1 79.3h-2.8"/><path class="st5" d="M409.1 75.4v5.7"/><path class="st1" d="M346.9 89.3v-3.6c0-1.5 1.2-2.6 2.6-2.6.2 0 .5 0 .7.1.7-1.4 2.1-2.3 3.8-2.3.3 0 .6 0 .9.1.3-1.2 1.4-2.1 2.6-2.1 1.3 0 2.3.9 2.6 2l.6-.1c.8 0 1.5.3 2 .7.4-1.2 1.6-2.1 3-2.1.7 0 1.4.3 1.9.7.8-.6 1.8-.9 2.8-.9 1.1 0 2.1.4 2.9 1 .5-1.1 1.6-1.8 2.9-1.8 1 0 1.9.5 2.5 1.3.4-.1.9-.2 1.4-.2 1 0 1.9.3 2.7.8.5-.8 1.3-1.4 2.4-1.4 1.3 0 2.3.9 2.6 2l.6-.1c.8 0 1.5.3 2 .7.4-1.2 1.6-2.1 3-2.1.7 0 1.4.3 1.9.7.8-.6 1.8-.9 2.8-.9 1.1 0 2.1.4 2.9 1 .5-1.1 1.6-1.8 2.9-1.8 1.2 0 2.2.6 2.7 1.6h.4c1.5 0 2.7 1.2 2.7 2.7v.2c.8.6 1.3 1.5 1.3 2.5v4.9M371.6 89.6v-5.4c0-.9.7-1.6 1.6-1.6.9 0 1.6.7 1.6 1.6v5.4"/><path class="st3" d="M373.8 86.1c0 .3-.3.6-.6.6s-.6-.3-.6-.6v-.8c0-.3.3-.6.6-.6s.6.3.6.6v.8z"/><path class="st2" d="M379.2 80s-.1 0-.2.1-.3.2-.5.3c-.4.3-.6.7-.6.7v-.3c0-.2.1-.5.2-.7.1-.3.2-.5.4-.7l.2-.3.5.9zM355.5 80.7s-.1.1-.1.2c-.1.1-.1.4-.2.6-.1.5.1 1 .1 1l-.2-.2c-.1-.1-.3-.4-.4-.6-.1-.3-.2-.5-.2-.8v-.4l1 .2zM347.5 85.1l-.1.3v.6l.2.3c.1.1.2.2.3.2.2.1.3.1.3.1h-.4c-.1 0-.2 0-.4-.1-.2 0-.3-.2-.4-.3-.2-.3-.4-.6-.4-.8l-.1-.3v-.1l1 .1zM410.3 82.7s-.1.2-.2.3c-.1.2-.3.4-.5.6-.2.2-.4.3-.6.4-.2.1-.3.1-.3.1s.4-.4.5-.8c.1-.2.1-.4.1-.6v-.3l1 .3z"/><path class="st5" d="M339 55.8v-33.8h17.6v7.6M339 89.6v-17"/><path class="st1" d="M334.6 77.9c2 0 3.6-1.6 3.6-3.6 0-.7-.2-1.3-.5-1.8h.5c3.5 0 6.4-2.9 6.4-6.4 0-2.7-1.7-5.1-4.2-6 .2-.4.4-.9.4-1.5 0-1.7-1.4-3.1-3.1-3.1-.6 0-1.1.1-1.5.4v-.4c0-3-2.5-5.5-5.5-5.5s-5.5 2.5-5.5 5.5c0 .5.1 1.1.2 1.6h-.1c-1.9 0-3.5 1.6-3.5 3.5 0 1.6 1.1 3 2.5 3.4-.4.8-.6 1.6-.6 2.6 0 .8.2 1.6.5 2.3-.5.8-.7 1.7-.7 2.7 0 2.9 2.4 5.3 5.3 5.3 1 0 1.9-.3 2.6-.7.3.5.7.9 1.3 1.2M336 89.9c-2.2-11.4-1.3-22.5-1.3-22.5M332.1 68.5s1.8 9-1.2 21.4"/><path class="st2" d="M330.2 69.1l.6-.2c.2-.1.4-.2.5-.3.2-.1.3-.2.4-.4l.4-.4c.1-.1.2-.3.3-.5l.3-.5c.1-.2.1-.4.2-.5.1-.2.1-.4.2-.5l.5-1.3.4 1.3c0 .1.1.2.2.3.1.1.1.2.2.4l.3.3.3.3c.1.1.2.2.4.3.1.1.3.2.4.2l.4.2.5.2h-1l-.5-.1c-.2 0-.3-.1-.5-.2l-.5-.3c-.1-.1-.3-.2-.4-.4-.1-.1-.3-.3-.4-.5-.1-.2-.2-.3-.3-.6h.9l-.2.6-.3.6-.4.6c-.1.2-.3.4-.5.5-.2.1-.3.3-.6.4l-.6.3c-.2 0-.4.1-.7.1-.1.2-.3.2-.5.1zM324.3 67.4s0 .2.1.4c0 .3.1.6.2.9l.2.5.3.4c.2.2.4.3.4.3l-.4-.2-.4-.3-.4-.4c-.3-.3-.5-.6-.6-.9-.1-.3-.2-.5-.2-.4l.8-.3zM336.6 54.6s0 .2-.1.5l-.3 1c-.1.2-.2.4-.3.5l-.3.4-.3.3.2-.4c.1-.1.1-.3.1-.4.1-.2.1-.3.1-.5v-.9c0-.3-.1-.4-.1-.4l1-.1zM338.9 72.9s-.2 0-.5-.1l-1-.3-.5-.3-.3-.4c-.1-.3-.1-.4-.1-.4s.1.2.2.3c.1.1.2.2.4.2.1.1.3.1.5.1h.9c.2 0 .4-.1.4-.1v1z"/><path class="st1" d="M583.5 66.9c12.5.6 25.6 1.6 45.1-.9M472 62c22.8-2 27.8-3.5 51.5-2.9 15.3.4 27.4 3 39.2 5M323.8 74c-29.3 1.2-43-11.8-99-2.6-51.8 8.5-88.4.7-88.4.7-63.3-13.1-134.4 5.8-134.4 5.8"/></svg>