<svg xmlns="http://www.w3.org/2000/svg" viewBox="0 0 574.5 307.1" enable-background="new 0 0 574.5 307.1"><style type="text/css">.st0{opacity:0.22;fill:#B04939;} .st1{fill:#FFFFFF;stroke:#333433;stroke-miterlimit:10;} .st2{fill:#333433;} .st3{fill:#C1503E;stroke:#333433;stroke-width:0.25;stroke-linecap:round;stroke-linejoin:round;stroke-miterlimit:10;} .st4{fill:none;stroke:#333433;stroke-linecap:round;stroke-linejoin:round;stroke-miterlimit:10;} .st5{fill:none;stroke:#333433;stroke-width:0.75;stroke-linecap:round;stroke-linejoin:round;stroke-miterlimit:10;} .st6{fill:#FFFFFF;stroke:#333433;stroke-width:0.75;stroke-linecap:round;stroke-linejoin:round;stroke-miterlimit:10;} .st7{fill:none;stroke:#020202;stroke-width:0.5;stroke-linecap:round;stroke-linejoin:round;stroke-miterlimit:10;} .st8{fill:none;stroke:#020202;stroke-width:0.1;stroke-miterlimit:10;} .st9{fill:none;stroke:#020202;stroke-width:0.1;stroke-linecap:round;stroke-linejoin:round;stroke-miterlimit:10;} .st10{fill:#FFFFFF;} .st11{fill:#FFFFFF;stroke:#333433;stroke-linecap:round;stroke-linejoin:round;stroke-miterlimit:10;} .st12{fill:#FFFFFF;stroke:#333433;stroke-width:0.9141;stroke-linecap:round;stroke-linejoin:round;stroke-miterlimit:10;} .st13{fill:none;stroke:#333433;stroke-width:0.9581;stroke-linecap:round;stroke-linejoin:round;stroke-miterlimit:10;} .st14{fill:#FFFFFF;stroke:#333433;stroke-width:0.8907;stroke-linecap:round;stroke-linejoin:round;stroke-miterlimit:10;} .st15{fill:#B04939;} .st16{fill:none;stroke:#333433;stroke-width:0.5;stroke-linecap:round;stroke-linejoin:round;stroke-miterlimit:10;} .st17{fill:#FFFFFF;stroke:#333433;stroke-width:0.8094;stroke-miterlimit:10;} .st18{fill:none;stroke:#333433;stroke-width:0.8094;stroke-miterlimit:10;} .st19{fill:none;stroke:#333433;stroke-miterlimit:10;} .st20{fill:none;stroke:#333433;stroke-width:0.5052;stroke-miterlimit:10;} .st21{fill:#FFFFFF;stroke:#333433;stroke-width:0.976;stroke-linecap:round;stroke-linejoin:round;stroke-miterlimit:10;} .st22{fill:none;stroke:#333433;stroke-width:0.4935;stroke-linecap:round;stroke-linejoin:round;stroke-miterlimit:10;} .st23{fill:none;stroke:#333433;stroke-width:0.9269;stroke-linecap:round;stroke-linejoin:round;stroke-miterlimit:10;} .st24{fill:#FFFFFF;stroke:#333433;stroke-width:0.9618;stroke-linecap:round;stroke-linejoin:round;stroke-miterlimit:10;} .st25{fill:none;} .st26{fill:#FFFFFF;stroke:#333433;stroke-width:0.988;stroke-linecap:round;stroke-linejoin:round;stroke-miterlimit:10;} .st27{fill:#FFFFFF;stroke:#333433;stroke-width:0.7704;stroke-linecap:round;stroke-linejoin:round;stroke-miterlimit:10;} .st28{fill:none;stroke:#333433;stroke-width:0.7704;stroke-linecap:round;stroke-linejoin:round;stroke-miterlimit:10;} .st29{fill:#FFFFFF;stroke:#333433;stroke-width:0.9552;stroke-linecap:round;stroke-linejoin:round;stroke-miterlimit:10;} .st30{fill:#FFFFFF;stroke:#333433;stroke-width:0.7448;stroke-linecap:round;stroke-linejoin:round;stroke-miterlimit:10;} .st31{fill:none;stroke:#333433;stroke-width:0.7448;stroke-linecap:round;stroke-linejoin:round;stroke-miterlimit:10;} .st32{fill:none;stroke:#333433;stroke-width:0.25;stroke-miterlimit:10;} .st33{fill:none;stroke:#333433;stroke-linejoin:round;stroke-miterlimit:10;} .st34{fill:none;stroke:#333433;stroke-width:0.5;stroke-miterlimit:10;} .st35{fill:none;stroke:#333433;stroke-width:1.0112;stroke-linecap:round;stroke-linejoin:round;stroke-miterlimit:10;} .st36{fill:none;stroke:#333433;stroke-width:0.9271;stroke-linecap:round;stroke-linejoin:round;stroke-miterlimit:10;} .st37{fill:#FFFFFF;stroke:#333433;stroke-width:0.9554;stroke-linecap:round;stroke-linejoin:round;stroke-miterlimit:10;} .st38{fill:#FFFFFF;stroke:#333433;stroke-width:0.9569;stroke-linecap:round;stroke-linejoin:round;stroke-miterlimit:10;} .st39{fill:none;stroke:#333433;stroke-width:0.25;stroke-linecap:round;stroke-linejoin:round;stroke-miterlimit:10;} .st40{fill:#FFFFFF;stroke:#333433;stroke-width:0.9904;stroke-linecap:round;stroke-linejoin:round;stroke-miterlimit:10;} .st41{fill:#FFFFFF;stroke:#333433;stroke-width:0.7918;stroke-linecap:round;stroke-linejoin:round;stroke-miterlimit:10;} .st42{fill:none;stroke:#333433;stroke-width:0.7918;stroke-linecap:round;stroke-linejoin:round;stroke-miterlimit:10;} .st43{fill:#FFFFFF;stroke:#333433;stroke-width:0.5;stroke-linecap:round;stroke-linejoin:round;stroke-miterlimit:10;} .st44{fill:#ED1C24;} .st45{fill:none;stroke:#FFFFFF;stroke-miterlimit:10;} .st46{fill:none;stroke:#FFFFFF;stroke-width:0.5;stroke-miterlimit:10;} .st47{fill:none;stroke:#FFFFFF;stroke-width:1.15;stroke-linecap:round;stroke-linejoin:round;stroke-miterlimit:10;} .st48{fill:none;stroke:#FFFFFF;stroke-width:1.15;stroke-miterlimit:10;} .st49{fill:none;stroke:#FFFFFF;stroke-width:0.8282;stroke-miterlimit:10;} .st50{fill:none;stroke:#FFFFFF;stroke-linecap:round;stroke-linejoin:round;stroke-miterlimit:10;} .st51{fill:none;stroke:#FFFFFF;stroke-linejoin:round;stroke-miterlimit:10;} .st52{fill:none;stroke:#FFFFFF;stroke-width:0.5;stroke-linejoin:round;stroke-miterlimit:10;} .st53{fill:#C1503E;} .st54{fill:#C1503E;stroke:#333433;stroke-width:0.75;stroke-linecap:round;stroke-linejoin:round;stroke-miterlimit:10;}</style><g id="Background"><path class="st0" d="M313.6 322.7l294.6-57.7-295.2 54.7 271-129.2-272.3 126.5 230.4-192.6-232.3 190.2 175.2-243.8-177.7 242 109.1-279.7-111.9 278.6 36.1-298.1-39.2 297.7-39.1-297.7 36.1 298.1-111.9-278.6 109.1 279.7-177.8-242 175.3 243.8-232.3-190.2 230.3 192.6-272.3-126.5 271 129.2-295.2-54.7 294.7 57.7M289.5 325.8h23.9M308.6 130.3M310.8 128.3M312.4 125.7"/></g><g id="Linework"><path class="st1" d="M534.6 140.6c-.3-2.9-.7-7.4-1.5-11.6-1.5-8.2 1.4-3.8.9-14.2s-3.5-5.2-3.8-10.5-6.4-5-6.6 0 3.6 3.5-.1 8.2c-3.7 4.7-3 10.6-2.4 14.3.9 5.7.3 9.8-.7 13.8h14.2z"/><path class="st2" d="M527.3 100.6c.6.2 1 1 1.1 1.8 0 .9-.1 1.9-.2 3-.1.6-.1 1.2.1 1.8.2.6.5 1.2.8 1.8.6 1.2 1.4 2.3 1.7 3.6.4 1.3.2 2.7-.3 4.1-.5 1.4-1.3 2.7-1.7 4.2-.5 1.5-.7 3.1-.5 4.6.1 1.5.5 3 .9 4.3.3 1.4.6 2.7.7 4 .1 1.3-.2 2.4-.7 3.5-.3.9-.6 1.7-.8 2.5h.3c.2-.7.5-1.5.9-2.3.5-1 .8-2.3.8-3.6 0-1.3-.3-2.7-.6-4.1-.3-1.4-.7-2.8-.8-4.2-.1-1.4.1-2.9.5-4.3s1.2-2.7 1.7-4.2c.5-1.4.8-3 .3-4.5-.2-.7-.5-1.4-.9-2-.3-.6-.7-1.2-1-1.7-.6-1.1-1.1-2.2-.9-3.3.2-1.1.2-2.2.1-3.1-.1-.5-.2-.9-.4-1.3s-.6-.6-.9-.7c-.7-.2-1.2.1-1.5.2-.3.1-.5.2-.5.2s.2-.1.5-.2c.2-.1.7-.2 1.3-.1zM524 131.6l.3.7c.3 1.2.3 2.8.3 4.5 0 1.2-.1 2.3-.1 3.4.2-.1.4-.1.6-.1.1-1 .2-2.1.3-3.2 0-1.7-.1-3.4-.6-4.6-.1-.3-.3-.6-.5-.8-.2-.2-.4-.3-.6-.4h-.5.2c.1 0 .2 0 .4.1-.1.1 0 .2.2.4z"/><path class="st1" d="M515.8 176s-3.5-2.2-4.8-5.8h32.5c-1.3 3.7-4.3 5.3-4.3 5.3"/><path class="st3" d="M492.2 382.8h46v21.2h-46z"/><path class="st4" d="M481.1 363.4h3.7v36h-43.1v-36h4.7M449.3 363.4h29.1"/><path class="st4" d="M446.5 359.2h2.8v6.8h-2.8zM478.4 359.2h2.8v6.8h-2.8z"/><path class="st5" d="M458.1 368.4h11.3v3.4h-11.3zM448.8 374.3h11.3v3.4h-11.3zM467.1 374.3h11.3v3.4h-11.3zM467.1 388.5h11.3v5.1h-11.3zM448.8 380.2h15v5.1h-15zM448.8 388.5h15v5.1h-15z"/><path class="st6" d="M453.4 377.7v2.5M453.4 385.3v3.2"/><path class="st5" d="M453.4 374.3c0-2.3 2.1-4.2 4.8-4.2M474.3 374.3c0-2.3-2.1-4.2-4.8-4.2"/><path class="st6" d="M467.6 380.5h10.7M467.6 382.3h8.4M467.6 385.8h8.4M467.6 384.1h9.8"/><path class="st5" d="M108.9 360.2h42.7v27.6h-42.7z"/><path class="st7" d="M134.9 363c-11.9 0-21.5 9.6-21.5 21.5"/><path class="st8" d="M134.9 376.4h13.5v8.2h-13.5z"/><path class="st7" d="M148.4 376.4c0-7.4-6-13.4-13.4-13.4M140.2 384.6c4.5 0 8.2-3.7 8.2-8.2M134.9 379.4c0 2.9 2.3 5.2 5.2 5.2M137.9 376.4c-1.6 0-3 1.3-3 3"/><path class="st9" d="M113.4 363h21.5v21.6h-21.5zM134.9 363h13.5v13.4h-13.5zM134.9 379.4h5.3v5.2h-5.3zM134.9 376.4h3v3h-3zM137.9 376.4h2.3v2.3h-2.3z"/><path class="st7" d="M140.2 378.7c0-1.3-1-2.3-2.3-2.3"/><path class="st1" d="M15.4 289.8c-.4-.8-.7-1.8-.7-2.8 0-3.3 2.7-6 6-6 1.1 0 2.1.3 2.9.8v-.8c0-5.8 4.7-10.5 10.5-10.5s10.5 4.7 10.5 10.5c0 1-.2 2.1-.4 3h.2c3.7 0 6.7 3 6.7 6.7 0 3.1-2.1 5.7-4.9 6.5.7 1.5 1.1 3.2 1.1 4.9 0 1.6-.3 3.1-.9 4.5.9 1.5 1.4 3.3 1.4 5.1 0 5.6-4.6 10.2-10.2 10.2-1.8 0-3.6-.5-5.1-1.4-1.2 2-3.4 3.4-5.9 3.4-3.8 0-7-3.1-7-7 0-1.3.4-2.5 1-3.5h-1c-6.8 0-12.2-5.5-12.2-12.2 0-5.2 3.3-9.6 8-11.4z"/><path class="st10" d="M47.1 304.1s-.9 3.7-3.1 4.4"/><path class="st2" d="M47.6 304.3s-.1.4-.4.8c-.2.5-.6 1.1-1 1.7-.2.3-.5.6-.7.8l-.7.6-.6.3c-.1 0-.2.1-.2.1s.1 0 .2-.1.3-.2.5-.4.4-.4.6-.7c.2-.3.4-.6.5-.9.3-.6.5-1.3.6-1.7.1-.5.2-.8.2-.8l1 .3z"/><path class="st10" d="M23.7 279.6s-.3 2.9 1.6 5.2"/><path class="st2" d="M24.2 279.6s-.1.3-.1.8v.9c0 .3 0 .6.1 1 .1.3.1.7.3 1 .1.3.2.6.3.8.3.4.4.7.4.7s-.2-.3-.6-.7c-.2-.2-.3-.5-.5-.8l-.5-.9-.3-1-.2-.9c-.1-.5-.1-1-.1-.9h1.2z"/><path class="st10" d="M17.1 313.3s4.8.9 5.4-1.5"/><path class="st2" d="M17.2 312.8s.3.1.9.2c.5.1 1.3.2 2 .1.4 0 .7-.1 1.1-.2.2 0 .3-.1.5-.2s.3-.2.4-.2l.3-.3c.1-.1.1-.2.2-.2.1-.1.1-.2.1-.2s0 .1-.1.3c0 .1 0 .2-.1.3l-.2.3c-.1.1-.2.2-.4.3-.1.1-.3.2-.5.3-.3.2-.7.3-1.1.4-1.6.3-3.1.2-3.1.2v-1.1zM127.3 174.4s-1.4 0-4 .1c-2.5.1-6.1.2-10.4.3-4.3.1-9.4.2-14.7.2-5.4 0-11.1.1-16.9.1-5.8 0-11.5-.1-16.9-.1-5.4 0-10.4-.1-14.7-.2-4.3-.1-7.9-.2-10.4-.3-2.5-.1-4-.1-4-.1v-.1l92 .1zM127.3 192.3s-1.4 0-4 .1c-2.5.1-6.1.2-10.4.3-4.3.1-9.4.2-14.7.2-5.4 0-11.1.1-16.9.1-5.8 0-11.5-.1-16.9-.1-5.4 0-10.4-.1-14.7-.2-4.3-.1-7.9-.2-10.4-.3-2.5-.1-4-.1-4-.1v-.1l92 .1z"/><path class="st11" d="M120.7 158.2h6.6v10.2h-6.6z"/><path class="st1" d="M120.7 168.5l-1.6 4.5h9.7l-1.5-4.5z"/><path class="st11" d="M34 173h95.3v137.7h-95.3zM129.3 304.7h-95.3M129.3 307.1h-95.3"/><path class="st10" d="M129.3 306h-95.3"/><path class="st2" d="M129.3 306s-6 .1-14.9.1-20.8.1-32.8.1c-11.9 0-23.8-.1-32.8-.1-8.8 0-14.8-.1-14.8-.1s6-.1 14.9-.1 20.8-.1 32.8-.1c11.9 0 23.8.1 32.8.1 8.9 0 14.8.1 14.8.1z"/><path class="st11" d="M80.4 191h-46.4c-.4-4.7-1-4.2-1-4.2-2.2-.3-1.8-3.2-1.8-3.2h101s.4 2.8-1.8 3.2c0 0-.7-.5-1 4.2h-49z"/><path class="st1" d="M32.3 186.8h98.7"/><path class="st11" d="M58 201.8v16.8h-14.5v-16.8s6.7-1.6 14.5 0z"/><path class="st12" d="M42.8 218.5h15.9v3.2h-15.9z"/><path class="st6" d="M43.5 207.1h14.5M47.9 201.2v16.8M53.5 201.2v16.8"/><path class="st11" d="M88.9 201.8v16.8h-14.5v-16.8s6.8-1.6 14.5 0z"/><path class="st12" d="M73.7 218.5h15.9v3.2h-15.9z"/><path class="st6" d="M74.4 207.1h14.5M78.9 201.2v16.8M84.5 201.2v16.8"/><path class="st11" d="M119.9 201.8v16.8h-14.5v-16.8s6.7-1.6 14.5 0z"/><path class="st12" d="M104.7 218.5h15.9v3.2h-15.9z"/><path class="st6" d="M105.4 207.1h14.5M109.9 201.2v16.8M115.5 201.2v16.8"/><path class="st11" d="M58 229.2v26.2h-14.5v-26.2s6.7-1.5 14.5 0z"/><path class="st12" d="M42.8 255.5h15.9v3.2h-15.9z"/><path class="st6" d="M43.5 234.6h14.5M43.5 241.4h14.5M43.5 248.4h14.5M47.9 228.7v26.3M53.5 228.7v26.3"/><path class="st11" d="M88.9 229.2v26.2h-14.5v-26.2s6.8-1.5 14.5 0z"/><path class="st12" d="M73.7 255.5h15.9v3.2h-15.9z"/><path class="st6" d="M74.4 234.6h14.5M74.4 241.4h14.5M74.4 248.4h14.5M78.9 228.7v26.3M84.5 228.7v26.3"/><path class="st11" d="M119.9 229.2v26.2h-14.5v-26.2s6.7-1.5 14.5 0z"/><path class="st12" d="M104.7 255.5h15.9v3.2h-15.9z"/><path class="st6" d="M105.4 234.6h14.5M105.4 241.4h14.5M105.4 248.4h14.5M109.9 228.7v26.3M115.5 228.7v26.3"/><path class="st11" d="M58 270.6v26.2h-14.5v-26.2s6.7-1.6 14.5 0z"/><path class="st12" d="M42.8 296.8h15.9v3.2h-15.9z"/><path class="st6" d="M43.5 276h14.5M43.5 282.7h14.5M43.5 289.7h14.5M47.9 270.1v26.2M53.5 270.1v26.2"/><path class="st11" d="M88.9 270.6v26.2h-14.5v-26.2s6.8-1.6 14.5 0z"/><path class="st12" d="M73.7 296.8h15.9v3.2h-15.9z"/><path class="st6" d="M74.4 276h14.5M74.4 282.7h14.5M74.4 289.7h14.5M78.9 270.1v26.2M84.5 270.1v26.2"/><path class="st11" d="M119.9 270.6v26.2h-14.5v-26.2s6.7-1.6 14.5 0z"/><path class="st12" d="M104.7 296.8h15.9v3.2h-15.9z"/><path class="st6" d="M105.4 276h14.5M105.4 282.7h14.5M105.4 289.7h14.5M109.9 270.1v26.2M115.5 270.1v26.2"/><path class="st13" d="M61.1 271.8c0-5.2-4.7-9.4-10.4-9.4s-10.4 4.2-10.4 9.4v32.4h20.9v-32.4h-.1zM92.1 271.8c0-5.2-4.7-9.4-10.4-9.4-5.8 0-10.4 4.2-10.4 9.4v32.4h20.9v-32.4h-.1zM123 271.8c0-5.2-4.7-9.4-10.4-9.4-5.8 0-10.4 4.2-10.4 9.4v32.4h20.8v-32.4z"/><path class="st14" d="M33.6 271.2h6.8v3.2h-6.8zM123 271.2h6.8v3.2h-6.8zM92.1 271.2h10.1v3.2h-10.1zM61.2 271.2h10.1v3.2h-10.1z"/><path class="st10" d="M42.8 301.5h15.8"/><path class="st2" d="M42.8 301.5s1-.1 2.5-.1c.7 0 1.6-.1 2.5-.1h5.8c.9 0 1.8.1 2.5.1 1.5.1 2.5.1 2.5.1s-1 .1-2.5.1c-.7 0-1.6.1-2.5.1h-5.8c-.9 0-1.8-.1-2.5-.1-1.5 0-2.5-.1-2.5-.1z"/><path class="st10" d="M73.7 301.5h15.9"/><path class="st2" d="M73.7 301.5s1-.1 2.5-.1c.7 0 1.6-.1 2.5-.1h5.8c.9 0 1.8.1 2.5.1 1.5.1 2.5.1 2.5.1s-1 .1-2.5.1c-.7 0-1.6.1-2.5.1h-5.8c-.9 0-1.8-.1-2.5-.1-1.5 0-2.5-.1-2.5-.1z"/><path class="st10" d="M104.7 301.5h15.8"/><path class="st2" d="M104.7 301.5s1-.1 2.5-.1c.7 0 1.6-.1 2.5-.1h5.8c.9 0 1.8.1 2.5.1 1.5.1 2.5.1 2.5.1s-1 .1-2.5.1c-.7 0-1.6.1-2.5.1h-5.8c-.9 0-1.8-.1-2.5-.1-1.5 0-2.5-.1-2.5-.1z"/><path class="st15" d="M43.5 223.1h14.5"/><path class="st2" d="M43.5 223.1s.9-.1 2.3-.1c1.4-.1 3.2-.1 5-.1 1.8 0 3.6 0 5 .1s2.3.1 2.3.1-.9.1-2.3.1c-1.4.1-3.2.1-5 .1-1.8 0-3.6-.1-5-.1s-2.3-.1-2.3-.1z"/><path class="st15" d="M74.4 223.1h14.5"/><path class="st2" d="M74.4 223.1s.9-.1 2.3-.1c1.4-.1 3.2-.1 5-.1 1.8 0 3.6 0 5 .1s2.3.1 2.3.1-.9.1-2.3.1c-1.4.1-3.2.1-5 .1-1.8 0-3.6-.1-5-.1s-2.3-.1-2.3-.1z"/><path class="st15" d="M105.4 223.1h14.5"/><path class="st2" d="M105.4 223.1s.9-.1 2.3-.1c1.4-.1 3.2-.1 5-.1 1.8 0 3.6 0 5 .1s2.3.1 2.3.1-.9.1-2.3.1c-1.4.1-3.2.1-5 .1-1.8 0-3.6-.1-5-.1s-2.3-.1-2.3-.1z"/><path class="st15" d="M43.5 260.1h14.5"/><path class="st2" d="M43.5 260.1s.9-.1 2.3-.1c1.4-.1 3.2-.1 5-.1 1.8 0 3.6 0 5 .1s2.3.1 2.3.1-.9.1-2.3.1c-1.4.1-3.2.1-5 .1-1.8 0-3.6-.1-5-.1s-2.3-.1-2.3-.1z"/><path class="st15" d="M74.4 260.1h14.5"/><path class="st2" d="M74.4 260.1s.9-.1 2.3-.1c1.4-.1 3.2-.1 5-.1 1.8 0 3.6 0 5 .1s2.3.1 2.3.1-.9.1-2.3.1c-1.4.1-3.2.1-5 .1-1.8 0-3.6-.1-5-.1s-2.3-.1-2.3-.1z"/><path class="st15" d="M105.4 259.6h14.5"/><path class="st2" d="M105.4 259.6s.9-.1 2.3-.1c1.4-.1 3.2-.1 5-.1 1.8 0 3.6 0 5 .1s2.3.1 2.3.1-.9.1-2.3.1c-1.4.1-3.2.1-5 .1-1.8 0-3.6-.1-5-.1s-2.3-.1-2.3-.1z"/><path class="st10" d="M185.5 276.8v21.099999999999998s6.3-8.9 16.3-9c10.1 0 18.3 7 19.8 14.5l.3.7v6.1h10.4v-8.8s2.8-14.1 20-14.8c0 0 15.5.9 19 15v8.6h9.6v-11.6s-.6 2.3 1.1-1.6c1.6-3.9 7.9-11.9 18.7-12 10.8-.1 18.8 9.9 19.2 15.8v9.4h9.7v-9.5s4.3-13.6 19.9-14.1c0 0 14.8 0 18.8 14.6v9.6h10.7v-7.4s4.7-14.4 20.4-14.3c0 0 15.9 1.2 18.6 15.6v7.6h.8v-36.4l-112.3-2.4-121 3.3z"/><path class="st11" d="M415.9 278.9l-114.3-3.9c-.8-.1-1.5-.1-2.3 0l-113.8 3.9v-5l113.8-3.9c.8-.1 1.5-.1 2.3 0l114.3 3.9v5z"/><path class="st16" d="M415.9 275.2l-114.3-3.9c-.8-.1-1.5-.1-2.3 0l-113.8 3.9"/><path class="st6" d="M309.6 275.8h-17.7v-6.2l7.8-2.8c.7-.1 1.3-.1 2 0l7.8 2.8v6.2z"/><circle class="st11" cx="300.6" cy="264.5" r="1.8"/><path class="st4" d="M273.6 299.1c.8-1.9 1-3.7 1-5.7v-17.6h3.4v17.6c0 2.3.6 4.9 1.2 5.7"/><circle class="st11" cx="276.6" cy="266.1" r="1.3"/><path class="st6" d="M280.2 269.9v6.2l-7.4.1v-6.3l3.8-2.5z"/><path class="st11" d="M273.6 269.9h5.7"/><path class="st4" d="M273.6 299.1h5.7v3h-5.7zM274.1 302.1h4.7v8h-4.7z"/><path class="st2" d="M273.5 276.4l-.2 20.5-.2-20.5c0-.1.1-.3.2-.3s.2.1.2.3zM279.6 276.4l-.2 20.5-.2-20.5c0-.1.1-.3.2-.3s.2.1.2.3z"/><path class="st4" d="M224.4 301.1c.8-1.9 1-3.7 1-5.7v-17.6h3.4v17.6c0 2.3.6 4.9 1.2 5.7"/><circle class="st11" cx="227.5" cy="268.1" r="1.3"/><path class="st6" d="M231 271.9v6.2l-7.4.1v-6.3l3.8-2.5z"/><path class="st11" d="M224.4 271.9h5.7"/><path class="st4" d="M224.4 301.1h5.7v3h-5.7zM224.9 304.1h4.7v8h-4.7z"/><path class="st2" d="M224.3 278.4l-.2 20.5-.2-20.5c0-.1.1-.3.2-.3s.2.1.2.3zM230.5 278.4l-.2 20.5-.2-20.5c0-.1.1-.3.2-.3s.2.1.2.3z"/><path class="st4" d="M377.2 301.1c-.8-1.9-1-3.7-1-5.7v-17.6h-3.4v17.6c0 2.3-.6 4.9-1.2 5.7"/><circle class="st11" cx="374.1" cy="268.1" r="1.3"/><path class="st6" d="M370.6 271.9v6.2l7.4.1v-6.3l-3.9-2.5z"/><path class="st11" d="M377.2 271.9h-5.7"/><path class="st4" d="M371.5 301.1h5.7v3h-5.7zM372 304.1h4.7v8h-4.7z"/><path class="st2" d="M377.7 278.4l-.2 20.5-.2-20.5c0-.1.1-.3.2-.3s.2.1.2.3zM371.6 278.4l-.2 20.5-.2-20.5c0-.1.1-.3.2-.3s.2.1.2.3z"/><path class="st4" d="M327.6 299.1c-.8-1.9-1-3.7-1-5.7v-17.6h-3.4v17.6c0 2.3-.6 4.9-1.2 5.7"/><circle class="st11" cx="324.6" cy="266.1" r="1.3"/><path class="st6" d="M321 269.9v6.2l7.4.1v-6.3l-3.8-2.5z"/><path class="st11" d="M327.6 269.9h-5.6"/><path class="st4" d="M322 299.1h5.7v3h-5.7zM322.4 302.1h4.7v8h-4.7z"/><path class="st2" d="M328.2 276.4l-.2 20.5-.2-20.5c0-.1.1-.3.2-.3s.2.1.2.3zM322.1 276.4l-.2 20.5-.2-20.5c0-.1.1-.3.2-.3 0 0 .2.1.2.3z"/><path class="st4" d="M297.7 275.9h5.5v5.8h-5.5z"/><path class="st2" d="M293.5 271.2c2.3-1.3 4.7-2.4 7.1-3.3h.4c2.4 1 4.7 2 6.9 3.3-2.5-.6-4.9-1.5-7.3-2.4h.4c-2.5.9-5 1.8-7.5 2.4z"/><path class="st4" d="M302.7 272.9c0-1.2-1-2.2-2.2-2.2s-2.2 1-2.2 2.2v.9h4.4v-.9zM368.7 300.8c0-9.7-9.8-17.5-19.5-17.5s-19.5 7.8-19.5 17.5v7.3h38.8l.2-7.3z"/><path class="st2" d="M368.7 303.9s0-.2-.1-.6c-.1-.4-.1-1-.3-1.8-.1-.4-.1-.8-.3-1.3-.2-.4-.3-.9-.5-1.4-.2-.5-.5-1-.7-1.6-.3-.5-.6-1.1-1-1.6-.8-1.1-1.7-2.2-2.8-3.2-1.1-1.1-2.4-2-3.9-2.8-1.4-.8-3-1.5-4.7-2-1.7-.5-3.5-.7-5.2-.7-1.8 0-3.5.3-5.2.7-1.7.5-3.3 1.1-4.7 2-1.4.8-2.8 1.8-3.9 2.8-1.2 1-2.1 2.1-2.8 3.2-.4.6-.7 1.1-1 1.6-.3.6-.5 1.1-.7 1.6-.2.5-.3 1-.5 1.4-.2.4-.2.9-.3 1.3-.2.8-.2 1.4-.3 1.8 0 .4-.1.6-.1.6v-.6c0-.4 0-1.1.1-1.8.1-.4.1-.8.2-1.3l.4-1.5c.2-.5.4-1.1.7-1.6.3-.5.6-1.1 1-1.7.8-1.1 1.7-2.3 2.8-3.4 1.1-1.1 2.5-2.1 3.9-3 1.5-.9 3.1-1.6 4.8-2.1 1.7-.5 3.6-.8 5.4-.8 1.9 0 3.7.3 5.4.8 1.7.5 3.4 1.2 4.8 2.1 1.5.9 2.8 1.9 3.9 3 1.2 1.1 2 2.3 2.8 3.4.4.6.7 1.2 1 1.7.2.6.5 1.1.7 1.6.2.5.3 1 .4 1.5.1.5.2.9.2 1.3.2.8.1 1.4.1 1.8.4.4.4.6.4.6zM346.5 280.8s-.3 0-.9.1c-.3 0-.6.1-1.1.1-.4 0-.8.2-1.3.3-.5.1-1 .2-1.6.4-.5.2-1.1.4-1.7.6-.6.2-1.2.5-1.8.8-.6.3-1.2.6-1.7 1l-1.6 1.1-.8.6-.7.6c-.5.4-.9.9-1.3 1.3-.4.5-.7.9-1 1.3-1.2 1.6-1.7 2.9-1.7 2.9s.4-1.3 1.6-3c.3-.4.6-.9 1-1.3s.8-.9 1.2-1.4l.7-.7c.2-.2.5-.4.8-.7.5-.5 1.1-.8 1.6-1.2.6-.4 1.2-.7 1.7-1.1l1.8-.9c.6-.2 1.2-.4 1.7-.7.6-.2 1.1-.3 1.6-.5.5-.1 1-.3 1.4-.3.4-.1.8-.1 1-.2.6-.1.9-.2.9-.2.3 0 .5.1.6.4.1.4-.1.7-.4.7zM332.4 291.6l-1.7-1.7 2.3.8c.3.1.4.4.3.7-.1.3-.4.4-.7.3 0 0-.1-.1-.2-.1zM337.3 287l-1.3-2.8 2.1 2.2c.2.2.2.5 0 .7-.2.2-.5.2-.7 0-.1 0-.1-.1-.1-.1zM342.8 284.2l-.3-2.8 1.2 2.6c.1.3 0 .6-.2.7s-.6 0-.7-.2v-.3zM352.4 279.7s.3.1.9.2c.3.1.6.1 1.1.2.4.1.9.2 1.4.3l1.6.5c.6.2 1.1.4 1.7.7l1.8.9c.6.4 1.2.7 1.7 1.1l1.6 1.2c.5.4 1 .9 1.4 1.4.5.4.8.9 1.2 1.4.3.5.7.9 1 1.3 1.1 1.7 1.6 3 1.6 3s-.5-1.3-1.7-2.9c-.3-.4-.7-.8-1-1.3-.4-.4-.8-.9-1.3-1.3-.4-.4-1-.9-1.5-1.3s-1.1-.8-1.6-1.1c-.6-.4-1.2-.7-1.7-1l-1.8-.8c-.6-.2-1.2-.4-1.7-.6-.5-.2-1.1-.3-1.6-.4-.5-.1-.9-.2-1.3-.3-.4-.1-.8-.1-1.1-.2-.6-.1-.9-.1-.9-.1-.3 0-.5-.3-.4-.6 0-.2.3-.3.6-.3zM365.6 290.9l2.6-1-2.1 1.9c-.2.2-.5.2-.7 0-.2-.2-.2-.5 0-.7l.2-.2zM360.7 286.4l2.1-2.2-1.3 2.8c-.1.3-.4.4-.7.2-.3-.1-.4-.4-.2-.7.1 0 .1-.1.1-.1zM355.1 283.9l1.2-2.6-.3 2.8c0 .3-.3.5-.6.5s-.5-.3-.5-.6c.2.1.2 0 .2-.1zM330.4 299.5s.1-.8.6-2.2c.5-1.3 1.2-3.3 2.7-5.3 1.4-2 3.6-4 6.4-5.4 2.8-1.4 6.1-2 9.4-2 1.6 0 3.3.2 4.9.6 1.6.4 3.1 1 4.4 1.8 2.7 1.5 4.8 3.6 6.2 5.6 1.5 2 2.3 3.9 2.7 5.2.5 1.4.5 2.2.5 2.2s-.1-.8-.6-2.1-1.4-3.2-2.9-5.1c-1.5-1.9-3.5-3.9-6.2-5.4-1.3-.7-2.8-1.3-4.3-1.7-1.5-.4-3.1-.6-4.8-.6-3.2 0-6.5.6-9.2 1.9-2.7 1.3-4.9 3.2-6.3 5.2-1.5 1.9-2.3 3.8-2.8 5.1-.5 1.4-.7 2.2-.7 2.2zM352.1 278.4s0 .2.1.4c0 .1.1.3.1.5v.6c0 .3-.1.6-.3.9l-.3.4c-.1.1-.2.2-.4.3-.3.2-.6.4-.9.5l-.5.1-.5.1c-.4 0-.6 0-1-.1s-.7-.2-1-.4c-.3-.2-.5-.4-.7-.7-.2-.3-.3-.5-.4-.8-.1-.3 0-.5 0-.7 0-.2.1-.4.1-.5.1-.3.1-.4.1-.4s0 .2.1.4c0 .1.1.3.1.5.1.2.1.4.2.5.1.2.2.3.4.5l.6.4c.2.1.5.2.7.2.2.1.6.1.8.1h.4l.4-.1c.2-.1.5-.1.7-.3l.3-.2.3-.2c.2-.2.2-.3.3-.5l.1-.3s0-.2.1-.3c0-.2.1-.4.1-.5v-.4z"/><path class="st4" d="M349.3 281.7v1.3"/><path class="st4" d="M418.1 303.2c0-9.7-9.8-17.5-19.5-17.5s-19.5 7.8-19.5 17.5v7.3h38.8l.2-7.3z"/><path class="st2" d="M418.1 306.4s0-.2-.1-.6c-.1-.4-.1-1-.3-1.8-.1-.4-.1-.8-.3-1.3-.2-.4-.3-.9-.5-1.4-.2-.5-.5-1-.7-1.6-.3-.5-.6-1.1-1-1.6-.8-1.1-1.7-2.2-2.8-3.2-1.1-1.1-2.4-2-3.9-2.8-1.4-.8-3-1.5-4.7-2-1.7-.5-3.5-.7-5.2-.7-1.8 0-3.5.3-5.2.7-1.7.5-3.3 1.1-4.7 2-1.4.8-2.8 1.8-3.9 2.8-1.2 1-2.1 2.1-2.8 3.2-.4.6-.7 1.1-1 1.6-.3.6-.5 1.1-.7 1.6-.2.5-.3 1-.5 1.4-.2.4-.2.9-.3 1.3-.2.8-.2 1.4-.3 1.8 0 .4-.1.6-.1.6v-.6c0-.4 0-1.1.1-1.8.1-.4.1-.8.2-1.3l.4-1.5c.2-.5.4-1.1.7-1.6.3-.5.6-1.1 1-1.7.8-1.1 1.7-2.3 2.8-3.4 1.1-1.1 2.5-2.1 3.9-3 1.5-.9 3.1-1.6 4.8-2.1 1.7-.5 3.6-.8 5.4-.8 1.9 0 3.7.3 5.4.8 1.7.5 3.4 1.2 4.8 2.1 1.5.9 2.8 1.9 3.9 3 1.2 1.1 2 2.3 2.8 3.4.4.6.7 1.2 1 1.7.2.6.5 1.1.7 1.6.2.5.3 1 .4 1.5.1.5.2.9.2 1.3.2.8.1 1.4.1 1.8.4.4.4.6.4.6zM395.9 283.3s-.3 0-.9.1c-.3 0-.6.1-1.1.1-.4 0-.8.2-1.3.3-.5.1-1 .2-1.6.4-.5.2-1.1.4-1.7.6-.6.2-1.2.5-1.8.8-.6.3-1.2.6-1.7 1l-1.6 1.1-.8.6-.7.6c-.5.4-.9.9-1.3 1.3-.4.5-.7.9-1 1.3-1.2 1.6-1.7 2.9-1.7 2.9s.4-1.3 1.6-3c.3-.4.6-.9 1-1.3s.8-.9 1.2-1.4l.7-.7c.2-.2.5-.4.8-.7.5-.5 1.1-.8 1.6-1.2.6-.4 1.2-.7 1.7-1.1l1.8-.9c.6-.2 1.2-.4 1.7-.7.6-.2 1.1-.3 1.6-.5.5-.1 1-.3 1.4-.3.4-.1.8-.1 1-.2.6-.1.9-.2.9-.2.3 0 .5.1.6.4.1.3-.1.6-.4.7zM381.8 294l-1.7-1.7 2.3.8c.3.1.4.4.3.7-.1.3-.4.4-.7.3-.1 0-.1 0-.2-.1zM386.7 289.4l-1.3-2.8 2.1 2.2c.2.2.2.5 0 .7-.2.2-.5.2-.7 0-.1 0-.1 0-.1-.1zM392.1 286.7l-.3-2.8 1.2 2.6c.1.3 0 .6-.2.7-.3.1-.6 0-.7-.2v-.3zM401.8 282.1s.3.1.9.2c.3.1.6.1 1.1.2.4.1.9.2 1.4.3l1.6.5c.6.2 1.1.4 1.7.7l1.8.9c.6.4 1.2.7 1.7 1.1l1.6 1.2c.5.4 1 .9 1.4 1.4.5.4.8.9 1.2 1.4.3.5.7.9 1 1.3 1.1 1.7 1.6 3 1.6 3s-.5-1.3-1.7-2.9c-.3-.4-.7-.8-1-1.3-.4-.4-.8-.9-1.3-1.3-.4-.4-1-.9-1.5-1.3s-1.1-.8-1.6-1.1c-.6-.4-1.2-.7-1.7-1l-1.8-.8c-.6-.2-1.2-.4-1.7-.6-.5-.2-1.1-.3-1.6-.4-.5-.1-.9-.2-1.3-.3-.4-.1-.8-.1-1.1-.2-.6-.1-.9-.1-.9-.1-.3 0-.5-.3-.4-.6 0-.1.3-.3.6-.3zM414.9 293.4l2.6-1-2.1 1.9c-.2.2-.5.2-.7 0s-.2-.5 0-.7c.1-.2.2-.2.2-.2zM410.1 288.8l2.1-2.2-1.3 2.8c-.1.3-.4.4-.7.2-.3-.1-.4-.4-.2-.7 0 0 .1 0 .1-.1zM404.5 286.4l1.2-2.6-.3 2.8c0 .3-.3.5-.6.5s-.5-.3-.5-.6c.2 0 .2-.1.2-.1zM379.8 302s.1-.8.6-2.2c.5-1.3 1.2-3.3 2.7-5.3 1.4-2 3.6-4 6.4-5.4 2.8-1.4 6.1-2 9.4-2 1.6 0 3.3.2 4.9.6 1.6.4 3.1 1 4.4 1.8 2.7 1.5 4.8 3.6 6.2 5.6 1.5 2 2.3 3.9 2.7 5.2.5 1.4.5 2.2.5 2.2s-.1-.8-.6-2.1-1.4-3.2-2.9-5.1c-1.5-1.9-3.5-3.9-6.2-5.4-1.3-.7-2.8-1.3-4.3-1.7-1.5-.4-3.1-.6-4.8-.6-3.2 0-6.5.6-9.2 1.9-2.7 1.3-4.9 3.2-6.3 5.2-1.5 1.9-2.3 3.8-2.8 5.1-.6 1.4-.7 2.2-.7 2.2zM401.5 280.8s0 .2.1.4c0 .1.1.3.1.5v.6c0 .3-.1.6-.3.9l-.3.4c-.1.1-.2.2-.4.3-.3.2-.6.4-.9.5l-.5.1-.5.1c-.4 0-.6 0-1-.1s-.7-.2-1-.4c-.3-.2-.5-.4-.7-.7-.2-.3-.3-.5-.4-.8-.1-.3 0-.5 0-.7 0-.2.1-.4.1-.5.1-.3.1-.4.1-.4s0 .2.1.4c0 .1.1.3.1.5.1.2.1.4.2.5.1.2.2.3.4.5l.6.4c.2.1.5.2.7.2.2.1.6.1.8.1h.4l.4-.1c.2-.1.5-.1.7-.3l.3-.2.3-.2c.2-.2.2-.3.3-.5l.1-.3s0-.2.1-.3c0-.2.1-.4.1-.5v-.4z"/><path class="st4" d="M398.7 284.2v1.2"/><path class="st4" d="M232.4 300.8c0-9.7 9.8-17.5 19.5-17.5s19.5 7.8 19.5 17.5v7.3h-38.8l-.2-7.3z"/><path class="st2" d="M232.4 303.9v-.6c0-.4 0-1 .1-1.8.1-.4.1-.8.2-1.3l.4-1.5c.2-.5.4-1.1.7-1.6.3-.5.6-1.1 1-1.7.8-1.1 1.7-2.3 2.8-3.4 1.1-1.1 2.5-2.1 3.9-3 1.5-.9 3.1-1.6 4.8-2.1 1.7-.5 3.5-.8 5.4-.8 1.8 0 3.7.3 5.4.8 1.7.5 3.4 1.2 4.8 2.1 1.5.9 2.8 1.9 3.9 3 1.2 1.1 2 2.3 2.8 3.4.4.6.7 1.2 1 1.7.2.6.5 1.1.7 1.6.2.5.3 1 .4 1.5.1.5.2.9.2 1.3.2.8.1 1.4.1 1.8v.6s0-.2-.1-.6c-.1-.4-.1-1-.3-1.8-.1-.4-.1-.8-.3-1.3-.2-.4-.3-.9-.5-1.4-.2-.5-.5-1-.7-1.6-.3-.5-.6-1.1-1-1.6-.8-1.1-1.7-2.2-2.8-3.2-1.1-1.1-2.4-2-3.9-2.8-1.4-.8-3-1.5-4.7-2-1.7-.5-3.4-.7-5.2-.7-1.7 0-3.5.3-5.2.7-1.7.5-3.3 1.1-4.7 2-1.4.8-2.8 1.8-3.9 2.8-1.2 1-2.1 2.1-2.8 3.2-.4.6-.7 1.1-1 1.6-.3.6-.5 1.1-.7 1.6-.2.5-.3 1-.5 1.4-.2.4-.2.9-.3 1.3-.2.8-.2 1.4-.3 1.8.3.4.3.6.3.6zM254.7 279.8s.3.1.9.2c.3.1.6.1 1 .2s.9.2 1.4.3c.5.1 1.1.3 1.6.5.6.2 1.1.4 1.7.7l1.8.9c.6.4 1.2.7 1.7 1.1l1.6 1.2c.3.2.5.4.8.7l.7.7c.5.4.8.9 1.2 1.4.3.5.7.9 1 1.3 1.1 1.7 1.6 3 1.6 3s-.5-1.3-1.7-2.9c-.3-.4-.6-.8-1-1.3-.4-.4-.8-.9-1.3-1.3l-.7-.6-.8-.6c-.5-.4-1.1-.8-1.6-1.1-.6-.4-1.2-.6-1.7-1l-1.8-.8c-.6-.2-1.2-.4-1.7-.6-.5-.2-1.1-.3-1.6-.4-.5-.1-.9-.2-1.3-.3-.4-.1-.8-.1-1.1-.1-.6-.1-.9-.1-.9-.1-.3 0-.5-.3-.4-.6 0-.3.3-.5.6-.5zM268.1 290.7l2.3-.8-1.7 1.7c-.2.2-.5.2-.7 0s-.2-.5 0-.7c0-.1 0-.1.1-.2zM263 286.4l2.1-2.2-1.3 2.8c-.1.3-.4.4-.7.2-.3-.1-.4-.4-.2-.7 0 0 0-.1.1-.1zM257.3 283.9l1.2-2.6-.3 2.8c0 .3-.3.5-.6.5s-.5-.3-.5-.6c.2.1.2 0 .2-.1zM248.8 280.7s-.3 0-.9.1c-.3 0-.7.1-1.1.2-.4 0-.9.2-1.3.3-.5.1-1 .2-1.6.4-.5.2-1.1.4-1.7.6l-1.8.8c-.6.3-1.2.6-1.7 1l-1.6 1.1c-.5.4-1 .8-1.5 1.3-.5.4-.9.9-1.3 1.3s-.7.9-1 1.3c-1.2 1.6-1.7 2.9-1.7 2.9s.4-1.3 1.6-3c.3-.4.6-.9 1-1.3s.8-.9 1.2-1.4c.4-.5.9-.9 1.4-1.4.5-.5 1.1-.8 1.6-1.2.6-.4 1.2-.7 1.7-1.1l1.8-.9c.6-.2 1.2-.5 1.7-.7.6-.2 1.1-.3 1.6-.5.5-.1 1-.3 1.4-.3.4-.1.8-.1 1.1-.2.6-.1.9-.2.9-.2.3-.1.5.1.6.4.1.2-.1.4-.4.5zM235 291.8l-2.1-1.9 2.6 1c.3.1.4.4.3.7-.1.3-.4.4-.7.3l-.1-.1zM239.5 287l-1.3-2.8 2.1 2.2c.2.2.2.5 0 .7-.2.2-.5.2-.7 0l-.1-.1zM245 284.2l-.3-2.8 1.2 2.6c.1.3 0 .6-.2.7-.3.1-.6 0-.7-.2v-.3zM270.7 299.5s-.2-.8-.7-2.1c-.5-1.3-1.4-3.2-2.8-5.1-1.5-1.9-3.6-3.9-6.3-5.2-2.7-1.3-6-1.9-9.2-1.9-1.6 0-3.2.2-4.8.6-1.5.4-3 .9-4.3 1.7-2.6 1.5-4.7 3.5-6.2 5.4-1.5 1.9-2.4 3.8-2.9 5.1-.5 1.3-.6 2.1-.6 2.1s.1-.8.5-2.2c.5-1.3 1.3-3.2 2.7-5.2 1.4-2 3.5-4.1 6.2-5.6 1.3-.8 2.8-1.3 4.4-1.8 1.6-.4 3.2-.6 4.9-.6 3.3 0 6.6.6 9.4 2 2.8 1.4 4.9 3.4 6.4 5.4 1.5 2 2.2 3.9 2.7 5.3.4 1.3.6 2.1.6 2.1zM248.9 278.4s0 .2.1.4c0 .1.1.3.1.5 0 .1 0 .2.1.3l.1.3.3.5c.1.1.2.2.3.2l.3.2.7.3.4.1h.4c.2 0 .6 0 .8-.1.2 0 .5-.1.7-.2.2-.1.4-.2.6-.4l.4-.5c.1-.2.1-.4.2-.5 0-.2.1-.4.1-.5.1-.3.1-.4.1-.4s0 .2.1.4c0 .1.1.3.1.5s.1.5 0 .7c-.1.3-.2.5-.4.8-.2.2-.4.5-.7.7-.3.2-.6.3-1 .4-.4.1-.6.1-1 .1l-.5-.1-.5-.1c-.3-.1-.7-.3-.9-.5l-.4-.3c-.1-.1-.2-.2-.3-.4-.2-.2-.3-.6-.3-.9v-.6c0-.2.1-.4.1-.5v-.4z"/><path class="st4" d="M251.8 281.7v1.3"/><path class="st4" d="M281 299.2c0-9.7 9.8-17.5 19.5-17.5s19.5 7.8 19.5 17.5v7.3h-38.8l-.2-7.3z"/><path class="st2" d="M281 302.4v-.6c0-.4 0-1 .1-1.8.1-.4.1-.8.2-1.3l.4-1.5c.2-.5.4-1.1.7-1.6.3-.5.6-1.1 1-1.7.8-1.1 1.7-2.3 2.8-3.4 1.1-1.1 2.5-2.1 3.9-3 1.5-.9 3.1-1.6 4.8-2.1 1.7-.5 3.5-.8 5.4-.8 1.8 0 3.7.3 5.4.8 1.7.5 3.4 1.2 4.8 2.1 1.5.9 2.8 1.9 3.9 3 1.2 1.1 2 2.3 2.8 3.4.4.6.7 1.2 1 1.7.2.6.5 1.1.7 1.6.2.5.3 1 .4 1.5.1.5.2.9.2 1.3.2.8.1 1.4.1 1.8v.6s0-.2-.1-.6c-.1-.4-.1-1-.3-1.8-.1-.4-.1-.8-.3-1.3-.2-.4-.3-.9-.5-1.4-.2-.5-.5-1-.7-1.6-.3-.5-.6-1.1-1-1.6-.8-1.1-1.7-2.2-2.8-3.2-1.1-1.1-2.4-2-3.9-2.8-1.4-.8-3-1.5-4.7-2-1.7-.5-3.4-.7-5.2-.7-1.7 0-3.5.3-5.2.7-1.7.5-3.3 1.1-4.7 2-1.4.8-2.8 1.8-3.9 2.8-1.2 1-2.1 2.1-2.8 3.2-.4.6-.7 1.1-1 1.6-.3.6-.5 1.1-.7 1.6-.2.5-.3 1-.5 1.4-.2.4-.2.9-.3 1.3-.2.8-.2 1.4-.3 1.8.3.3.3.6.3.6zM303.3 278.2s.3.1.9.2c.3.1.6.1 1 .2s.9.2 1.4.3c.5.1 1.1.3 1.6.5.6.2 1.1.4 1.7.7l1.8.9c.6.4 1.2.7 1.7 1.1l1.6 1.2c.3.2.5.4.8.7l.7.7c.5.4.8.9 1.2 1.4.3.5.7.9 1 1.3 1.1 1.7 1.6 3 1.6 3s-.5-1.3-1.7-2.9c-.3-.4-.6-.8-1-1.3-.4-.4-.8-.9-1.3-1.3l-.7-.6-.8-.6c-.5-.4-1.1-.8-1.6-1.1-.6-.4-1.2-.6-1.7-1l-1.8-.8c-.6-.2-1.2-.4-1.7-.6-.5-.2-1.1-.3-1.6-.4-.5-.1-.9-.2-1.3-.3-.4-.1-.8-.1-1.1-.1-.6-.1-.9-.1-.9-.1-.3 0-.5-.3-.4-.6 0-.3.3-.5.6-.5zM316.7 289.1l2.3-.8-1.7 1.7c-.2.2-.5.2-.7 0s-.2-.5 0-.7l.1-.2zM311.6 284.8l2.1-2.2-1.3 2.8c-.1.3-.4.4-.7.2-.3-.1-.4-.4-.2-.7 0 0 0-.1.1-.1zM306 282.3l1.2-2.6-.3 2.8c0 .3-.3.5-.6.5s-.5-.3-.5-.6c.1.1.1 0 .2-.1zM297.5 279.1s-.3 0-.9.1c-.3 0-.7.1-1.1.2-.4 0-.9.2-1.3.3-.5.1-1 .2-1.6.4-.5.2-1.1.4-1.7.6l-1.8.8c-.6.3-1.2.6-1.7 1l-1.6 1.1c-.5.4-1 .8-1.5 1.3-.5.4-.9.9-1.3 1.3s-.7.9-1 1.3c-1.2 1.6-1.7 2.9-1.7 2.9s.4-1.3 1.6-3c.3-.4.6-.9 1-1.3s.8-.9 1.2-1.4c.4-.5.9-.9 1.4-1.4.5-.5 1.1-.8 1.6-1.2.6-.4 1.2-.7 1.7-1.1l1.8-.9c.6-.2 1.2-.5 1.7-.7.6-.2 1.1-.3 1.6-.5.5-.1 1-.3 1.4-.3.4-.1.8-.1 1.1-.2.6-.1.9-.2.9-.2.3-.1.5.1.6.4 0 .2-.1.4-.4.5zM283.6 290.2l-2.1-1.9 2.6 1c.3.1.4.4.3.7-.1.3-.4.4-.7.3l-.1-.1zM288.1 285.4l-1.3-2.8 2.1 2.2c.2.2.2.5 0 .7-.2.2-.5.2-.7 0l-.1-.1zM293.6 282.6l-.3-2.8 1.2 2.6c.1.3 0 .6-.2.7s-.6 0-.7-.2v-.3zM319.3 297.9s-.2-.8-.7-2.1c-.5-1.3-1.4-3.2-2.8-5.1-1.5-1.9-3.6-3.9-6.3-5.2-2.7-1.3-6-1.9-9.2-1.9-1.6 0-3.2.2-4.8.6-1.5.4-3 .9-4.3 1.7-2.6 1.5-4.7 3.5-6.2 5.4-1.5 1.9-2.4 3.8-2.9 5.1-.5 1.3-.6 2.1-.6 2.1s.1-.8.5-2.2c.5-1.3 1.3-3.2 2.7-5.2 1.4-2 3.5-4.1 6.2-5.6 1.3-.8 2.8-1.3 4.4-1.8 1.6-.4 3.2-.6 4.9-.6 3.3 0 6.6.6 9.4 2 2.8 1.4 4.9 3.4 6.4 5.4 1.5 2 2.2 3.9 2.7 5.3.5 1.3.6 2.1.6 2.1z"/><path class="st4" d="M183 303.2c0-9.7 9.8-17.5 19.5-17.5s19.5 7.8 19.5 17.5v7.3h-38.8l-.2-7.3z"/><path class="st2" d="M183 306.4v-.6c0-.4 0-1 .1-1.8.1-.4.1-.8.2-1.3l.4-1.5c.2-.5.4-1.1.7-1.6.3-.5.6-1.1 1-1.7.8-1.1 1.7-2.3 2.8-3.4 1.1-1.1 2.5-2.1 3.9-3 1.5-.9 3.1-1.6 4.8-2.1 1.7-.5 3.5-.8 5.4-.8 1.8 0 3.7.3 5.4.8 1.7.5 3.4 1.2 4.8 2.1 1.5.9 2.8 1.9 3.9 3 1.2 1.1 2 2.3 2.8 3.4.4.6.7 1.2 1 1.7.2.6.5 1.1.7 1.6.2.5.3 1 .4 1.5.1.5.2.9.2 1.3.2.8.1 1.4.1 1.8v.6s0-.2-.1-.6c-.1-.4-.1-1-.3-1.8-.1-.4-.1-.8-.3-1.3-.2-.4-.3-.9-.5-1.4-.2-.5-.5-1-.7-1.6-.3-.5-.6-1.1-1-1.6-.8-1.1-1.7-2.2-2.8-3.2-1.1-1.1-2.4-2-3.9-2.8-1.4-.8-3-1.5-4.7-2-1.7-.5-3.4-.7-5.2-.7-1.7 0-3.5.3-5.2.7-1.7.5-3.3 1.1-4.7 2-1.4.8-2.8 1.8-3.9 2.8-1.2 1-2.1 2.1-2.8 3.2-.4.6-.7 1.1-1 1.6-.3.6-.5 1.1-.7 1.6-.2.5-.3 1-.5 1.4-.2.4-.2.9-.3 1.3-.2.8-.2 1.4-.3 1.8.3.4.3.6.3.6zM205.3 282.3s.3.1.9.2c.3.1.6.1 1 .2s.9.2 1.4.3c.5.1 1.1.3 1.6.5.6.2 1.1.4 1.7.7l1.8.9c.6.4 1.2.7 1.7 1.1l1.6 1.2c.3.2.5.4.8.7l.7.7c.5.4.8.9 1.2 1.4.3.5.7.9 1 1.3 1.1 1.7 1.6 3 1.6 3s-.5-1.3-1.7-2.9c-.3-.4-.6-.8-1-1.3-.4-.4-.8-.9-1.3-1.3l-.7-.6-.8-.6c-.5-.4-1.1-.8-1.6-1.1-.6-.4-1.2-.6-1.7-1l-1.8-.8c-.6-.2-1.2-.4-1.7-.6-.5-.2-1.1-.3-1.6-.4-.5-.1-.9-.2-1.3-.3-.4-.1-.8-.1-1.1-.1-.6-.1-.9-.1-.9-.1-.3 0-.5-.3-.4-.6.1-.4.3-.6.6-.5zM218.7 293.2l2.3-.8-1.7 1.7c-.2.2-.5.2-.7 0-.2-.2-.2-.5 0-.7 0-.2.1-.2.1-.2zM213.6 288.8l2.1-2.2-1.3 2.8c-.1.3-.4.4-.7.2-.3-.1-.4-.4-.2-.7 0 0 .1 0 .1-.1zM208 286.4l1.2-2.6-.3 2.8c0 .3-.3.5-.6.5s-.5-.3-.5-.6c.1 0 .2-.1.2-.1zM199.5 283.1s-.3 0-.9.1c-.3 0-.7.1-1.1.2-.4 0-.9.2-1.3.3-.5.1-1 .2-1.6.4-.5.2-1.1.4-1.7.6l-1.8.8c-.6.3-1.2.6-1.7 1l-1.6 1.1c-.5.4-1 .8-1.5 1.3-.5.4-.9.9-1.3 1.3s-.7.9-1 1.3c-1.2 1.6-1.7 2.9-1.7 2.9s.4-1.3 1.6-3c.3-.4.6-.9 1-1.3s.8-.9 1.2-1.4c.4-.5.9-.9 1.4-1.4.5-.5 1.1-.8 1.6-1.2.6-.4 1.2-.7 1.7-1.1l1.8-.9c.6-.2 1.2-.5 1.7-.7.6-.2 1.1-.3 1.6-.5.5-.1 1-.3 1.4-.3.4-.1.8-.1 1.1-.2.6-.1.9-.2.9-.2.3-.1.5.1.6.4 0 .2-.1.5-.4.5zM185.6 294.2l-2.1-1.9 2.6 1c.3.1.4.4.3.7-.1.3-.4.4-.7.3 0 0-.1 0-.1-.1zM190.1 289.4l-1.3-2.8 2.1 2.2c.2.2.2.5 0 .7-.2.2-.5.2-.7 0l-.1-.1zM195.6 286.7l-.3-2.8 1.2 2.6c.1.3 0 .6-.2.7s-.6 0-.7-.2v-.3zM221.3 302s-.2-.8-.7-2.1c-.5-1.3-1.4-3.2-2.8-5.1-1.5-1.9-3.6-3.9-6.3-5.2-2.7-1.3-6-1.9-9.2-1.9-1.6 0-3.2.2-4.8.6-1.5.4-3 .9-4.3 1.7-2.6 1.5-4.7 3.5-6.2 5.4-1.5 1.9-2.4 3.8-2.9 5.1-.5 1.3-.6 2.1-.6 2.1s.1-.8.5-2.2c.5-1.3 1.3-3.2 2.7-5.2 1.4-2 3.5-4.1 6.2-5.6 1.3-.8 2.8-1.3 4.4-1.8 1.6-.4 3.2-.6 4.9-.6 3.3 0 6.6.6 9.4 2 2.8 1.4 4.9 3.4 6.4 5.4 1.5 2 2.2 3.9 2.7 5.3.5 1.3.6 2.1.6 2.1zM199.6 280.8s0 .2.1.4c0 .1.1.3.1.5 0 .1 0 .2.1.3l.1.3.3.5c.1.1.2.2.3.2l.3.2.7.3.4.1h.4c.2 0 .6 0 .8-.1.2 0 .5-.1.7-.2.2-.1.4-.2.6-.4l.4-.5c.1-.2.1-.4.2-.5 0-.2.1-.4.1-.5.1-.3.1-.4.1-.4s0 .2.1.4c0 .1.1.3.1.5s.1.5 0 .7c-.1.3-.2.5-.4.8-.2.2-.4.5-.7.7-.3.2-.6.3-1 .4-.4.1-.6.1-1 .1l-.5-.1-.5-.1c-.3-.1-.7-.3-.9-.5l-.4-.3c-.1-.1-.2-.2-.3-.4-.2-.2-.3-.6-.3-.9v-.6c0-.2.1-.4.1-.5-.1-.2 0-.4 0-.4z"/><path class="st4" d="M202.4 284.2v1.2"/><circle class="st11" cx="201.8" cy="267.4" r="1.3"/><path class="st6" d="M201.9 268.7s-.1 3.8-2.2 6.3v1.3l4.6-.1v-1.3s-1.9-1.6-2.4-6.2z"/><circle class="st11" cx="398.8" cy="267.4" r="1.3"/><path class="st6" d="M398.8 268.7s.1 3.8 2.2 6.3v1.3l-4.6-.1v-1.3s1.9-1.6 2.4-6.2z"/><circle class="st11" cx="349.3" cy="265.4" r="1.3"/><path class="st6" d="M349.3 266.7s.1 3.8 2.2 6.3v1.3l-4.6-.1v-1.3s1.9-1.6 2.4-6.2z"/><circle class="st11" cx="252" cy="265.4" r="1.3"/><path class="st6" d="M252 266.7s.1 3.8 2.2 6.3v1.3l-4.6-.1v-1.3s1.9-1.6 2.4-6.2z"/><path class="st1" d="M558.1 289.8c.4-.8.7-1.8.7-2.8 0-3.3-2.7-6-6-6-1.1 0-2.1.3-2.9.8v-.8c0-5.8-4.7-10.5-10.5-10.5s-10.5 4.7-10.5 10.5c0 1 .2 2.1.4 3h-.2c-3.7 0-6.7 3-6.7 6.7 0 3.1 2.1 5.7 4.9 6.5-.7 1.5-1.1 3.2-1.1 4.9 0 1.6.3 3.1.9 4.5-.9 1.5-1.4 3.3-1.4 5.1 0 5.6 4.6 10.2 10.2 10.2 1.8 0 3.6-.5 5.1-1.4 1.2 2 3.4 3.4 5.9 3.4 3.8 0 7-3.1 7-7 0-1.3-.4-2.5-1-3.5h1c6.8 0 12.2-5.5 12.2-12.2 0-5.2-3.3-9.6-8-11.4z"/><path class="st10" d="M526.3 304.1s.9 3.7 3.1 4.4"/><path class="st2" d="M526.8 304s0 .3.2.8c.1.5.3 1.1.6 1.7.1.3.3.6.5.9.2.3.4.5.6.7.2.2.4.3.5.4.1.1.2.1.2.1s-.1 0-.2-.1c-.2 0-.3-.1-.6-.3-.2-.1-.5-.3-.7-.6-.2-.2-.5-.5-.7-.8-.4-.6-.8-1.2-1-1.7-.2-.5-.4-.8-.4-.8l1-.3z"/><path class="st10" d="M549.8 279.6s.3 2.9-1.6 5.2"/><path class="st2" d="M550.3 279.5s0 .4-.1.9c0 .3-.1.6-.2.9l-.3 1c-.1.3-.3.7-.5.9-.2.3-.3.6-.5.8-.3.4-.6.7-.6.7s.2-.3.4-.7c.1-.2.2-.5.3-.8.1-.3.2-.6.3-1 .1-.3.1-.7.1-1v-.9c0-.5-.1-.8-.1-.8h1.2z"/><path class="st10" d="M556.4 313.3s-4.8.9-5.4-1.5"/><path class="st2" d="M556.5 313.8s-1.6.2-3.1-.2c-.4-.1-.8-.2-1.1-.4l-.5-.3-.4-.3c-.1-.1-.2-.2-.2-.3-.1-.1-.1-.2-.1-.3 0-.2-.1-.3-.1-.3s0 .1.1.2c0 .1.1.2.2.2.1.1.1.2.3.3.1.1.2.2.4.2.1.1.3.1.5.2.3.1.7.1 1.1.2.7 0 1.5-.1 2-.1.6-.1.9-.2.9-.2v1.1z"/><path class="st1" d="M515.7 175.5l-2 143h27.5l-2-143c.1 0-7.2-2.7-23.5 0z"/><path class="st17" d="M508.5 163.8h37.6v6.3h-37.6z"/><path class="st18" d="M516.6 141.1c11.7-2.3 21.3 0 21.3 0s.7 2.3 0 5-1.4 6.5 0 17.7"/><path class="st17" d="M537.9 163.8h-21.3c1.4-11.2.7-15 0-17.7-.7-2.7 0-5 0-5s9.7-2.3 21.3 0c0 0 .8 1.9.2 4.6-.6 2.7-1.6 5.9-.2 18.1z"/><path class="st18" d="M538.2 145.5s-7.6-2.3-21.9 0"/><path class="st19" d="M527.2 163.8M527.2 153.8M531 163.7v-11.2c0-1.1-.9-1.9-1.9-1.9h-3.6c-1.1 0-1.9.9-1.9 1.9v11.2M524.9 150.6s-.2 13.4 0 13.2"/><path class="st2" d="M537.9 318.4s-.2-17.7-.5-44.2c-.1-13.2-.3-28.7-.4-45.3-.1-8.3-.2-16.8-.2-25.5 0-4.3-.1-8.7-.1-13.1 0-2.2 0-4.4-.1-6.6v-3.3c0-.5 0-1.2-.1-1.5-.1-.2-.2-.3-.4-.4-.2-.1-.3-.1-.6-.1h-.4c-.2 0-.2 0-.3.1-.2.1-.3.2-.4.4l-.1.3v49.7c0 16.6.1 32 .1 45.3v44.2s-.1-17.7-.4-44.2c-.1-13.2-.2-28.7-.2-45.3 0-8.3-.1-16.8-.1-25.5 0-4.3 0-8.7-.1-13.1v-11.1c0-.2.1-.4.1-.5.1-.3.4-.6.7-.8.1-.1.4-.2.5-.1h.4c.2 0 .7 0 1 .2.3.2.6.4.7.8l.1.3v11.399999999999999c0 4.4 0 8.8.1 13.1 0 8.7.1 17.2.1 25.5.1 16.6.2 32 .2 45.3.3 26.4.4 44 .4 44zM532 318.4s-.1-17.7-.2-44.2c0-13.2-.1-28.7-.1-45.3v-48.5c0-.5.1-1.2-.1-1.5-.1-.2-.2-.3-.4-.4-.2-.1-.3-.1-.6-.1h-.4c-.2 0-.2 0-.3.1-.2.1-.3.2-.4.4l-.1.3v11.1c0 4.4 0 8.8-.1 13.1 0 8.7-.1 17.2-.1 25.5-.1 16.6-.2 32-.2 45.3-.2 26.5-.4 44.2-.4 44.2v-44.2c0-13.2.1-28.7.1-45.3v-49.699999999999996c0-.2.1-.4.1-.5.1-.3.4-.6.7-.8.4-.2.7-.2 1-.2.2 0 .7 0 1 .2.3.2.6.4.7.8.1.2.1.4.1.5v49.8c0 16.6-.1 32-.1 45.3-.2 26.5-.2 44.1-.2 44.1zM523.6 318.4s-.1-17.7-.2-44.2c0-13.2-.1-28.7-.1-45.3v-49.8c0-.1 0-.3.1-.5.1-.3.4-.6.7-.8.3-.2.7-.2 1-.2.3 0 .6 0 1 .2.3.2.6.4.7.8.1.2.1.3.1.5v49.7c0 16.6.1 32 .1 45.3v44.2s-.1-17.7-.4-44.2c-.1-13.2-.2-28.7-.2-45.3 0-8.3-.1-16.8-.1-25.5 0-4.3 0-8.7-.1-13.1v-11.1c0-.1 0-.2-.1-.3-.1-.2-.2-.3-.4-.4-.1 0-.1-.1-.3-.1h-.4c-.3 0-.5 0-.6.1-.2.1-.3.2-.4.4l-.1 1.5v48.5c0 16.6-.1 32-.1 45.3-.1 26.7-.2 44.3-.2 44.3zM517.6 318.4s0-17.7.1-44.2c.1-13.2.2-28.7.2-45.3 0-8.3.1-16.8.1-25.5 0-4.3 0-8.7.1-13.1v-11.399999999999999l.1-.3c.1-.3.4-.6.7-.8.3-.2.7-.2 1-.2h.4l.5.1c.3.2.6.4.7.8.1.2.1.3.1.5v11.1c0 4.4 0 8.8-.1 13.1 0 8.7-.1 17.2-.1 25.5-.1 16.6-.2 32-.2 45.3-.2 26.5-.4 44.2-.4 44.2v-44.2c0-13.2.1-28.7.1-45.3v-49.699999999999996c0-.1 0-.2-.1-.3-.1-.2-.2-.3-.4-.4-.1 0-.1-.1-.3-.1h-.4c-.3 0-.5 0-.6.1-.2.1-.3.2-.4.4l-.1 1.5v3.3c0 2.2 0 4.4-.1 6.6 0 4.4-.1 8.8-.1 13.1-.1 8.7-.2 17.2-.2 25.5-.1 16.6-.3 32-.4 45.3.1 26.8-.2 44.4-.2 44.4z"/><path class="st19" d="M543.5 163.7v-5.9c0-.4-.3-.7-.7-.7h-30.3c-.4 0-.7.3-.7.7v5.9"/><path class="st20" d="M540.7 157.2v6.5M536.9 157.2v6.5M533 157.2v6.5M529.2 157.2v6.5M525.3 157.2v6.5M521.4 157.2v6.5M517.6 157.2v6.5M513.7 157.2v6.5"/><path class="st21" d="M517.1 237.5h-135.3l4-28.6h127.3z"/><path class="st2" d="M387 210.6s7.8-.1 19.5-.1 27.2-.1 42.8-.1c15.6 0 31.1.1 42.8.1 11.7.1 19.5.1 19.5.1s-7.8.1-19.5.1-27.2.1-42.8.1c-15.6 0-31.1-.1-42.8-.1-11.7-.1-19.5-.1-19.5-.1z"/><path class="st1" d="M517.1 237.5l-20.9-22h-.2l-21.4 21.8h-4.9l-.5-.5-19.7-22.8c0-.1-.1-.1-.2 0l-20 23.2h-4.6l-21.4-21.8h-.2l-20.9 22-.1-.1c-.1 0-.1.1-.1.1v25.3l1.6 1.8v47.3l131.5-.8h.1v-46.5l1.4-1.5h.1c.1 0 .1-.1.1-.1v.1-8.3-8.5-8.5l.1.1h.2c.1-.2.1-.3 0-.3z"/><path class="st4" d="M382.4 237.4l20.9-22 21.5 21.8h4.7l20-23.3 19.7 22.8.5.5h5l21.4-21.8 20.9 22"/><path class="st2" d="M383.8 237.9c3.1-3.4 6.3-6.8 9.4-10.1l4.8-5 4.8-4.9c.2-.2.5-.2.7 0l4.9 4.9c1.6 1.6 3.3 3.2 4.9 4.9l4.8 5 4.8 5c-1.7-1.5-3.4-3.1-5.1-4.7l-5-4.8-5-4.8-5-4.8h.7l-4.9 4.9c-1.6 1.6-3.2 3.3-4.9 4.9-3.2 3.1-6.5 6.4-9.9 9.5zM467 236.7c-3.1-3.1-6.1-6.4-9.1-9.6l-4.5-4.9-4.5-4.9h.7l-4.4 5c-1.5 1.7-2.9 3.4-4.5 5l-4.5 4.9c-1.5 1.6-3 3.3-4.6 4.9 1.4-1.8 2.8-3.5 4.2-5.2l4.3-5.1c1.4-1.7 2.9-3.4 4.4-5.1l4.4-5.1c.2-.2.5-.2.7-.1l4.4 5 4.4 5c3 3.4 5.8 6.8 8.6 10.2zM402.4 218h1.5v17.5h-1.5zM394.9 235l7.9-7.8-.1-2.3-10.1 10.1h2.3000000000000003zM413.7 234.8l-9.9-9.9-.1 2.3 7.7 7.7c.7-.1 1.5-.1 2.3-.1zM448.8 218.9h1.5v16.3h-1.5zM445.2 235.3l3.9-4.2-.1-2.3-6 6.5h2.2zM439 235.2l10.1-11-.1-2.3-12.1 13.1 2.1.2zM455.7 235.1l-5.8-6.3-.1 2.2 3.7 4.1c.8.1 1.5.1 2.2 0zM443.8 223.4h11.1l1.4 1.1h-13.8c0 .1.3 0 .4 0 .5-.6.4-.6.9-1.1zM461.9 234.9l-12-13-.1 2.3 9.9 10.8c.8-.1 1.5-.1 2.2-.1z"/><path class="st11" d="M403.2 221.5c-.6 0-1-.4-1-1v-5c0-.5.4-1 1-1 .5 0 1 .4 1 1v5c0 .5-.5 1-1 1z"/><circle class="st11" cx="403.2" cy="213.5" r="1"/><path class="st11" d="M402.7 212.5s-1.1-4.6.7-7.9c0 0 1.7 2.2.3 8"/><path class="st11" d="M449.4 219.5c-.6 0-1-.4-1-1v-5c0-.5.4-1 1-1 .5 0 1 .4 1 1v5c0 .5-.5 1-1 1z"/><circle class="st11" cx="449.4" cy="211.5" r="1"/><path class="st11" d="M448.9 210.5s-1.1-5.6.7-8.9c0 0 1.7 3.2.3 9"/><path class="st2" d="M420.7 235.4c-.1-.1-.6-.4-.7-.6l-.3-.3h-32.5c-.5.4-.8.7-1 .9.1.1.7.1.9.1h32.9c.2 0 .7 0 .7-.1zM423.1 237.6c-.1-.1-.7-.4-.8-.6l-.4-.3h-37c-.6.4-.9.7-1.1.9.1.1.8.1 1 .1h37.4l.9-.1zM467.9 237.6h-36.1c-.2 0-.3.2-.4 0 .3-.2.4-.7.8-.9l34.9-.1.8 1"/><path class="st2" d="M385.5 236.2s2.3-.1 5.6-.1c1.7 0 3.7 0 5.8-.1h13.2c2.1 0 4.1.1 5.8.1 3.4.1 5.6.1 5.6.1s-2.3.1-5.6.1c-1.7 0-3.7 0-5.8.1h-13.2c-2.1 0-4.1-.1-5.8-.1-3.4 0-5.6-.1-5.6-.1zM432.6 236.2s2.1-.1 5.3-.1c1.6 0 3.5 0 5.4-.1h12.4c2 0 3.9.1 5.4.1 3.2.1 5.3.1 5.3.1s-2.1.1-5.3.1c-1.6 0-3.5 0-5.4.1h-12.4c-2 0-3.9-.1-5.4-.1-3.2 0-5.3-.1-5.3-.1zM515.6 237.9c-3.4-3.1-6.7-6.3-10-9.6-1.7-1.6-3.3-3.2-4.9-4.9l-4.9-4.9h.7l-5 4.8-5 4.8-5 4.8-5.1 4.7c1.6-1.7 3.2-3.4 4.8-5l4.8-5c1.6-1.7 3.3-3.3 4.9-4.9l4.9-4.9c.2-.2.5-.2.7 0l4.8 4.9 4.8 5c3.3 3.4 6.4 6.8 9.5 10.2zM495.5 218h1.5v17.5h-1.5zM504.5 234.9l-7.9-7.8.1-2.3 10.1 10.2h-.6c-.7-.1-1-.1-1.7-.1zM485.8 234.8l9.9-9.9.1 2.2-7.7 7.7h-2.3z"/><path class="st11" d="M496.2 221.5c.6 0 1-.4 1-1v-5c0-.5-.4-1-1-1-.5 0-1 .4-1 1v5c0 .5.5 1 1 1z"/><circle class="st11" cx="496.2" cy="213.5" r="1"/><path class="st11" d="M496.7 212.5s1.1-4.6-.7-7.9c0 0-1.7 2.2-.3 8"/><path class="st2" d="M478.7 235.4c.1-.1.6-.4.7-.6l.3-.3h32.5c.5.4.8.7 1 .9-.1.1-.7.1-.9.1h-32.9c-.2 0-.6 0-.7-.1zM465.1 234.5h-30.9l-.3.3c-.1.1-.6.4-.7.6.1.1.6.1.7.1h32.2c-.4-.2-.9-.6-1-1zM476.3 237.6c.1-.1.7-.4.8-.6l.4-.3h37c.6.4.9.7 1.1.9-.1.1-.8.1-1 .1h-37.4l-.9-.1zM514 236.2s-2.3.1-5.6.1c-1.7 0-3.7 0-5.8.1h-13.2c-2.1 0-4.1-.1-5.8-.1-3.4-.1-5.6-.1-5.6-.1s2.3-.1 5.6-.1c1.7 0 3.7 0 5.8-.1h13.2c2.1 0 4.1.1 5.8.1 3.3 0 5.6.1 5.6.1z"/><path class="st19" d="M382.2 262.7l1.6 1.8v47.2"/><path class="st16" d="M462.4 254.6c0 2 1.7 3.7 3.7 3.7M461.3 254.6c0 2-1.7 3.7-3.7 3.7M461.3 262.8c0-2-1.7-3.7-3.7-3.7M462.4 262.8c0-2 1.7-3.7 3.7-3.7"/><path class="st22" d="M445.7 254.6c0 2 1.6 3.7 3.6 3.7M444.7 254.6c0 2-1.6 3.7-3.6 3.7M444.7 262.8c0-2-1.6-3.7-3.6-3.7M445.7 262.8c0-2 1.6-3.7 3.6-3.7"/><path class="st16" d="M453.9 254.6c0 2 1.7 3.7 3.7 3.7M452.8 254.6c0 2-1.7 3.7-3.7 3.7M452.8 262.8c0-2-1.7-3.7-3.7-3.7M453.9 262.8c0-2 1.7-3.7 3.7-3.7"/><path class="st23" d="M449.1 254.4h8.5v8.5h-8.5zM441.1 254.4h8v8.5h-8zM457.6 254.4h8.5v8.5h-8.5z"/><path class="st16" d="M411.6 254.6c0 2-1.7 3.7-3.7 3.7M412.7 254.6c0 2 1.7 3.7 3.7 3.7M412.7 262.8c0-2 1.7-3.7 3.7-3.7M411.6 262.8c0-2-1.7-3.7-3.7-3.7M403.1 254.6c0 2-1.7 3.7-3.7 3.7M404.2 254.6c0 2 1.7 3.7 3.7 3.7M404.2 262.8c0-2 1.7-3.7 3.7-3.7M403.1 262.8c0-2-1.7-3.7-3.7-3.7"/><path class="st22" d="M428.2 254.6c0 2-1.6 3.7-3.6 3.7M429.3 254.6c0 2 1.6 3.7 3.6 3.7M429.3 262.8c0-2 1.6-3.7 3.6-3.7M428.2 262.8c0-2-1.6-3.7-3.6-3.7M428.2 246.1c0 2-1.6 3.7-3.6 3.7M429.3 246.1c0 2 1.6 3.7 3.6 3.7M429.3 254.3c0-2 1.6-3.7 3.6-3.7M428.2 254.3c0-2-1.6-3.7-3.6-3.7M428.2 237.7c0 2-1.6 3.7-3.6 3.7M429.3 237.7c0 2 1.6 3.7 3.6 3.7M429.3 246c0-2 1.6-3.7 3.6-3.7M428.2 246c0-2-1.6-3.7-3.6-3.7"/><path class="st16" d="M420.1 254.6c0 2-1.7 3.7-3.7 3.7M421.2 254.6c0 2 1.7 3.7 3.7 3.7M421.2 262.8c0-2 1.7-3.7 3.7-3.7M420.1 262.8c0-2-1.7-3.7-3.7-3.7M394.4 254.6c0 2-1.7 3.7-3.7 3.7M395.5 254.6c0 2 1.7 3.7 3.7 3.7M395.5 262.8c0-2 1.7-3.7 3.7-3.7M394.4 262.8c0-2-1.7-3.7-3.7-3.7"/><path class="st23" d="M416.4 254.4h8.5v8.5h-8.5zM424.9 254.4h8v8.5h-8z"/><path class="st22" d="M436.4 254.6c0 2-1.6 3.7-3.6 3.7M437.4 254.6c0 2 1.6 3.7 3.6 3.7M437.4 262.8c0-2 1.6-3.7 3.6-3.7M436.4 262.8c0-2-1.6-3.7-3.6-3.7"/><path class="st23" d="M433 254.4h8v8.5h-8zM399.4 254.4h8.5v8.5h-8.5zM390.7 254.4h8.5v8.5h-8.5zM407.9 254.4h8.5v8.5h-8.5z"/><path class="st24" d="M416.4 254.4l-4.1 1h-17.4l-4.2-1v-16.9l4.2.5h17.4l4.1-.5z"/><path class="st6" d="M400.7 238.2v17.2M406.5 238.2v17.2M412.3 238.2v17.2M394.9 238.2v17.2"/><path class="st5" d="M416.4 243.6l-4.1.9h-17.4l-4.2-.9"/><path class="st2" d="M416.4 253.3c-1.3.4-2.7.8-4 1.1l-4.3.1h-4.3c-2.9 0-5.8 0-8.7-.1-1.4-.4-2.8-.8-4.2-1.1 1.4.3 2.8.5 4.3.9 2.9-.1 5.8-.1 8.7-.1h4.3l4.3.1c1.1-.4 2.5-.6 3.9-.9z"/><path class="st25" d="M400.7 254.3M406.5 254.3M412.3 254.3M394.9 254.3"/><path class="st26" d="M466.1 254.4l-4.3 1h-24.5l-4.4-1v-17l4.4.5h24.5l4.3-.5z"/><path class="st27" d="M449.6 238.2v17.2M443.3 238.2v17.2M455.7 238.2v17.2M461.8 238.2v17.2M437.3 238.2v17.2"/><path class="st28" d="M466.1 243.6l-4.3.9h-24.5l-4.4-.9"/><path class="st2" d="M466.1 253.3l-4.3 1.1-6.1.1h-12.2c-2 0-4.1 0-6.1-.1-1.5-.4-2.9-.8-4.4-1.1 1.5.3 3 .5 4.5.9l6.1-.1h12.2l6.1.1 4.2-.9z"/><path class="st25" d="M449.6 254.3M455.7 254.3M461.8 254.3M437.3 254.3"/><path class="st26" d="M466.1 286.4l-4.3 1h-24.5l-4.4-1v-19.5l4.4.5h24.5l4.3-.5z"/><path class="st27" d="M449.6 267.7v19.7M443.3 267.7v19.7M455.7 267.7v19.7M461.8 267.7v19.7M437.3 267.7v19.7"/><path class="st28" d="M466.1 274.1l-4.3.8h-24.5l-4.4-.8"/><path class="st2" d="M466.1 285.3l-4.3 1.1-6.1.1h-12.2c-2 0-4.1 0-6.1-.1-1.5-.4-2.9-.8-4.4-1.1 1.5.3 3 .5 4.5.9l6.1-.1h12.2l6.1.1 4.2-.9z"/><path class="st25" d="M449.6 286.3M455.7 286.3M461.8 286.3M437.3 286.3"/><path class="st29" d="M416 286.4l-4 1h-17.1l-4.2-1v-19.5l4.2.5h17.1l4-.5z"/><path class="st30" d="M400.6 267.7v19.7M406.3 267.7v19.7M412 267.7v19.7M394.9 267.7v19.7"/><path class="st31" d="M416 274.1l-4 .8h-17.1l-4.2-.8"/><path class="st2" d="M416 285.3c-1.3.4-2.6.8-4 1.1l-4.3.1h-4.3c-2.9 0-5.7 0-8.6-.1-1.4-.4-2.8-.8-4.1-1.1 1.4.3 2.8.5 4.2.9 2.9-.1 5.7-.1 8.6-.1h4.3l4.3.1c1.2-.4 2.6-.7 3.9-.9z"/><path class="st25" d="M400.6 286.3M406.3 286.3M412 286.3M394.9 286.3"/><path class="st23" d="M416.4 237.4h8.5v8.5h-8.5zM424.9 237.4h8v8.5h-8zM416.4 245.9h8.5v8.5h-8.5zM382.2 254.4h8.5v8.5h-8.5zM382.2 245.9h8.5v8.5h-8.5zM424.9 245.9h8v8.5h-8zM382.2 237.4h8.5v8.5h-8.5z"/><path class="st16" d="M385.9 237.6c0 2-1.7 3.7-3.7 3.7M387 237.6c0 2 1.7 3.7 3.7 3.7M387 245.8c0-2 1.7-3.7 3.7-3.7M385.9 245.8c0-2-1.7-3.7-3.7-3.7M385.9 246.1c0 2-1.7 3.7-3.7 3.7M387 246.1c0 2 1.7 3.7 3.7 3.7M387 254.3c0-2 1.7-3.7 3.7-3.7M385.9 254.3c0-2-1.7-3.7-3.7-3.7M420.1 237.6c0 2-1.7 3.7-3.7 3.7M421.2 237.6c0 2 1.7 3.7 3.7 3.7M421.2 245.8c0-2 1.7-3.7 3.7-3.7M420.1 245.8c0-2-1.7-3.7-3.7-3.7M420.1 246.1c0 2-1.7 3.7-3.7 3.7M421.2 246.1c0 2 1.7 3.7 3.7 3.7M421.2 254.3c0-2 1.7-3.7 3.7-3.7M420.1 254.3c0-2-1.7-3.7-3.7-3.7M385.9 254.6c0 2-1.7 3.7-3.7 3.7M387 254.6c0 2 1.7 3.7 3.7 3.7M387 262.8c0-2 1.7-3.7 3.7-3.7M385.9 262.8c0-2-1.7-3.7-3.7-3.7M487.4 254.6c0 2 1.7 3.7 3.7 3.7M486.3 254.6c0 2-1.7 3.7-3.7 3.7M486.3 262.8c0-2-1.7-3.7-3.7-3.7M487.4 262.8c0-2 1.7-3.7 3.7-3.7M495.9 254.6c0 2 1.7 3.7 3.7 3.7M494.8 254.6c0 2-1.7 3.7-3.7 3.7M494.8 262.8c0-2-1.7-3.7-3.7-3.7M495.9 262.8c0-2 1.7-3.7 3.7-3.7"/><path class="st22" d="M470.7 254.6c0 2 1.6 3.7 3.6 3.7M469.6 254.6c0 2-1.6 3.7-3.6 3.7M469.6 262.8c0-2-1.6-3.7-3.6-3.7M470.7 262.8c0-2 1.6-3.7 3.6-3.7M470.7 246.1c0 2 1.6 3.7 3.6 3.7M469.6 246.1c0 2-1.6 3.7-3.6 3.7M469.6 254.3c0-2-1.6-3.7-3.6-3.7M470.7 254.3c0-2 1.6-3.7 3.6-3.7M470.7 237.7c0 2 1.6 3.7 3.6 3.7M469.6 237.7c0 2-1.6 3.7-3.6 3.7M469.6 246c0-2-1.6-3.7-3.6-3.7M470.7 246c0-2 1.6-3.7 3.6-3.7"/><path class="st16" d="M478.9 254.6c0 2 1.7 3.7 3.7 3.7M477.8 254.6c0 2-1.7 3.7-3.7 3.7M477.8 262.8c0-2-1.7-3.7-3.7-3.7M478.9 262.8c0-2 1.7-3.7 3.7-3.7M504.5 254.6c0 2 1.7 3.7 3.7 3.7M503.4 254.6c0 2-1.7 3.7-3.7 3.7M503.4 262.8c0-2-1.7-3.7-3.7-3.7M504.5 262.8c0-2 1.7-3.7 3.7-3.7"/><path class="st23" d="M474.1 254.4h8.5v8.5h-8.5zM466.1 254.4h8v8.5h-8zM491.1 254.4h8.5v8.5h-8.5zM499.7 254.4h8.5v8.5h-8.5zM482.6 254.4h8.5v8.5h-8.5z"/><path class="st24" d="M482.6 254.4l4 1h17.4l4.2-1v-16.9l-4.2.5h-17.4l-4-.5z"/><path class="st6" d="M498.2 238.2v17.2M492.4 238.2v17.2M486.6 238.2v17.2M504 238.2v17.2"/><path class="st5" d="M482.6 243.6l4 .9h17.4l4.2-.9"/><path class="st2" d="M482.6 253.3l4.1.9 4.3-.1h4.3c2.9 0 5.8 0 8.7.1 1.4-.3 2.8-.6 4.3-.9-1.4.4-2.8.8-4.2 1.1-2.9.1-5.8.1-8.7.1h-4.3l-4.3-.1c-1.6-.3-2.9-.7-4.2-1.1z"/><path class="st25" d="M498.2 254.3M492.4 254.3M486.6 254.3M504 254.3"/><path class="st23" d="M474.1 237.4h8.5v8.5h-8.5zM466.1 237.4h8v8.5h-8zM474.1 245.9h8.5v8.5h-8.5zM508.2 254.4h8.5v8.5h-8.5zM508.2 245.9h8.5v8.5h-8.5zM466.1 245.9h8v8.5h-8zM508.2 237.4h8.5v8.5h-8.5z"/><path class="st16" d="M513 237.6c0 2 1.7 3.7 3.7 3.7M511.9 237.6c0 2-1.7 3.7-3.7 3.7M511.9 245.8c0-2-1.7-3.7-3.7-3.7M513 245.8c0-2 1.7-3.7 3.7-3.7M513 246.1c0 2 1.7 3.7 3.7 3.7M511.9 246.1c0 2-1.7 3.7-3.7 3.7M511.9 254.3c0-2-1.7-3.7-3.7-3.7M513 254.3c0-2 1.7-3.7 3.7-3.7M478.9 237.6c0 2 1.7 3.7 3.7 3.7M477.8 237.6c0 2-1.7 3.7-3.7 3.7M477.8 245.8c0-2-1.7-3.7-3.7-3.7M478.9 245.8c0-2 1.7-3.7 3.7-3.7M478.9 246.1c0 2 1.7 3.7 3.7 3.7M477.8 246.1c0 2-1.7 3.7-3.7 3.7M477.8 254.3c0-2-1.7-3.7-3.7-3.7M478.9 254.3c0-2 1.7-3.7 3.7-3.7M513 254.6c0 2 1.7 3.7 3.7 3.7M511.9 254.6c0 2-1.7 3.7-3.7 3.7M511.9 262.8c0-2-1.7-3.7-3.7-3.7M513 262.8c0-2 1.7-3.7 3.7-3.7"/><path class="st19" d="M383.8 264.7h131.4M383.8 293.2h131.4M383.8 295h131.4"/><path class="st32" d="M384 265.6h130.9"/><path class="st2" d="M416.4 266s-.4.1-1.1.1c-.7.1-1.7.2-2.9.2-1.2.1-2.6.2-4.1.2-1.5 0-3.1.1-4.7.1s-3.2-.1-4.7-.1-2.9-.1-4.1-.2c-1.2-.1-2.2-.2-2.9-.2-.7-.1-1.1-.1-1.1-.1h12.8c6.3-.1 12.8-.1 12.8 0zM464.8 266s-.5.1-1.3.1c-.8.1-2 .2-3.4.3-1.4.1-3 .2-4.7.2-1.7 0-3.6.1-5.4.1-1.9 0-3.7-.1-5.4-.1-1.7 0-3.4-.2-4.7-.2-1.4-.1-2.5-.2-3.4-.3-.8-.1-1.3-.1-1.3-.1h14.8c7.4-.1 14.8-.1 14.8 0zM412.3 268.3s-.3 0-.7.1c-.5 0-1.2.1-2 .2-.8 0-1.8.1-2.8.2-1 0-2.1 0-3.2.1-1.1 0-2.2 0-3.2-.1-1 0-2-.1-2.8-.2-.8 0-1.5-.2-2-.2-.5-.1-.7-.1-.7-.1h17.4zM460.8 268.3s-.4 0-1 .1c-.6 0-1.5.1-2.5.2-1.1 0-2.3.1-3.6.2-1.3 0-2.7 0-4.1.1-1.4 0-2.8 0-4.1-.1-1.3 0-2.5-.1-3.6-.2-1.1 0-1.9-.2-2.5-.2-.6-.1-1-.1-1-.1h22.4z"/><path class="st33" d="M387.3 264.7v28.6M390.7 264.7v28.6M383.8 272.9h6.9M383.8 284.3h6.9M419.8 264.7v28.6M423.1 264.7v28.6M416.3 272.9h6.8M416.3 284.3h6.8M426.5 264.7v28.6M429.9 264.7v28.6M432.9 264.7v28.6M466.1 264.7v28.6M423 272.9h9.9M423 284.3h9.9M394.5 287.4v5.9M398.1 287.4v5.9M401.7 287.4v5.9M405.4 287.4v5.9M409 287.4v5.9M412.6 287.4v5.9M436.5 287.4v5.9M439.7 287.4v5.9M443 287.4v5.9M446.2 287.4v5.9M452.7 287.4v5.9M449.4 287.4v5.9M455.9 287.4v5.9M459.1 287.4v5.9M462.4 287.4v5.9M416.3 264.7v28.6"/><path class="st19" d="M516.8 262.7l-1.6 1.8v46.4"/><path class="st29" d="M483 286.4l4 1h17.1l4.2-1v-19.5l-4.2.5h-17.1l-4-.5z"/><path class="st30" d="M498.4 267.7v19.7M492.7 267.7v19.7M487 267.7v19.7M504.1 267.7v19.7"/><path class="st31" d="M483 274.1l4 .8h17.1l4.2-.8"/><path class="st2" d="M483 285.3l4 .9 4.3-.1h4.3c2.9 0 5.7 0 8.6.1l4.2-.9c-1.4.4-2.7.8-4.1 1.1-2.9.1-5.7.1-8.6.1h-4.3l-4.3-.1c-1.5-.4-2.8-.8-4.1-1.1z"/><path class="st25" d="M498.4 286.3M492.7 286.3M487 286.3M504.1 286.3"/><path class="st32" d="M514.9 294.3h-130.9"/><path class="st2" d="M482.6 265.9s.4-.1 1.1-.1c.7-.1 1.7-.2 2.9-.2 1.2-.1 2.6-.2 4.1-.2 1.5 0 3.1-.1 4.7-.1s3.2.1 4.7.1 2.9.1 4.1.2c1.2.1 2.2.2 2.9.2.7.1 1.1.1 1.1.1h-12.8c-6.4.1-12.8.1-12.8 0zM486.7 268.3s.3 0 .7-.1c.5 0 1.2-.1 2-.2.8 0 1.8-.1 2.8-.2 1 0 2.1 0 3.2-.1 1.1 0 2.2 0 3.2.1 1 0 2 .1 2.8.2.8 0 1.5.2 2 .2.5.1.7.1.7.1h-8.7c-4.4.1-8.7 0-8.7 0z"/><path class="st33" d="M511.6 264.7v28.6M508.3 264.7v28.6M515.2 272.9h-6.9M515.2 284.3h-6.9M479.2 264.7v28.6M475.8 264.7v28.6M482.7 272.9h-6.9M482.7 284.3h-6.9M472.5 264.7v28.6M469.1 264.7v28.6M476 272.9h-6.9M476 284.3h-6.9M504.5 287.4v5.9M500.9 287.4v5.9M497.2 287.4v5.9M493.6 287.4v5.9M490 287.4v5.9M486.3 287.4v5.9M482.7 264.7v28.6"/><path class="st19" d="M388.8 311.7v-13.3h12.4v13.3M493.4 311.2v-12.8h12.3v12.8M429 311.7v-13.3h12.4v13.3M404.2 311.7v-13.3h22.2v13.3M444.7 311.2v-13h34.6v13M452.7 298.4v12.6M462 298.4v12.6M470.7 298.4v12.6M444.7 304.7h34.6M490 310.9v-7.2h-1.2v-.2c0-1.1-.9-2-2-2s-2 .9-2 2v.2h-1.1v7.2M513.7 301.3h-4.2v9.9"/><path class="st10" d="M430.4 311.7v-12.2"/><path class="st2" d="M430.2 311.7l.2-12.2.3 12.2z"/><path class="st10" d="M440.2 311.7v-12.2"/><path class="st2" d="M440 311.7l.2-12.2.3 12.2z"/><path class="st10" d="M390 311.7v-12.2"/><path class="st2" d="M389.7 311.7l.3-12.2.2 12.2z"/><path class="st10" d="M399.7 311.7v-12.2"/><path class="st2" d="M399.5 311.7l.2-12.2.3 12.2z"/><path class="st1" d="M505.7 300.4h-10.1v10.5M495.6 300.7l-2.3-2.2"/><path class="st1" d="M498.3 254c-.4-.8-.7-1.8-.7-2.8 0-3.3 2.7-6 6-6 1.1 0 2.1.3 2.9.8v-.8c0-5.8 4.7-10.5 10.5-10.5s10.5 4.7 10.5 10.5c0 1-.2 2.1-.4 3h.2c3.7 0 6.7 3 6.7 6.7 0 3.1-2.1 5.7-4.9 6.5.7 1.5 1.1 3.2 1.1 4.9 0 1.6-.3 3.1-.9 4.5.9 1.5 1.4 3.3 1.4 5.1 0 5.6-4.6 10.2-10.2 10.2-1.8 0-3.6-.5-5.1-1.4-1.2 2-3.4 3.4-5.9 3.4-3.8 0-7-3.1-7-7 0-1.3.4-2.5 1-3.5h-1c-6.8 0-12.2-5.5-12.2-12.2 0-5.2 3.3-9.6 8-11.4zM514.2 270.2s-3.5 19.2 2.2 43h-9.8c4.2-21.8 2.5-45 2.5-45"/><path class="st2" d="M517.9 271.3c-.4.1-.8.1-1.2 0-.4-.1-.8-.1-1.2-.3-.4-.1-.8-.3-1.1-.5-.2-.1-.4-.2-.5-.4l-.5-.4c-.3-.3-.6-.6-.8-1-.3-.3-.5-.7-.7-1.1-.2-.4-.3-.8-.5-1.1l-.4-1.2h.9c-.1.4-.3.7-.5 1l-.3.4-.3.4c-.2.3-.5.5-.7.7l-.4.3-.4.3-.4.3c-.1.1-.3.1-.5.2-.3.1-.6.2-1 .3-.3.1-.7.1-1 .1-.3 0-.7 0-1 .1l.9-.3c.3-.1.6-.1.9-.3.3-.2.6-.3.8-.4.3-.1.5-.3.8-.5l.4-.3.3-.3c.2-.2.4-.4.6-.7l.3-.4.2-.4c.1-.2.3-.5.3-.8l.5-1.4.5 1.4.4 1.1.5 1c.2.3.3.7.6 1 .2.3.4.6.7.9.1.2.3.3.4.4l.4.4c.3.2.6.5.9.6.5.6 1.3.9 2.1.9z"/><path class="st10" d="M530 268.3s-.9 3.7-3.1 4.4"/><path class="st2" d="M530.5 268.5s-.1.4-.4.8c-.2.5-.6 1.1-1 1.7-.2.3-.5.6-.7.8l-.7.6-.6.3c-.1 0-.2.1-.2.1s.1 0 .2-.1.3-.2.5-.4.4-.4.6-.7c.2-.3.4-.6.5-.9.3-.6.5-1.3.6-1.7.1-.5.2-.8.2-.8l1 .3z"/><path class="st10" d="M506.6 243.8s-.3 2.9 1.6 5.2"/><path class="st2" d="M507.1 243.8s-.1.3-.1.8v.9c0 .3 0 .6.1 1 .1.3.1.7.3 1 .1.3.2.6.3.8.3.4.4.7.4.7s-.2-.3-.6-.7c-.2-.2-.3-.5-.5-.8l-.5-.9-.3-1-.2-.9c-.1-.5-.1-1-.1-.9h1.2z"/><path class="st10" d="M500 277.5s4.8.9 5.4-1.5"/><path class="st2" d="M500.1 277s.3.1.9.2c.5.1 1.3.2 2 .1.4 0 .7-.1 1.1-.2.2 0 .3-.1.5-.2s.3-.2.4-.2l.3-.3c.1-.1.1-.2.2-.2.1-.1.1-.2.1-.2s0 .1-.1.3c0 .1 0 .2-.1.3l-.2.3c-.1.1-.2.2-.4.3-.1.1-.3.2-.5.3-.3.2-.7.3-1.1.4-1.6.3-3.1.2-3.1.2v-1.1z"/><path class="st34" d="M512.6 268.1c-3.4 31.5 3 45.1 3 45.1"/><path class="st11" d="M171.8 304.8c.6-13.1-9.5-25.7-21.4-21.5-12 4.3-12.3 17.2-12.3 17.2l-.2 11h-23.5v-37.7l-2.9-3.7 6.3-2.1v-51.4c0-.2.3-.3.4-.1 0 0 2.9.6 2.4 4.6 0 0 .2 6.9 4.4 4.7l29.5-29.2h1.1l17.4 17.2 5.7 5.6 6.5 6.4c4.2 2.2 4.4-4.7 4.4-4.7-.6-4 2.4-4.6 2.4-4.6.1-.2.4-.1.4.1v51.4l6.4 2.1-2.9 3.7v37.7h-23.8l-.3-6.7M192.2 221s-.6.8-2.7-.2"/><path class="st4" d="M154.1 196.6v-5.1c0-.5.4-.9.9-.9s.9.4.9.9v5.1"/><path class="st11" d="M154 194h-1c-.5 0-.9-.4-.9-.9s.4-.9.9-.9h4c.5 0 .9.4.9.9s-.4.9-.9.9h-3z"/><path class="st2" d="M126.2 226.4c4.6-4.8 9.2-9.5 13.9-14.2 2.3-2.4 4.7-4.7 7-7l7-7c.1-.1.2-.1.3-.1h1l.3.1 7 7 7 7c4.7 4.7 9.3 9.4 13.9 14.2-4.9-4.5-9.6-9.1-14.4-13.7l-7.1-6.9-7.1-7 .3.1h-1l.3-.1-7.1 7c-2.4 2.3-4.7 4.7-7.1 6.9-4.6 4.6-9.4 9.2-14.2 13.7z"/><path class="st4" d="M148.1 211.5h-3.7l1 1.8h19.2l1-1.8h-3.8z"/><circle class="st4" cx="155" cy="222.7" r="7.2"/><path class="st2" d="M155 217.6c.2.9.3 1.7.4 2.6.1.9.1 1.7.1 2.6l-.7-.4c1.1-.5 2.2-.9 3.4-1.1-.9.8-2 1.4-3 1.9-.2.1-.5 0-.6-.2 0-.1 0-.1-.1-.2 0-.9 0-1.7.1-2.6 0-.9.1-1.8.4-2.6z"/><path class="st35" d="M146.1 213.3h17.8v18.8h-17.8z"/><path class="st16" d="M149.3 216.1s-.1-1.8-1.4-1.7l1.4 1.7zM160.8 216.1s.1-1.8 1.4-1.7l-1.4 1.7zM160.8 229.3s.1 1.8 1.4 1.7c1.3-.2-1.4-1.7-1.4-1.7zM149.3 229.3s-.1 1.8-1.4 1.7c-1.3-.2 1.4-1.7 1.4-1.7z"/><path class="st4" d="M117.8 221s.6.8 2.7-.2"/><path class="st11" d="M117.8 241l-1.2-1.5h76.9l-1.2 1.5z"/><path class="st4" d="M171.9 302.1c0-13.8-7.6-22-17-22s-17 8.2-17 22v11h34v-11zM171.9 304.7c0-13.8-7.6-22-17-22s-17 8.2-17 22v11h34v-11z"/><path class="st2" d="M135 310.2s-.2-1.3-.3-3.7c-.1-2.4-.1-5.8.5-9.9.3-2 .8-4.2 1.6-6.4s1.9-4.5 3.6-6.5c1.6-2 3.8-3.8 6.3-4.9 2.5-1.2 5.3-1.7 8.1-1.8 2.8-.1 5.6.3 8.1 1.4 2.6 1 4.7 2.8 6.4 4.8 1.6 2 2.7 4.3 3.5 6.6.8 2.2 1.3 4.4 1.6 6.5.6 4.1.6 7.5.5 9.9-.1 2.4-.3 3.7-.3 3.7s.1-1.4.1-3.7c0-2.4-.1-5.8-.8-9.8-.4-2-.9-4.1-1.7-6.3-.8-2.2-2-4.3-3.5-6.3-1.6-1.9-3.6-3.5-6.1-4.5-2.4-1-5.1-1.3-7.8-1.2-2.7.1-5.3.6-7.7 1.7-2.4 1.1-4.4 2.7-6 4.6-1.6 1.9-2.7 4.1-3.6 6.2-.8 2.2-1.4 4.3-1.8 6.3-.7 4-.9 7.4-.9 9.8 0 2.1.2 3.5.2 3.5z"/><path class="st4" d="M111.9 270l86.6.1"/><path class="st36" d="M117.8 268.1l74.4-.1"/><path class="st16" d="M154.9 277.3v2.8M145.1 280l1.5 2.3M139.4 286l1.9 1.3M170.4 286l-1.9 1.3M173.2 293.3l-2.3.6M136.2 293.3l2.3.6M135 301.5l2.4.1M174.5 301.5l-2.5.1M164.5 280l-1.5 2.3"/><path class="st11" d="M192.7 286.5h3.7v5.5h-3.7zM198.9 295.5h-4.2l-2-3.5h3.7zM194.7 295.5h4.2v15.2h-4.2z"/><path class="st37" d="M171.8 302.8h27.1v1.8h-27.1z"/><path class="st11" d="M113.2 286.5h3.7v5.5h-3.7zM110.7 295.5h4.2l2-3.5h-3.7zM110.7 295.5h4.2v15.2h-4.2z"/><path class="st38" d="M110.7 302.8h27.1v1.8h-27.1z"/><path class="st11" d="M149.3 236.1h9.9v1.2h-9.9z"/><path class="st39" d="M145.1 212.4h20"/><path class="st11" d="M159.8 261.6h-10.5v-19.2l5.3-4.2 5.2 4.2z"/><path class="st2" d="M149.3 243.6c.8-.8 1.7-1.5 2.5-2.2l2.6-2.1c.1-.1.2-.1.3 0 .9.7 1.8 1.4 2.6 2.1.9.7 1.7 1.4 2.5 2.2-.9-.6-1.9-1.2-2.8-1.9-.9-.6-1.8-1.3-2.7-2h.3l-2.7 2c-.8.6-1.7 1.3-2.6 1.9z"/><path class="st40" d="M138.5 242.4h8.7v19.2h-8.7zM161.7 242.4h8.7v19.2h-8.7zM142.8 242.4v19.2M166.1 242.4v19.2M138.5 252h8.6M161.7 252h8.7"/><path class="st41" d="M146.1 263.4h16.9M164.5 263.4h5.9v2.5M144.3 263.4h-6v2.5"/><path class="st42" d="M147.1 263.4v2.5h14.6v-2.5"/><path class="st19" d="M152.1 261.6s.2-5.2 0-7.1c-.2-1.9-.8-3.7 0-5.4.8-1.8 1.6-2.8 1.3-3.8s-.5-2.8.9-2.9c1.4-.2 1.8 1.3 1.7 3.3-.2 2 1.4 1.6 1.4 6.3 0 3.2-.9 5.2-.2 9.6"/><path class="st2" d="M155.4 256.8s-.3.1-.6.3l-.3.2-.2.2v.7c0 .6-.1 1.2-.1 1.6 0 .4-.1.7-.1.7s-.1-.3-.2-.7c0-.2-.1-.5-.1-.8v-1.3c0-.1 0-.3.1-.5s.3-.3.4-.3c.1-.1.2-.1.4-.1.4-.1.7 0 .7 0zM151.8 260.5h-1.3c-.1 0-.2-.1-.2-.2l.2-16.7.2 16.7-.2-.2h1.3c.1 0 .3.1.3.2s-.1.2-.3.2zM157.4 260h1.3l-.2.2.2-16.7.2 16.7c0 .1-.1.2-.2.2h-1.3c-.1 0-.3-.1-.3-.2s.1-.2.3-.2zM124.6 256.8s0-.4-.1-1.1c0-.7-.1-1.7-.2-2.9 0-1.2-.1-2.6-.2-4v-.30000000000000004c0-.1 0-.1.1-.3.2-.4.4-.5.7-.6l.4-.1h6.899999999999998c.1 0 .3.1.4.2.2.1.2.2.3.4.1.3.2.6.1.8 0 1.5-.1 2.9-.2 4 0 1.2-.1 2.2-.2 2.9-.1.7-.1 1.1-.1 1.1s0-.4-.1-1.1c0-.7-.1-1.7-.2-2.9 0-1.2-.1-2.6-.2-4 0-.2 0-.3-.1-.3 0 0 0-.1-.1-.1h-6.999999999999999.1c-.1 0-.1.1-.1.1v.4-.1c0 1.5-.1 2.9-.2 4 0 1.2-.1 2.2-.2 2.9.3.6.2 1 .2 1zM177.3 256.8s0-.4-.1-1.1c0-.7-.1-1.7-.2-2.9 0-1.2-.1-2.6-.2-4v-.30000000000000004c0-.1 0-.1.1-.3.2-.4.4-.5.7-.6l.4-.1h6.899999999999998c.1 0 .3.1.4.2.2.1.2.2.3.4.1.3.2.6.1.8 0 1.5-.1 2.9-.2 4 0 1.2-.1 2.2-.2 2.9-.1.7-.1 1.1-.1 1.1s0-.4-.1-1.1c0-.7-.1-1.7-.2-2.9 0-1.2-.1-2.6-.2-4 0-.2 0-.3-.1-.3 0 0 0-.1-.1-.1h-6.999999999999999.1c-.1 0-.1.1-.1.1v.4-.1c0 1.5-.1 2.9-.2 4 0 1.2-.1 2.2-.2 2.9.2.6.2 1 .2 1z"/><path class="st10" d="M119.1 280h19.2"/><path class="st2" d="M119.1 280s1.2-.1 3-.1c.9 0 2-.1 3.1-.1h7c1.1 0 2.2.1 3.1.1 1.8.1 3 .1 3 .1s-1.2.1-3 .1c-.9 0-2 .1-3.1.1h-7c-1.1 0-2.2-.1-3.1-.1-1.8 0-3-.1-3-.1z"/><path class="st10" d="M120.1 288.5h15.9"/><path class="st2" d="M120.1 288.5s1-.1 2.5-.1c.7 0 1.6-.1 2.5-.1h5.8c.9 0 1.8.1 2.5.1 1.5.1 2.5.1 2.5.1s-1 .1-2.5.1c-.7 0-1.6.1-2.5.1h-5.8c-.9 0-1.8-.1-2.5-.1-1.5 0-2.5-.1-2.5-.1z"/><path class="st10" d="M120.1 275.7h25"/><path class="st2" d="M120.1 275.7s1.6-.1 3.9-.1c1.2 0 2.5 0 4-.1h9.2c1.5 0 2.8.1 4 .1 2.3.1 3.9.1 3.9.1s-1.6.1-3.9.1c-1.2 0-2.5 0-4 .1h-9.2c-1.5 0-2.8-.1-4-.1-2.3 0-3.9-.1-3.9-.1z"/><path class="st10" d="M167.1 275.7h25"/><path class="st2" d="M167.1 275.7s1.6-.1 3.9-.1c1.2 0 2.5 0 4-.1h9.2c1.5 0 2.8.1 4 .1 2.3.1 3.9.1 3.9.1s-1.6.1-3.9.1c-1.2 0-2.5 0-4 .1h-9.2c-1.5 0-2.8-.1-4-.1-2.4 0-3.9-.1-3.9-.1z"/><path class="st10" d="M175.4 288.7h15.8"/><path class="st2" d="M175.4 288.7s1-.1 2.5-.1c.7 0 1.6-.1 2.5-.1h5.8c.9 0 1.8.1 2.5.1 1.5.1 2.5.1 2.5.1s-1 .1-2.5.1c-.7 0-1.6.1-2.5.1h-5.8c-.9 0-1.8-.1-2.5-.1-1.5 0-2.5-.1-2.5-.1z"/><path class="st10" d="M172.2 280h19.7"/><path class="st2" d="M172.2 280s1.2-.1 3.1-.1c.9 0 2-.1 3.2-.1h7.2c1.2 0 2.2.1 3.2.1 1.8.1 3.1.1 3.1.1s-1.2.1-3.1.1c-.9 0-2 .1-3.2.1h-7.2c-1.2 0-2.2-.1-3.2-.1-1.9 0-3.1-.1-3.1-.1z"/><path class="st10" d="M116.6 284.2h22.2"/><path class="st2" d="M116.6 284.2s1.4-.1 3.5-.1c1 0 2.3 0 3.6-.1h8.2c1.3 0 2.5.1 3.6.1 2.1.1 3.5.1 3.5.1s-1.4.1-3.5.1c-1 0-2.3.1-3.6.1h-8.2c-1.3 0-2.5-.1-3.6-.1-2.1-.1-3.5-.1-3.5-.1z"/><path class="st10" d="M172.2 284.2h22.2"/><path class="st2" d="M172.2 284.2s1.4-.1 3.5-.1c1 0 2.3 0 3.6-.1h8.2c1.3 0 2.5.1 3.6.1 2.1.1 3.5.1 3.5.1s-1.4.1-3.5.1c-1 0-2.3.1-3.6.1h-8.2c-1.3 0-2.5-.1-3.6-.1-2.1-.1-3.5-.1-3.5-.1z"/><path class="st43" d="M127.7 280v4.2M132 284.3v4M132 275.7v4.3M124.6 275.9v3.8M123 284.3v4M188.5 284.3v4.2M184.3 280.1v4.1M179.2 284.3v4.2M179.2 276.1v3.6M186.9 276.1v3.6"/><path class="st2" d="M139.4 292.7s.2-.6.8-1.6c.5-1 1.4-2.4 2.6-3.9.6-.7 1.4-1.5 2.2-2.2l1.3-1.1c.5-.3 1-.6 1.5-1 .5-.3 1.1-.6 1.7-.8l1.8-.6 1.9-.4c.6 0 1.3-.1 2-.1l1.9.2c.6.1 1.3.2 1.9.4.6.2 1.2.4 1.8.7.6.3 1.1.5 1.6.9 1 .6 2 1.4 2.8 2.1.8.8 1.5 1.6 2.1 2.3.6.8 1.1 1.5 1.5 2.2.4.7.7 1.3.9 1.8.5 1 .7 1.6.7 1.6s-.2-.6-.7-1.6c-.2-.5-.6-1.1-1-1.8s-.9-1.4-1.5-2.2c-.6-.8-1.3-1.6-2.1-2.3-.8-.8-1.7-1.5-2.8-2.1l-1.6-.8-1.8-.6c-.6-.2-1.2-.3-1.9-.4-.6-.1-1.3-.1-1.9-.1l-1.9.1c-.6 0-1.3.2-1.9.3l-1.8.6-1.7.8c-.5.3-1 .6-1.5 1s-.9.7-1.3 1.1c-.8.7-1.6 1.5-2.2 2.2-1.3 1.5-2.1 2.8-2.7 3.8-.4.9-.7 1.5-.7 1.5z"/><circle class="st5" cx="139.4" cy="222.3" r="2.2"/><circle class="st5" cx="169.6" cy="222.3" r="2.2"/><circle class="st6" cx="138.4" cy="279.4" r="2.2"/><circle class="st6" cx="170.6" cy="279.4" r="2.2"/><path class="st1" d="M126.2 254c.4-.8.7-1.8.7-2.8 0-3.3-2.7-6-6-6-1.1 0-2.1.3-2.9.8v-.8c0-5.8-4.7-10.5-10.5-10.5s-10.5 4.8-10.5 10.5c0 1 .2 2.1.4 3h-.2c-3.7 0-6.7 3-6.7 6.7 0 3.1 2.1 5.7 4.9 6.5-.7 1.5-1.1 3.2-1.1 4.9 0 1.6.3 3.1.9 4.5-.9 1.5-1.4 3.3-1.4 5.1 0 5.6 4.6 10.2 10.2 10.2 1.8 0 3.6-.5 5.1-1.4 1.2 2 3.4 3.4 5.9 3.4 3.8 0 7-3.1 7-7 0-1.3-.4-2.5-1-3.5h1c6.8 0 12.2-5.5 12.2-12.2 0-5.2-3.3-9.6-8-11.4zM110.3 270.2s3.5 19.2-2.2 43h9.8c-4.2-21.8-2.5-45-2.5-45"/><path class="st2" d="M106.6 271.3c.8-.1 1.6-.3 2.2-.7.3-.2.7-.4.9-.6.1-.1.3-.2.4-.4l.4-.4.7-.9.6-1 .5-1c.1-.4.2-.7.4-1.1l.5-1.4.5 1.4c.1.2.2.5.3.8l.2.4.3.4.6.7.3.3.4.3c.3.2.5.4.8.5.3.1.6.3.8.4.3.2.6.2.9.3l.9.3c-.3 0-.6 0-1-.1-.3 0-.7 0-1-.1-.3-.1-.6-.2-1-.3-.2 0-.3-.1-.5-.2l-.4-.3-.4-.3-.4-.3c-.3-.2-.5-.4-.7-.7l-.3-.4-.3-.4c-.2-.3-.3-.6-.5-1h.9c-.1.4-.2.8-.4 1.2-.2.4-.3.8-.5 1.1-.2.4-.4.7-.7 1.1-.2.3-.5.7-.8 1-.1.2-.3.3-.5.4l-.5.4c-.4.2-.7.4-1.1.5-.4.2-.8.2-1.2.3-.5-.1-.9-.1-1.3-.2z"/><path class="st10" d="M94.5 268.3s.9 3.7 3.1 4.4"/><path class="st2" d="M95 268.2s0 .3.2.8c.1.5.3 1.1.6 1.7.1.3.3.6.5.9.2.3.4.5.6.7.2.2.4.3.5.4.1.1.2.1.2.1s-.1 0-.2-.1c-.2 0-.3-.1-.6-.3-.2-.1-.5-.3-.7-.6-.2-.2-.5-.5-.7-.8-.4-.6-.8-1.2-1-1.7-.2-.5-.4-.8-.4-.8l1-.3z"/><path class="st10" d="M117.9 243.8s.3 2.9-1.6 5.2"/><path class="st2" d="M118.4 243.7s0 .4-.1.9c0 .3-.1.6-.2.9l-.3 1c-.1.3-.3.7-.5.9-.2.3-.3.6-.5.8-.3.4-.6.7-.6.7s.2-.3.4-.7c.1-.2.2-.5.3-.8.1-.3.2-.6.3-1 .1-.3.1-.7.1-1v-.9c0-.5-.1-.8-.1-.8h1.2z"/><path class="st10" d="M124.5 277.5s-4.8.9-5.4-1.5"/><path class="st2" d="M124.6 278s-1.6.2-3.1-.2c-.4-.1-.8-.2-1.1-.4l-.5-.3-.4-.3c-.1-.1-.2-.2-.2-.3-.1-.1-.1-.2-.1-.3 0-.2-.1-.3-.1-.3s0 .1.1.2c0 .1.1.2.2.2.1.1.1.2.3.3.1.1.2.2.4.2.1.1.3.1.5.2.3.1.7.1 1.1.2.7 0 1.5-.1 2-.1.6-.1.9-.2.9-.2v1.1z"/><path class="st34" d="M112 268.1c3.4 31.5-3 45.1-3 45.1"/><path class="st44" d="M323.6 495.2"/><path class="st45" d="M546.1 571c-2 0-3.6-1.6-3.6-3.6 0-.7.2-1.3.5-1.8h-.5c-3.5 0-6.4-2.9-6.4-6.4 0-2.7 1.7-5.1 4.2-6-.2-.4-.4-.9-.4-1.5 0-1.7 1.4-3.1 3.1-3.1.6 0 1.1.1 1.5.4v-.4c0-3 2.5-5.5 5.5-5.5s5.5 2.5 5.5 5.5c0 .5-.1 1.1-.2 1.6h.1c1.9 0 3.5 1.6 3.5 3.5 0 1.6-1.1 3-2.5 3.4.4.8.6 1.6.6 2.6 0 .8-.2 1.6-.5 2.3.5.8.7 1.7.7 2.7 0 2.9-2.4 5.3-5.3 5.3-1 0-1.9-.3-2.6-.7-.3.4-.6.8-1.1 1.1M544.6 584.1c2.2-11.4 1.3-23.5 1.3-23.5M548.5 561.6s-1.8 10.1 1.2 22.5"/><path class="st10" d="M550.4 562.2c-.2.1-.4.1-.6.1-.2 0-.4 0-.7-.1-.2 0-.4-.2-.6-.3l-.6-.4c-.2-.1-.3-.3-.5-.5l-.4-.6-.3-.6c-.1-.2-.2-.4-.2-.6h.9l-.3.6c-.1.2-.2.3-.4.5-.1.2-.3.3-.4.4-.1.1-.3.2-.5.3-.2.1-.3.2-.5.2s-.4.1-.5.1h-1c.2-.1.3-.2.5-.2l.4-.2c.1-.1.3-.2.4-.2.1-.1.2-.2.4-.3l.3-.3.3-.3c.1-.1.2-.2.2-.4.1-.1.1-.3.2-.3l.4-1.3.5 1.3c.1.2.2.4.2.5.1.2.1.4.2.5l.3.5.3.5c.1.1.2.3.4.4l.4.4.5.3c.3-.1.5-.1.7 0zM556.8 560.6s-.5 1.9-1.6 2.3"/><path class="st10" d="M557.3 560.8l-.2.4c-.1.3-.4.6-.6.9-.1.2-.3.3-.4.4-.2.1-.3.2-.4.3-.3.1-.4.2-.4.2s.1-.1.4-.3c.1-.1.2-.2.3-.4.1-.2.2-.3.2-.5.1-.3.2-.7.2-.9 0-.2.1-.4.1-.4l.8.3zM544.5 547.8s-.2 1.5.8 2.7"/><path class="st10" d="M545 547.8s0 .1-.1.4c0 .2-.1.6 0 .9 0 .2 0 .3.1.5s.1.3.1.4l.2.4-.3-.3c-.1-.1-.2-.2-.3-.4-.1-.1-.2-.3-.3-.5-.2-.4-.3-.7-.3-1-.1-.3-.1-.5-.1-.5l1 .1zM541.8 565.5s1.9 0 2.1-.9"/><path class="st10" d="M541.8 565s.1 0 .3.1c.2 0 .5.1.8 0 .3 0 .6-.1.7-.2.2-.1.2-.3.2-.3s0 .2-.1.4-.4.4-.7.6c-.3.2-.6.3-.8.3-.2.1-.4.1-.4.1v-1z"/><path class="st46" d="M547.6 560.5c-1.8 16.5 1.6 23.6 1.6 23.6M306.6 560.5c1.8 16.5-1.9 22.4-1.9 22.4"/><path class="st47" d="M427 538.8l-9.1 1.8-46.5-3.2-54.1-14.9.1-2.9 53.9 15.2 46.6 3.5 9.1-1.7z"/><path class="st48" d="M321.3 523.9v2.4l50.1 13.6 46.5 3 5.8-1.2v-2.1"/><path class="st10" d="M321.3 524.9l12.6 3.3 12.5 3.4 25 6.7 23.3 1.5 11.6.8 11.6.9 5.8-1.2-5.8 1.3-11.6-.7-11.7-.7-23.3-1.4-25-6.9-12.5-3.5z"/><path class="st48" d="M322.9 526.9v49.3"/><path class="st46" d="M330.2 528.8v43.2M348.1 533.5v38.8M370.9 539.9v32.7"/><path class="st45" d="M422 542.1v14.9"/><path class="st47" d="M416.5 582.7v-14.2h-34.2v-11.5h79.4v25.7"/><path class="st10" d="M382.3 558.1s5-.1 12.4-.1 17.4-.1 27.3-.1c9.9 0 19.9.1 27.3.1 7.4.1 12.4.1 12.4.1s-5 .1-12.4.1-17.4.1-27.3.1c-9.9 0-19.9-.1-27.3-.1-7.5 0-12.4-.1-12.4-.1z"/><path class="st48" d="M422 545.6s22.5-1.4 23.1 1.8c.5 2.6.4 9.2.4 9.2"/><path class="st45" d="M422 546.9s22.5-1.4 23.1 1.8"/><path class="st49" d="M422 552s22-1.1 23.5 1.5"/><path class="st46" d="M370.9 539.9h-48M422 548h-99.1M422 556.2h-99.1M382.3 564.3h-59.4M416.5 580.6h-31.8"/><circle class="st50" cx="400.5" cy="565" r="1.4"/><path class="st50" d="M429.5 567.4c0 1.3-1.1 3.8-2.4 3.8s-2.4-2.5-2.4-3.8h4.8zM427.1 571.2v11.5"/><path class="st50" d="M472.8 564.9c0 1.3-1.1 3.8-2.4 3.8s-2.4-2.5-2.4-3.8h4.8zM470.4 568.7v14.7"/><path class="st50" d="M498 564.9c0 1.3-1.1 3.8-2.4 3.8s-2.4-2.5-2.4-3.8h4.8zM495.6 568.7v14.7"/><path class="st50" d="M522.7 564.9c0 1.3-1.1 3.8-2.4 3.8s-2.4-2.5-2.4-3.8h4.8zM520.3 568.7v14.7"/><path class="st47" d="M541.4 565.9v17.9M461.7 561.3h74.3M541.4 565.4M461.7 562.5h75"/><path class="st50" d="M461.7 570.8h75c3.7 0 4.6 0 4.6 2.5M393 568.5v14.2"/><path class="st10" d="M392.1 568.5s.1.9.1 2.2c.1 1.3.1 3.1.1 4.9 0 1.8 0 3.5-.1 4.9-.1 1.3-.1 2.2-.1 2.2s-.1-.9-.1-2.2c-.1-1.3-.1-3.1-.1-4.9 0-1.8.1-3.5.1-4.9 0-1.3.1-2.2.1-2.2zM408.9 568.5s.1.9.1 2.2c.1 1.3.1 3.1.1 4.9 0 1.8 0 3.5-.1 4.9-.1 1.3-.1 2.2-.1 2.2s-.1-.9-.1-2.2c-.1-1.3-.1-3.1-.1-4.9 0-1.8.1-3.5.1-4.9.1-1.3.1-2.2.1-2.2z"/><path class="st50" d="M408.1 568.5v14.2M393 575.6h15.1"/><path class="st51" d="M383.5 575.2h8.6M408.9 575.2h7.6"/><path class="st52" d="M400.5 568.5v14.2"/><path class="st48" d="M312.6 516.6h17.6"/><path class="st50" d="M479.1 583.4v-11.3h9.8v11.3M479.3 573h8.7v9.3M483.6 573v9.6M461.7 576.4h17.4M461.9 577.3h17.2"/><ellipse class="st50" cx="483.7" cy="568.3" rx=".6" ry="1.1"/><path class="st50" d="M503.1 583.4v-11.3h9.8v11.3M503.4 573h8.6v9.3M507.6 573v9.6M528.6 583.4v-11.3h5.4v11.3M528.9 573h4.2v9.3"/><ellipse class="st50" cx="507.7" cy="568.3" rx=".6" ry="1.1"/><ellipse class="st50" cx="531" cy="568.3" rx=".6" ry="1.1"/><path class="st50" d="M534 576.4h1.5c1.5 0 5 0 5.8.5M512.9 576.4h15.6M488.9 576.4h14M534 577.3h1.5c1.6 0 4.9 0 5.8.6M513 577.3h15.5M488.9 577.3h14.2"/><path class="st10" d="M453.8 566.8s-.1.1-.4.2c-.3.1-.7.1-1.1.1h-.7c-.2 0-.5.1-.8.1h-.9c-.3 0-.7-.2-.9-.2-.1 0-.2-.1-.3 0l-.4.1c-.3.1-.6.1-.8.1l-.4.1c-.2 0-.3 0-.4.1h-.8c-.9-.1-1.5-.3-1.5-.3h.4c.3 0 .6 0 1.1-.1.2 0 .5 0 .7-.1l.4-.1.4-.1.9-.2.4-.1h.6c.3.1.6.2.8.2h.8l.8-.1c.3 0 .6.1.8.1.4.1.8.2 1 .3.2-.1.3-.1.3-.1zM455.2 561.8s-.1.2-.4.4c-.3.2-.8.4-1.4.4-.3 0-.7-.1-1-.2-.3-.1-.6-.1-.9 0-.4.1-.7.2-1.2.2h-.6c-.2 0-.4 0-.6-.1h-1.1c-.3.1-.5.3-1.1.4-.6.1-.9-.3-1.2-.5l-.2-.1h-.2c-.2-.1-.3-.1-.4-.1-.6-.1-1.1-.1-1.4-.1h-.6s.2-.1.5-.1c.3-.1.8-.2 1.5-.2h.6l.2.1.3.1c.3.2.6.3.8.3l1-.4c.5-.1.9-.1 1.3-.1.2 0 .4 0 .6.1h.5c.3 0 .7 0 1.1-.1.4 0 .9 0 1.2.2.3.2.6.2.8.3.6.1 1 0 1.3-.2.5-.2.6-.3.6-.3zM458 564.3s-.3 0-.8.1c-.5 0-1.3.2-2.1.4-.4.1-.9.2-1.5.3-.5.1-1.1.1-1.7 0-.6-.1-1.2-.3-1.7-.3-.3-.1-.5-.1-.8 0l-.9.2c-.6.1-1.2.2-1.8.2-.6 0-1.3-.1-1.8-.2s-1.1-.2-1.6-.2h-1.4c-.4.1-.9.2-1.2.1-.4 0-.7 0-1-.1-.5-.1-.8-.2-.8-.2h.8c.3 0 .6 0 .9-.1.3-.1.7-.2 1.2-.3.9-.2 2.1-.2 3.2 0 .6.1 1.1.2 1.7.2.6 0 1.1-.1 1.7-.2l.9-.1c.4-.1.7 0 1 0 .6.1 1.2.3 1.7.4.5.1 1.1.1 1.6.1s1-.1 1.4-.2c.9-.2 1.7-.1 2.2-.1.5-.1.8 0 .8 0z"/><path class="st46" d="M329.9 572.4h-7M347.7 572.4h-15.3M357.3 572.4h-5.1M375.1 572.4h-15M382.7 572.4h-2.8"/><path class="st48" d="M382.7 568.5v5.7"/><path class="st45" d="M320.5 582.4v-3.6c0-1.5 1.2-2.6 2.6-2.6.2 0 .5 0 .7.1.7-1.4 2.1-2.3 3.8-2.3.3 0 .6 0 .9.1.3-1.2 1.4-2.1 2.6-2.1 1.3 0 2.3.9 2.6 2l.6-.1c.8 0 1.5.3 2 .7.4-1.2 1.6-2.1 3-2.1.7 0 1.4.3 1.9.7.8-.6 1.8-.9 2.8-.9 1.1 0 2.1.4 2.9 1 .5-1.1 1.6-1.8 2.9-1.8 1 0 1.9.5 2.5 1.3.4-.1.9-.2 1.4-.2 1 0 1.9.3 2.7.8.5-.8 1.3-1.4 2.4-1.4 1.3 0 2.3.9 2.6 2l.6-.1c.8 0 1.5.3 2 .7.4-1.2 1.6-2.1 3-2.1.7 0 1.4.3 1.9.7.8-.6 1.8-.9 2.8-.9 1.1 0 2.1.4 2.9 1 .5-1.1 1.6-1.8 2.9-1.8 1.2 0 2.2.6 2.7 1.6h.4c1.5 0 2.7 1.2 2.7 2.7v.2c.8.6 1.3 1.5 1.3 2.5v4.9M345.1 582.7v-5.4c0-.9.7-1.6 1.6-1.6.9 0 1.6.7 1.6 1.6v5.4"/><path class="st46" d="M347.4 579.2c0 .3-.3.6-.6.6s-.6-.3-.6-.6v-.8c0-.3.3-.6.6-.6s.6.3.6.6v.8z"/><path class="st10" d="M352.8 573.1s-.1 0-.2.1-.3.2-.5.3c-.4.3-.6.7-.6.7v-.3c0-.2.1-.5.2-.7.1-.3.2-.5.4-.7l.2-.3.5.9zM329.1 573.8s-.1.1-.1.2c-.1.1-.1.4-.2.6-.1.5.1 1 .1 1l-.2-.2c-.1-.1-.3-.4-.4-.6-.1-.3-.2-.5-.2-.8v-.4l1 .2zM321.1 578.2l-.1.3v.6l.2.3c.1.1.2.2.3.2.2.1.3.1.3.1h-.4c-.1 0-.2 0-.4-.1-.2 0-.3-.2-.4-.3-.2-.3-.4-.6-.4-.8l-.1-.3v-.1l1 .1zM383.9 575.8s-.1.2-.2.3c-.1.2-.3.4-.5.6-.2.2-.4.3-.6.4-.2.1-.3.1-.3.1s.4-.4.5-.8c.1-.2.1-.4.1-.6v-.3l1 .3z"/><path class="st48" d="M312.6 548.9v-33.8h17.6v7.6M312.6 582.7v-17"/><path class="st45" d="M308.2 571c2 0 3.6-1.6 3.6-3.6 0-.7-.2-1.3-.5-1.8h.5c3.5 0 6.4-2.9 6.4-6.4 0-2.7-1.7-5.1-4.2-6 .2-.4.4-.9.4-1.5 0-1.7-1.4-3.1-3.1-3.1-.6 0-1.1.1-1.5.4v-.4c0-3-2.5-5.5-5.5-5.5s-5.5 2.5-5.5 5.5c0 .5.1 1.1.2 1.6h-.1c-1.9 0-3.5 1.6-3.5 3.5 0 1.6 1.1 3 2.5 3.4-.4.8-.6 1.6-.6 2.6 0 .8.2 1.6.5 2.3-.5.8-.7 1.7-.7 2.7 0 2.9 2.4 5.3 5.3 5.3 1 0 1.9-.3 2.6-.7.3.5.7.9 1.3 1.2M309.6 583.1c-2.2-11.4-1.3-22.5-1.3-22.5M305.7 561.6s1.8 9-1.2 21.4"/><path class="st10" d="M303.8 562.2l.6-.2c.2-.1.4-.2.5-.3.2-.1.3-.2.4-.4l.4-.4c.1-.1.2-.3.3-.5l.3-.5c.1-.2.1-.4.2-.5.1-.2.1-.4.2-.5l.5-1.3.4 1.3c0 .1.1.2.2.3.1.1.1.2.2.4l.3.3.3.3c.1.1.2.2.4.3.1.1.3.2.4.2l.4.2.5.2h-1l-.5-.1c-.2 0-.3-.1-.5-.2l-.5-.3c-.1-.1-.3-.2-.4-.4-.1-.1-.3-.3-.4-.5-.1-.2-.2-.3-.3-.6h.9l-.2.6-.3.6-.4.6c-.1.2-.3.4-.5.5-.2.1-.3.3-.6.4l-.6.3c-.2 0-.4.1-.7.1-.1.2-.3.2-.5.1zM297.9 560.5s0 .2.1.4c0 .3.1.6.2.9l.2.5.3.4c.2.2.4.3.4.3l-.4-.2-.4-.3-.4-.4c-.3-.3-.5-.6-.6-.9-.1-.3-.2-.5-.2-.4l.8-.3zM310.2 547.7s0 .2-.1.5l-.3 1c-.1.2-.2.4-.3.5l-.3.4-.3.3.2-.4c.1-.1.1-.3.1-.4.1-.2.1-.3.1-.5v-.9c0-.3-.1-.4-.1-.4l1-.1zM312.5 566s-.2 0-.5-.1l-1-.3-.5-.3-.3-.4c-.1-.3-.1-.4-.1-.4s.1.2.2.3c.1.1.2.2.4.2.1.1.3.1.5.1h.9c.2 0 .4-.1.4-.1v1z"/><path class="st45" d="M557.1 560c12.5.6 25.6 1.6 45.1-.9M445.6 555.1c22.8-2 27.8-3.5 51.5-2.9 15.3.4 27.4 3 39.2 5M297.4 567.1c-29.3 1.2-43-11.8-99-2.6-51.8 8.5-88.4.7-88.4.7-63.3-13.1-134.4 5.8-134.4 5.8"/><path class="st4" d="M31.7 419.3v37.9c0 .7.6 1.3 1.3 1.3.7 0 1.3-.6 1.3-1.3v-37.9M72.2 419.3v37.9c0 .7.6 1.3 1.3 1.3.7 0 1.3-.6 1.3-1.3v-37.9M132.4 419.3v37.9c0 .7.6 1.3 1.3 1.3.7 0 1.3-.6 1.3-1.3v-37.9M172.7 419.3v37.9c0 .7.6 1.3 1.3 1.3s1.3-.6 1.3-1.3v-37.9"/><path class="st4" d="M31.9 359.5c0 6.8-5.5 12.2-12.2 12.2s-12.2-5.5-12.2-12.2h24.4zM15.2 371.2s.2 2.8 3.2 2.8h1.8c3 0 3.2-2.8 3.2-2.8M18.4 374v76.5c0 2.1-1.7 3.8-3.8 3.8h-.1c-1.5 0-2.7 1.2-2.7 2.7 0 0-.1 1.5 7.5 1.5l7.5-1.5c0-1.5-1.2-2.7-2.7-2.7h-.1c-2.1 0-3.8-1.7-3.8-3.8v-76.5"/><path class="st4" d="M566.2 359.5c0 6.8-5.5 12.2-12.2 12.2-6.8 0-12.2-5.5-12.2-12.2h24.4zM549.5 371.2s.2 2.8 3.2 2.8h1.8c3 0 3.2-2.8 3.2-2.8M552.7 374v76.5c0 2.1-1.7 3.8-3.8 3.8h-.1c-1.5 0-2.7 1.2-2.7 2.7 0 0-.1 1.5 7.5 1.5s7.5-1.5 7.5-1.5c0-1.5-1.2-2.7-2.7-2.7h-.1c-2.1 0-3.8-1.7-3.8-3.8v-76.5M270 419.3v37.9c0 .7.6 1.3 1.3 1.3.7 0 1.3-.6 1.3-1.3v-37.9M326.4 419.3v37.9c0 .7.6 1.3 1.3 1.3.7 0 1.3-.6 1.3-1.3v-37.9M365.1 419.4v37.9c0 .7.6 1.3 1.3 1.3.7 0 1.3-.6 1.3-1.3v-37.9"/><path class="st4" d="M268.7 415h100v4.3h-100zM272.8 427.8h53.6M329.1 419.3v25h36"/><path class="st2" d="M330.1 431.8s2.1-.1 5.4-.2c1.6 0 3.5-.1 5.5-.1h12.6c2 0 3.9.1 5.5.1 3.2.1 5.4.2 5.4.2s-2.1.1-5.4.2c-1.6 0-3.5.1-5.5.1h-12.6c-2 0-3.9-.1-5.5-.1-3.3-.1-5.4-.2-5.4-.2z"/><path class="st4" d="M352.7 426.3h-10.8c-.3 0-.6-.3-.6-.6v-.6c0-.3.3-.6.6-.6h10.8c.3 0 .6.3.6.6v.6c0 .4-.3.6-.6.6zM352.7 438.8h-10.8c-.3 0-.6-.3-.6-.6v-.6c0-.3.3-.6.6-.6h10.8c.3 0 .6.3.6.6v.6c0 .4-.3.6-.6.6zM538.2 419.3v37.9c0 .7-.6 1.3-1.3 1.3s-1.3-.6-1.3-1.3v-37.9M481.9 419.3v37.9c0 .7-.6 1.3-1.3 1.3-.7 0-1.3-.6-1.3-1.3v-37.9M443.2 419.4v37.9c0 .7-.6 1.3-1.3 1.3s-1.3-.6-1.3-1.3v-37.9"/><path class="st4" d="M439.5 415h100v4.3h-100zM535.4 427.8h-53.5M479.2 419.3v25h-36"/><path class="st2" d="M478.2 431.8s-2.1.1-5.4.2c-1.6 0-3.5.1-5.5.1h-12.6c-2 0-3.9-.1-5.5-.1-3.2-.1-5.4-.2-5.4-.2s2.1-.1 5.4-.2c1.6 0 3.5-.1 5.5-.1h12.6c2 0 3.9.1 5.5.1 3.3 0 5.4.2 5.4.2z"/><path class="st4" d="M455.6 426.3h10.8c.3 0 .6-.3.6-.6v-.6c0-.3-.3-.6-.6-.6h-10.8c-.3 0-.6.3-.6.6v.6c0 .4.2.6.6.6zM455.6 438.8h10.8c.3 0 .6-.3.6-.6v-.6c0-.3-.3-.6-.6-.6h-10.8c-.3 0-.6.3-.6.6v.6c0 .4.2.6.6.6zM324.6 409.2h-43.1c-.4 0-.7-.3-.7-.7v-27.5c0-.4.3-.7.7-.7h44.5c.4 0 .7.3.7.7v24.6"/><path class="st16" d="M280.8 383h45.9M280.8 404h45.9"/><circle class="st16" cx="303.8" cy="406.5" r=".8"/><path class="st4" d="M301.4 409.2s.6 5.8-2 5.8M306.2 409.2s-.6 5.8 2 5.8"/><path class="st3" d="M304.6 386.4h20.5v15.8h-20.5z"/><path class="st16" d="M304.6 384.6h20.5v17.7h-20.5z"/><path class="st10" d="M315.8 389.6l.2 2.9 2.8.7-2.6 1.1.1 2.9-1.8-2.2-2.7 1.1 1.5-2.5-1.8-2.2 2.8.7z"/><path class="st16" d="M283.5 385.8h18.5M283.5 387h12.3M283.5 390.4h14.1M283.5 391.5h12.3M283.5 393.8h12.3M283.5 392.6h16.3M283.5 394.9h14.1M283.5 396h12.3M283.5 398.3h12.3M283.5 397.2h16.3M283.5 388.1h1M283.5 389.2h1M283.5 399.4h1M283.5 400.6h1M283.5 401.7h1"/><path class="st4" d="M537.4 409.2h-44.4c-.4 0-.7-.3-.7-.7v-27.5c0-.4.3-.7.7-.7h44.4c.4 0 .7.3.7.7v27.5c0 .4-.3.7-.7.7z"/><path class="st16" d="M492.2 383h45.9M492.2 404h45.9"/><circle class="st16" cx="515.2" cy="406.5" r=".8"/><path class="st4" d="M512.8 409.2s.6 5.8-2 5.8M517.6 409.2s-.6 5.8 2 5.8"/><path class="st4" d="M335.1 378.1c0-5.1 4.2-9.3 9.3-9.3s9.3 4.2 9.3 9.3h-18.6zM347.5 369.3s-.2-2.1-2.5-2.1h-1.3c-2.3 0-2.5 2.1-2.5 2.1M345.1 367.2v-2.7c0-2.3 1.8-4 4.1-4h4.9c2.3 0 4.1 1.7 4.1 4v43.9c0 2.1-1.7 3.8-3.8 3.8h-.1c-1.5 0-2.7 1.2-2.7 2.7M343.5 367.2v-2.9c0-3 2.4-5.4 5.4-5.4h5.8c3 0 5.4 2.4 5.4 5.4v44.2c0 2.1 1.7 3.8 3.8 3.8h.1c1.5 0 2.7 1.2 2.7 2.7"/><path class="st4" d="M228.5 458.5h-16.9c-1.2 0-2.2-1-2.2-2.2v-42.1c0-1.2 1-2.2 2.2-2.2h16.9c1.2 0 2.2 1 2.2 2.2v42.1c-.1 1.3-1 2.2-2.2 2.2zM211.3 416h17.5v25.5h-17.5z"/><path class="st5" d="M211.3 421.6h17.4M211.3 428.4h17.4M211.3 435.3h17.4"/><circle class="st4" cx="220" cy="452.6" r="1.2"/><path class="st5" d="M213 445.5h13.9M213 447.3h13.9M213 449h13.9M221.2 421.6v-1.6h7.5M221.2 441.5v-1.6h7.5M221.2 428.4v-1.6h7.5M221.2 435.1v-1.6h7.5"/><path class="st4" d="M254.5 458.5h-16.9c-1.2 0-2.2-1-2.2-2.2v-42.1c0-1.2 1-2.2 2.2-2.2h16.9c1.2 0 2.2 1 2.2 2.2v42.1c0 1.3-1 2.2-2.2 2.2zM237.3 416h17.5v25.5h-17.5z"/><path class="st5" d="M237.3 421.6h17.5M237.3 428.4h17.5M237.3 435.3h17.5"/><circle class="st4" cx="246" cy="452.6" r="1.2"/><path class="st5" d="M239.1 445.5h13.9M239.1 447.3h13.9M239.1 449h13.9M247.2 421.6v-1.6h7.6M247.2 441.5v-1.6h7.6M247.2 428.4v-1.6h7.6M247.2 435.1v-1.6h7.6"/><path class="st4" d="M204.9 388.5h54.8v3.9h-54.8zM212.9 392.4l2.5 4.6v-4.6M252.2 392.4l-2.5 4.6v-4.6"/><path class="st4" d="M225.604 388.085l-4.109-.87 3.604-17.022 4.109.87z"/><path class="st16" d="M227.3 371.2l-3.7 16.6"/><path class="st4" d="M244.6 366h8.5v22.3h-8.5zM236.2 366h8.5v22.3h-8.5zM229.2 368.3h7v20.1h-7z"/><circle class="st16" cx="248.9" cy="384.2" r="1.1"/><circle class="st16" cx="240.5" cy="384.2" r="1.1"/><path class="st16" d="M236.2 370.5s-2.5.6-7 0"/><path class="st2" d="M204.9 390.5s3.4-.1 8.6-.1c2.6 0 5.6 0 8.8-.1h20.2c3.2 0 6.2.1 8.8.1 5.1.1 8.6.1 8.6.1s-3.4.1-8.6.1c-2.6 0-5.6 0-8.8.1h-20.2c-3.2 0-6.2-.1-8.8-.1-5.2-.1-8.6-.1-8.6-.1z"/><path class="st4" d="M86.7 409.2h-39.8c-.4 0-.7-.3-.7-.7v-6.9M46.2 384.5v-3.5c0-.4.3-.7.7-.7h44.4c.4 0 .7.3.7.7v13.9"/><path class="st16" d="M46.2 383h45.9M46.2 404h41.2"/><circle class="st16" cx="69.1" cy="406.5" r=".8"/><path class="st4" d="M66.7 409.2s.6 5.8-2 5.8M71.5 409.2s-.6 5.8 2 5.8"/><path class="st53" d="M70.4 386.9l.4 5.3 5.1 1.4-4.9 2 .3 5.3-3.4-4-5 1.9 2.8-4.5-3.3-4.2 5.1 1.3z"/><path class="st10" d="M517.2 386.4l.4 5.3 5.1 1.4-4.9 2 .3 5.3-3.4-4-4.9 1.9 2.7-4.5-3.3-4.2 5.1 1.3z"/><path class="st5" d="M45.5 385.3l-2.7.3.9 7.3 7.4-.9-.9-7.3-3.1.3"/><path class="st6" d="M50.6 390.4l-6.9.8"/><circle class="st5" cx="46.4" cy="385.3" r=".6"/><path class="st5" d="M45.8 393.7l-3-.9-2.1 7 7.1 2.1 2.1-7-2.8-.9"/><path class="st6" d="M48 400.2l-6.6-1.9"/><circle class="st5" cx="46.4" cy="393.7" r=".6"/><path class="st4" d="M31 415h145.7v4.3h-145.7zM132.4 427.8h-57.3M132.4 424h-57.3M326.4 424h-53.6M535.4 424h-53.5M72 419.3v25h-37.6"/><path class="st2" d="M71 431.8s-2.2.1-5.6.2c-1.7 0-3.6.1-5.7.1h-13c-2.1 0-4-.1-5.7-.1-3.3-.1-5.6-.2-5.6-.2s2.2-.1 5.6-.2c1.7 0 3.6-.1 5.7-.1h13c2.1 0 4 .1 5.7.1 3.3 0 5.6.2 5.6.2z"/><path class="st4" d="M48.1 426.3h10.8c.3 0 .6-.3.6-.6v-.6c0-.3-.3-.6-.6-.6h-10.8c-.3 0-.6.3-.6.6v.6c0 .4.2.6.6.6zM48.1 438.8h10.8c.3 0 .6-.3.6-.6v-.6c0-.3-.3-.6-.6-.6h-10.8c-.3 0-.6.3-.6.6v.6c0 .4.2.6.6.6zM135.1 419.3v25h37.6"/><path class="st2" d="M136.1 431.8s2.2-.1 5.6-.2c1.7 0 3.6-.1 5.7-.1h13c2.1 0 4 .1 5.7.1 3.3.1 5.6.2 5.6.2s-2.2.1-5.6.2c-1.7 0-3.6.1-5.7.1h-13c-2.1 0-4-.1-5.7-.1-3.4-.1-5.6-.2-5.6-.2z"/><path class="st4" d="M159 426.3h-10.8c-.3 0-.6-.3-.6-.6v-.6c0-.3.3-.6.6-.6h10.8c.3 0 .6.3.6.6v.6c0 .4-.3.6-.6.6zM159 438.8h-10.8c-.3 0-.6-.3-.6-.6v-.6c0-.3.3-.6.6-.6h10.8c.3 0 .6.3.6.6v.6c0 .4-.3.6-.6.6z"/><path class="st5" d="M41.5 408.5h-.9l.1-3.7h.7z"/><path class="st16" d="M40.8 404.8s-.1-.8.2-.8h.1c.3 0 .2.8.2.8"/><path class="st5" d="M40.6 408.5s.1 2-.2 4.4v.6M41.5 408.5s-.1 2 .2 4.4v.6M39.1 414.6c0-1 .8-1.2 1.8-1.2s1.8.2 1.8 1.2"/><path class="st4" d="M120.2 412.2h-33.8l2-17.3h29.3z"/><path class="st54" d="M116.9 410.1h-28.1l1.4-13.4h25.1z"/><path class="st4" d="M117.7 404.7l.7 5.4M117.5 402.9v.5M117 399.6l.3 1.8M116.7 396.7l.2 1.8M94.2 412.2s-1.9.4-2.1 2.4h3.2s0-2.4 3-2.4M113 412.2s1.9.4 2.1 2.4h-3.2s0-2.4-3-2.4"/><path class="st10" d="M104 399.2l.2 3 3 .8-2.8 1.1.1 3.1-1.9-2.3-2.9 1.1 1.6-2.6-1.9-2.4 2.9.7z"/><path class="st4" d="M138.9 415h7.1l.9-9.1h-9zM137.9 407.8h-2.4s.2 4.7 3.1 4.5"/><path class="st4" d="M164.7 398.6h4.2v16.4h-4.2zM152.2 414.8l-1.9-.2 2.6-18.7 1.9.3zM155.7 393.3h8.5v21.6h-8.5z"/><circle class="st16" cx="159.9" cy="410.4" r="1.1"/><path class="st5" d="M101.164 386.545l-1.959-23.921 5.681-.465 1.959 23.921z"/><path class="st39" d="M105.2 366l-5.7.5"/><path class="st2" d="M100.5 364.1s0-.1.1-.2.1-.2.3-.3c.1-.1.3-.1.4 0l.2.2c.2.1.4 0 .6-.1.1 0 .2-.1.4-.1s.3.1.4.1h.2s.1-.2.2-.2c.2-.1.4 0 .5 0 .1 0 .2.1.2.1h-.2c-.1 0-.3 0-.4.1-.1 0-.1.1-.2.2s-.3.1-.4.1l-.3-.1s-.2.1-.3.1c-.2.1-.5.1-.8 0l-.3-.2c0-.1-.1-.1-.2 0-.2.1-.4.3-.4.3z"/><path class="st39" d="M106.7 385l-5.6.5M106.3 380.3l-5.6.4M105.9 375.3l-5.6.5M105.5 370.6l-5.6.5"/><path class="st2" d="M100.6 364.9s.2-.1.5-.1c.3-.1.7-.1 1.1-.1h1.6s-.2.1-.5.1c-.3.1-.7.1-1.1.1h-1.6z"/><circle class="st5" cx="101.8" cy="362" r=".7"/><path class="st4" d="M430.6 369.7c0-.4-.3-.6-.6-.6h-32.1c-.4 0-.6.3-.6.6v88c0 .4.3.6.6.6h32.1c.4 0 .6-.3.6-.6v-88zm-31.5 85.5v-26.2h29.5v26.2h-29.5zm.6-84.2h28.3c.3 0 .6.3.6.6v26.7h-29.5v-26.7c0-.3.3-.6.6-.6zm-.6 56.5v-27.7h29.5v27.7h-29.5z"/><path class="st2" d="M400.9 372.9s1.6-.1 4-.1c1.2 0 2.6 0 4.1-.1h9.4c1.5 0 2.9.1 4.1.1 2.4.1 4 .1 4 .1s-1.6.1-4 .1c-1.2 0-2.6 0-4.1.1h-9.4c-1.5 0-2.9-.1-4.1-.1-2.4 0-4-.1-4-.1zM400.9 401.9s1.6-.1 4-.1c1.2 0 2.6 0 4.1-.1h9.4c1.5 0 2.9.1 4.1.1 2.4.1 4 .1 4 .1s-1.6.1-4 .1c-1.2 0-2.6 0-4.1.1h-9.4c-1.5 0-2.9-.1-4.1-.1-2.4 0-4-.1-4-.1zM400.9 431.1s1.6-.1 4-.1c1.2 0 2.6 0 4.1-.1h9.4c1.5 0 2.9.1 4.1.1 2.4.1 4 .1 4 .1s-1.6.1-4 .1c-1.2 0-2.6 0-4.1.1h-9.4c-1.5 0-2.9-.1-4.1-.1-2.4-.1-4-.1-4-.1z"/><path class="st4" d="M416.4 375.1h10.2v3h-10.2zM416.4 404.1h10.2v3h-10.2zM416.4 433.1h10.2v3h-10.2zM478 415h7.1l1-9.1h-9zM477.1 407.8h-2.4s.2 4.7 3.1 4.5"/><path class="st4" d="M332.5 415h-7.1l-.9-9.1h9zM333.5 407.8h2.4s-.2 4.7-3.1 4.5"/></g></svg>