<svg xmlns="http://www.w3.org/2000/svg" viewBox="0 0 184.3 120.3" enable-background="new 0 0 184.3 120.3"><style type="text/css">.st0{opacity:0.22;fill:#B04939;} .st1{fill:#FFFFFF;stroke:#333433;stroke-miterlimit:10;} .st2{fill:#333433;} .st3{fill:#C1503E;stroke:#333433;stroke-width:0.25;stroke-linecap:round;stroke-linejoin:round;stroke-miterlimit:10;} .st4{fill:none;stroke:#333433;stroke-linecap:round;stroke-linejoin:round;stroke-miterlimit:10;} .st5{fill:none;stroke:#333433;stroke-width:0.75;stroke-linecap:round;stroke-linejoin:round;stroke-miterlimit:10;} .st6{fill:#FFFFFF;stroke:#333433;stroke-width:0.75;stroke-linecap:round;stroke-linejoin:round;stroke-miterlimit:10;} .st7{fill:none;stroke:#020202;stroke-width:0.5;stroke-linecap:round;stroke-linejoin:round;stroke-miterlimit:10;} .st8{fill:none;stroke:#020202;stroke-width:0.1;stroke-miterlimit:10;} .st9{fill:none;stroke:#020202;stroke-width:0.1;stroke-linecap:round;stroke-linejoin:round;stroke-miterlimit:10;} .st10{fill:#FFFFFF;} .st11{fill:#FFFFFF;stroke:#333433;stroke-linecap:round;stroke-linejoin:round;stroke-miterlimit:10;} .st12{fill:#FFFFFF;stroke:#333433;stroke-width:0.9141;stroke-linecap:round;stroke-linejoin:round;stroke-miterlimit:10;} .st13{fill:none;stroke:#333433;stroke-width:0.9581;stroke-linecap:round;stroke-linejoin:round;stroke-miterlimit:10;} .st14{fill:#FFFFFF;stroke:#333433;stroke-width:0.8907;stroke-linecap:round;stroke-linejoin:round;stroke-miterlimit:10;} .st15{fill:#B04939;} .st16{fill:none;stroke:#333433;stroke-width:0.5;stroke-linecap:round;stroke-linejoin:round;stroke-miterlimit:10;} .st17{fill:#FFFFFF;stroke:#333433;stroke-width:0.8094;stroke-miterlimit:10;} .st18{fill:none;stroke:#333433;stroke-width:0.8094;stroke-miterlimit:10;} .st19{fill:none;stroke:#333433;stroke-miterlimit:10;} .st20{fill:none;stroke:#333433;stroke-width:0.5052;stroke-miterlimit:10;} .st21{fill:#FFFFFF;stroke:#333433;stroke-width:0.976;stroke-linecap:round;stroke-linejoin:round;stroke-miterlimit:10;} .st22{fill:none;stroke:#333433;stroke-width:0.4935;stroke-linecap:round;stroke-linejoin:round;stroke-miterlimit:10;} .st23{fill:none;stroke:#333433;stroke-width:0.9269;stroke-linecap:round;stroke-linejoin:round;stroke-miterlimit:10;} .st24{fill:#FFFFFF;stroke:#333433;stroke-width:0.9618;stroke-linecap:round;stroke-linejoin:round;stroke-miterlimit:10;} .st25{fill:none;} .st26{fill:#FFFFFF;stroke:#333433;stroke-width:0.988;stroke-linecap:round;stroke-linejoin:round;stroke-miterlimit:10;} .st27{fill:#FFFFFF;stroke:#333433;stroke-width:0.7704;stroke-linecap:round;stroke-linejoin:round;stroke-miterlimit:10;} .st28{fill:none;stroke:#333433;stroke-width:0.7704;stroke-linecap:round;stroke-linejoin:round;stroke-miterlimit:10;} .st29{fill:#FFFFFF;stroke:#333433;stroke-width:0.9552;stroke-linecap:round;stroke-linejoin:round;stroke-miterlimit:10;} .st30{fill:#FFFFFF;stroke:#333433;stroke-width:0.7448;stroke-linecap:round;stroke-linejoin:round;stroke-miterlimit:10;} .st31{fill:none;stroke:#333433;stroke-width:0.7448;stroke-linecap:round;stroke-linejoin:round;stroke-miterlimit:10;} .st32{fill:none;stroke:#333433;stroke-width:0.25;stroke-miterlimit:10;} .st33{fill:none;stroke:#333433;stroke-linejoin:round;stroke-miterlimit:10;} .st34{fill:none;stroke:#333433;stroke-width:0.5;stroke-miterlimit:10;} .st35{fill:none;stroke:#333433;stroke-width:1.0112;stroke-linecap:round;stroke-linejoin:round;stroke-miterlimit:10;} .st36{fill:none;stroke:#333433;stroke-width:0.9271;stroke-linecap:round;stroke-linejoin:round;stroke-miterlimit:10;} .st37{fill:#FFFFFF;stroke:#333433;stroke-width:0.9554;stroke-linecap:round;stroke-linejoin:round;stroke-miterlimit:10;} .st38{fill:#FFFFFF;stroke:#333433;stroke-width:0.9569;stroke-linecap:round;stroke-linejoin:round;stroke-miterlimit:10;} .st39{fill:none;stroke:#333433;stroke-width:0.25;stroke-linecap:round;stroke-linejoin:round;stroke-miterlimit:10;} .st40{fill:#FFFFFF;stroke:#333433;stroke-width:0.9904;stroke-linecap:round;stroke-linejoin:round;stroke-miterlimit:10;} .st41{fill:#FFFFFF;stroke:#333433;stroke-width:0.7918;stroke-linecap:round;stroke-linejoin:round;stroke-miterlimit:10;} .st42{fill:none;stroke:#333433;stroke-width:0.7918;stroke-linecap:round;stroke-linejoin:round;stroke-miterlimit:10;} .st43{fill:#FFFFFF;stroke:#333433;stroke-width:0.5;stroke-linecap:round;stroke-linejoin:round;stroke-miterlimit:10;} .st44{fill:#ED1C24;} .st45{fill:none;stroke:#FFFFFF;stroke-miterlimit:10;} .st46{fill:none;stroke:#FFFFFF;stroke-width:0.5;stroke-miterlimit:10;} .st47{fill:none;stroke:#FFFFFF;stroke-width:1.15;stroke-linecap:round;stroke-linejoin:round;stroke-miterlimit:10;} .st48{fill:none;stroke:#FFFFFF;stroke-width:1.15;stroke-miterlimit:10;} .st49{fill:none;stroke:#FFFFFF;stroke-width:0.8282;stroke-miterlimit:10;} .st50{fill:none;stroke:#FFFFFF;stroke-linecap:round;stroke-linejoin:round;stroke-miterlimit:10;} .st51{fill:none;stroke:#FFFFFF;stroke-linejoin:round;stroke-miterlimit:10;} .st52{fill:none;stroke:#FFFFFF;stroke-width:0.5;stroke-linejoin:round;stroke-miterlimit:10;} .st53{fill:#C1503E;} .st54{fill:#C1503E;stroke:#333433;stroke-width:0.75;stroke-linecap:round;stroke-linejoin:round;stroke-miterlimit:10;}</style><g id="Background"><path class="st0" d="M-72.9-23.3l294.6-57.7-295.2 54.7 271-129.2-272.3 126.5 230.3-192.6-232.3 190.2 175.3-243.8-177.7 242 109.1-279.7-112 278.6 36.1-298.1-39.1 297.7-39.2-297.7 36.2 298.1-112-278.6 109.1 279.7-177.7-242 175.3 243.8-232.4-190.2 230.4 192.6-272.3-126.5 271 129.2-295.2-54.7 294.6 57.7M-97.1-20.2h24M-77.9-215.7M-75.7-217.7M-74.1-220.3"/></g><g id="Linework"><path class="st1" d="M148.1-205.4c-.3-2.9-.7-7.4-1.5-11.6-1.5-8.2 1.4-3.8.9-14.2-.4-10.3-3.5-5.2-3.8-10.5-.3-5.3-6.4-5-6.6 0-.2 5 3.6 3.5-.1 8.2-3.7 4.7-3 10.6-2.4 14.3.9 5.7.3 9.8-.7 13.8h14.2z"/><path class="st2" d="M140.8-245.4c.6.2 1 1 1.1 1.8 0 .9-.1 1.9-.2 3-.1.6-.1 1.2.1 1.8.2.6.5 1.2.8 1.8.6 1.2 1.4 2.3 1.7 3.6.4 1.3.2 2.7-.3 4.1-.5 1.4-1.3 2.7-1.7 4.2-.5 1.5-.7 3.1-.5 4.6.1 1.5.5 3 .9 4.3.3 1.4.6 2.7.7 4 .1 1.3-.2 2.4-.7 3.5-.3.9-.6 1.7-.8 2.5h.3c.2-.7.5-1.5.9-2.3.5-1 .8-2.3.8-3.6 0-1.3-.3-2.7-.6-4.1-.3-1.4-.7-2.8-.8-4.2-.1-1.4.1-2.9.5-4.3s1.2-2.7 1.7-4.2c.5-1.4.8-3 .3-4.5-.2-.7-.5-1.4-.9-2-.3-.6-.7-1.2-1-1.7-.6-1.1-1.1-2.2-.9-3.3.2-1.1.2-2.2.1-3.1-.1-.5-.2-.9-.4-1.3s-.6-.6-.9-.7c-.7-.2-1.2.1-1.5.2-.3.1-.5.2-.5.2s.2-.1.5-.2c.1-.1.7-.2 1.3-.1zM137.4-214.4l.3.7c.3 1.2.3 2.8.3 4.5 0 1.2-.1 2.3-.1 3.4.2-.1.4-.1.6-.1.1-1 .2-2.1.3-3.2 0-1.7-.1-3.4-.6-4.6-.1-.3-.3-.6-.5-.8-.2-.2-.4-.3-.6-.4h-.5.2c.1 0 .2 0 .4.1-.1.1.1.2.2.4z"/><path class="st1" d="M129.3-170s-3.5-2.2-4.8-5.8h32.5c-1.3 3.7-4.3 5.3-4.3 5.3"/><path class="st3" d="M105.7 36.8h46v21.2h-46z"/><path class="st4" d="M94.6 17.4h3.6v36h-43v-36h4.7M62.7 17.4h29.1"/><path class="st4" d="M60 13.2h2.8v6.8h-2.8zM91.8 13.2h2.8v6.8h-2.8z"/><path class="st5" d="M71.6 22.4h11.3v3.4h-11.3zM62.3 28.3h11.3v3.4h-11.3zM80.5 28.3h11.3v3.4h-11.3zM80.5 42.5h11.3v5.1h-11.3zM62.3 34.2h15v5.1h-15zM62.3 42.5h15v5.1h-15z"/><path class="st6" d="M66.8 31.7v2.5M66.8 39.3v3.2"/><path class="st5" d="M66.8 28.3c0-2.3 2.1-4.2 4.8-4.2M87.7 28.3c0-2.3-2.1-4.2-4.8-4.2"/><path class="st6" d="M81 34.5h10.8M81 36.3h8.5M81 39.8h8.5M81 38.1h9.8"/><path class="st5" d="M-277.7 14.2h42.7v27.6h-42.7z"/><path class="st7" d="M-251.6 17c-11.9 0-21.5 9.6-21.5 21.5"/><path class="st8" d="M-251.6 30.4h13.5v8.2h-13.5z"/><path class="st7" d="M-238.2 30.4c0-7.4-6-13.4-13.4-13.4M-246.3 38.6c4.5 0 8.2-3.7 8.2-8.2M-251.6 33.4c0 2.9 2.3 5.2 5.2 5.2M-248.7 30.4c-1.6 0-3 1.3-3 3"/><path class="st9" d="M-273.1 17h21.5v21.6h-21.5zM-251.6 17h13.5v13.4h-13.5zM-251.6 33.4h5.3v5.2h-5.3zM-251.6 30.4h3v3h-3zM-248.7 30.4h2.3v2.3h-2.3z"/><path class="st7" d="M-246.3 32.7c0-1.3-1-2.3-2.3-2.3"/><path class="st1" d="M-371.2-56.2c-.4-.8-.7-1.8-.7-2.8 0-3.3 2.7-6 6-6 1.1 0 2.1.3 2.9.8v-.8c0-5.8 4.7-10.5 10.5-10.5s10.5 4.7 10.5 10.5c0 1-.2 2.1-.4 3h.2c3.7 0 6.7 3 6.7 6.7 0 3.1-2.1 5.7-4.9 6.5.7 1.5 1.1 3.2 1.1 4.9 0 1.6-.3 3.1-.9 4.5.9 1.5 1.4 3.3 1.4 5.1 0 5.6-4.6 10.2-10.2 10.2-1.8 0-3.6-.5-5.1-1.4-1.2 2-3.4 3.4-5.9 3.4-3.8 0-7-3.1-7-7 0-1.3.4-2.5 1-3.5h-1c-6.8 0-12.2-5.5-12.2-12.2.1-5.2 3.4-9.6 8-11.4z"/><path class="st10" d="M-339.4-41.9s-.9 3.7-3.1 4.4"/><path class="st2" d="M-338.9-41.7s-.1.4-.4.8c-.2.5-.6 1.1-1 1.7-.2.3-.5.6-.7.8l-.7.6-.6.3c-.1 0-.2.1-.2.1s.1 0 .2-.1.3-.2.5-.4.4-.4.6-.7c.2-.3.4-.6.5-.9.3-.6.5-1.3.6-1.7.1-.5.2-.8.2-.8l1 .3z"/><path class="st10" d="M-362.9-66.4s-.3 2.9 1.6 5.2"/><path class="st2" d="M-362.4-66.4s-.1.3-.1.8v.9c0 .3 0 .6.1 1 .1.3.1.7.3 1 .1.3.2.6.3.8.3.4.4.7.4.7s-.2-.3-.6-.7c-.2-.2-.3-.5-.5-.8l-.5-.9-.3-1-.2-.9c-.1-.5-.1-1-.1-.9h1.2z"/><path class="st10" d="M-369.5-32.7s4.8.9 5.4-1.5"/><path class="st2" d="M-369.4-33.2s.3.1.9.2c.5.1 1.3.2 2 .1.4 0 .7-.1 1.1-.2.2 0 .3-.1.5-.2s.3-.2.4-.2l.3-.3c.1-.1.1-.2.2-.2.1-.1.1-.2.1-.2s0 .1-.1.3c0 .1 0 .2-.1.3l-.2.3c-.1.1-.2.2-.4.3-.1.1-.3.2-.5.3-.3.2-.7.3-1.1.4-1.6.3-3.1.2-3.1.2v-1.1zM-259.2-171.6s-1.4 0-4 .1c-2.5.1-6.1.2-10.4.3-4.3.1-9.4.2-14.7.2-5.4 0-11.1.1-16.9.1-5.8 0-11.5-.1-16.9-.1-5.4 0-10.4-.1-14.7-.2-4.3-.1-7.9-.2-10.4-.3-2.5-.1-4-.1-4-.1v-.1l92 .1zM-259.2-153.7s-1.4 0-4 .1c-2.5.1-6.1.2-10.4.3-4.3.1-9.4.2-14.7.2-5.4 0-11.1.1-16.9.1-5.8 0-11.5-.1-16.9-.1-5.4 0-10.4-.1-14.7-.2-4.3-.1-7.9-.2-10.4-.3-2.5-.1-4-.1-4-.1v-.1l92 .1z"/><path class="st11" d="M-265.8-187.8h6.6v10.2h-6.6z"/><path class="st1" d="M-265.8-177.5l-1.7 4.5h9.8l-1.5-4.5z"/><path class="st11" d="M-352.5-173h95.3v137.7h-95.3zM-257.2-41.3h-95.3M-257.2-38.9h-95.3"/><path class="st10" d="M-257.2-40h-95.3"/><path class="st2" d="M-257.2-40s-6 .1-14.9.1-20.8.1-32.8.1c-11.9 0-23.8-.1-32.8-.1-8.9-.1-14.9-.1-14.9-.1s6-.1 14.9-.1 20.8-.1 32.8-.1c11.9 0 23.8.1 32.8.1 8.9 0 14.9.1 14.9.1z"/><path class="st11" d="M-306.1-155h-46.5c-.4-4.7-1-4.2-1-4.2-2.2-.3-1.8-3.2-1.8-3.2h101.1s.4 2.8-1.8 3.2c0 0-.7-.5-1 4.2h-49z"/><path class="st1" d="M-354.2-159.2h98.7"/><path class="st11" d="M-328.6-144.2v16.8h-14.5v-16.8s6.8-1.6 14.5 0z"/><path class="st12" d="M-343.8-127.5h15.9v3.2h-15.9z"/><path class="st6" d="M-343.1-138.9h14.5M-338.6-144.8v16.8M-333-144.8v16.8"/><path class="st11" d="M-297.6-144.2v16.8h-14.5v-16.8s6.7-1.6 14.5 0z"/><path class="st12" d="M-312.8-127.5h15.9v3.2h-15.9z"/><path class="st6" d="M-312.1-138.9h14.5M-307.6-144.8v16.8M-302-144.8v16.8"/><path class="st11" d="M-266.6-144.2v16.8h-14.5v-16.8s6.7-1.6 14.5 0z"/><path class="st12" d="M-281.8-127.5h15.9v3.2h-15.9z"/><path class="st6" d="M-281.1-138.9h14.5M-276.7-144.8v16.8M-271.1-144.8v16.8"/><path class="st11" d="M-328.6-116.8v26.2h-14.5v-26.2s6.8-1.5 14.5 0z"/><path class="st12" d="M-343.8-90.5h15.9v3.2h-15.9z"/><path class="st6" d="M-343.1-111.4h14.5M-343.1-104.6h14.5M-343.1-97.6h14.5M-338.6-117.3v26.3M-333-117.3v26.3"/><path class="st11" d="M-297.6-116.8v26.2h-14.5v-26.2s6.7-1.5 14.5 0z"/><path class="st12" d="M-312.8-90.5h15.9v3.2h-15.9z"/><path class="st6" d="M-312.1-111.4h14.5M-312.1-104.6h14.5M-312.1-97.6h14.5M-307.6-117.3v26.3M-302-117.3v26.3"/><path class="st11" d="M-266.6-116.8v26.2h-14.5v-26.2s6.7-1.5 14.5 0z"/><path class="st12" d="M-281.8-90.5h15.9v3.2h-15.9z"/><path class="st6" d="M-281.1-111.4h14.5M-281.1-104.6h14.5M-281.1-97.6h14.5M-276.7-117.3v26.3M-271.1-117.3v26.3"/><path class="st11" d="M-328.6-75.4v26.2h-14.5v-26.2s6.8-1.6 14.5 0z"/><path class="st12" d="M-343.8-49.2h15.9v3.2h-15.9z"/><path class="st6" d="M-343.1-70h14.5M-343.1-63.3h14.5M-343.1-56.3h14.5M-338.6-75.9v26.2M-333-75.9v26.2"/><path class="st11" d="M-297.6-75.4v26.2h-14.5v-26.2s6.7-1.6 14.5 0z"/><path class="st12" d="M-312.8-49.2h15.9v3.2h-15.9z"/><path class="st6" d="M-312.1-70h14.5M-312.1-63.3h14.5M-312.1-56.3h14.5M-307.6-75.9v26.2M-302-75.9v26.2"/><path class="st11" d="M-266.6-75.4v26.2h-14.5v-26.2s6.7-1.6 14.5 0z"/><path class="st12" d="M-281.8-49.2h15.9v3.2h-15.9z"/><path class="st6" d="M-281.1-70h14.5M-281.1-63.3h14.5M-281.1-56.3h14.5M-276.7-75.9v26.2M-271.1-75.9v26.2"/><path class="st13" d="M-325.5-74.2c0-5.2-4.7-9.4-10.4-9.4-5.8 0-10.4 4.2-10.4 9.4v32.4h20.9v-32.4h-.1zM-294.4-74.2c0-5.2-4.7-9.4-10.4-9.4-5.8 0-10.4 4.2-10.4 9.4v32.4h20.9v-32.4h-.1zM-263.5-74.2c0-5.2-4.7-9.4-10.4-9.4-5.8 0-10.4 4.2-10.4 9.4v32.4h20.9v-32.4h-.1z"/><path class="st14" d="M-352.9-74.8h6.8v3.2h-6.8zM-263.5-74.8h6.8v3.2h-6.8zM-294.4-74.8h10.1v3.2h-10.1zM-325.4-74.8h10.1v3.2h-10.1z"/><path class="st10" d="M-343.8-44.5h15.9"/><path class="st2" d="M-343.8-44.5s1-.1 2.5-.1c.7 0 1.6-.1 2.5-.1h5.8c.9 0 1.8.1 2.5.1 1.5.1 2.5.1 2.5.1s-1 .1-2.5.1c-.7 0-1.6.1-2.5.1h-5.8c-.9 0-1.8-.1-2.5-.1-1.5 0-2.5-.1-2.5-.1z"/><path class="st10" d="M-312.8-44.5h15.9"/><path class="st2" d="M-312.8-44.5s1-.1 2.5-.1c.7 0 1.6-.1 2.5-.1h5.8c.9 0 1.8.1 2.5.1 1.5.1 2.5.1 2.5.1s-1 .1-2.5.1c-.7 0-1.6.1-2.5.1h-5.8c-.9 0-1.8-.1-2.5-.1-1.5 0-2.5-.1-2.5-.1z"/><path class="st10" d="M-281.9-44.5h15.9"/><path class="st2" d="M-281.9-44.5s1-.1 2.5-.1c.7 0 1.6-.1 2.5-.1h5.8c.9 0 1.8.1 2.5.1 1.5.1 2.5.1 2.5.1s-1 .1-2.5.1c-.7 0-1.6.1-2.5.1h-5.8c-.9 0-1.8-.1-2.5-.1-1.5 0-2.5-.1-2.5-.1z"/><path class="st15" d="M-343.1-122.9h14.5"/><path class="st2" d="M-343.1-122.9s.9-.1 2.3-.1c1.4-.1 3.2-.1 5-.1 1.8 0 3.6 0 5 .1s2.3.1 2.3.1-.9.1-2.3.1c-1.4.1-3.2.1-5 .1-1.8 0-3.6-.1-5-.1s-2.3-.1-2.3-.1z"/><path class="st15" d="M-312.1-122.9h14.5"/><path class="st2" d="M-312.1-122.9s.9-.1 2.3-.1c1.4-.1 3.2-.1 5-.1 1.8 0 3.6 0 5 .1s2.3.1 2.3.1-.9.1-2.3.1c-1.4.1-3.2.1-5 .1-1.8 0-3.6-.1-5-.1s-2.3-.1-2.3-.1z"/><path class="st15" d="M-281.2-122.9h14.5"/><path class="st2" d="M-281.2-122.9s.9-.1 2.3-.1c1.4-.1 3.2-.1 5-.1 1.8 0 3.6 0 5 .1s2.3.1 2.3.1-.9.1-2.3.1c-1.4.1-3.2.1-5 .1-1.8 0-3.6-.1-5-.1s-2.3-.1-2.3-.1z"/><path class="st15" d="M-343.1-85.9h14.5"/><path class="st2" d="M-343.1-85.9s.9-.1 2.3-.1c1.4-.1 3.2-.1 5-.1 1.8 0 3.6 0 5 .1s2.3.1 2.3.1-.9.1-2.3.1c-1.4.1-3.2.1-5 .1-1.8 0-3.6-.1-5-.1s-2.3-.1-2.3-.1z"/><path class="st15" d="M-312.1-85.9h14.5"/><path class="st2" d="M-312.1-85.9s.9-.1 2.3-.1c1.4-.1 3.2-.1 5-.1 1.8 0 3.6 0 5 .1s2.3.1 2.3.1-.9.1-2.3.1c-1.4.1-3.2.1-5 .1-1.8 0-3.6-.1-5-.1s-2.3-.1-2.3-.1z"/><path class="st15" d="M-281.2-86.4h14.5"/><path class="st2" d="M-281.2-86.4s.9-.1 2.3-.1c1.4-.1 3.2-.1 5-.1 1.8 0 3.6 0 5 .1s2.3.1 2.3.1-.9.1-2.3.1c-1.4.1-3.2.1-5 .1-1.8 0-3.6-.1-5-.1s-2.3-.1-2.3-.1z"/><path class="st10" d="M-201-69.2v21.099999999999998s6.3-8.9 16.3-9c10.1 0 18.3 7 19.8 14.5l.3.7v6.1h10.4v-8.8s2.8-14.1 20-14.8c0 0 15.5.9 19 15v8.6h9.6v-11.6s-.6 2.3 1.1-1.6 7.9-11.9 18.7-12 18.8 9.9 19.2 15.8v9.4h9.7v-9.5s4.3-13.6 19.9-14.1c0 0 14.8 0 18.8 14.6v9.6h10.7v-7.4s4.7-14.4 20.4-14.3c0 0 15.9 1.2 18.6 15.6v7.6h.8v-36.4l-112.3-2.4-121 3.3z"/><path class="st11" d="M29.4-67.1l-114.4-3.9c-.8-.1-1.5-.1-2.3 0l-113.7 3.9v-5l113.8-3.9c.8-.1 1.5-.1 2.3 0l114.3 3.9v5z"/><path class="st16" d="M29.4-70.8l-114.4-3.9c-.8-.1-1.5-.1-2.3 0l-113.7 3.9"/><path class="st6" d="M-76.9-70.2h-17.7v-6.2l7.8-2.8c.7-.1 1.3-.1 2 0l7.8 2.8v6.2z"/><circle class="st11" cx="-85.9" cy="-81.5" r="1.8"/><path class="st4" d="M-112.9-46.9c.8-1.9 1-3.7 1-5.7v-17.6h3.4v17.6c0 2.3.6 4.9 1.2 5.7"/><circle class="st11" cx="-109.9" cy="-79.9" r="1.3"/><path class="st6" d="M-106.4-76.1v6.2l-7.4.1v-6.3l3.9-2.5z"/><path class="st11" d="M-112.9-76.1h5.6"/><path class="st4" d="M-112.9-46.9h5.7v3h-5.7zM-112.5-43.9h4.7v8h-4.7z"/><path class="st2" d="M-113-69.6l-.2 20.5-.2-20.5c0-.1.1-.3.2-.3s.2.1.2.3zM-106.9-69.6l-.2 20.5-.2-20.5c0-.1.1-.3.2-.3s.2.1.2.3z"/><path class="st4" d="M-162.1-44.9c.8-1.9 1-3.7 1-5.7v-17.6h3.4v17.6c0 2.3.6 4.9 1.2 5.7"/><circle class="st11" cx="-159.1" cy="-77.9" r="1.3"/><path class="st6" d="M-155.5-74.1v6.2l-7.4.1v-6.3l3.8-2.5z"/><path class="st11" d="M-162.1-74.1h5.6"/><path class="st4" d="M-162.1-44.9h5.7v3h-5.7zM-161.7-41.9h4.7v8h-4.7z"/><path class="st2" d="M-162.2-67.6l-.2 20.5-.2-20.5c0-.1.1-.3.2-.3s.2.1.2.3zM-156.1-67.6l-.2 20.5-.2-20.5c0-.1.1-.3.2-.3s.2.1.2.3z"/><path class="st4" d="M-9.4-44.9c-.8-1.9-1-3.7-1-5.7v-17.6h-3.4v17.6c0 2.3-.6 4.9-1.2 5.7"/><circle class="st11" cx="-12.4" cy="-77.9" r="1.3"/><path class="st6" d="M-15.9-74.1v6.2l7.4.1v-6.3l-3.9-2.5z"/><path class="st11" d="M-9.4-74.1h-5.6"/><path class="st4" d="M-15-44.9h5.7v3h-5.7zM-14.6-41.9h4.7v8h-4.7z"/><path class="st2" d="M-8.8-67.6l-.2 20.5-.2-20.5c0-.1.1-.3.2-.3s.2.1.2.3zM-14.9-67.6l-.2 20.5-.2-20.5c0-.1.1-.3.2-.3s.2.1.2.3z"/><path class="st4" d="M-58.9-46.9c-.8-1.9-1-3.7-1-5.7v-17.6h-3.4v17.6c0 2.3-.6 4.9-1.2 5.7"/><circle class="st11" cx="-62" cy="-79.9" r="1.3"/><path class="st6" d="M-65.5-76.1v6.2l7.4.1v-6.3l-3.8-2.5z"/><path class="st11" d="M-58.9-76.1h-5.7"/><path class="st4" d="M-64.6-46.9h5.7v3h-5.7zM-64.1-43.9h4.7v8h-4.7z"/><path class="st2" d="M-58.3-69.6l-.2 20.5-.2-20.5c0-.1.1-.3.2-.3 0 0 .2.1.2.3zM-64.5-69.6l-.2 20.5-.3-20.5c0-.1.1-.3.2-.3.2 0 .3.1.3.3z"/><path class="st4" d="M-88.8-70.1h5.5v5.8h-5.5z"/><path class="st2" d="M-93.1-74.8c2.3-1.3 4.7-2.4 7.1-3.3h.4c2.4 1 4.7 2 6.9 3.3-2.5-.6-4.9-1.5-7.3-2.4h.4c-2.4.9-4.9 1.8-7.5 2.4z"/><path class="st4" d="M-83.8-73.1c0-1.2-1-2.2-2.2-2.2s-2.2 1-2.2 2.2v.9h4.4v-.9zM-17.8-45.2c0-9.7-9.8-17.5-19.5-17.5s-19.5 7.8-19.5 17.5v7.3h38.8l.2-7.3z"/><path class="st2" d="M-17.8-42.1s0-.2-.1-.6c-.1-.4-.1-1-.3-1.8-.1-.4-.1-.8-.3-1.3-.2-.4-.3-.9-.5-1.4-.2-.5-.5-1-.7-1.6-.3-.5-.6-1.1-1-1.6-.8-1.1-1.7-2.2-2.8-3.2-1.1-1.1-2.4-2-3.9-2.8-1.4-.8-3-1.5-4.7-2-1.7-.5-3.5-.7-5.2-.7-1.8 0-3.5.3-5.2.7-1.7.5-3.3 1.1-4.7 2-1.4.8-2.8 1.8-3.9 2.8-1.2 1-2.1 2.1-2.8 3.2-.4.6-.7 1.1-1 1.6-.3.6-.5 1.1-.7 1.6-.2.5-.3 1-.5 1.4-.2.4-.2.9-.3 1.3-.2.8-.2 1.4-.3 1.8 0 .4-.1.6-.1.6v-.6c0-.4 0-1.1.1-1.8.1-.4.1-.8.2-1.3l.4-1.5c.2-.5.4-1.1.7-1.6.3-.5.6-1.1 1-1.7.8-1.1 1.7-2.3 2.8-3.4 1.1-1.1 2.5-2.1 3.9-3 1.5-.9 3.1-1.6 4.8-2.1 1.7-.5 3.6-.8 5.4-.8 1.9 0 3.7.3 5.4.8 1.7.5 3.4 1.2 4.8 2.1 1.5.9 2.8 1.9 3.9 3 1.2 1.1 2 2.3 2.8 3.4.4.6.7 1.2 1 1.7.2.6.5 1.1.7 1.6.2.5.3 1 .4 1.5.1.5.2.9.2 1.3.2.8.1 1.4.1 1.8.4.4.4.6.4.6zM-40-65.2s-.3 0-.9.1c-.3 0-.6.1-1.1.1-.4 0-.8.2-1.3.3-.5.1-1 .2-1.6.4-.5.2-1.1.4-1.7.6-.6.2-1.2.5-1.8.8-.6.3-1.2.6-1.7 1l-1.6 1.1-.8.6-.7.6c-.5.4-.9.9-1.3 1.3-.4.5-.7.9-1 1.3-1.2 1.6-1.7 2.9-1.7 2.9s.4-1.3 1.6-3c.3-.4.6-.9 1-1.3s.8-.9 1.2-1.4l.7-.7c.2-.2.5-.4.8-.7.5-.5 1.1-.8 1.6-1.2.6-.4 1.2-.7 1.7-1.1l1.8-.9c.6-.2 1.2-.4 1.7-.7.6-.2 1.1-.3 1.6-.5.5-.1 1-.3 1.4-.3.4-.1.8-.1 1-.2.6-.1.9-.2.9-.2.3 0 .5.1.6.4.1.4-.1.7-.4.7zM-54.1-54.4l-1.7-1.7 2.3.8c.3.1.4.4.3.7-.1.3-.4.4-.7.3l-.2-.1zM-49.2-59l-1.3-2.8 2.1 2.2c.2.2.2.5 0 .7-.2.2-.5.2-.7 0-.1 0-.1-.1-.1-.1zM-43.8-61.8l-.3-2.8 1.2 2.6c.1.3 0 .6-.2.7s-.6 0-.7-.2v-.3zM-34.1-66.3s.3.1.9.2c.3.1.6.1 1.1.2.4.1.9.2 1.4.3l1.6.5c.6.2 1.1.4 1.7.7l1.8.9c.6.4 1.2.7 1.7 1.1l1.6 1.2c.5.4 1 .9 1.4 1.4.5.4.8.9 1.2 1.4.3.5.7.9 1 1.3 1.1 1.7 1.6 3 1.6 3s-.5-1.3-1.7-2.9c-.3-.4-.7-.8-1-1.3-.4-.4-.8-.9-1.3-1.3-.4-.4-1-.9-1.5-1.3s-1.1-.8-1.6-1.1c-.6-.4-1.2-.7-1.7-1l-1.8-.8c-.6-.2-1.2-.4-1.7-.6-.5-.2-1.1-.3-1.6-.4-.5-.1-.9-.2-1.3-.3-.4-.1-.8-.1-1.1-.2-.6-.1-.9-.1-.9-.1-.3 0-.5-.3-.4-.6 0-.2.3-.3.6-.3zM-21-55.1l2.6-1-2.1 1.9c-.2.2-.5.2-.7 0-.2-.2-.2-.5 0-.7.1-.1.2-.1.2-.2zM-25.8-59.6l2.1-2.2-1.3 2.8c-.1.3-.4.4-.7.2-.3-.1-.4-.4-.2-.7l.1-.1zM-31.4-62.1l1.2-2.6-.3 2.8c0 .3-.3.5-.6.5s-.5-.3-.5-.6c.2.1.2 0 .2-.1zM-56.1-46.5s.1-.8.6-2.2c.5-1.3 1.2-3.3 2.7-5.3 1.4-2 3.6-4 6.4-5.4 2.8-1.4 6.1-2 9.4-2 1.6 0 3.3.2 4.9.6 1.6.4 3.1 1 4.4 1.8 2.7 1.5 4.8 3.6 6.2 5.6 1.5 2 2.3 3.9 2.7 5.2.5 1.4.5 2.2.5 2.2s-.1-.8-.6-2.1-1.4-3.2-2.9-5.1c-1.5-1.9-3.5-3.9-6.2-5.4-1.3-.7-2.8-1.3-4.3-1.7-1.5-.4-3.1-.6-4.8-.6-3.2 0-6.5.6-9.2 1.9-2.7 1.3-4.9 3.2-6.3 5.2-1.5 1.9-2.3 3.8-2.8 5.1-.6 1.4-.7 2.2-.7 2.2zM-34.4-67.6s0 .2.1.4c0 .1.1.3.1.5v.6c0 .3-.1.6-.3.9l-.3.4c-.1.1-.2.2-.4.3-.3.2-.6.4-.9.5l-.5.1-.5.1c-.4 0-.6 0-1-.1s-.7-.2-1-.4c-.3-.2-.5-.4-.7-.7-.2-.3-.3-.5-.4-.8-.1-.3 0-.5 0-.7 0-.2.1-.4.1-.5.1-.3.1-.4.1-.4s0 .2.1.4c0 .1.1.3.1.5.1.2.1.4.2.5.1.2.2.3.4.5l.6.4c.2.1.5.2.7.2.2.1.6.1.8.1h.4l.4-.1c.2-.1.5-.1.7-.3l.3-.2.3-.2c.2-.2.2-.3.3-.5l.1-.3s0-.2.1-.3c0-.2.1-.4.1-.5v-.4z"/><path class="st4" d="M-37.2-64.3v1.3"/><path class="st4" d="M31.5-42.8c0-9.7-9.8-17.5-19.5-17.5s-19.5 7.8-19.5 17.5v7.3h38.8l.2-7.3z"/><path class="st2" d="M31.5-39.6s0-.2-.1-.6c-.1-.4-.1-1-.3-1.8-.1-.4-.1-.8-.3-1.3-.2-.4-.3-.9-.5-1.4-.2-.5-.5-1-.7-1.6-.3-.5-.6-1.1-1-1.6-.8-1.1-1.7-2.2-2.8-3.2-1.1-1.1-2.4-2-3.9-2.8-1.4-.8-3-1.5-4.7-2-1.7-.5-3.5-.7-5.2-.7-1.8 0-3.5.3-5.2.7-1.7.5-3.3 1.1-4.7 2-1.4.8-2.8 1.8-3.9 2.8-1.2 1-2.1 2.1-2.8 3.2-.4.6-.7 1.1-1 1.6-.3.6-.5 1.1-.7 1.6-.2.5-.3 1-.5 1.4-.2.4-.2.9-.3 1.3-.2.8-.2 1.4-.3 1.8 0 .4-.1.6-.1.6v-.6c0-.4 0-1.1.1-1.8.1-.4.1-.8.2-1.3l.4-1.5c.2-.5.4-1.1.7-1.6.3-.5.6-1.1 1-1.7.8-1.1 1.7-2.3 2.8-3.4 1.1-1.1 2.5-2.1 3.9-3 1.5-.9 3.1-1.6 4.8-2.1 1.7-.5 3.6-.8 5.4-.8 1.9 0 3.7.3 5.4.8 1.7.5 3.4 1.2 4.8 2.1 1.5.9 2.8 1.9 3.9 3 1.2 1.1 2 2.3 2.8 3.4.4.6.7 1.2 1 1.7.2.6.5 1.1.7 1.6.2.5.3 1 .4 1.5.1.5.2.9.2 1.3.2.8.1 1.4.1 1.8.4.4.4.6.4.6zM9.4-62.7s-.3 0-.9.1c-.3 0-.6.1-1.1.1-.4 0-.8.2-1.3.3-.5.1-1 .2-1.6.4-.5.2-1.1.4-1.7.6-.6.2-1.2.5-1.8.8-.6.3-1.2.6-1.7 1l-1.6 1.1-.8.6-.7.6c-.5.4-.9.9-1.3 1.3-.4.5-.7.9-1 1.3-1.2 1.6-1.7 2.9-1.7 2.9s.4-1.3 1.6-3c.3-.4.6-.9 1-1.3s.8-.9 1.2-1.4l.7-.7c.2-.2.5-.4.8-.7.5-.5 1.1-.8 1.6-1.2.6-.4 1.2-.7 1.7-1.1l1.8-.9c.6-.2 1.2-.4 1.7-.7.6-.2 1.1-.3 1.6-.5.5-.1 1-.3 1.4-.3.4-.1.8-.1 1-.2.6-.1.9-.2.9-.2.3 0 .5.1.6.4.1.3-.1.6-.4.7zM-4.7-52l-1.7-1.7 2.3.8c.3.1.4.4.3.7-.1.3-.4.4-.7.3-.1 0-.2 0-.2-.1zM.1-56.6l-1.3-2.8 2.1 2.2c.2.2.2.5 0 .7-.2.2-.5.2-.7 0 0 0-.1 0-.1-.1zM5.6-59.3l-.3-2.8 1.2 2.6c.1.3 0 .6-.2.7-.3.1-.6 0-.7-.2v-.3zM15.2-63.9s.3.1.9.2c.3.1.6.1 1.1.2.4.1.9.2 1.4.3l1.6.5c.6.2 1.1.4 1.7.7l1.8.9c.6.4 1.2.7 1.7 1.1l1.6 1.2c.5.4 1 .9 1.4 1.4.5.4.8.9 1.2 1.4.3.5.7.9 1 1.3 1.1 1.7 1.6 3 1.6 3s-.5-1.3-1.7-2.9c-.3-.4-.7-.8-1-1.3-.4-.4-.8-.9-1.3-1.3-.4-.4-1-.9-1.5-1.3s-1.1-.8-1.6-1.1c-.6-.4-1.2-.7-1.7-1l-1.8-.8c-.6-.2-1.2-.4-1.7-.6-.5-.2-1.1-.3-1.6-.4-.5-.1-.9-.2-1.3-.3-.4-.1-.8-.1-1.1-.2-.6-.1-.9-.1-.9-.1-.3 0-.5-.3-.4-.6.1-.1.3-.3.6-.3zM28.4-52.6l2.6-1-2.1 1.9c-.2.2-.5.2-.7 0s-.2-.5 0-.7c.1-.2.1-.2.2-.2zM23.6-57.2l2.1-2.2-1.3 2.8c-.1.3-.4.4-.7.2-.3-.1-.4-.4-.2-.7l.1-.1zM18-59.6l1.2-2.6-.3 2.8c0 .3-.3.5-.6.5s-.5-.3-.5-.6c.1 0 .2-.1.2-.1zM-6.8-44s.1-.8.6-2.2c.5-1.3 1.2-3.3 2.7-5.3 1.4-2 3.6-4 6.4-5.4 2.8-1.4 6.1-2 9.4-2 1.6 0 3.3.2 4.9.6 1.6.4 3.1 1 4.4 1.8 2.7 1.5 4.8 3.6 6.2 5.6 1.5 2 2.3 3.9 2.7 5.2.5 1.4.5 2.2.5 2.2s-.1-.8-.6-2.1-1.4-3.2-2.9-5.1c-1.5-1.9-3.5-3.9-6.2-5.4-1.3-.7-2.8-1.3-4.3-1.7-1.5-.4-3.1-.6-4.8-.6-3.2 0-6.5.6-9.2 1.9-2.7 1.3-4.9 3.2-6.3 5.2-1.5 1.9-2.3 3.8-2.8 5.1-.5 1.4-.7 2.2-.7 2.2zM15-65.2s0 .2.1.4c0 .1.1.3.1.5v.6c0 .3-.1.6-.3.9l-.3.4c-.1.1-.2.2-.4.3-.3.2-.6.4-.9.5l-.5.1-.5.1c-.4 0-.6 0-1-.1s-.7-.2-1-.4c-.3-.2-.5-.4-.7-.7-.2-.3-.3-.5-.4-.8-.1-.3 0-.5 0-.7 0-.2.1-.4.1-.5v-.4s0 .2.1.4c0 .1.1.3.1.5.1.2.1.4.2.5.1.2.2.3.4.5l.6.4c.2.1.5.2.7.2.2.1.6.1.8.1h.4l.4-.1c.2-.1.5-.1.7-.3l.3-.2.3-.2c.2-.2.2-.3.3-.5l.1-.3s0-.2.1-.3c0-.2.1-.4.1-.5 0-.2.1-.4.1-.4z"/><path class="st4" d="M12.1-61.8v1.2"/><path class="st4" d="M-154.2-45.2c0-9.7 9.8-17.5 19.5-17.5s19.5 7.8 19.5 17.5v7.3h-38.8l-.2-7.3z"/><path class="st2" d="M-154.2-42.1v-.6c0-.4 0-1 .1-1.8.1-.4.1-.8.2-1.3l.4-1.5c.2-.5.4-1.1.7-1.6.3-.5.6-1.1 1-1.7.8-1.1 1.7-2.3 2.8-3.4 1.1-1.1 2.5-2.1 3.9-3 1.5-.9 3.1-1.6 4.8-2.1 1.7-.5 3.5-.8 5.4-.8 1.8 0 3.7.3 5.4.8 1.7.5 3.4 1.2 4.8 2.1 1.5.9 2.8 1.9 3.9 3 1.2 1.1 2 2.3 2.8 3.4.4.6.7 1.2 1 1.7.2.6.5 1.1.7 1.6.2.5.3 1 .4 1.5.1.5.2.9.2 1.3.2.8.1 1.4.1 1.8v.6s0-.2-.1-.6c-.1-.4-.1-1-.3-1.8-.1-.4-.1-.8-.3-1.3-.2-.4-.3-.9-.5-1.4-.2-.5-.5-1-.7-1.6-.3-.5-.6-1.1-1-1.6-.8-1.1-1.7-2.2-2.8-3.2-1.1-1.1-2.4-2-3.9-2.8-1.4-.8-3-1.5-4.7-2-1.7-.5-3.4-.7-5.2-.7-1.7 0-3.5.3-5.2.7-1.7.5-3.3 1.1-4.7 2-1.4.8-2.8 1.8-3.9 2.8-1.2 1-2.1 2.1-2.8 3.2-.4.6-.7 1.1-1 1.6-.3.6-.5 1.1-.7 1.6-.2.5-.3 1-.5 1.4-.2.4-.2.9-.3 1.3-.2.8-.2 1.4-.3 1.8.4.4.3.6.3.6zM-131.9-66.2s.3.1.9.2c.3.1.6.1 1 .2s.9.2 1.4.3c.5.1 1.1.3 1.6.5.6.2 1.1.4 1.7.7l1.8.9c.6.4 1.2.7 1.7 1.1l1.6 1.2c.3.2.5.4.8.7l.7.7c.5.4.8.9 1.2 1.4.3.5.7.9 1 1.3 1.1 1.7 1.6 3 1.6 3s-.5-1.3-1.7-2.9c-.3-.4-.6-.8-1-1.3-.4-.4-.8-.9-1.3-1.3l-.7-.6-.8-.6c-.5-.4-1.1-.8-1.6-1.1-.6-.4-1.2-.6-1.7-1l-1.8-.8c-.6-.2-1.2-.4-1.7-.6-.5-.2-1.1-.3-1.6-.4-.5-.1-.9-.2-1.3-.3-.4-.1-.8-.1-1.1-.1-.6-.1-.9-.1-.9-.1-.3 0-.5-.3-.4-.6.1-.3.3-.5.6-.5zM-118.4-55.3l2.3-.8-1.7 1.7c-.2.2-.5.2-.7 0s-.2-.5 0-.7c-.1-.1 0-.1.1-.2zM-123.6-59.6l2.1-2.2-1.3 2.8c-.1.3-.4.4-.7.2-.3-.1-.4-.4-.2-.7.1 0 .1-.1.1-.1zM-129.2-62.1l1.2-2.6-.3 2.8c0 .3-.3.5-.6.5s-.5-.3-.5-.6c.2.1.2 0 .2-.1zM-137.7-65.3s-.3 0-.9.1c-.3 0-.7.1-1.1.2-.4 0-.9.2-1.3.3-.5.1-1 .2-1.6.4-.5.2-1.1.4-1.7.6l-1.8.8c-.6.3-1.2.6-1.7 1l-1.6 1.1c-.5.4-1 .8-1.5 1.3-.5.4-.9.9-1.3 1.3s-.7.9-1 1.3c-1.2 1.6-1.7 2.9-1.7 2.9s.4-1.3 1.6-3c.3-.4.6-.9 1-1.3s.8-.9 1.2-1.4c.4-.5.9-.9 1.4-1.4.5-.5 1.1-.8 1.6-1.2.6-.4 1.2-.7 1.7-1.1l1.8-.9c.6-.2 1.2-.5 1.7-.7.6-.2 1.1-.3 1.6-.5.5-.1 1-.3 1.4-.3.4-.1.8-.1 1.1-.2.6-.1.9-.2.9-.2.3-.1.5.1.6.4.1.2-.1.4-.4.5zM-151.6-54.2l-2.1-1.9 2.6 1c.3.1.4.4.3.7-.1.3-.4.4-.7.3 0 0 0-.1-.1-.1zM-147-59l-1.3-2.8 2.1 2.2c.2.2.2.5 0 .7-.2.2-.5.2-.7 0-.1 0-.1-.1-.1-.1zM-141.6-61.8l-.3-2.8 1.2 2.6c.1.3 0 .6-.2.7-.3.1-.6 0-.7-.2.1-.2 0-.2 0-.3zM-115.9-46.5s-.2-.8-.7-2.1c-.5-1.3-1.4-3.2-2.8-5.1-1.5-1.9-3.6-3.9-6.3-5.2-2.7-1.3-6-1.9-9.2-1.9-1.6 0-3.2.2-4.8.6-1.5.4-3 .9-4.3 1.7-2.6 1.5-4.7 3.5-6.2 5.4-1.5 1.9-2.4 3.8-2.9 5.1-.5 1.3-.6 2.1-.6 2.1s.1-.8.5-2.2c.5-1.3 1.3-3.2 2.7-5.2 1.4-2 3.5-4.1 6.2-5.6 1.3-.8 2.8-1.3 4.4-1.8 1.6-.4 3.2-.6 4.9-.6 3.3 0 6.6.6 9.4 2 2.8 1.4 4.9 3.4 6.4 5.4 1.5 2 2.2 3.9 2.7 5.3.5 1.3.6 2.1.6 2.1zM-137.6-67.6s0 .2.1.4c0 .1.1.3.1.5 0 .1 0 .2.1.3l.1.3.3.5c.1.1.2.2.3.2l.3.2.7.3.4.1h.4c.2 0 .6 0 .8-.1.2 0 .5-.1.7-.2.2-.1.4-.2.6-.4l.4-.5c.1-.2.1-.4.2-.5 0-.2.1-.4.1-.5.1-.3.1-.4.1-.4s0 .2.1.4c0 .1.1.3.1.5s.1.5 0 .7c-.1.3-.2.5-.4.8-.2.2-.4.5-.7.7-.3.2-.6.3-1 .4-.4.1-.6.1-1 .1l-.5-.1-.5-.1c-.3-.1-.7-.3-.9-.5l-.4-.3c-.1-.1-.2-.2-.3-.4-.2-.2-.3-.6-.3-.9v-.6c0-.2.1-.4.1-.5v-.4z"/><path class="st4" d="M-134.8-64.3v1.3"/><path class="st4" d="M-105.5-46.8c0-9.7 9.8-17.5 19.5-17.5s19.5 7.8 19.5 17.5v7.3h-38.8l-.2-7.3z"/><path class="st2" d="M-105.5-43.6v-.6c0-.4 0-1 .1-1.8.1-.4.1-.8.2-1.3l.4-1.5c.2-.5.4-1.1.7-1.6.3-.5.6-1.1 1-1.7.8-1.1 1.7-2.3 2.8-3.4 1.1-1.1 2.5-2.1 3.9-3 1.5-.9 3.1-1.6 4.8-2.1 1.7-.5 3.5-.8 5.4-.8 1.8 0 3.7.3 5.4.8 1.7.5 3.4 1.2 4.8 2.1 1.5.9 2.8 1.9 3.9 3 1.2 1.1 2 2.3 2.8 3.4.4.6.7 1.2 1 1.7.2.6.5 1.1.7 1.6.2.5.3 1 .4 1.5.1.5.2.9.2 1.3.2.8.1 1.4.1 1.8v.6s0-.2-.1-.6c-.1-.4-.1-1-.3-1.8-.1-.4-.1-.8-.3-1.3-.2-.4-.3-.9-.5-1.4-.2-.5-.5-1-.7-1.6-.3-.5-.6-1.1-1-1.6-.8-1.1-1.7-2.2-2.8-3.2-1.1-1.1-2.4-2-3.9-2.8-1.4-.8-3-1.5-4.7-2-1.7-.5-3.4-.7-5.2-.7-1.7 0-3.5.3-5.2.7-1.7.5-3.3 1.1-4.7 2-1.4.8-2.8 1.8-3.9 2.8-1.2 1-2.1 2.1-2.8 3.2-.4.6-.7 1.1-1 1.6-.3.6-.5 1.1-.7 1.6-.2.5-.3 1-.5 1.4-.2.4-.2.9-.3 1.3-.2.8-.2 1.4-.3 1.8.3.3.3.6.3.6zM-83.2-67.8s.3.1.9.2c.3.1.6.1 1 .2s.9.2 1.4.3c.5.1 1.1.3 1.6.5.6.2 1.1.4 1.7.7l1.8.9c.6.4 1.2.7 1.7 1.1l1.6 1.2c.3.2.5.4.8.7l.7.7c.5.4.8.9 1.2 1.4.3.5.7.9 1 1.3 1.1 1.7 1.6 3 1.6 3s-.5-1.3-1.7-2.9c-.3-.4-.6-.8-1-1.3-.4-.4-.8-.9-1.3-1.3l-.7-.6-.8-.6c-.5-.4-1.1-.8-1.6-1.1-.6-.4-1.2-.6-1.7-1l-1.8-.8c-.6-.2-1.2-.4-1.7-.6-.5-.2-1.1-.3-1.6-.4-.5-.1-.9-.2-1.3-.3-.4-.1-.8-.1-1.1-.1-.6-.1-.9-.1-.9-.1-.3 0-.5-.3-.4-.6 0-.3.3-.5.6-.5zM-69.8-56.9l2.3-.8-1.7 1.7c-.2.2-.5.2-.7 0s-.2-.5 0-.7c0-.1 0-.1.1-.2zM-75-61.2l2.1-2.2-1.3 2.8c-.1.3-.4.4-.7.2-.3-.1-.4-.4-.2-.7.1 0 .1-.1.1-.1zM-80.6-63.7l1.2-2.6-.3 2.8c0 .3-.3.5-.6.5s-.5-.3-.5-.6c.2.1.2 0 .2-.1zM-89.1-66.9s-.3 0-.9.1c-.3 0-.7.1-1.1.2-.4 0-.9.2-1.3.3-.5.1-1 .2-1.6.4-.5.2-1.1.4-1.7.6l-1.8.8c-.6.3-1.2.6-1.7 1l-1.6 1.1c-.5.4-1 .8-1.5 1.3-.5.4-.9.9-1.3 1.3s-.7.9-1 1.3c-1.2 1.6-1.7 2.9-1.7 2.9s.4-1.3 1.6-3c.3-.4.6-.9 1-1.3s.8-.9 1.2-1.4c.4-.5.9-.9 1.4-1.4.5-.5 1.1-.8 1.6-1.2.6-.4 1.2-.7 1.7-1.1l1.8-.9c.6-.2 1.2-.5 1.7-.7.6-.2 1.1-.3 1.6-.5.5-.1 1-.3 1.4-.3.4-.1.8-.1 1.1-.2.6-.1.9-.2.9-.2.3-.1.5.1.6.4.1.2-.1.4-.4.5zM-102.9-55.8l-2.1-1.9 2.6 1c.3.1.4.4.3.7-.1.3-.4.4-.7.3l-.1-.1zM-98.4-60.6l-1.3-2.8 2.1 2.2c.2.2.2.5 0 .7-.2.2-.5.2-.7 0-.1 0-.1-.1-.1-.1zM-92.9-63.4l-.3-2.8 1.2 2.6c.1.3 0 .6-.2.7s-.6 0-.7-.2v-.3zM-67.2-48.1s-.2-.8-.7-2.1c-.5-1.3-1.4-3.2-2.8-5.1-1.5-1.9-3.6-3.9-6.3-5.2-2.7-1.3-6-1.9-9.2-1.9-1.6 0-3.2.2-4.8.6-1.5.4-3 .9-4.3 1.7-2.6 1.5-4.7 3.5-6.2 5.4-1.5 1.9-2.4 3.8-2.9 5.1-.5 1.3-.6 2.1-.6 2.1s.1-.8.5-2.2c.5-1.3 1.3-3.2 2.7-5.2 1.4-2 3.5-4.1 6.2-5.6 1.3-.8 2.8-1.3 4.4-1.8 1.6-.4 3.2-.6 4.9-.6 3.3 0 6.6.6 9.4 2 2.8 1.4 4.9 3.4 6.4 5.4 1.5 2 2.2 3.9 2.7 5.3.4 1.3.6 2.1.6 2.1z"/><path class="st4" d="M-203.5-42.8c0-9.7 9.8-17.5 19.5-17.5s19.5 7.8 19.5 17.5v7.3h-38.8l-.2-7.3z"/><path class="st2" d="M-203.5-39.6v-.6c0-.4 0-1 .1-1.8.1-.4.1-.8.2-1.3l.4-1.5c.2-.5.4-1.1.7-1.6.3-.5.6-1.1 1-1.7.8-1.1 1.7-2.3 2.8-3.4 1.1-1.1 2.5-2.1 3.9-3 1.5-.9 3.1-1.6 4.8-2.1 1.7-.5 3.5-.8 5.4-.8 1.8 0 3.7.3 5.4.8 1.7.5 3.4 1.2 4.8 2.1 1.5.9 2.8 1.9 3.9 3 1.2 1.1 2 2.3 2.8 3.4.4.6.7 1.2 1 1.7.2.6.5 1.1.7 1.6.2.5.3 1 .4 1.5.1.5.2.9.2 1.3.2.8.1 1.4.1 1.8v.6s0-.2-.1-.6c-.1-.4-.1-1-.3-1.8-.1-.4-.1-.8-.3-1.3-.2-.4-.3-.9-.5-1.4-.2-.5-.5-1-.7-1.6-.3-.5-.6-1.1-1-1.6-.8-1.1-1.7-2.2-2.8-3.2-1.1-1.1-2.4-2-3.9-2.8-1.4-.8-3-1.5-4.7-2-1.7-.5-3.4-.7-5.2-.7-1.7 0-3.5.3-5.2.7-1.7.5-3.3 1.1-4.7 2-1.4.8-2.8 1.8-3.9 2.8-1.2 1-2.1 2.1-2.8 3.2-.4.6-.7 1.1-1 1.6-.3.6-.5 1.1-.7 1.6-.2.5-.3 1-.5 1.4-.2.4-.2.9-.3 1.3-.2.8-.2 1.4-.3 1.8.3.4.3.6.3.6zM-181.2-63.7s.3.1.9.2c.3.1.6.1 1 .2s.9.2 1.4.3c.5.1 1.1.3 1.6.5.6.2 1.1.4 1.7.7l1.8.9c.6.4 1.2.7 1.7 1.1l1.6 1.2c.3.2.5.4.8.7l.7.7c.5.4.8.9 1.2 1.4.3.5.7.9 1 1.3 1.1 1.7 1.6 3 1.6 3s-.5-1.3-1.7-2.9c-.3-.4-.6-.8-1-1.3-.4-.4-.8-.9-1.3-1.3l-.7-.6-.8-.6c-.5-.4-1.1-.8-1.6-1.1-.6-.4-1.2-.6-1.7-1l-1.8-.8c-.6-.2-1.2-.4-1.7-.6-.5-.2-1.1-.3-1.6-.4-.5-.1-.9-.2-1.3-.3-.4-.1-.8-.1-1.1-.1-.6-.1-.9-.1-.9-.1-.3 0-.5-.3-.4-.6 0-.4.3-.6.6-.5zM-167.8-52.8l2.3-.8-1.7 1.7c-.2.2-.5.2-.7 0-.2-.2-.2-.5 0-.7 0-.2 0-.2.1-.2zM-172.9-57.2l2.1-2.2-1.3 2.8c-.1.3-.4.4-.7.2-.3-.1-.4-.4-.2-.7l.1-.1zM-178.6-59.6l1.2-2.6-.3 2.8c0 .3-.3.5-.6.5s-.5-.3-.5-.6c.2 0 .2-.1.2-.1zM-187.1-62.9s-.3 0-.9.1c-.3 0-.7.1-1.1.2-.4 0-.9.2-1.3.3-.5.1-1 .2-1.6.4-.5.2-1.1.4-1.7.6l-1.8.8c-.6.3-1.2.6-1.7 1l-1.6 1.1c-.5.4-1 .8-1.5 1.3-.5.4-.9.9-1.3 1.3s-.7.9-1 1.3c-1.2 1.6-1.7 2.9-1.7 2.9s.4-1.3 1.6-3c.3-.4.6-.9 1-1.3s.8-.9 1.2-1.4c.4-.5.9-.9 1.4-1.4.5-.5 1.1-.8 1.6-1.2.6-.4 1.2-.7 1.7-1.1l1.8-.9c.6-.2 1.2-.5 1.7-.7.6-.2 1.1-.3 1.6-.5.5-.1 1-.3 1.4-.3.4-.1.8-.1 1.1-.2.6-.1.9-.2.9-.2.3-.1.5.1.6.4.1.2-.1.5-.4.5zM-200.9-51.8l-2.1-1.9 2.6 1c.3.1.4.4.3.7-.1.3-.4.4-.7.3 0 0-.1 0-.1-.1zM-196.4-56.6l-1.3-2.8 2.1 2.2c.2.2.2.5 0 .7-.2.2-.5.2-.7 0 0 0-.1 0-.1-.1zM-190.9-59.3l-.3-2.8 1.2 2.6c.1.3 0 .6-.2.7s-.6 0-.7-.2v-.3zM-165.2-44s-.2-.8-.7-2.1c-.5-1.3-1.4-3.2-2.8-5.1-1.5-1.9-3.6-3.9-6.3-5.2-2.7-1.3-6-1.9-9.2-1.9-1.6 0-3.2.2-4.8.6-1.5.4-3 .9-4.3 1.7-2.6 1.5-4.7 3.5-6.2 5.4-1.5 1.9-2.4 3.8-2.9 5.1-.5 1.3-.6 2.1-.6 2.1s.1-.8.5-2.2c.5-1.3 1.3-3.2 2.7-5.2 1.4-2 3.5-4.1 6.2-5.6 1.3-.8 2.8-1.3 4.4-1.8 1.6-.4 3.2-.6 4.9-.6 3.3 0 6.6.6 9.4 2 2.8 1.4 4.9 3.4 6.4 5.4 1.5 2 2.2 3.9 2.7 5.3.4 1.3.6 2.1.6 2.1zM-187-65.2s0 .2.1.4c0 .1.1.3.1.5 0 .1 0 .2.1.3l.1.3.3.5c.1.1.2.2.3.2l.3.2.7.3.4.1h.4c.2 0 .6 0 .8-.1.2 0 .5-.1.7-.2.2-.1.4-.2.6-.4l.4-.5c.1-.2.1-.4.2-.5 0-.2.1-.4.1-.5.1-.3.1-.4.1-.4s0 .2.1.4c0 .1.1.3.1.5s.1.5 0 .7c-.1.3-.2.5-.4.8-.2.2-.4.5-.7.7-.3.2-.6.3-1 .4-.4.1-.6.1-1 .1l-.5-.1-.5-.1c-.3-.1-.7-.3-.9-.5l-.4-.3c-.1-.1-.2-.2-.3-.4-.2-.2-.3-.6-.3-.9v-.6c0-.2.1-.4.1-.5v-.4z"/><path class="st4" d="M-184.1-61.8v1.2"/><circle class="st11" cx="-184.7" cy="-78.6" r="1.3"/><path class="st6" d="M-184.7-77.3s-.1 3.8-2.2 6.3v1.3l4.6-.1v-1.3s-1.9-1.6-2.4-6.2z"/><circle class="st11" cx="12.3" cy="-78.6" r="1.3"/><path class="st6" d="M12.2-77.3s.1 3.8 2.2 6.3v1.3l-4.6-.1v-1.3s1.9-1.6 2.4-6.2z"/><circle class="st11" cx="-37.2" cy="-80.6" r="1.3"/><path class="st6" d="M-37.2-79.3s.1 3.8 2.2 6.3v1.3l-4.6-.1v-1.3s1.9-1.6 2.4-6.2z"/><circle class="st11" cx="-134.5" cy="-80.6" r="1.3"/><path class="st6" d="M-134.6-79.3s.1 3.8 2.2 6.3v1.3l-4.6-.1v-1.3s1.9-1.6 2.4-6.2z"/><path class="st1" d="M171.6-56.2c.4-.8.7-1.8.7-2.8 0-3.3-2.7-6-6-6-1.1 0-2.1.3-2.9.8v-.8c0-5.8-4.7-10.5-10.5-10.5s-10.5 4.7-10.5 10.5c0 1 .2 2.1.4 3h-.2c-3.7 0-6.7 3-6.7 6.7 0 3.1 2.1 5.7 4.9 6.5-.7 1.5-1.1 3.2-1.1 4.9 0 1.6.3 3.1.9 4.5-.9 1.5-1.4 3.3-1.4 5.1 0 5.6 4.6 10.2 10.2 10.2 1.8 0 3.6-.5 5.1-1.4 1.2 2 3.4 3.4 5.9 3.4 3.8 0 7-3.1 7-7 0-1.3-.4-2.5-1-3.5h1c6.8 0 12.2-5.5 12.2-12.2-.1-5.2-3.4-9.6-8-11.4z"/><path class="st10" d="M139.8-41.9s.9 3.7 3.1 4.4"/><path class="st2" d="M140.3-42s0 .3.2.8c.1.5.3 1.1.6 1.7.1.3.3.6.5.9.2.3.4.5.6.7.2.2.4.3.5.4.1.1.2.1.2.1s-.1 0-.2-.1c-.2 0-.3-.1-.6-.3-.2-.1-.5-.3-.7-.6-.2-.2-.5-.5-.7-.8-.4-.6-.8-1.2-1-1.7-.2-.5-.4-.8-.4-.8l1-.3z"/><path class="st10" d="M163.3-66.4s.3 2.9-1.6 5.2"/><path class="st2" d="M163.8-66.5s0 .4-.1.9c0 .3-.1.6-.2.9l-.3 1c-.1.3-.3.7-.5.9-.2.3-.3.6-.5.8-.3.4-.6.7-.6.7s.2-.3.4-.7c.1-.2.2-.5.3-.8.1-.3.2-.6.3-1 .1-.3.1-.7.1-1v-.9c0-.5-.1-.8-.1-.8h1.2z"/><path class="st10" d="M169.9-32.7s-4.8.9-5.4-1.5"/><path class="st2" d="M170-32.2s-1.6.2-3.1-.2c-.4-.1-.8-.2-1.1-.4l-.5-.3-.4-.3c-.1-.1-.2-.2-.2-.3-.1-.1-.1-.2-.1-.3 0-.2-.1-.3-.1-.3s0 .1.1.2c0 .1.1.2.2.2.1.1.1.2.3.3.1.1.2.2.4.2.1.1.3.1.5.2.3.1.7.1 1.1.2.7 0 1.5-.1 2-.1.6-.1.9-.2.9-.2v1.1z"/><path class="st1" d="M129.2-170.5l-2 143h27.5l-2-143s-7.2-2.7-23.5 0z"/><path class="st17" d="M121.9-182.2h37.6v6.3h-37.6z"/><path class="st18" d="M130.1-204.9c11.7-2.3 21.3 0 21.3 0s.7 2.3 0 5-1.4 6.5 0 17.7"/><path class="st17" d="M151.3-182.2h-21.3c1.4-11.2.7-15 0-17.7-.7-2.7 0-5 0-5s9.7-2.3 21.3 0c0 0 .8 1.9.2 4.6-.5 2.7-1.5 5.9-.2 18.1z"/><path class="st18" d="M151.7-200.5s-7.6-2.3-21.9 0"/><path class="st19" d="M140.7-182.2M140.7-192.2M144.5-182.3v-11.2c0-1.1-.9-1.9-1.9-1.9h-3.6c-1.1 0-1.9.9-1.9 1.9v11.2M138.4-195.4s-.2 13.4 0 13.2"/><path class="st2" d="M151.3-27.6s-.2-17.7-.5-44.2c-.1-13.2-.3-28.7-.4-45.3-.1-8.3-.2-16.8-.2-25.5 0-4.3-.1-8.7-.1-13.1 0-2.2 0-4.4-.1-6.6v-3.3c0-.5 0-1.2-.1-1.5-.1-.2-.2-.3-.4-.4-.2-.1-.3-.1-.6-.1h-.4c-.2 0-.2 0-.3.1-.2.1-.3.2-.4.4l-.1.3v49.7c0 16.6.1 32 .1 45.3v44.2s-.1-17.7-.4-44.2c-.1-13.2-.2-28.7-.2-45.3 0-8.3-.1-16.8-.1-25.5 0-4.3 0-8.7-.1-13.1v-11.1c0-.2.1-.4.1-.5.1-.3.4-.6.7-.8.1-.1.4-.2.5-.1h.4c.2 0 .7 0 1 .2.3.2.6.4.7.8l.1.3v11.399999999999999c0 4.4 0 8.8.1 13.1 0 8.7.1 17.2.1 25.5.1 16.6.2 32 .2 45.3.4 26.4.4 44 .4 44zM145.4-27.6s-.1-17.7-.2-44.2c0-13.2-.1-28.7-.1-45.3v-48.5c0-.5.1-1.2-.1-1.5-.1-.2-.2-.3-.4-.4-.2-.1-.3-.1-.6-.1h-.4c-.2 0-.2 0-.3.1-.2.1-.3.2-.4.4l-.1.3v11.1c0 4.4 0 8.8-.1 13.1 0 8.7-.1 17.2-.1 25.5-.1 16.6-.2 32-.2 45.3-.2 26.5-.4 44.2-.4 44.2v-44.2c0-13.2.1-28.7.1-45.3v-49.699999999999996c0-.2.1-.4.1-.5.1-.3.4-.6.7-.8.4-.2.7-.2 1-.2.2 0 .7 0 1 .2.3.2.6.4.7.8.1.2.1.4.1.5v49.8c0 16.6-.1 32-.1 45.3-.1 26.5-.2 44.1-.2 44.1zM137.1-27.6s-.1-17.7-.2-44.2c0-13.2-.1-28.7-.1-45.3v-49.8c0-.1 0-.3.1-.5.1-.3.4-.6.7-.8.3-.2.7-.2 1-.2.3 0 .6 0 1 .2.3.2.6.4.7.8.1.2.1.3.1.5v49.7c0 16.6.1 32 .1 45.3v44.2s-.1-17.7-.4-44.2c-.1-13.2-.2-28.7-.2-45.3 0-8.3-.1-16.8-.1-25.5 0-4.3 0-8.7-.1-13.1v-11.1c0-.1 0-.2-.1-.3-.1-.2-.2-.3-.4-.4-.1 0-.1-.1-.3-.1h-.4c-.3 0-.5 0-.6.1-.2.1-.3.2-.4.4l-.1 1.5v48.5c0 16.6-.1 32-.1 45.3-.1 26.7-.2 44.3-.2 44.3zM131.1-27.6s0-17.7.1-44.2c.1-13.2.2-28.7.2-45.3 0-8.3.1-16.8.1-25.5 0-4.3 0-8.7.1-13.1v-11.399999999999999l.1-.3c.1-.3.4-.6.7-.8.3-.2.7-.2 1-.2h.4l.5.1c.3.2.6.4.7.8.1.2.1.3.1.5v11.1c0 4.4 0 8.8-.1 13.1 0 8.7-.1 17.2-.1 25.5-.1 16.6-.2 32-.2 45.3-.2 26.5-.4 44.2-.4 44.2v-44.2c0-13.2.1-28.7.1-45.3v-49.699999999999996c0-.1 0-.2-.1-.3-.1-.2-.2-.3-.4-.4-.1 0-.1-.1-.3-.1h-.4c-.3 0-.5 0-.6.1-.2.1-.3.2-.4.4l-.1 1.5v3.3c0 2.2 0 4.4-.1 6.6 0 4.4-.1 8.8-.1 13.1-.1 8.7-.2 17.2-.2 25.5-.1 16.6-.3 32-.4 45.3 0 26.8-.2 44.4-.2 44.4z"/><path class="st19" d="M157-182.3v-5.9c0-.4-.3-.7-.7-.7h-30.3c-.4 0-.7.3-.7.7v5.9"/><path class="st20" d="M154.2-188.8v6.5M150.3-188.8v6.5M146.5-188.8v6.5M142.6-188.8v6.5M138.8-188.8v6.5M134.9-188.8v6.5M131.1-188.8v6.5M127.2-188.8v6.5"/><path class="st21" d="M130.6-108.5h-135.4l4-28.6h127.4z"/><path class="st2" d="M.5-135.4s7.8-.1 19.5-.1 27.2-.1 42.8-.1c15.6 0 31.1.1 42.8.1 11.7.1 19.5.1 19.5.1s-7.8.1-19.5.1-27.2.1-42.8.1c-15.6 0-31.1-.1-42.8-.1-11.8-.1-19.5-.1-19.5-.1z"/><path class="st1" d="M130.6-108.5l-20.9-22h-.2l-21.4 21.8h-4.9l-.5-.5-19.7-22.8c0-.1-.1-.1-.2 0l-20 23.2h-4.6l-21.4-21.8h-.2l-20.9 22-.1-.1c-.1 0-.1.1-.1.1v25.3l1.6 1.8v47.3l131.5-.8h.1v-46.5l1.4-1.5h.1c.1 0 .1-.1.1-.1v.1-8.3-8.5-8.5l.1.1h.2v-.3z"/><path class="st4" d="M-4.1-108.6l20.9-22 21.4 21.8h4.7l20-23.3 19.7 22.8.5.5h5l21.4-21.8 21 22"/><path class="st2" d="M-2.7-108.1c3.1-3.4 6.3-6.8 9.4-10.1l4.8-5 4.8-4.9c.2-.2.5-.2.7 0l4.9 4.9c1.6 1.6 3.3 3.2 4.9 4.9l4.8 5 4.8 5c-1.7-1.5-3.4-3.1-5.1-4.7l-5-4.8-5-4.8-5-4.8h.7l-4.9 4.9c-1.6 1.6-3.2 3.3-4.9 4.9-3.2 3.1-6.5 6.4-9.9 9.5zM80.5-109.3c-3.1-3.1-6.1-6.4-9.1-9.6l-4.5-4.9-4.5-4.9h.7l-4.4 5c-1.5 1.7-2.9 3.4-4.5 5l-4.5 4.9c-1.5 1.6-3 3.3-4.6 4.9 1.4-1.8 2.8-3.5 4.2-5.2l4.3-5.1c1.4-1.7 2.9-3.4 4.4-5.1l4.4-5.1c.2-.2.5-.2.7-.1l4.4 5 4.4 5c2.9 3.4 5.8 6.8 8.6 10.2zM15.9-128h1.5v17.5h-1.5zM8.4-111l7.9-7.8-.1-2.3-10.1 10.1h2.3000000000000003zM27.1-111.2l-9.9-9.9-.1 2.3 7.7 7.7c.8-.1 1.6-.1 2.3-.1zM62.2-127.1h1.5v16.3h-1.5zM58.7-110.7l3.9-4.2-.1-2.3-6 6.5h2.2zM52.5-110.8l10.1-11-.1-2.3-12.1 13.1 2.1.2zM69.2-110.9l-5.8-6.3-.1 2.2 3.7 4.1c.8.1 1.5.1 2.2 0zM57.3-122.6h11.1l1.4 1.1h-13.8c0 .1.3 0 .4 0 .5-.6.4-.6.9-1.1zM75.4-111.1l-12-13-.1 2.3 9.9 10.8c.7-.1 1.5-.1 2.2-.1z"/><path class="st11" d="M16.7-124.5c-.6 0-1-.4-1-1v-5c0-.5.4-1 1-1 .5 0 1 .4 1 1v5c-.1.5-.5 1-1 1z"/><circle class="st11" cx="16.6" cy="-132.5" r="1"/><path class="st11" d="M16.1-133.5s-1.1-4.6.7-7.9c0 0 1.7 2.2.3 8"/><path class="st11" d="M62.9-126.5c-.6 0-1-.4-1-1v-5c0-.5.4-1 1-1 .5 0 1 .4 1 1v5c-.1.5-.5 1-1 1z"/><circle class="st11" cx="62.8" cy="-134.5" r="1"/><path class="st11" d="M62.3-135.5s-1.1-5.6.7-8.9c0 0 1.7 3.2.3 9"/><path class="st2" d="M34.2-110.6c-.1-.1-.6-.4-.7-.6l-.3-.3h-32.5c-.5.4-.8.7-1 .9.1.1.7.1.9.1h32.9c.2 0 .6 0 .7-.1zM36.6-108.4c-.1-.1-.7-.4-.8-.6l-.4-.3h-37c-.6.4-.9.7-1.1.9.1.1.8.1 1 .1h37.4l.9-.1zM81.4-108.4h-36.2c-.2 0-.3.2-.4 0 .3-.2.4-.7.8-.9l34.9-.1.9 1"/><path class="st2" d="M-1.1-109.8s2.3-.1 5.6-.1c1.7 0 3.7 0 5.8-.1h13.2c2.1 0 4.1.1 5.8.1 3.4.1 5.6.1 5.6.1s-2.3.1-5.6.1c-1.7 0-3.7 0-5.8.1h-13.2c-2.1 0-4.1-.1-5.8-.1-3.3 0-5.6-.1-5.6-.1zM46-109.8s2.1-.1 5.3-.1c1.6 0 3.5 0 5.4-.1h12.4c2 0 3.9.1 5.4.1 3.2.1 5.3.1 5.3.1s-2.1.1-5.3.1c-1.6 0-3.5 0-5.4.1h-12.4c-2 0-3.9-.1-5.4-.1-3.1 0-5.3-.1-5.3-.1zM129.1-108.1c-3.4-3.1-6.7-6.3-10-9.6-1.7-1.6-3.3-3.2-4.9-4.9l-4.9-4.9h.7l-5 4.8-5 4.8-5 4.8-5.1 4.7c1.6-1.7 3.2-3.4 4.8-5l4.8-5c1.6-1.7 3.3-3.3 4.9-4.9l4.9-4.9c.2-.2.5-.2.7 0l4.8 4.9 4.8 5c3.2 3.4 6.4 6.8 9.5 10.2zM109-128h1.5v17.5h-1.5zM118-111.1l-7.9-7.8.1-2.3 10.1 10.2h-.6c-.8-.1-1-.1-1.7-.1zM99.2-111.2l9.9-9.9.1 2.2-7.7 7.7h-2.3z"/><path class="st11" d="M109.7-124.5c.6 0 1-.4 1-1v-5c0-.5-.4-1-1-1-.5 0-1 .4-1 1v5c0 .5.5 1 1 1z"/><circle class="st11" cx="109.7" cy="-132.5" r="1"/><path class="st11" d="M110.2-133.5s1.1-4.6-.7-7.9c0 0-1.7 2.2-.3 8"/><path class="st2" d="M92.1-110.6c.1-.1.6-.4.7-.6l.3-.3h32.5c.5.4.8.7 1 .9-.1.1-.7.1-.9.1h-32.9c-.1 0-.6 0-.7-.1.1 0 0 .1 0 0zM78.6-111.5h-30.9l-.3.3c-.1.1-.6.4-.7.6.1.1.6.1.7.1h32.2c-.4-.2-.9-.6-1-1zM89.8-108.4c.1-.1.7-.4.8-.6l.4-.3h37c.6.4.9.7 1.1.9-.1.1-.8.1-1 .1h-37.5l-.8-.1zM127.4-109.8s-2.3.1-5.6.1c-1.7 0-3.7 0-5.8.1h-13.2c-2.1 0-4.1-.1-5.8-.1-3.4-.1-5.6-.1-5.6-.1s2.3-.1 5.6-.1c1.7 0 3.7 0 5.8-.1h13.2c2.1 0 4.1.1 5.8.1 3.4 0 5.6.1 5.6.1z"/><path class="st19" d="M-4.3-83.3l1.6 1.8v47.2"/><path class="st16" d="M75.9-91.4c0 2 1.7 3.7 3.7 3.7M74.8-91.4c0 2-1.7 3.7-3.7 3.7M74.8-83.2c0-2-1.7-3.7-3.7-3.7M75.9-83.2c0-2 1.7-3.7 3.7-3.7"/><path class="st22" d="M59.2-91.4c0 2 1.6 3.7 3.6 3.7M58.1-91.4c0 2-1.6 3.7-3.6 3.7M58.1-83.2c0-2-1.6-3.7-3.6-3.7M59.2-83.2c0-2 1.6-3.7 3.6-3.7"/><path class="st16" d="M67.4-91.4c0 2 1.7 3.7 3.7 3.7M66.3-91.4c0 2-1.7 3.7-3.7 3.7M66.3-83.2c0-2-1.7-3.7-3.7-3.7M67.4-83.2c0-2 1.7-3.7 3.7-3.7"/><path class="st23" d="M62.6-91.6h8.5v8.5h-8.5zM54.6-91.6h8v8.5h-8zM71.1-91.6h8.5v8.5h-8.5z"/><path class="st16" d="M25-91.4c0 2-1.7 3.7-3.7 3.7M26.1-91.4c0 2 1.7 3.7 3.7 3.7M26.1-83.2c0-2 1.7-3.7 3.7-3.7M25-83.2c0-2-1.7-3.7-3.7-3.7M16.5-91.4c0 2-1.7 3.7-3.7 3.7M17.6-91.4c0 2 1.7 3.7 3.7 3.7M17.6-83.2c0-2 1.7-3.7 3.7-3.7M16.5-83.2c0-2-1.7-3.7-3.7-3.7"/><path class="st22" d="M41.7-91.4c0 2-1.6 3.7-3.6 3.7M42.8-91.4c0 2 1.6 3.7 3.6 3.7M42.8-83.2c0-2 1.6-3.7 3.6-3.7M41.7-83.2c0-2-1.6-3.7-3.6-3.7M41.7-99.9c0 2-1.6 3.7-3.6 3.7M42.8-99.9c0 2 1.6 3.7 3.6 3.7M42.8-91.7c0-2 1.6-3.7 3.6-3.7M41.7-91.7c0-2-1.6-3.7-3.6-3.7M41.7-108.3c0 2-1.6 3.7-3.6 3.7M42.8-108.3c0 2 1.6 3.7 3.6 3.7M42.8-100c0-2 1.6-3.7 3.6-3.7M41.7-100c0-2-1.6-3.7-3.6-3.7"/><path class="st16" d="M33.5-91.4c0 2-1.7 3.7-3.7 3.7M34.6-91.4c0 2 1.7 3.7 3.7 3.7M34.6-83.2c0-2 1.7-3.7 3.7-3.7M33.5-83.2c0-2-1.7-3.7-3.7-3.7M7.9-91.4c0 2-1.7 3.7-3.7 3.7M9-91.4c0 2 1.7 3.7 3.7 3.7M9-83.2c0-2 1.7-3.7 3.7-3.7M7.9-83.2c0-2-1.7-3.7-3.7-3.7"/><path class="st23" d="M29.8-91.6h8.5v8.5h-8.5zM38.3-91.6h8v8.5h-8z"/><path class="st22" d="M49.9-91.4c0 2-1.6 3.7-3.6 3.7M50.9-91.4c0 2 1.6 3.7 3.6 3.7M50.9-83.2c0-2 1.6-3.7 3.6-3.7M49.9-83.2c0-2-1.6-3.7-3.6-3.7"/><path class="st23" d="M46.5-91.6h8v8.5h-8zM12.8-91.6h8.5v8.5h-8.5zM4.2-91.6h8.5v8.5h-8.5zM21.3-91.6h8.5v8.5h-8.5z"/><path class="st24" d="M29.8-91.6l-4 1h-17.4l-4.2-1v-16.9l4.2.5h17.4l4-.5z"/><path class="st6" d="M14.2-107.8v17.2M20-107.8v17.2M25.8-107.8v17.2M8.4-107.8v17.2"/><path class="st5" d="M29.8-102.4l-4 .9h-17.4l-4.2-.9"/><path class="st2" d="M29.8-92.7c-1.3.4-2.7.8-4 1.1l-4.3.1h-4.3c-2.9 0-5.8 0-8.7-.1-1.4-.4-2.8-.8-4.2-1.1 1.4.3 2.8.5 4.3.9 2.9-.1 5.8-.1 8.7-.1h4.3l4.3.1c1.2-.4 2.6-.6 3.9-.9z"/><path class="st25" d="M14.2-91.7M20-91.7M25.8-91.7M8.4-91.7"/><path class="st26" d="M79.6-91.6l-4.3 1h-24.5l-4.4-1v-17l4.4.5h24.5l4.3-.5z"/><path class="st27" d="M63-107.8v17.2M56.8-107.8v17.2M69.2-107.8v17.2M75.3-107.8v17.2M50.8-107.8v17.2"/><path class="st28" d="M79.6-102.4l-4.3.9h-24.5l-4.4-.9"/><path class="st2" d="M79.6-92.7l-4.3 1.1-6.1.1h-12.2c-2 0-4.1 0-6.1-.1-1.5-.4-2.9-.8-4.4-1.1 1.5.3 3 .5 4.5.9l6.1-.1h12.2l6.1.1 4.2-.9z"/><path class="st25" d="M63-91.7M69.2-91.7M75.3-91.7M50.8-91.7"/><path class="st26" d="M79.6-59.6l-4.3 1h-24.5l-4.4-1v-19.5l4.4.5h24.5l4.3-.5z"/><path class="st27" d="M63-78.3v19.7M56.8-78.3v19.7M69.2-78.3v19.7M75.3-78.3v19.7M50.8-78.3v19.7"/><path class="st28" d="M79.6-71.9l-4.3.8h-24.5l-4.4-.8"/><path class="st2" d="M79.6-60.7l-4.3 1.1-6.1.1h-12.2c-2 0-4.1 0-6.1-.1-1.5-.4-2.9-.8-4.4-1.1 1.5.3 3 .5 4.5.9l6.1-.1h12.2l6.1.1 4.2-.9z"/><path class="st25" d="M63-59.7M69.2-59.7M75.3-59.7M50.8-59.7"/><path class="st29" d="M29.5-59.6l-4 1h-17.2l-4.1-1v-19.5l4.1.5h17.2l4-.5z"/><path class="st30" d="M14-78.3v19.7M19.8-78.3v19.7M25.5-78.3v19.7M8.3-78.3v19.7"/><path class="st31" d="M29.5-71.9l-4 .8h-17.2l-4.1-.8"/><path class="st2" d="M29.5-60.7c-1.3.4-2.6.8-4 1.1l-4.3.1h-4.3c-2.9 0-5.7 0-8.6-.1-1.4-.4-2.8-.8-4.1-1.1 1.4.3 2.8.5 4.2.9 2.8-.2 5.6-.2 8.5-.2h4.3l4.3.1c1.3-.3 2.6-.6 4-.8z"/><path class="st25" d="M14-59.7M19.8-59.7M25.5-59.7M8.3-59.7"/><path class="st23" d="M29.8-108.6h8.5v8.5h-8.5zM38.3-108.6h8v8.5h-8zM29.8-100.1h8.5v8.5h-8.5zM-4.3-91.6h8.5v8.5h-8.5zM-4.3-100.1h8.5v8.5h-8.5zM38.3-100.1h8v8.5h-8zM-4.3-108.6h8.5v8.5h-8.5z"/><path class="st16" d="M-.6-108.4c0 2-1.7 3.7-3.7 3.7M.5-108.4c0 2 1.7 3.7 3.7 3.7M.5-100.2c0-2 1.7-3.7 3.7-3.7M-.6-100.2c0-2-1.7-3.7-3.7-3.7M-.6-99.9c0 2-1.7 3.7-3.7 3.7M.5-99.9c0 2 1.7 3.7 3.7 3.7M.5-91.7c0-2 1.7-3.7 3.7-3.7M-.6-91.7c0-2-1.7-3.7-3.7-3.7M33.5-108.4c0 2-1.7 3.7-3.7 3.7M34.6-108.4c0 2 1.7 3.7 3.7 3.7M34.6-100.2c0-2 1.7-3.7 3.7-3.7M33.5-100.2c0-2-1.7-3.7-3.7-3.7M33.5-99.9c0 2-1.7 3.7-3.7 3.7M34.6-99.9c0 2 1.7 3.7 3.7 3.7M34.6-91.7c0-2 1.7-3.7 3.7-3.7M33.5-91.7c0-2-1.7-3.7-3.7-3.7M-.6-91.4c0 2-1.7 3.7-3.7 3.7M.5-91.4c0 2 1.7 3.7 3.7 3.7M.5-83.2c0-2 1.7-3.7 3.7-3.7M-.6-83.2c0-2-1.7-3.7-3.7-3.7M100.8-91.4c0 2 1.7 3.7 3.7 3.7M99.7-91.4c0 2-1.7 3.7-3.7 3.7M99.7-83.2c0-2-1.7-3.7-3.7-3.7M100.8-83.2c0-2 1.7-3.7 3.7-3.7M109.3-91.4c0 2 1.7 3.7 3.7 3.7M108.2-91.4c0 2-1.7 3.7-3.7 3.7M108.2-83.2c0-2-1.7-3.7-3.7-3.7M109.3-83.2c0-2 1.7-3.7 3.7-3.7"/><path class="st22" d="M84.2-91.4c0 2 1.6 3.7 3.6 3.7M83.1-91.4c0 2-1.6 3.7-3.6 3.7M83.1-83.2c0-2-1.6-3.7-3.6-3.7M84.2-83.2c0-2 1.6-3.7 3.6-3.7M84.2-99.9c0 2 1.6 3.7 3.6 3.7M83.1-99.9c0 2-1.6 3.7-3.6 3.7M83.1-91.7c0-2-1.6-3.7-3.6-3.7M84.2-91.7c0-2 1.6-3.7 3.6-3.7M84.2-108.3c0 2 1.6 3.7 3.6 3.7M83.1-108.3c0 2-1.6 3.7-3.6 3.7M83.1-100c0-2-1.6-3.7-3.6-3.7M84.2-100c0-2 1.6-3.7 3.6-3.7"/><path class="st16" d="M92.3-91.4c0 2 1.7 3.7 3.7 3.7M91.2-91.4c0 2-1.7 3.7-3.7 3.7M91.2-83.2c0-2-1.7-3.7-3.7-3.7M92.3-83.2c0-2 1.7-3.7 3.7-3.7M118-91.4c0 2 1.7 3.7 3.7 3.7M116.9-91.4c0 2-1.7 3.7-3.7 3.7M116.9-83.2c0-2-1.7-3.7-3.7-3.7M118-83.2c0-2 1.7-3.7 3.7-3.7"/><path class="st23" d="M87.5-91.6h8.5v8.5h-8.5zM79.5-91.6h8v8.5h-8zM104.5-91.6h8.5v8.5h-8.5zM113.2-91.6h8.5v8.5h-8.5zM96-91.6h8.5v8.5h-8.5z"/><path class="st24" d="M96-91.6l4.1 1h17.4l4.2-1v-16.9l-4.2.5h-17.4l-4.1-.5z"/><path class="st6" d="M111.7-107.8v17.2M105.9-107.8v17.2M100.1-107.8v17.2M117.5-107.8v17.2"/><path class="st5" d="M96-102.4l4.1.9h17.4l4.2-.9"/><path class="st2" d="M96-92.7l4.1.9 4.3-.1h4.3c2.9 0 5.8 0 8.7.1 1.4-.3 2.8-.6 4.3-.9-1.4.4-2.8.8-4.2 1.1-2.9.1-5.8.1-8.7.1h-4.3l-4.3-.1c-1.5-.3-2.8-.7-4.2-1.1z"/><path class="st25" d="M111.7-91.7M105.9-91.7M100.1-91.7M117.5-91.7"/><path class="st23" d="M87.5-108.6h8.5v8.5h-8.5zM79.5-108.6h8v8.5h-8zM87.5-100.1h8.5v8.5h-8.5zM121.7-91.6h8.5v8.5h-8.5zM121.7-100.1h8.5v8.5h-8.5zM79.5-100.1h8v8.5h-8zM121.7-108.6h8.5v8.5h-8.5z"/><path class="st16" d="M126.5-108.4c0 2 1.7 3.7 3.7 3.7M125.4-108.4c0 2-1.7 3.7-3.7 3.7M125.4-100.2c0-2-1.7-3.7-3.7-3.7M126.5-100.2c0-2 1.7-3.7 3.7-3.7M126.5-99.9c0 2 1.7 3.7 3.7 3.7M125.4-99.9c0 2-1.7 3.7-3.7 3.7M125.4-91.7c0-2-1.7-3.7-3.7-3.7M126.5-91.7c0-2 1.7-3.7 3.7-3.7M92.3-108.4c0 2 1.7 3.7 3.7 3.7M91.2-108.4c0 2-1.7 3.7-3.7 3.7M91.2-100.2c0-2-1.7-3.7-3.7-3.7M92.3-100.2c0-2 1.7-3.7 3.7-3.7M92.3-99.9c0 2 1.7 3.7 3.7 3.7M91.2-99.9c0 2-1.7 3.7-3.7 3.7M91.2-91.7c0-2-1.7-3.7-3.7-3.7M92.3-91.7c0-2 1.7-3.7 3.7-3.7M126.5-91.4c0 2 1.7 3.7 3.7 3.7M125.4-91.4c0 2-1.7 3.7-3.7 3.7M125.4-83.2c0-2-1.7-3.7-3.7-3.7M126.5-83.2c0-2 1.7-3.7 3.7-3.7"/><path class="st19" d="M-2.7-81.3h131.3M-2.7-52.8h131.3M-2.7-51h131.3"/><path class="st32" d="M-2.5-80.4h130.9"/><path class="st2" d="M29.8-80s-.4.1-1.1.1c-.7.1-1.7.2-2.9.2-1.2.1-2.6.2-4.1.2-1.5 0-3.1.1-4.7.1s-3.2-.1-4.7-.1-2.9-.1-4.1-.2c-1.2 0-2.2-.2-2.9-.2-.7-.1-1.1-.1-1.1-.1h12.8c6.4-.1 12.8-.1 12.8 0zM78.3-80s-.5.1-1.3.1c-.8.1-2 .2-3.4.3-1.4.1-3 .2-4.7.2-1.7 0-3.6.1-5.4.1-1.9 0-3.7-.1-5.4-.1-1.7 0-3.4-.2-4.7-.2-1.4-.1-2.5-.2-3.4-.3-.9-.1-1.3-.1-1.3-.1h14.8c7.4-.1 14.8-.1 14.8 0zM25.8-77.7s-.3 0-.7.1c-.5 0-1.2.1-2 .2-.8 0-1.8.1-2.8.2-1 0-2.1 0-3.2.1-1.1 0-2.2 0-3.2-.1-1 0-2-.1-2.8-.2-.8 0-1.5-.2-2-.2-.5-.1-.7-.1-.7-.1h17.4zM74.3-77.7s-.4 0-1 .1c-.6 0-1.5.1-2.5.2-1.1 0-2.3.1-3.6.2-1.3 0-2.7 0-4.1.1-1.4 0-2.8 0-4.1-.1-1.3 0-2.5-.1-3.6-.2-1.1 0-1.9-.2-2.5-.2-.6-.1-1-.1-1-.1h22.4z"/><path class="st33" d="M.8-81.3v28.6M4.2-81.3v28.6M-2.7-73.1h6.9M-2.7-61.7h6.9M33.3-81.3v28.6M36.6-81.3v28.6M29.7-73.1h6.9M29.7-61.7h6.9M40-81.3v28.6M43.3-81.3v28.6M46.3-81.3v28.6M79.6-81.3v28.6M36.4-73.1h10M36.4-61.7h9.9M8-58.6v5.9M11.6-58.6v5.9M15.2-58.6v5.9M18.8-58.6v5.9M22.5-58.6v5.9M26.1-58.6v5.9M50-58.6v5.9M53.2-58.6v5.9M56.4-58.6v5.9M59.7-58.6v5.9M66.1-58.6v5.9M62.9-58.6v5.9M69.4-58.6v5.9M72.6-58.6v5.9M75.8-58.6v5.9M29.7-81.3v28.6"/><path class="st19" d="M130.2-83.3l-1.6 1.8v46.4"/><path class="st29" d="M96.4-59.6l4 1h17.2l4.1-1v-19.5l-4.1.5h-17.2l-4-.5z"/><path class="st30" d="M111.9-78.3v19.7M106.1-78.3v19.7M100.4-78.3v19.7M117.6-78.3v19.7"/><path class="st31" d="M96.4-71.9l4 .8h17.2l4.1-.8"/><path class="st2" d="M96.4-60.7l4 .9 4.3-.1h4.3c2.9 0 5.7 0 8.6.1l4.2-.9c-1.4.4-2.7.8-4.1 1.1-2.9.1-5.7.1-8.6.1h-4.3l-4.3-.1c-1.4-.4-2.7-.8-4.1-1.1z"/><path class="st25" d="M111.9-59.7M106.1-59.7M100.4-59.7M117.6-59.7"/><path class="st32" d="M128.4-51.7h-130.9"/><path class="st2" d="M96.1-80.1s.4-.1 1.1-.1c.7-.1 1.7-.2 2.9-.2 1.2-.1 2.6-.2 4.1-.2 1.5 0 3.1-.1 4.7-.1s3.2.1 4.7.1 2.9.1 4.1.2c1.2.1 2.2.2 2.9.2.7.1 1.1.1 1.1.1h-12.8c-6.4.1-12.8.1-12.8 0 0 .1-.1.1 0 0zM100.1-77.7s.3 0 .7-.1c.5 0 1.2-.1 2-.2.8 0 1.8-.1 2.8-.2 1 0 2.1 0 3.2-.1 1.1 0 2.2 0 3.2.1 1 0 2 .1 2.8.2.8 0 1.5.2 2 .2.5.1.7.1.7.1h-8.7c-4.3.1-8.7 0-8.7 0z"/><path class="st33" d="M125.1-81.3v28.6M121.7-81.3v28.6M128.6-73.1h-6.9M128.6-61.7h-6.9M92.6-81.3v28.6M89.3-81.3v28.6M96.2-73.1h-6.9M96.2-61.7h-6.9M85.9-81.3v28.6M82.6-81.3v28.6M89.5-73.1h-6.9M89.5-61.7h-6.9M117.9-58.6v5.9M114.3-58.6v5.9M110.7-58.6v5.9M107.1-58.6v5.9M103.4-58.6v5.9M99.8-58.6v5.9M96.2-81.3v28.6"/><path class="st19" d="M2.3-34.3v-13.3h12.4v13.3M106.8-34.8v-12.8h12.4v12.8M42.5-34.3v-13.3h12.4v13.3M17.6-34.3v-13.3h22.3v13.3M58.1-34.8v-13h34.6v13M66.1-47.6v12.6M75.4-47.6v12.6M84.2-47.6v12.6M58.1-41.3h34.6M103.4-35.1v-7.2h-1.2v-.2c0-1.1-.9-2-2-2s-2 .9-2 2v.2h-1.1v7.2M127.1-44.7h-4.2v9.9"/><path class="st10" d="M43.9-34.3v-12.2"/><path class="st2" d="M43.7-34.3l.2-12.2.3 12.2z"/><path class="st10" d="M53.7-34.3v-12.2"/><path class="st2" d="M53.4-34.3l.3-12.2.2 12.2z"/><path class="st10" d="M3.4-34.3v-12.2"/><path class="st2" d="M3.2-34.3l.2-12.2.3 12.2z"/><path class="st10" d="M13.2-34.3v-12.2"/><path class="st2" d="M13-34.3l.2-12.2.3 12.2z"/><path class="st1" d="M119.2-45.6h-10.1v10.5M109.1-45.3l-2.3-2.2"/><path class="st1" d="M111.7-92c-.4-.8-.7-1.8-.7-2.8 0-3.3 2.7-6 6-6 1.1 0 2.1.3 2.9.8v-.8c0-5.8 4.7-10.5 10.5-10.5s10.5 4.7 10.5 10.5c0 1-.2 2.1-.4 3h.2c3.7 0 6.7 3 6.7 6.7 0 3.1-2.1 5.7-4.9 6.5.7 1.5 1.1 3.2 1.1 4.9 0 1.6-.3 3.1-.9 4.5.9 1.5 1.4 3.3 1.4 5.1 0 5.6-4.6 10.2-10.2 10.2-1.8 0-3.6-.5-5.1-1.4-1.2 2-3.4 3.4-5.9 3.4-3.8 0-7-3.1-7-7 0-1.3.4-2.5 1-3.5h-1c-6.8 0-12.2-5.5-12.2-12.2.1-5.2 3.4-9.6 8-11.4zM127.7-75.8s-3.5 19.2 2.2 43h-9.7c4.2-21.8 2.5-45 2.5-45"/><path class="st2" d="M131.4-74.7c-.4.1-.8.1-1.2 0-.4-.1-.8-.1-1.2-.3-.4-.1-.8-.3-1.1-.5-.2-.1-.4-.2-.5-.4l-.5-.4c-.3-.3-.6-.6-.8-1-.3-.3-.5-.7-.7-1.1-.2-.4-.3-.8-.5-1.1l-.4-1.2h.9c-.1.4-.3.7-.5 1l-.3.4-.3.4c-.2.3-.5.5-.7.7l-.4.3-.4.3-.4.3c-.1.1-.3.1-.5.2-.3.1-.6.2-1 .3-.3.1-.7.1-1 .1-.3 0-.7 0-1 .1l.9-.3c.3-.1.6-.1.9-.3.3-.2.6-.3.8-.4.3-.1.5-.3.8-.5l.4-.3.3-.3c.2-.2.4-.4.6-.7l.3-.4.2-.4c.1-.2.3-.5.3-.8l.5-1.4.5 1.4.4 1.1.5 1c.2.3.3.7.6 1 .2.3.4.6.7.9.1.2.3.3.4.4l.4.4c.3.2.6.5.9.6.5.6 1.3.9 2.1.9z"/><path class="st10" d="M143.5-77.7s-.9 3.7-3.1 4.4"/><path class="st2" d="M144-77.5s-.1.4-.4.8c-.2.5-.6 1.1-1 1.7-.2.3-.5.6-.7.8l-.7.6-.6.3c-.1 0-.2.1-.2.1s.1 0 .2-.1.3-.2.5-.4.4-.4.6-.7c.2-.3.4-.6.5-.9.3-.6.5-1.3.6-1.7.1-.5.2-.8.2-.8l1 .3z"/><path class="st10" d="M120-102.2s-.3 2.9 1.6 5.2"/><path class="st2" d="M120.5-102.2s-.1.3-.1.8v.9c0 .3 0 .6.1 1 .1.3.1.7.3 1 .1.3.2.6.3.8.3.4.4.7.4.7s-.2-.3-.6-.7c-.2-.2-.3-.5-.5-.8l-.5-.9-.3-1-.2-.9c-.1-.5-.1-1-.1-.9h1.2z"/><path class="st10" d="M113.4-68.5s4.8.9 5.4-1.5"/><path class="st2" d="M113.5-69s.3.1.9.2c.5.1 1.3.2 2 .1.4 0 .7-.1 1.1-.2.2 0 .3-.1.5-.2s.3-.2.4-.2l.3-.3c.1-.1.1-.2.2-.2.1-.1.1-.2.1-.2s0 .1-.1.3c0 .1 0 .2-.1.3l-.2.3c-.1.1-.2.2-.4.3-.1.1-.3.2-.5.3-.3.2-.7.3-1.1.4-1.6.3-3.1.2-3.1.2v-1.1z"/><path class="st34" d="M126-77.9c-3.4 31.5 3 45.1 3 45.1"/><path class="st11" d="M-214.7-41.2c.6-13.1-9.5-25.7-21.4-21.5-12 4.3-12.3 17.2-12.3 17.2l-.2 11h-23.5v-37.7l-2.9-3.7 6.3-2.1v-51.4c0-.2.3-.3.4-.1 0 0 2.9.6 2.4 4.6 0 0 .2 6.9 4.4 4.7l29.5-29.2h1.1l17.4 17.2 5.7 5.6 6.5 6.4c4.2 2.2 4.4-4.7 4.4-4.7-.6-4 2.4-4.6 2.4-4.6.1-.2.4-.1.4.1v51.4l6.4 2.1-2.9 3.7v37.7h-23.8l-.3-6.7M-194.4-125s-.6.8-2.7-.2"/><path class="st4" d="M-232.4-149.4v-5.1c0-.5.4-.9.9-.9s.9.4.9.9v5.1"/><path class="st11" d="M-232.6-152h-1c-.5 0-.9-.4-.9-.9s.4-.9.9-.9h4c.5 0 .9.4.9.9s-.4.9-.9.9h-3z"/><path class="st2" d="M-260.4-119.6c4.6-4.8 9.2-9.5 13.9-14.2 2.3-2.4 4.7-4.7 7-7l7-7c.1-.1.2-.1.3-.1h1l.3.1 7 7 7 7c4.7 4.7 9.3 9.4 13.9 14.2-4.9-4.5-9.6-9.1-14.4-13.7l-7.1-6.9-7.1-7 .3.1h-1l.3-.1-7.1 7c-2.4 2.3-4.7 4.7-7.1 6.9-4.5 4.6-9.3 9.2-14.2 13.7z"/><path class="st4" d="M-238.4-134.5h-3.7l1 1.8h19.099999999999998l1-1.8h-3.7z"/><circle class="st4" cx="-231.6" cy="-123.3" r="7.2"/><path class="st2" d="M-231.6-128.4c.2.9.3 1.7.4 2.6.1.9.1 1.7.1 2.6l-.7-.4c1.1-.5 2.2-.9 3.4-1.1-.9.8-2 1.4-3 1.9-.2.1-.5 0-.6-.2 0-.1 0-.1-.1-.2 0-.9 0-1.7.1-2.6.1-.9.2-1.8.4-2.6z"/><path class="st35" d="M-240.5-132.7h17.8v18.8h-17.8z"/><path class="st16" d="M-237.3-129.9s-.1-1.8-1.4-1.7l1.4 1.7zM-225.7-129.9s.1-1.8 1.4-1.7c1.3.1-1.4 1.7-1.4 1.7zM-225.7-116.7s.1 1.8 1.4 1.7c1.3-.2-1.4-1.7-1.4-1.7zM-237.3-116.7s-.1 1.8-1.4 1.7l1.4-1.7z"/><path class="st4" d="M-268.8-125s.6.8 2.7-.2"/><path class="st11" d="M-268.8-105l-1.2-1.5h77l-1.2 1.5z"/><path class="st4" d="M-214.6-43.9c0-13.8-7.6-22-17-22s-17 8.2-17 22v11h34v-11zM-214.6-41.3c0-13.8-7.6-22-17-22s-17 8.2-17 22v11h34v-11z"/><path class="st2" d="M-251.6-35.8s-.2-1.3-.3-3.7c-.1-2.4-.1-5.8.5-9.9.3-2 .8-4.2 1.6-6.4s1.9-4.5 3.6-6.5c1.6-2 3.8-3.8 6.3-4.9 2.5-1.2 5.3-1.7 8.1-1.8 2.8-.1 5.6.3 8.1 1.4 2.6 1 4.7 2.8 6.4 4.8 1.6 2 2.7 4.3 3.5 6.6.8 2.2 1.3 4.4 1.6 6.5.6 4.1.6 7.5.5 9.9-.1 2.4-.3 3.7-.3 3.7s.1-1.4.1-3.7c0-2.4-.1-5.8-.8-9.8-.4-2-.9-4.1-1.7-6.3-.8-2.2-2-4.3-3.5-6.3-1.6-1.9-3.6-3.5-6.1-4.5-2.4-1-5.1-1.3-7.8-1.2-2.7.1-5.3.6-7.7 1.7-2.4 1.1-4.4 2.7-6 4.6-1.6 1.9-2.7 4.1-3.6 6.2-.8 2.2-1.4 4.3-1.8 6.3-.7 4-.9 7.4-.9 9.8.1 2.1.2 3.5.2 3.5z"/><path class="st4" d="M-274.6-76l86.6.1"/><path class="st36" d="M-268.8-77.9l74.4-.1"/><path class="st16" d="M-231.6-68.7v2.8M-241.5-66l1.6 2.3M-247.1-60l1.9 1.3M-216.2-60l-1.8 1.3M-213.3-52.7l-2.3.6M-250.4-52.7l2.4.6M-251.6-44.5l2.4.1M-212.1-44.5l-2.4.1M-222-66l-1.5 2.3"/><path class="st11" d="M-193.8-59.5h3.7v5.5h-3.7zM-187.6-50.5h-4.2l-2-3.5h3.7zM-191.8-50.5h4.2v15.2h-4.2z"/><path class="st37" d="M-214.7-43.2h27.1v1.8h-27.1z"/><path class="st11" d="M-273.3-59.5h3.7v5.5h-3.7zM-275.8-50.5h4.1l2-3.5h-3.6zM-275.8-50.5h4.2v15.2h-4.2z"/><path class="st38" d="M-275.8-43.2h27.1v1.8h-27.1z"/><path class="st11" d="M-237.3-109.9h9.9v1.2h-9.9z"/><path class="st39" d="M-241.5-133.6h20"/><path class="st11" d="M-226.7-84.4h-10.6v-19.2l5.3-4.2 5.3 4.2z"/><path class="st2" d="M-237.3-102.4c.8-.8 1.7-1.5 2.5-2.2l2.6-2.1c.1-.1.2-.1.3 0 .9.7 1.8 1.4 2.6 2.1.9.7 1.7 1.4 2.5 2.2-.9-.6-1.9-1.2-2.8-1.9-.9-.6-1.8-1.3-2.7-2h.3l-2.7 2c-.7.6-1.6 1.3-2.6 1.9z"/><path class="st40" d="M-248-103.6h8.7v19.2h-8.7zM-224.8-103.6h8.7v19.2h-8.7zM-243.7-103.6v19.2M-220.5-103.6v19.2M-248-94h8.6M-224.8-94h8.7"/><path class="st41" d="M-240.5-82.6h17M-222-82.6h5.9v2.5M-242.3-82.6h-5.9v2.5"/><path class="st42" d="M-239.4-82.6v2.5h14.6v-2.5"/><path class="st19" d="M-234.4-84.4s.2-5.2 0-7.1c-.2-1.9-.8-3.7 0-5.4s1.6-2.8 1.3-3.8-.5-2.8.9-2.9c1.4-.2 1.8 1.3 1.7 3.3s1.4 1.6 1.4 6.3c0 3.2-.9 5.2-.2 9.6"/><path class="st2" d="M-231.2-89.2s-.3.1-.6.3l-.3.2-.2.2v.7c0 .6-.1 1.2-.1 1.6 0 .4-.1.7-.1.7s-.1-.3-.2-.7c0-.2-.1-.5-.1-.8v-1.3c0-.1 0-.3.1-.5s.3-.3.4-.3c.1-.1.2-.1.4-.1.4-.1.7 0 .7 0zM-234.7-85.5h-1.3c-.1 0-.2-.1-.2-.2l.2-16.7.2 16.7-.2-.2h1.3c.1 0 .3.1.3.2s-.1.2-.3.2zM-229.2-86h1.3l-.2.2.2-16.7.2 16.7c0 .1-.1.2-.2.2h-1.3c-.1 0-.3-.1-.3-.2.1-.1.2-.2.3-.2zM-261.9-89.2s0-.4-.1-1.1c0-.7-.1-1.7-.2-2.9 0-1.2-.1-2.6-.2-4v-.30000000000000004c0-.1 0-.1.1-.3.2-.4.4-.5.7-.6l.4-.1h6.899999999999998c.1 0 .3.1.4.2.2.1.2.2.3.4.1.3.2.6.1.8 0 1.5-.1 2.9-.2 4 0 1.2-.1 2.2-.2 2.9-.1.7-.1 1.1-.1 1.1s0-.4-.1-1.1c0-.7-.1-1.7-.2-2.9 0-1.2-.1-2.6-.2-4 0-.2 0-.3-.1-.3 0 0 0-.1-.1-.1h-6.999999999999999.1c-.1 0-.1.1-.1.1v.4-.1c0 1.5-.1 2.9-.2 4 0 1.2-.1 2.2-.2 2.9.2.6.2 1 .2 1zM-209.3-89.2s0-.4-.1-1.1c0-.7-.1-1.7-.2-2.9 0-1.2-.1-2.6-.2-4v-.30000000000000004c0-.1 0-.1.1-.3.2-.4.4-.5.7-.6l.4-.1h6.899999999999998c.1 0 .3.1.4.2.2.1.2.2.3.4.1.3.2.6.1.8 0 1.5-.1 2.9-.2 4 0 1.2-.1 2.2-.2 2.9-.1.7-.1 1.1-.1 1.1s0-.4-.1-1.1c0-.7-.1-1.7-.2-2.9 0-1.2-.1-2.6-.2-4 0-.2 0-.3-.1-.3 0 0 0-.1-.1-.1h-6.999999999999999.1c-.1 0-.1.1-.1.1v.4-.1c0 1.5-.1 2.9-.2 4 0 1.2-.1 2.2-.2 2.9.3.6.2 1 .2 1z"/><path class="st10" d="M-267.4-66h19.2"/><path class="st2" d="M-267.4-66s1.2-.1 3-.1c.9 0 2-.1 3.1-.1h7c1.1 0 2.2.1 3.1.1 1.8.1 3 .1 3 .1s-1.2.1-3 .1c-.9 0-2 .1-3.1.1h-7c-1.1 0-2.2-.1-3.1-.1-1.8 0-3-.1-3-.1z"/><path class="st10" d="M-266.4-57.5h15.8"/><path class="st2" d="M-266.4-57.5s1-.1 2.5-.1c.7 0 1.6-.1 2.5-.1h5.8c.9 0 1.8.1 2.5.1 1.5.1 2.5.1 2.5.1s-1 .1-2.5.1c-.7 0-1.6.1-2.5.1h-5.8c-.9 0-1.8-.1-2.5-.1-1.5 0-2.5-.1-2.5-.1z"/><path class="st10" d="M-266.4-70.3h24.9"/><path class="st2" d="M-266.4-70.3s1.6-.1 3.9-.1c1.2 0 2.5 0 4-.1h9.2c1.5 0 2.8.1 4 .1 2.3.1 3.9.1 3.9.1s-1.6.1-3.9.1c-1.2 0-2.5 0-4 .1h-9.2c-1.5 0-2.8-.1-4-.1-2.4 0-3.9-.1-3.9-.1z"/><path class="st10" d="M-219.5-70.3h25"/><path class="st2" d="M-219.5-70.3s1.6-.1 3.9-.1c1.2 0 2.5 0 4-.1h9.2c1.5 0 2.8.1 4 .1 2.3.1 3.9.1 3.9.1s-1.6.1-3.9.1c-1.2 0-2.5 0-4 .1h-9.2c-1.5 0-2.8-.1-4-.1-2.3 0-3.9-.1-3.9-.1z"/><path class="st10" d="M-211.2-57.3h15.9"/><path class="st2" d="M-211.2-57.3s1-.1 2.5-.1c.7 0 1.6-.1 2.5-.1h5.8c.9 0 1.8.1 2.5.1 1.5.1 2.5.1 2.5.1s-1 .1-2.5.1c-.7 0-1.6.1-2.5.1h-5.8c-.9 0-1.8-.1-2.5-.1-1.5 0-2.5-.1-2.5-.1z"/><path class="st10" d="M-214.3-66h19.6"/><path class="st2" d="M-214.3-66s1.2-.1 3.1-.1c.9 0 2-.1 3.2-.1h7.2c1.2 0 2.2.1 3.2.1 1.8.1 3.1.1 3.1.1s-1.2.1-3.1.1c-.9 0-2 .1-3.2.1h-7.2c-1.2 0-2.2-.1-3.2-.1-1.9 0-3.1-.1-3.1-.1z"/><path class="st10" d="M-269.9-61.8h22.2"/><path class="st2" d="M-269.9-61.8s1.4-.1 3.5-.1c1 0 2.3 0 3.6-.1h8.2c1.3 0 2.5.1 3.6.1 2.1.1 3.5.1 3.5.1s-1.4.1-3.5.1c-1 0-2.3.1-3.6.1h-8.2c-1.3 0-2.5-.1-3.6-.1-2.1-.1-3.5-.1-3.5-.1z"/><path class="st10" d="M-214.3-61.8h22.1"/><path class="st2" d="M-214.3-61.8s1.4-.1 3.5-.1c1 0 2.3 0 3.6-.1h8.2c1.3 0 2.5.1 3.6.1 2.1.1 3.5.1 3.5.1s-1.4.1-3.5.1c-1 0-2.3.1-3.6.1h-8.2c-1.3 0-2.5-.1-3.6-.1-2.2-.1-3.5-.1-3.5-.1z"/><path class="st43" d="M-258.8-66v4.2M-254.6-61.7v4M-254.6-70.3v4.3M-261.9-70.1v3.8M-263.5-61.7v4M-198.1-61.7v4.2M-202.3-65.9v4.1M-207.4-61.7v4.2M-207.4-69.9v3.6M-199.6-69.9v3.6"/><path class="st2" d="M-247.1-53.3s.2-.6.8-1.6c.5-1 1.4-2.4 2.6-3.9.6-.7 1.4-1.5 2.2-2.2l1.3-1.1c.5-.3 1-.6 1.5-1 .5-.3 1.1-.6 1.7-.8l1.8-.6 1.9-.4c.6 0 1.3-.1 2-.1l1.9.2c.6.1 1.3.2 1.9.4.6.2 1.2.4 1.8.7.6.3 1.1.5 1.6.9 1 .6 2 1.4 2.8 2.1.8.8 1.5 1.6 2.1 2.3.6.8 1.1 1.5 1.5 2.2.4.7.7 1.3.9 1.8.5 1 .7 1.6.7 1.6s-.2-.6-.7-1.6c-.2-.5-.6-1.1-1-1.8s-.9-1.4-1.5-2.2c-.6-.8-1.3-1.6-2.1-2.3-.8-.8-1.7-1.5-2.8-2.1l-1.6-.8-1.8-.6c-.6-.2-1.2-.3-1.9-.4-.6-.1-1.3-.1-1.9-.1l-1.9.1c-.6 0-1.3.2-1.9.3l-1.8.6-1.7.8c-.5.3-1 .6-1.5 1s-.9.7-1.3 1.1c-.8.7-1.6 1.5-2.2 2.2-1.3 1.5-2.1 2.8-2.7 3.8-.4.9-.7 1.5-.7 1.5z"/><circle class="st5" cx="-247.1" cy="-123.7" r="2.2"/><circle class="st5" cx="-216.9" cy="-123.7" r="2.2"/><circle class="st6" cx="-248.1" cy="-66.6" r="2.2"/><circle class="st6" cx="-215.9" cy="-66.6" r="2.2"/><path class="st1" d="M-260.3-92c.4-.8.7-1.8.7-2.8 0-3.3-2.7-6-6-6-1.1 0-2.1.3-2.9.8v-.8c0-5.8-4.7-10.5-10.5-10.5s-10.5 4.7-10.5 10.5c0 1 .2 2.1.4 3h-.2c-3.7 0-6.7 3-6.7 6.7 0 3.1 2.1 5.7 4.9 6.5-.7 1.5-1.1 3.2-1.1 4.9 0 1.6.3 3.1.9 4.5-.9 1.5-1.4 3.3-1.4 5.1 0 5.6 4.6 10.2 10.2 10.2 1.8 0 3.6-.5 5.1-1.4 1.2 2 3.4 3.4 5.9 3.4 3.8 0 7-3.1 7-7 0-1.3-.4-2.5-1-3.5h1c6.8 0 12.2-5.5 12.2-12.2 0-5.2-3.3-9.6-8-11.4zM-276.2-75.8s3.5 19.2-2.2 43h9.8c-4.2-21.8-2.5-45-2.5-45"/><path class="st2" d="M-279.9-74.7c.8-.1 1.6-.3 2.2-.7.3-.2.7-.4.9-.6.1-.1.3-.2.4-.4l.4-.4.7-.9.6-1 .5-1c.1-.4.2-.7.4-1.1l.5-1.4.5 1.4c.1.2.2.5.3.8l.2.4.3.4.6.7.3.3.4.3c.3.2.5.4.8.5.3.1.6.3.8.4.3.2.6.2.9.3l.9.3c-.3 0-.6 0-1-.1-.3 0-.7 0-1-.1-.3-.1-.6-.2-1-.3-.2 0-.3-.1-.5-.2l-.4-.3-.4-.3-.4-.3c-.3-.2-.5-.4-.7-.7l-.3-.4-.3-.4c-.2-.3-.3-.6-.5-1h.9c-.1.4-.2.8-.4 1.2-.2.4-.3.8-.5 1.1-.2.4-.4.7-.7 1.1-.2.3-.5.7-.8 1-.1.2-.3.3-.5.4l-.5.4c-.4.2-.7.4-1.1.5-.4.2-.8.2-1.2.3-.5-.1-.9-.1-1.3-.2z"/><path class="st10" d="M-292.1-77.7s.9 3.7 3.1 4.4"/><path class="st2" d="M-291.6-77.8s0 .3.2.8c.1.5.3 1.1.6 1.7.1.3.3.6.5.9.2.3.4.5.6.7.2.2.4.3.5.4.1.1.2.1.2.1s-.1 0-.2-.1c-.2 0-.3-.1-.6-.3-.2-.1-.5-.3-.7-.6-.2-.2-.5-.5-.7-.8-.4-.6-.8-1.2-1-1.7-.2-.5-.4-.8-.4-.8l1-.3z"/><path class="st10" d="M-268.6-102.2s.3 2.9-1.6 5.2"/><path class="st2" d="M-268.1-102.3s0 .4-.1.9c0 .3-.1.6-.2.9l-.3 1c-.1.3-.3.7-.5.9-.2.3-.3.6-.5.8-.3.4-.6.7-.6.7s.2-.3.4-.7c.1-.2.2-.5.3-.8.1-.3.2-.6.3-1 .1-.3.1-.7.1-1v-.9c0-.5-.1-.8-.1-.8h1.2z"/><path class="st10" d="M-262-68.5s-4.8.9-5.4-1.5"/><path class="st2" d="M-261.9-68s-1.6.2-3.1-.2c-.4-.1-.8-.2-1.1-.4l-.5-.3-.4-.3c-.1-.1-.2-.2-.2-.3-.1-.1-.1-.2-.1-.3 0-.2-.1-.3-.1-.3s0 .1.1.2c0 .1.1.2.2.2.1.1.1.2.3.3.1.1.2.2.4.2.1.1.3.1.5.2.3.1.7.1 1.1.2.7 0 1.5-.1 2-.1.6-.1.9-.2.9-.2v1.1z"/><path class="st34" d="M-274.6-77.9c3.4 31.5-3 45.1-3 45.1"/><path class="st44" d="M-63 149.2"/><path class="st45" d="M159.5 225c-2 0-3.6-1.6-3.6-3.6 0-.7.2-1.3.5-1.8h-.5c-3.5 0-6.4-2.9-6.4-6.4 0-2.7 1.7-5.1 4.2-6-.2-.4-.4-.9-.4-1.5 0-1.7 1.4-3.1 3.1-3.1.6 0 1.1.1 1.5.4v-.4c0-3 2.5-5.5 5.5-5.5s5.5 2.5 5.5 5.5c0 .5-.1 1.1-.2 1.6h.1c1.9 0 3.5 1.6 3.5 3.5 0 1.6-1.1 3-2.5 3.4.4.8.6 1.6.6 2.6 0 .8-.2 1.6-.5 2.3.5.8.7 1.7.7 2.7 0 2.9-2.4 5.3-5.3 5.3-1 0-1.9-.3-2.6-.7-.3.4-.6.8-1.1 1.1M158.1 238.1c2.2-11.4 1.3-23.5 1.3-23.5M162 215.6s-1.8 10.1 1.2 22.5"/><path class="st10" d="M163.9 216.2c-.2.1-.4.1-.6.1-.2 0-.4 0-.7-.1-.2 0-.4-.2-.6-.3l-.6-.4c-.2-.1-.3-.3-.5-.5l-.4-.6-.3-.6c-.1-.2-.2-.4-.2-.6h.9l-.3.6c-.1.2-.2.3-.4.5-.1.2-.3.3-.4.4-.1.1-.3.2-.5.3-.2.1-.3.2-.5.2s-.4.1-.5.1h-1c.2-.1.3-.2.5-.2l.4-.2c.1-.1.3-.2.4-.2.1-.1.2-.2.4-.3l.3-.3.3-.3c.1-.1.2-.2.2-.4.1-.1.1-.3.2-.3l.4-1.3.5 1.3c.1.2.2.4.2.5.1.2.1.4.2.5l.3.5.3.5c.1.1.2.3.4.4l.4.4.5.3c.3-.1.5-.1.7 0zM170.3 214.6s-.5 1.9-1.6 2.3"/><path class="st10" d="M170.7 214.8l-.2.4c-.1.3-.4.6-.6.9-.1.2-.3.3-.4.4-.2.1-.3.2-.4.3-.3.1-.4.2-.4.2s.1-.1.4-.3c.1-.1.2-.2.3-.4.1-.2.2-.3.2-.5.1-.3.2-.7.2-.9 0-.2.1-.4.1-.4l.8.3zM158 201.8s-.2 1.5.8 2.7"/><path class="st10" d="M158.5 201.8s0 .1-.1.4c0 .2-.1.6 0 .9 0 .2 0 .3.1.5s.1.3.1.4l.2.4-.3-.3c-.1-.1-.2-.2-.3-.4-.1-.1-.2-.3-.3-.5-.2-.4-.3-.7-.3-1-.1-.3-.1-.5-.1-.5l1 .1zM155.3 219.5s1.9 0 2.1-.9"/><path class="st10" d="M155.3 219s.1 0 .3.1c.2 0 .5.1.8 0 .3 0 .6-.1.7-.2.2-.1.2-.3.2-.3s0 .2-.1.4-.4.4-.7.6c-.3.2-.6.3-.8.3-.2.1-.4.1-.4.1v-1z"/><path class="st46" d="M161.1 214.5c-1.8 16.5 1.6 23.6 1.6 23.6M-80 214.5c1.8 16.5-1.9 22.4-1.9 22.4"/><path class="st47" d="M40.5 192.8l-9.1 1.8-46.6-3.2-54-14.9.1-2.9 53.9 15.2 46.5 3.5 9.1-1.7z"/><path class="st48" d="M-65.2 177.9v2.4l50 13.6 46.6 3 5.8-1.2v-2.1"/><path class="st10" d="M-65.2 178.9l12.5 3.3 12.6 3.4 25 6.7h-.1l23.3 1.5 11.7.8 11.6.9 5.8-1.2-5.8 1.3-11.7-.7-11.6-.7-23.3-1.4-25-6.9-12.5-3.5z"/><path class="st48" d="M-63.6 180.9v49.3"/><path class="st46" d="M-56.3 182.8v43.2M-38.4 187.5v38.8M-15.6 193.9v32.7"/><path class="st45" d="M35.5 196.1v14.9"/><path class="st47" d="M30 236.7v-14.2h-34.3v-11.5h79.5v25.7"/><path class="st10" d="M-4.3 212.1s5-.1 12.4-.1 17.4-.1 27.3-.1c9.9 0 19.9.1 27.3.1 7.4.1 12.4.1 12.4.1s-5 .1-12.4.1-17.4.1-27.3.1c-9.9 0-19.9-.1-27.3-.1-7.4 0-12.4-.1-12.4-.1z"/><path class="st48" d="M35.5 199.6s22.5-1.4 23.1 1.8c.5 2.6.4 9.2.4 9.2"/><path class="st45" d="M35.5 200.9s22.5-1.4 23.1 1.8"/><path class="st49" d="M35.5 206s22-1.1 23.5 1.5"/><path class="st46" d="M-15.6 193.9h-48M35.5 202h-99.1M35.5 210.2h-99.1M-4.3 218.3h-59.3M30 234.6h-31.9"/><circle class="st50" cx="14" cy="219" r="1.4"/><path class="st50" d="M43 221.4c0 1.3-1.1 3.8-2.4 3.8-1.3 0-2.4-2.5-2.4-3.8h4.8zM40.6 225.2v11.5"/><path class="st50" d="M86.3 218.9c0 1.3-1.1 3.8-2.4 3.8s-2.4-2.5-2.4-3.8h4.8zM83.9 222.7v14.7"/><path class="st50" d="M111.5 218.9c0 1.3-1.1 3.8-2.4 3.8-1.3 0-2.4-2.5-2.4-3.8h4.8zM109 222.7v14.7"/><path class="st50" d="M136.2 218.9c0 1.3-1.1 3.8-2.4 3.8s-2.4-2.5-2.4-3.8h4.8zM133.8 222.7v14.7"/><path class="st47" d="M154.8 219.9v17.9M75.2 215.3h74.3M154.8 219.4M75.2 216.5h75"/><path class="st50" d="M75.2 224.8h75c3.7 0 4.6 0 4.6 2.5M6.4 222.5v14.2"/><path class="st10" d="M5.6 222.5s.1.9.1 2.2c.1 1.3.1 3.1.1 4.9 0 1.8 0 3.5-.1 4.9-.1 1.3-.1 2.2-.1 2.2s-.1-.9-.1-2.2c-.1-1.3-.1-3.1-.1-4.9 0-1.8.1-3.5.1-4.9 0-1.3.1-2.2.1-2.2zM22.4 222.5s.1.9.1 2.2c.1 1.3.1 3.1.1 4.9 0 1.8 0 3.5-.1 4.9-.1 1.3-.1 2.2-.1 2.2s-.1-.9-.1-2.2c-.1-1.3-.1-3.1-.1-4.9 0-1.8.1-3.5.1-4.9 0-1.3.1-2.2.1-2.2z"/><path class="st50" d="M21.5 222.5v14.2M6.4 229.6h15.1"/><path class="st51" d="M-3 229.2h8.6M22.4 229.2h7.6"/><path class="st52" d="M14 222.5v14.2"/><path class="st48" d="M-73.9 170.6h17.6"/><path class="st50" d="M92.6 237.4v-11.3h9.8v11.3M92.8 227h8.7v9.3M97.1 227v9.6M75.2 230.4h17.4M75.3 231.3h17.3"/><ellipse class="st50" cx="97.1" cy="222.3" rx=".6" ry="1.1"/><path class="st50" d="M116.6 237.4v-11.3h9.8v11.3M116.8 227h8.7v9.3M121.1 227v9.6M142.1 237.4v-11.3h5.4v11.3M142.3 227h4.3v9.3"/><ellipse class="st50" cx="121.2" cy="222.3" rx=".6" ry="1.1"/><ellipse class="st50" cx="144.4" cy="222.3" rx=".6" ry="1.1"/><path class="st50" d="M147.5 230.4h1.5c1.5 0 5 0 5.8.5M126.4 230.4h15.6M102.4 230.4h13.9M147.5 231.3h1.5c1.6 0 4.9 0 5.8.6M126.5 231.3h15.5M102.4 231.3h14.2"/><path class="st10" d="M67.3 220.8s-.1.1-.4.2c-.3.1-.7.1-1.1.1h-.7c-.2 0-.5.1-.8.1h-.9c-.3 0-.7-.2-.9-.2-.1 0-.2-.1-.3 0l-.4.1c-.3.1-.6.1-.8.1l-.4.1c-.2 0-.3 0-.4.1h-.8c-.9-.1-1.5-.3-1.5-.3h.4c.3 0 .6 0 1.1-.1.2 0 .5 0 .7-.1l.4-.1.4-.1.9-.2.4-.1h.6c.3.1.6.2.8.2h.8l.8-.1c.3 0 .6.1.8.1.4.1.8.2 1 .3.1-.1.3-.1.3-.1zM68.7 215.8s-.1.2-.4.4c-.3.2-.8.4-1.4.4-.3 0-.7-.1-1-.2-.3-.1-.6-.1-.9 0-.4.1-.7.2-1.2.2h-.6c-.2 0-.4 0-.6-.1h-1.1c-.3.1-.5.3-1.1.4-.6.1-.9-.3-1.2-.5l-.2-.1h-.2c-.2-.1-.3-.1-.4-.1-.6-.1-1.1-.1-1.4-.1h-.6s.2-.1.5-.1c.3-.1.8-.2 1.5-.2h.6l.2.1.3.1c.3.2.6.3.8.3l1-.4c.5-.1.9-.1 1.3-.1.2 0 .4 0 .6.1h.5c.3 0 .7 0 1.1-.1.4 0 .9 0 1.2.2.3.2.6.2.8.3.6.1 1 0 1.3-.2l.6-.3zM71.5 218.3s-.3 0-.8.1c-.5 0-1.3.2-2.1.4-.4.1-.9.2-1.5.3-.5.1-1.1.1-1.7 0-.6-.1-1.2-.3-1.7-.3-.3-.1-.5-.1-.8 0l-.9.2c-.6.1-1.2.2-1.8.2-.6 0-1.3-.1-1.8-.2s-1.1-.2-1.6-.2h-1.4c-.4.1-.9.2-1.2.1-.4 0-.7 0-1-.1-.5-.1-.8-.2-.8-.2h.8c.3 0 .6 0 .9-.1.3-.1.7-.2 1.2-.3.9-.2 2.1-.2 3.2 0 .6.1 1.1.2 1.7.2.6 0 1.1-.1 1.7-.2l.9-.1c.4-.1.7 0 1 0 .6.1 1.2.3 1.7.4.5.1 1.1.1 1.6.1s1-.1 1.4-.2c.9-.2 1.7-.1 2.2-.1.5-.1.8 0 .8 0z"/><path class="st46" d="M-56.7 226.4h-6.9M-38.9 226.4h-15.2M-29.2 226.4h-5.1M-11.4 226.4h-15M-3.8 226.4h-2.9"/><path class="st48" d="M-3.8 222.5v5.7"/><path class="st45" d="M-66 236.4v-3.6c0-1.5 1.2-2.6 2.6-2.6.2 0 .5 0 .7.1.7-1.4 2.1-2.3 3.8-2.3.3 0 .6 0 .9.1.3-1.2 1.4-2.1 2.6-2.1 1.3 0 2.3.9 2.6 2l.6-.1c.8 0 1.5.3 2 .7.4-1.2 1.6-2.1 3-2.1.7 0 1.4.3 1.9.7.8-.6 1.8-.9 2.8-.9 1.1 0 2.1.4 2.9 1 .5-1.1 1.6-1.8 2.9-1.8 1 0 1.9.5 2.5 1.3.4-.1.9-.2 1.4-.2 1 0 1.9.3 2.7.8.5-.8 1.3-1.4 2.4-1.4 1.3 0 2.3.9 2.6 2l.6-.1c.8 0 1.5.3 2 .7.4-1.2 1.6-2.1 3-2.1.7 0 1.4.3 1.9.7.8-.6 1.8-.9 2.8-.9 1.1 0 2.1.4 2.9 1 .5-1.1 1.6-1.8 2.9-1.8 1.2 0 2.2.6 2.7 1.6h.4c1.5 0 2.7 1.2 2.7 2.7v.2c.8.6 1.3 1.5 1.3 2.5v4.9M-41.4 236.7v-5.4c0-.9.7-1.6 1.6-1.6.9 0 1.6.7 1.6 1.6v5.4"/><path class="st46" d="M-39.2 233.2c0 .3-.3.6-.6.6s-.6-.3-.6-.6v-.8c0-.3.3-.6.6-.6s.6.3.6.6v.8z"/><path class="st10" d="M-33.8 227.1s-.1 0-.2.1-.3.2-.5.3c-.4.3-.6.7-.6.7v-.3c0-.2.1-.5.2-.7.1-.3.2-.5.4-.7l.2-.3.5.9zM-57.5 227.8s-.1.1-.1.2c-.1.1-.1.4-.2.6-.1.5.1 1 .1 1l-.2-.2c-.1-.1-.3-.4-.4-.6-.1-.3-.2-.5-.2-.8v-.4l1 .2zM-65.5 232.2l-.1.3v.6l.2.3c.1.1.2.2.3.2.2.1.3.1.3.1h-.4c-.1 0-.2 0-.4-.1-.2 0-.3-.2-.4-.3-.2-.3-.4-.6-.4-.8l-.1-.3v-.1l1 .1zM-2.7 229.8s-.1.2-.2.3c-.1.2-.3.4-.5.6-.2.2-.4.3-.6.4-.2.1-.3.1-.3.1s.4-.4.5-.8c.1-.2.1-.4.1-.6v-.3l1 .3z"/><path class="st48" d="M-73.9 202.9v-33.8h17.6v7.6M-73.9 236.7v-17"/><path class="st45" d="M-78.4 225c2 0 3.6-1.6 3.6-3.6 0-.7-.2-1.3-.5-1.8h.5c3.5 0 6.4-2.9 6.4-6.4 0-2.7-1.7-5.1-4.2-6 .2-.4.4-.9.4-1.5 0-1.7-1.4-3.1-3.1-3.1-.6 0-1.1.1-1.5.4v-.4c0-3-2.5-5.5-5.5-5.5s-5.5 2.5-5.5 5.5c0 .5.1 1.1.2 1.6h-.1c-1.9 0-3.5 1.6-3.5 3.5 0 1.6 1.1 3 2.5 3.4-.4.8-.6 1.6-.6 2.6 0 .8.2 1.6.5 2.3-.5.8-.7 1.7-.7 2.7 0 2.9 2.4 5.3 5.3 5.3 1 0 1.9-.3 2.6-.7.3.5.7.9 1.3 1.2M-76.9 237.1c-2.2-11.4-1.3-22.5-1.3-22.5M-80.8 215.6s1.8 9-1.2 21.4"/><path class="st10" d="M-82.8 216.2l.6-.2c.2-.1.4-.2.5-.3.2-.1.3-.2.4-.4l.4-.4c.1-.1.2-.3.3-.5l.3-.5c.1-.2.1-.4.2-.5.1-.2.1-.4.2-.5l.5-1.3.4 1.3c0 .1.1.2.2.3.1.1.1.2.2.4l.3.3.3.3c.1.1.2.2.4.3.1.1.3.2.4.2l.4.2.5.2h-1l-.5-.1c-.2 0-.3-.1-.5-.2l-.5-.3c-.1-.1-.3-.2-.4-.4-.1-.1-.3-.3-.4-.5-.1-.2-.2-.3-.3-.6h.9l-.2.6-.3.6-.4.6c-.1.2-.3.4-.5.5-.2.1-.3.3-.6.4l-.6.3c-.2 0-.4.1-.7.1 0 .2-.3.2-.5.1zM-88.6 214.5s0 .2.1.4c0 .3.1.6.2.9l.2.5.3.4c.2.2.4.3.4.3l-.4-.2-.4-.3-.4-.4c-.3-.3-.5-.6-.6-.9-.1-.3-.2-.5-.2-.4l.8-.3zM-76.3 201.7s0 .2-.1.5l-.3 1c-.1.2-.2.4-.3.5l-.3.4-.3.3.2-.4c.1-.1.1-.3.1-.4.1-.2.1-.3.1-.5v-.9c0-.3-.1-.4-.1-.4l1-.1zM-74 220s-.2 0-.5-.1l-1-.3-.5-.3-.3-.4c-.1-.3-.1-.4-.1-.4s.1.2.2.3c.1.1.2.2.4.2.1.1.3.1.5.1h.9c.2 0 .4-.1.4-.1v1z"/><path class="st45" d="M170.5 214c12.5.6 25.6 1.6 45.1-.9M59.1 209.1c22.8-2 27.8-3.5 51.5-2.9 15.3.4 27.4 3 39.2 5M-89.1 221.1c-29.3 1.2-43-11.8-99-2.6-51.8 8.5-88.4.7-88.4.7-63.3-13.1-134.5 5.8-134.5 5.8"/><path class="st4" d="M-354.8 73.3v37.9c0 .7.6 1.3 1.3 1.3.7 0 1.3-.6 1.3-1.3v-37.9M-314.3 73.3v37.9c0 .7.6 1.3 1.3 1.3.7 0 1.3-.6 1.3-1.3v-37.9M-254.1 73.3v37.9c0 .7.6 1.3 1.3 1.3.7 0 1.3-.6 1.3-1.3v-37.9M-213.8 73.3v37.9c0 .7.6 1.3 1.3 1.3.7 0 1.3-.6 1.3-1.3v-37.9"/><path class="st4" d="M-354.6 13.5c0 6.8-5.5 12.2-12.2 12.2-6.8 0-12.2-5.5-12.2-12.2h24.4zM-371.4 25.2s.2 2.8 3.2 2.8h1.8c3 0 3.2-2.8 3.2-2.8M-368.1 28v76.5c0 2.1-1.7 3.8-3.8 3.8h-.1c-1.5 0-2.7 1.2-2.7 2.7 0 0-.1 1.5 7.5 1.5l7.5-1.5c0-1.5-1.2-2.7-2.7-2.7h-.1c-2.1 0-3.8-1.7-3.8-3.8v-76.5"/><path class="st4" d="M179.7 13.5c0 6.8-5.5 12.2-12.2 12.2s-12.2-5.5-12.2-12.2h24.4zM162.9 25.2s.2 2.8 3.2 2.8h1.8c3 0 3.2-2.8 3.2-2.8M166.2 28v76.5c0 2.1-1.7 3.8-3.8 3.8h-.1c-1.5 0-2.7 1.2-2.7 2.7 0 0-.1 1.5 7.5 1.5l7.5-1.5c0-1.5-1.2-2.7-2.7-2.7h-.1c-2.1 0-3.8-1.7-3.8-3.8v-76.5M-116.5 73.3v37.9c0 .7.6 1.3 1.3 1.3s1.3-.6 1.3-1.3v-37.9M-60.2 73.3v37.9c0 .7.6 1.3 1.3 1.3.7 0 1.3-.6 1.3-1.3v-37.9M-21.4 73.4v37.9c0 .7.6 1.3 1.3 1.3.7 0 1.3-.6 1.3-1.3v-37.9"/><path class="st4" d="M-117.8 69h100v4.3h-100zM-113.7 81.8h53.5M-57.5 73.3v25h36.1"/><path class="st2" d="M-56.5 85.8s2.1-.1 5.4-.2c1.6 0 3.5-.1 5.5-.1h12.6c2 0 3.9.1 5.5.1 3.2.1 5.4.2 5.4.2s-2.1.1-5.4.2c-1.6 0-3.5.1-5.5.1h-12.6c-2 0-3.9-.1-5.5-.1-3.2-.1-5.4-.2-5.4-.2z"/><path class="st4" d="M-33.8 80.3h-10.8c-.3 0-.6-.3-.6-.6v-.6c0-.3.3-.6.6-.6h10.8c.3 0 .6.3.6.6v.6c0 .4-.3.6-.6.6zM-33.8 92.8h-10.8c-.3 0-.6-.3-.6-.6v-.6c0-.3.3-.6.6-.6h10.8c.3 0 .6.3.6.6v.6c0 .4-.3.6-.6.6zM151.7 73.3v37.9c0 .7-.6 1.3-1.3 1.3-.7 0-1.3-.6-1.3-1.3v-37.9M95.4 73.3v37.9c0 .7-.6 1.3-1.3 1.3-.7 0-1.3-.6-1.3-1.3v-37.9M56.6 73.4v37.9c0 .7-.6 1.3-1.3 1.3-.7 0-1.3-.6-1.3-1.3v-37.9"/><path class="st4" d="M53 69h100v4.3h-100zM148.9 81.8h-53.5M92.7 73.3v25h-36.1"/><path class="st2" d="M91.7 85.8s-2.1.1-5.4.2c-1.6 0-3.5.1-5.5.1h-12.6c-2 0-3.9-.1-5.5-.1-3.2-.1-5.4-.2-5.4-.2s2.1-.1 5.4-.2c1.6 0 3.5-.1 5.5-.1h12.6c2 0 3.9.1 5.5.1 3.2 0 5.4.2 5.4.2z"/><path class="st4" d="M69.1 80.3h10.8c.3 0 .6-.3.6-.6v-.6c0-.3-.3-.6-.6-.6h-10.8c-.3 0-.6.3-.6.6v.6c-.1.4.2.6.6.6zM69.1 92.8h10.8c.3 0 .6-.3.6-.6v-.6c0-.3-.3-.6-.6-.6h-10.8c-.3 0-.6.3-.6.6v.6c-.1.4.2.6.6.6zM-61.9 63.2h-43.1c-.4 0-.7-.3-.7-.7v-27.5c0-.4.3-.7.7-.7h44.4c.4 0 .7.3.7.7v24.6"/><path class="st16" d="M-105.7 37h45.9M-105.7 58h45.9"/><circle class="st16" cx="-82.7" cy="60.5" r=".8"/><path class="st4" d="M-85.1 63.2s.6 5.8-2 5.8M-80.3 63.2s-.6 5.8 2 5.8"/><path class="st3" d="M-81.9 40.4h20.5v15.8h-20.5z"/><path class="st16" d="M-81.9 38.6h20.5v17.7h-20.5z"/><path class="st10" d="M-70.7 43.6l.2 2.9 2.8.7-2.7 1.1.2 2.9-1.9-2.2-2.6 1.1 1.5-2.5-1.9-2.2 2.8.7z"/><path class="st16" d="M-103.1 39.8h18.5M-103.1 41h12.4M-103.1 44.4h14.1M-103.1 45.5h12.4M-103.1 47.8h12.4M-103.1 46.6h16.4M-103.1 48.9h14.1M-103.1 50h12.4M-103.1 52.3h12.4M-103.1 51.2h16.4M-103.1 42.1h1.1M-103.1 43.2h1.1M-103.1 53.4h1.1M-103.1 54.6h1.1M-103.1 55.7h1.1"/><path class="st4" d="M150.8 63.2h-44.4c-.4 0-.7-.3-.7-.7v-27.5c0-.4.3-.7.7-.7h44.4c.4 0 .7.3.7.7v27.5c.1.4-.2.7-.7.7z"/><path class="st16" d="M105.7 37h45.9M105.7 58h45.9"/><circle class="st16" cx="128.6" cy="60.5" r=".8"/><path class="st4" d="M126.2 63.2s.6 5.8-2 5.8M131 63.2s-.6 5.8 2 5.8"/><path class="st4" d="M-51.4 32.1c0-5.1 4.2-9.3 9.3-9.3s9.3 4.2 9.3 9.3h-18.6zM-39 23.3s-.2-2.1-2.5-2.1h-1.3c-2.3 0-2.5 2.1-2.5 2.1M-41.4 21.2v-2.7c0-2.3 1.8-4 4.1-4h4.9c2.3 0 4.1 1.7 4.1 4v43.9c0 2.1-1.7 3.8-3.8 3.8h-.1c-1.5 0-2.7 1.2-2.7 2.7M-43.1 21.2v-2.9c0-3 2.4-5.4 5.4-5.4h5.8c3 0 5.4 2.4 5.4 5.4v44.2c0 2.1 1.7 3.8 3.8 3.8h.1c1.5 0 2.7 1.2 2.7 2.7"/><path class="st4" d="M-158.1 112.5h-16.9c-1.2 0-2.2-1-2.2-2.2v-42.1c0-1.2 1-2.2 2.2-2.2h16.9c1.2 0 2.2 1 2.2 2.2v42.1c0 1.3-1 2.2-2.2 2.2zM-175.3 70h17.5v25.5h-17.5z"/><path class="st5" d="M-175.3 75.6h17.5M-175.3 82.4h17.5M-175.3 89.3h17.5"/><circle class="st4" cx="-166.6" cy="106.6" r="1.2"/><path class="st5" d="M-173.5 99.5h13.9M-173.5 101.3h13.9M-173.5 103h13.9M-165.4 75.6v-1.6h7.6M-165.4 95.5v-1.6h7.6M-165.4 82.4v-1.6h7.6M-165.4 89.1v-1.6h7.6"/><path class="st4" d="M-132 112.5h-17c-1.2 0-2.2-1-2.2-2.2v-42.1c0-1.2 1-2.2 2.2-2.2h16.9c1.2 0 2.2 1 2.2 2.2v42.1c0 1.3-.9 2.2-2.1 2.2zM-149.2 70h17.5v25.5h-17.5z"/><path class="st5" d="M-149.2 75.6h17.4M-149.2 82.4h17.4M-149.2 89.3h17.4"/><circle class="st4" cx="-140.5" cy="106.6" r="1.2"/><path class="st5" d="M-147.5 99.5h14M-147.5 101.3h14M-147.5 103h14M-139.3 75.6v-1.6h7.5M-139.3 95.5v-1.6h7.5M-139.3 82.4v-1.6h7.5M-139.3 89.1v-1.6h7.5"/><path class="st4" d="M-181.6 42.5h54.8v3.9h-54.8zM-173.6 46.4l2.5 4.6v-4.6M-134.3 46.4l-2.5 4.6v-4.6"/><path class="st4" d="M-160.853 42.081l-4.109-.87 3.604-17.022 4.109.87z"/><path class="st16" d="M-159.3 25.2l-3.6 16.6"/><path class="st4" d="M-141.9 20h8.5v22.3h-8.5zM-150.3 20h8.5v22.3h-8.5zM-157.3 22.3h7v20.1h-7z"/><circle class="st16" cx="-137.7" cy="38.2" r="1.1"/><circle class="st16" cx="-146.1" cy="38.2" r="1.1"/><path class="st16" d="M-150.3 24.5s-2.5.6-7 0"/><path class="st2" d="M-181.6 44.5s3.4-.1 8.6-.1c2.6 0 5.6 0 8.8-.1h20.2c3.2 0 6.2.1 8.8.1 5.1.1 8.6.1 8.6.1s-3.4.1-8.6.1c-2.6 0-5.6 0-8.8.1h-20.2c-3.2 0-6.2-.1-8.8-.1-5.2-.1-8.6-.1-8.6-.1z"/><path class="st4" d="M-299.8 63.2h-39.8c-.4 0-.7-.3-.7-.7v-6.9M-340.3 38.5v-3.5c0-.4.3-.7.7-.7h44.4c.4 0 .7.3.7.7v13.9"/><path class="st16" d="M-340.3 37h45.9M-340.3 58h41.1"/><circle class="st16" cx="-317.4" cy="60.5" r=".8"/><path class="st4" d="M-319.8 63.2s.6 5.8-2 5.8M-315 63.2s-.6 5.8 2 5.8"/><path class="st53" d="M-316.1 40.9l.4 5.3 5.1 1.4-4.9 2 .3 5.3-3.5-4-4.9 1.9 2.8-4.5-3.4-4.2 5.2 1.3z"/><path class="st10" d="M130.7 40.4l.4 5.3 5.1 1.4-4.9 2 .3 5.3-3.4-4-5 1.9 2.8-4.5-3.4-4.2 5.2 1.3z"/><path class="st5" d="M-341 39.3l-2.7.3.9 7.3 7.3-.9-.9-7.3-3 .3"/><path class="st6" d="M-336 44.4l-6.8.8"/><circle class="st5" cx="-340.2" cy="39.3" r=".6"/><path class="st5" d="M-340.7 47.7l-3-.9-2.1 7 7.1 2.1 2.1-7-2.8-.9"/><path class="st6" d="M-338.5 54.2l-6.7-1.9"/><circle class="st5" cx="-340.1" cy="47.7" r=".6"/><path class="st4" d="M-355.5 69h145.7v4.3h-145.7zM-254.1 81.8h-57.3M-254.1 78h-57.3M-60.2 78h-53.5M148.9 78h-53.5M-314.6 73.3v25h-37.6"/><path class="st2" d="M-315.6 85.8s-2.2.1-5.6.2c-1.7 0-3.6.1-5.7.1h-13c-2.1 0-4-.1-5.7-.1-3.3-.1-5.6-.2-5.6-.2s2.2-.1 5.6-.2c1.7 0 3.6-.1 5.7-.1h13c2.1 0 4 .1 5.7.1 3.4 0 5.6.2 5.6.2z"/><path class="st4" d="M-338.4 80.3h10.8c.3 0 .6-.3.6-.6v-.6c0-.3-.3-.6-.6-.6h-10.8c-.3 0-.6.3-.6.6v.6c-.1.4.2.6.6.6zM-338.4 92.8h10.8c.3 0 .6-.3.6-.6v-.6c0-.3-.3-.6-.6-.6h-10.8c-.3 0-.6.3-.6.6v.6c-.1.4.2.6.6.6zM-251.4 73.3v25h37.6"/><path class="st2" d="M-250.4 85.8s2.2-.1 5.6-.2c1.7 0 3.6-.1 5.7-.1h13c2.1 0 4 .1 5.7.1 3.3.1 5.6.2 5.6.2s-2.2.1-5.6.2c-1.7 0-3.6.1-5.7.1h-13c-2.1 0-4-.1-5.7-.1-3.4-.1-5.6-.2-5.6-.2z"/><path class="st4" d="M-227.5 80.3h-10.8c-.3 0-.6-.3-.6-.6v-.6c0-.3.3-.6.6-.6h10.8c.3 0 .6.3.6.6v.6c0 .4-.3.6-.6.6zM-227.5 92.8h-10.8c-.3 0-.6-.3-.6-.6v-.6c0-.3.3-.6.6-.6h10.8c.3 0 .6.3.6.6v.6c0 .4-.3.6-.6.6z"/><path class="st5" d="M-345.1 62.5h-.8l.1-3.7h.7z"/><path class="st16" d="M-345.7 58.8s-.1-.8.2-.8h.1c.3 0 .2.8.2.8"/><path class="st5" d="M-345.9 62.5s.1 2-.2 4.4v.6M-345.1 62.5s-.1 2 .2 4.4v.6M-347.4 68.6c0-1 .8-1.2 1.8-1.2s1.8.2 1.8 1.2"/><path class="st4" d="M-266.4 66.2h-33.7l2-17.3h29.2z"/><path class="st54" d="M-269.6 64.1h-28.2l1.5-13.4h25z"/><path class="st4" d="M-268.8 58.7l.7 5.4M-269.1 56.9l.1.5M-269.5 53.6l.2 1.8M-269.9 50.7l.3 1.8M-292.3 66.2s-1.9.4-2.1 2.4h3.2s0-2.4 3-2.4M-273.5 66.2s1.9.4 2.1 2.4h-3.2s0-2.4-3-2.4"/><path class="st10" d="M-282.5 53.2l.2 3 3 .8-2.9 1.1.2 3.1-2-2.3-2.8 1.1 1.6-2.6-1.9-2.4 2.9.7z"/><path class="st4" d="M-247.6 69h7.1l.9-9.1h-9zM-248.6 61.8h-2.4s.2 4.7 3.1 4.5"/><path class="st4" d="M-221.9 52.6h4.2v16.4h-4.2zM-234.4 68.8l-1.8-.2 2.6-18.7 1.8.3zM-230.9 47.3h8.5v21.6h-8.5z"/><circle class="st16" cx="-226.6" cy="64.4" r="1.1"/><path class="st5" d="M-285.382 40.527l-1.959-23.921 5.681-.465 1.959 23.921z"/><path class="st39" d="M-281.4 20l-5.6.5"/><path class="st2" d="M-286 18.1s0-.1.1-.2.1-.2.3-.3c.1-.1.3-.1.4 0l.2.2c.2.1.4 0 .6-.1.1 0 .2-.1.4-.1s.3.1.4.1h.2s.1-.2.2-.2c.2-.1.4 0 .5 0 .1 0 .2.1.2.1h-.2c-.1 0-.3 0-.4.1-.1 0-.1.1-.2.2s-.3.1-.4.1l-.3-.1s-.2.1-.3.1c-.2.1-.5.1-.8 0l-.3-.2c0-.1-.1-.1-.2 0-.3.1-.4.3-.4.3z"/><path class="st39" d="M-279.8 39l-5.7.5M-280.2 34.3l-5.6.4M-280.6 29.3l-5.6.5M-281 24.6l-5.6.5"/><path class="st2" d="M-285.9 18.9s.2-.1.5-.1c.3-.1.7-.1 1.1-.1h1.6s-.2.1-.5.1c-.3.1-.7.1-1.1.1h-1.6z"/><circle class="st5" cx="-284.7" cy="16" r=".7"/><path class="st4" d="M44.1 23.7c0-.4-.3-.6-.6-.6h-32.2c-.4 0-.6.3-.6.6v88c0 .4.3.6.6.6h32.1c.4 0 .6-.3.6-.6v-88zm-31.5 85.5v-26.2h29.5v26.2h-29.5zm.6-84.2h28.4c.3 0 .6.3.6.6v26.7h-29.6v-26.6c0-.4.3-.7.6-.7zm-.6 56.5v-27.6h29.5v27.7h-29.5z"/><path class="st2" d="M14.4 26.9s1.6-.1 4-.1c1.2 0 2.6 0 4.1-.1h9.4c1.5 0 2.9.1 4.1.1 2.4.1 4 .1 4 .1s-1.6.1-4 .1c-1.2 0-2.6 0-4.1.1h-9.4c-1.5 0-2.9-.1-4.1-.1-2.4 0-4-.1-4-.1zM14.4 55.9s1.6-.1 4-.1c1.2 0 2.6 0 4.1-.1h9.4c1.5 0 2.9.1 4.1.1 2.4.1 4 .1 4 .1s-1.6.1-4 .1c-1.2 0-2.6 0-4.1.1h-9.4c-1.5 0-2.9-.1-4.1-.1-2.4 0-4-.1-4-.1zM14.4 85.1s1.6-.1 4-.1c1.2 0 2.6 0 4.1-.1h9.4c1.5 0 2.9.1 4.1.1 2.4.1 4 .1 4 .1s-1.6.1-4 .1c-1.2 0-2.6 0-4.1.1h-9.4c-1.5 0-2.9-.1-4.1-.1-2.4-.1-4-.1-4-.1z"/><path class="st4" d="M29.8 29.1h10.2v3h-10.2zM29.8 58.1h10.2v3h-10.2zM29.8 87.1h10.2v3h-10.2zM91.5 69h7.1l1-9.1h-9zM90.6 61.8h-2.4s.2 4.7 3.1 4.5"/><path class="st4" d="M-54 69h-7.1l-1-9.1h9zM-53.1 61.8h2.4s-.2 4.7-3.1 4.5"/></g></svg>