<svg xmlns="http://www.w3.org/2000/svg" viewBox="0 0 214 164" enable-background="new 0 0 214 164"><style type="text/css">.st0{display:none;} .st1{fill:#E7B42B;} .st2{fill:#FFFFFF;}</style><path class="st0" d="M-50.1-58h316v317h-316z"/><path class="st1" d="M146.4 106.4h-4.1v45.1h15.5v-4.1h-11.4v-23h11.4v-4h-11.4v-9.9h11.4v-4.1h-11.4zM193.6 151.5h4.2l-9.9-30.7 9.9-14.3h-5l-8.8 12.5v-12.6h-4.1v45.1h4.1v-25.1l.9-1.3zM165.3 106.4h-4.1v45.1h15.5v-4.1h-11.4v-23h11.4v-4h-11.4v-9.9h11.4v-4.1h-11.4zM109.3 106.5h-9v45.1h4.1v-27.1h5.4c4.7-.1 8.5-4.2 8.5-9 0-5-4.1-9-9-9zm0 13.8h-4.9v-9.8h5.1c2.6.1 4.7 2.3 4.7 4.9 0 2.7-2.2 4.9-4.9 4.9zM51.7 120.4h-9.7v-14h-4v14h-2.7v4h2.7v27.1h4v-27.1h9.7v27.1h4.1v-45.1h-4.1zM96.9 115.2c-.1-4.7-4.2-8.5-9-8.5-4.9 0-9 4-9 9h.1-.1v27.6c.1 4.7 4.2 8.5 9 8.5 4.9 0 9-4 9-9h.1v-27.6zm-9 32.6c-2.7 0-4.9-2.2-4.9-4.9v-27.4c.1-2.6 2.3-4.7 4.9-4.7 2.7 0 4.9 2.2 4.9 4.9v27.4c-.1 2.6-2.2 4.7-4.9 4.7zM128.7 124.4h5.4v18.6c-.1 2.6-2.3 4.7-4.9 4.7-2.7 0-4.9-2.2-4.9-4.9v-27.4c.1-2.6 2.3-4.7 4.9-4.7 2.7 0 4.9 2.2 4.9 4.9h4c.1-4.9-4-9-9-9-4.9 0-9 4-9 9h-.1v27.6c.1 4.7 4.2 8.5 9 8.5 4.9 0 9-4 9-9h.1v-22.5h-9.4v4.2zM76.7 115.4c0-4.9-4-9-9-9v-.1h-9v45.1h4.1v-27.1h4.3c2.5.2 4.6 2.3 4.5 4.8v22.3h4v-22.400000000000002c0-2.5-1.1-4.8-2.8-6.3 2.4-1.5 3.9-4.3 3.9-7.3zm-13.9-4.9h5.2c2.6.1 4.7 2.3 4.7 4.9 0 2.7-2.2 4.9-4.9 4.9h-4.9v-9.8zM34.1 135.5s.1-4.6-2.6-8c-.8-1-2.6-2.9-4.6-4.1-3.6-2.3-6.6-3.4-6.7-7.6 0-2.7 2.2-4.9 4.9-4.9s4.9 2.2 4.9 4.9h4c.1-4.9-4-9-9-9-4.9 0-9 4-9 9-.2 7.1 6.3 9.1 8.6 11 4.7 4 5.2 6.6 5.3 10 .1 2.9 0 5.1 0 5.1-.1 4.3-1.8 6-4.9 6-2.7 0-4.9-2.2-4.9-4.9v-7.3h-4v7.5c0 4.8 4.1 8.8 9 8.8 9.7.2 9-10 9-10v-6.5z"/><path class="st2" d="M118.2 91.1c0-.1-7.2-11.8-7.9-23.1v-8.1h-6.4v8.4c-1.2 14.3-8 22.7-8 22.7v3.3000000000000003h22.3v-3.2zm-11.1-19.7c.4 2.7 1 5.1 1.6 7.3h-3c.5-2.2 1.1-4.7 1.4-7.3zm-1.8 8.8h3.8c.5 1.9 1.1 3.5 1.6 5h-7.1c.5-1.5 1.1-3.2 1.7-5zm6 6.5c.7 1.7 1.3 3 1.7 3.8h-11.7c.4-.7 1-2 1.7-3.8h8.3z"/><circle class="st2" cx="107" cy="50" r="7.7"/><path class="st2" d="M119.4 36.8c6.8 6.8 6.8 18 0 24.8l1.8 1.8c7.8-7.8 7.8-20.6 0-28.4l-1.8 1.8zM92.8 35c-7.8 7.8-7.8 20.6 0 28.4l1.8-1.8c-6.8-6.8-6.8-18 0-24.8l-1.8-1.8zM131.8 24.4c13.7 13.7 13.7 35.9 0 49.5l1.8 1.8c14.7-14.7 14.7-38.5 0-53.2l-1.8 1.9zM80.4 22.6c-14.7 14.7-14.7 38.5 0 53.2l1.8-1.8c-13.7-13.7-13.7-35.9 0-49.5l-1.8-1.9zM146.5 9.7l-1.8 1.8c20.8 20.8 20.8 54.5 0 75.3l1.8 1.8c21.7-21.7 21.7-57.1 0-78.9zM67.5 9.7c-21.8 21.8-21.8 57.2 0 78.9l1.8-1.8c-20.8-20.8-20.8-54.5 0-75.3l-1.8-1.8z"/></svg>