<svg xmlns="http://www.w3.org/2000/svg" viewBox="0 0 1155.1 293.3" enable-background="new 0 0 1155.1 293.3"><style type="text/css">.st0{fill:#FFFFFF;} .st1{fill-rule:evenodd;clip-rule:evenodd;fill:#FFFFFF;}</style><path class="st0" d="M305.2 98.3l11.5 2.9c-7.2 18.8-10.8 35.5-10.8 50 0 16.8 3.6 34.4 10.8 52.9l-11.5 3c-7.4-18.1-11-36.5-11-55.2-.1-18.8 3.6-36.7 11-53.6zM375 154.7l29.4 38.3h-30.3l-22.9-36h-.2v36h-24.3v-93.5h36.3c9.8 0 17.6 2.4 23.6 7.2 6 4.8 8.9 12 8.9 21.6 0 6.7-1.8 12.5-5.4 17.4-3.6 4.8-8.7 7.8-15.1 9zm-24.1-36.6v23.3h2.4c11.2 0 16.9-3.9 16.9-11.7 0-7.8-5.6-11.7-16.9-11.7h-2.4zM429.1 151.8c0 18.7-3.7 37.1-11 55.2l-11.5-3c7.2-18.5 10.8-36.2 10.8-52.9 0-14.5-3.6-31.1-10.8-50l11.5-2.9c7.4 17 11 34.9 11 53.6zM494.1 120.1h-28.9v15.6h27.4v20.6h-27.4v16.1h28.9v20.6h-53.1v-93.5h53.2v20.6zM524.3 99.5l22.6 56.8 22.7-56.8h26.4l-39.9 93.5h-18.8l-39.3-93.5h26.3zM617.1 102.4c7.9-4 16.3-6 25.3-6s17.4 2 25.3 6c7.9 4 14.2 9.7 19.1 17.2 4.9 7.4 7.3 15.7 7.3 24.9 0 15.1-4.9 27.5-14.6 37.1-9.7 9.6-22.1 14.4-37.1 14.4s-27.4-4.8-37.1-14.4c-9.7-9.6-14.6-22-14.6-37.1 0-9.2 2.4-17.5 7.3-24.9 4.8-7.4 11.2-13.2 19.1-17.2zm43.9 25c-5.2-5-11.4-7.4-18.6-7.4-7.2 0-13.4 2.5-18.6 7.4s-7.8 10.7-7.8 17.2c0 7.9 2.6 14.6 7.7 19.9 5.1 5.3 11.4 8 18.7 8 7.4 0 13.6-2.7 18.7-8s7.7-12 7.7-19.9c0-6.5-2.6-12.2-7.8-17.2zM725.6 99.5v72.9h29.1v20.6h-53.4v-93.5h24.3zM816.2 99.5h24.3v52.6c0 7.6-.6 14-1.8 19.2-1.2 5.2-3.9 9.8-8 13.8-7 6.9-17.4 10.4-31 10.4-13.6 0-24-3.5-31-10.4-4.1-4-6.8-8.7-8-13.8-1.2-5.2-1.8-11.6-1.8-19.2v-52.6h24.3v49.2c0 3 .1 5.5.2 7.4s.5 4.2 1.1 6.7 1.5 4.5 2.6 6 2.7 2.8 4.9 3.8c2.1 1 4.7 1.5 7.7 1.5s5.5-.5 7.7-1.5c2.1-1 3.8-2.3 4.9-3.8 1.1-1.5 2-3.5 2.6-6s1-4.7 1.1-6.7.2-4.5.2-7.4v-49.2zM890.4 120.1v72.9h-24.3v-72.9h-20.1v-20.6h64.5v20.6h-20.1zM940.4 99.5v93.5h-24.3v-93.5h24.3zM973.9 102.4c7.9-4 16.3-6 25.3-6s17.4 2 25.3 6c7.9 4 14.2 9.7 19.1 17.2 4.9 7.4 7.3 15.7 7.3 24.9 0 15.1-4.9 27.5-14.6 37.1-9.7 9.6-22.1 14.4-37.1 14.4s-27.4-4.8-37.1-14.4c-9.7-9.6-14.6-22-14.6-37.1 0-9.2 2.4-17.5 7.3-24.9 4.9-7.4 11.2-13.2 19.1-17.2zm43.9 25c-5.2-5-11.4-7.4-18.6-7.4-7.2 0-13.4 2.5-18.6 7.4s-7.8 10.7-7.8 17.2c0 7.9 2.6 14.6 7.7 19.9 5.1 5.3 11.4 8 18.7 8 7.4 0 13.6-2.7 18.7-8s7.7-12 7.7-19.9c0-6.5-2.6-12.2-7.8-17.2zM1082.2 98.7v57.3h.2l44.5-57.3h24.3v93.5h-24.2v-57.2h-.2l-44.5 57.2h-24.3v-93.5h24.2z"/><path class="st1" d="M277.6 142.2l-107.1-30-2.7-112.2-61 94.4-106.8-30 69.5 86.6-62.8 94.6 103.5-40.3 67.6 88-3.9-112.7 103.7-38.4z"/></svg>