<svg xmlns="http://www.w3.org/2000/svg" viewBox="0 0 184.3 120.3" enable-background="new 0 0 184.3 120.3"><style type="text/css">.st0{opacity:0.22;fill:#B04939;} .st1{fill:#FFFFFF;stroke:#333433;stroke-miterlimit:10;} .st2{fill:#333433;} .st3{fill:#C1503E;stroke:#333433;stroke-width:0.25;stroke-linecap:round;stroke-linejoin:round;stroke-miterlimit:10;} .st4{fill:none;stroke:#333433;stroke-linecap:round;stroke-linejoin:round;stroke-miterlimit:10;} .st5{fill:none;stroke:#333433;stroke-width:0.75;stroke-linecap:round;stroke-linejoin:round;stroke-miterlimit:10;} .st6{fill:#FFFFFF;stroke:#333433;stroke-width:0.75;stroke-linecap:round;stroke-linejoin:round;stroke-miterlimit:10;} .st7{fill:none;stroke:#020202;stroke-width:0.5;stroke-linecap:round;stroke-linejoin:round;stroke-miterlimit:10;} .st8{fill:none;stroke:#020202;stroke-width:0.1;stroke-miterlimit:10;} .st9{fill:none;stroke:#020202;stroke-width:0.1;stroke-linecap:round;stroke-linejoin:round;stroke-miterlimit:10;} .st10{fill:#FFFFFF;} .st11{fill:#FFFFFF;stroke:#333433;stroke-linecap:round;stroke-linejoin:round;stroke-miterlimit:10;} .st12{fill:#FFFFFF;stroke:#333433;stroke-width:0.9141;stroke-linecap:round;stroke-linejoin:round;stroke-miterlimit:10;} .st13{fill:none;stroke:#333433;stroke-width:0.9581;stroke-linecap:round;stroke-linejoin:round;stroke-miterlimit:10;} .st14{fill:#FFFFFF;stroke:#333433;stroke-width:0.8907;stroke-linecap:round;stroke-linejoin:round;stroke-miterlimit:10;} .st15{fill:#B04939;} .st16{fill:none;stroke:#333433;stroke-width:0.5;stroke-linecap:round;stroke-linejoin:round;stroke-miterlimit:10;} .st17{fill:#FFFFFF;stroke:#333433;stroke-width:0.8094;stroke-miterlimit:10;} .st18{fill:none;stroke:#333433;stroke-width:0.8094;stroke-miterlimit:10;} .st19{fill:none;stroke:#333433;stroke-miterlimit:10;} .st20{fill:none;stroke:#333433;stroke-width:0.5052;stroke-miterlimit:10;} .st21{fill:#FFFFFF;stroke:#333433;stroke-width:0.976;stroke-linecap:round;stroke-linejoin:round;stroke-miterlimit:10;} .st22{fill:none;stroke:#333433;stroke-width:0.4935;stroke-linecap:round;stroke-linejoin:round;stroke-miterlimit:10;} .st23{fill:none;stroke:#333433;stroke-width:0.9269;stroke-linecap:round;stroke-linejoin:round;stroke-miterlimit:10;} .st24{fill:#FFFFFF;stroke:#333433;stroke-width:0.9618;stroke-linecap:round;stroke-linejoin:round;stroke-miterlimit:10;} .st25{fill:none;} .st26{fill:#FFFFFF;stroke:#333433;stroke-width:0.988;stroke-linecap:round;stroke-linejoin:round;stroke-miterlimit:10;} .st27{fill:#FFFFFF;stroke:#333433;stroke-width:0.7704;stroke-linecap:round;stroke-linejoin:round;stroke-miterlimit:10;} .st28{fill:none;stroke:#333433;stroke-width:0.7704;stroke-linecap:round;stroke-linejoin:round;stroke-miterlimit:10;} .st29{fill:#FFFFFF;stroke:#333433;stroke-width:0.9552;stroke-linecap:round;stroke-linejoin:round;stroke-miterlimit:10;} .st30{fill:#FFFFFF;stroke:#333433;stroke-width:0.7448;stroke-linecap:round;stroke-linejoin:round;stroke-miterlimit:10;} .st31{fill:none;stroke:#333433;stroke-width:0.7448;stroke-linecap:round;stroke-linejoin:round;stroke-miterlimit:10;} .st32{fill:none;stroke:#333433;stroke-width:0.25;stroke-miterlimit:10;} .st33{fill:none;stroke:#333433;stroke-linejoin:round;stroke-miterlimit:10;} .st34{fill:none;stroke:#333433;stroke-width:0.5;stroke-miterlimit:10;} .st35{fill:none;stroke:#333433;stroke-width:1.0112;stroke-linecap:round;stroke-linejoin:round;stroke-miterlimit:10;} .st36{fill:none;stroke:#333433;stroke-width:0.9271;stroke-linecap:round;stroke-linejoin:round;stroke-miterlimit:10;} .st37{fill:#FFFFFF;stroke:#333433;stroke-width:0.9554;stroke-linecap:round;stroke-linejoin:round;stroke-miterlimit:10;} .st38{fill:#FFFFFF;stroke:#333433;stroke-width:0.9569;stroke-linecap:round;stroke-linejoin:round;stroke-miterlimit:10;} .st39{fill:none;stroke:#333433;stroke-width:0.25;stroke-linecap:round;stroke-linejoin:round;stroke-miterlimit:10;} .st40{fill:#FFFFFF;stroke:#333433;stroke-width:0.9904;stroke-linecap:round;stroke-linejoin:round;stroke-miterlimit:10;} .st41{fill:#FFFFFF;stroke:#333433;stroke-width:0.7918;stroke-linecap:round;stroke-linejoin:round;stroke-miterlimit:10;} .st42{fill:none;stroke:#333433;stroke-width:0.7918;stroke-linecap:round;stroke-linejoin:round;stroke-miterlimit:10;} .st43{fill:#FFFFFF;stroke:#333433;stroke-width:0.5;stroke-linecap:round;stroke-linejoin:round;stroke-miterlimit:10;} .st44{fill:#ED1C24;} .st45{fill:none;stroke:#FFFFFF;stroke-miterlimit:10;} .st46{fill:none;stroke:#FFFFFF;stroke-width:0.5;stroke-miterlimit:10;} .st47{fill:none;stroke:#FFFFFF;stroke-width:1.15;stroke-linecap:round;stroke-linejoin:round;stroke-miterlimit:10;} .st48{fill:none;stroke:#FFFFFF;stroke-width:1.15;stroke-miterlimit:10;} .st49{fill:none;stroke:#FFFFFF;stroke-width:0.8282;stroke-miterlimit:10;} .st50{fill:none;stroke:#FFFFFF;stroke-linecap:round;stroke-linejoin:round;stroke-miterlimit:10;} .st51{fill:none;stroke:#FFFFFF;stroke-linejoin:round;stroke-miterlimit:10;} .st52{fill:none;stroke:#FFFFFF;stroke-width:0.5;stroke-linejoin:round;stroke-miterlimit:10;} .st53{fill:#C1503E;} .st54{fill:#C1503E;stroke:#333433;stroke-width:0.75;stroke-linecap:round;stroke-linejoin:round;stroke-miterlimit:10;}</style><g id="Background"><path class="st0" d="M313.4-23.3l294.6-57.7-295.2 54.7 271-129.2-272.3 126.5 230.3-192.6-232.3 190.2 175.3-243.8-177.7 242 109.1-279.7-112 278.6 36.1-298.1-39.1 297.7-39.1-297.7 36.1 298.1-112-278.6 109.1 279.7-177.7-242 175.3 243.8-232.4-190.2 230.4 192.6-272.3-126.5 271 129.2-295.2-54.7 294.6 57.7M289.2-20.2h24M308.4-215.7M310.6-217.7M312.2-220.3"/></g><g id="Linework"><path class="st1" d="M534.4-205.4c-.3-2.9-.7-7.4-1.5-11.6-1.5-8.2 1.4-3.8.9-14.2-.4-10.3-3.5-5.2-3.8-10.5-.3-5.3-6.4-5-6.6 0-.2 5 3.6 3.5-.1 8.2-3.7 4.7-3 10.6-2.4 14.3.9 5.7.3 9.8-.7 13.8h14.2z"/><path class="st2" d="M527.1-245.4c.6.2 1 1 1.1 1.8 0 .9-.1 1.9-.2 3-.1.6-.1 1.2.1 1.8.2.6.5 1.2.8 1.8.6 1.2 1.4 2.3 1.7 3.6.4 1.3.2 2.7-.3 4.1-.5 1.4-1.3 2.7-1.7 4.2-.5 1.5-.7 3.1-.5 4.6.1 1.5.5 3 .9 4.3.3 1.4.6 2.7.7 4 .1 1.3-.2 2.4-.7 3.5-.3.9-.6 1.7-.8 2.5h.3c.2-.7.5-1.5.9-2.3.5-1 .8-2.3.8-3.6 0-1.3-.3-2.7-.6-4.1-.3-1.4-.7-2.8-.8-4.2-.1-1.4.1-2.9.5-4.3s1.2-2.7 1.7-4.2c.5-1.4.8-3 .3-4.5-.2-.7-.5-1.4-.9-2-.3-.6-.7-1.2-1-1.7-.6-1.1-1.1-2.2-.9-3.3.2-1.1.2-2.2.1-3.1-.1-.5-.2-.9-.4-1.3s-.6-.6-.9-.7c-.7-.2-1.2.1-1.5.2-.3.1-.5.2-.5.2s.2-.1.5-.2c.1-.1.7-.2 1.3-.1zM523.7-214.4l.3.7c.3 1.2.3 2.8.3 4.5 0 1.2-.1 2.3-.1 3.4.2-.1.4-.1.6-.1.1-1 .2-2.1.3-3.2 0-1.7-.1-3.4-.6-4.6-.1-.3-.3-.6-.5-.8-.2-.2-.4-.3-.6-.4h-.5.2c.1 0 .2 0 .4.1-.1.1.1.2.2.4z"/><path class="st1" d="M515.6-170s-3.5-2.2-4.8-5.8h32.5c-1.3 3.7-4.3 5.3-4.3 5.3"/><path class="st3" d="M492 36.8h46v21.2h-46z"/><path class="st4" d="M480.9 17.4h3.6v36h-43v-36h4.7M449 17.4h29.2"/><path class="st4" d="M446.3 13.2h2.8v6.8h-2.8zM478.2 13.2h2.8v6.8h-2.8z"/><path class="st5" d="M457.9 22.4h11.3v3.4h-11.3zM448.6 28.3h11.3v3.4h-11.3zM466.8 28.3h11.3v3.4h-11.3zM466.8 42.5h11.3v5.1h-11.3zM448.6 34.2h15v5.1h-15zM448.6 42.5h15v5.1h-15z"/><path class="st6" d="M453.2 31.7v2.5M453.2 39.3v3.2"/><path class="st5" d="M453.2 28.3c0-2.3 2.1-4.2 4.8-4.2M474.1 28.3c0-2.3-2.1-4.2-4.8-4.2"/><path class="st6" d="M467.3 34.5h10.8M467.3 36.3h8.5M467.3 39.8h8.5M467.3 38.1h9.8"/><path class="st5" d="M108.6 14.2h42.7v27.6h-42.7z"/><path class="st7" d="M134.7 17c-11.9 0-21.5 9.6-21.5 21.5"/><path class="st8" d="M134.7 30.4h13.5v8.2h-13.5z"/><path class="st7" d="M148.2 30.4c0-7.4-6-13.4-13.4-13.4M140 38.6c4.5 0 8.2-3.7 8.2-8.2M134.7 33.4c0 2.9 2.3 5.2 5.2 5.2M137.7 30.4c-1.6 0-3 1.3-3 3"/><path class="st9" d="M113.2 17h21.5v21.6h-21.5zM134.7 17h13.5v13.4h-13.5zM134.7 33.4h5.3v5.2h-5.3zM134.7 30.4h3v3h-3zM137.7 30.4h2.3v2.3h-2.3z"/><path class="st7" d="M140 32.7c0-1.3-1-2.3-2.3-2.3"/><path class="st1" d="M15.1-56.2c-.4-.8-.7-1.8-.7-2.8 0-3.3 2.7-6 6-6 1.1 0 2.1.3 2.9.8v-.8c0-5.8 4.7-10.5 10.5-10.5s10.5 4.7 10.5 10.5c0 1-.2 2.1-.4 3h.2c3.7 0 6.7 3 6.7 6.7 0 3.1-2.1 5.7-4.9 6.5.7 1.5 1.1 3.2 1.1 4.9 0 1.6-.3 3.1-.9 4.5.9 1.5 1.4 3.3 1.4 5.1 0 5.6-4.6 10.2-10.2 10.2-1.8 0-3.6-.5-5.1-1.4-1.2 2-3.4 3.4-5.9 3.4-3.8 0-7-3.1-7-7 0-1.3.4-2.5 1-3.5h-1c-6.8 0-12.2-5.5-12.2-12.2.1-5.2 3.4-9.6 8-11.4z"/><path class="st10" d="M46.9-41.9s-.9 3.7-3.1 4.4"/><path class="st2" d="M47.4-41.7s-.1.4-.4.8c-.2.5-.6 1.1-1 1.7-.2.3-.5.6-.7.8l-.7.6-.6.3c-.1 0-.2.1-.2.1s.1 0 .2-.1.3-.2.5-.4.4-.4.6-.7c.2-.3.4-.6.5-.9.3-.6.5-1.3.6-1.7.1-.5.2-.8.2-.8l1 .3z"/><path class="st10" d="M23.4-66.4s-.3 2.9 1.6 5.2"/><path class="st2" d="M23.9-66.4s-.1.3-.1.8v.9c0 .3 0 .6.1 1 .1.3.1.7.3 1 .1.3.2.6.3.8.3.4.4.7.4.7s-.2-.3-.6-.7c-.2-.2-.3-.5-.5-.8l-.5-.9-.3-1c.1-.4 0-.7 0-.9-.1-.5-.1-1-.1-.9h1z"/><path class="st10" d="M16.8-32.7s4.8.9 5.4-1.5"/><path class="st2" d="M16.9-33.2s.3.1.9.2c.5.1 1.3.2 2 .1.4 0 .7-.1 1.1-.2.2 0 .3-.1.5-.2s.3-.2.4-.2l.3-.3c.1-.1.1-.2.2-.2.1-.1.1-.2.1-.2s0 .1-.1.3c0 .1 0 .2-.1.3l-.2.3c-.1.1-.2.2-.4.3-.1.1-.3.2-.5.3-.3.2-.7.3-1.1.4-1.6.3-3.1.2-3.1.2v-1.1zM127.1-171.6s-1.4 0-4 .1c-2.5.1-6.1.2-10.4.3-4.3.1-9.4.2-14.7.2-5.4 0-11.1.1-16.9.1-5.8 0-11.5-.1-16.9-.1-5.4 0-10.4-.1-14.7-.2-4.3-.1-7.9-.2-10.4-.3-2.5-.1-4-.1-4-.1v-.1l92 .1zM127.1-153.7s-1.4 0-4 .1c-2.5.1-6.1.2-10.4.3-4.3.1-9.4.2-14.7.2-5.4 0-11.1.1-16.9.1-5.8 0-11.5-.1-16.9-.1-5.4 0-10.4-.1-14.7-.2-4.3-.1-7.9-.2-10.4-.3-2.5-.1-4-.1-4-.1v-.1l92 .1z"/><path class="st11" d="M120.5-187.8h6.6v10.2h-6.6z"/><path class="st1" d="M120.5-177.5l-1.7 4.5h9.8l-1.5-4.5z"/><path class="st11" d="M33.8-173h95.3v137.7h-95.3zM129.1-41.3h-95.3M129.1-38.9h-95.3"/><path class="st10" d="M129.1-40h-95.3"/><path class="st2" d="M129.1-40s-6 .1-14.9.1-20.8.1-32.8.1c-11.9 0-23.8-.1-32.8-.1-8.8 0-14.8-.1-14.8-.1s6-.1 14.9-.1 20.8-.1 32.8-.1c11.9 0 23.8.1 32.8.1 8.8 0 14.8.1 14.8.1z"/><path class="st11" d="M80.2-155h-46.4c-.4-4.7-1-4.2-1-4.2-2.2-.3-1.8-3.2-1.8-3.2h101s.4 2.8-1.8 3.2c0 0-.7-.5-1 4.2h-49z"/><path class="st1" d="M32.1-159.2h98.7"/><path class="st11" d="M57.7-144.2v16.8h-14.5v-16.8s6.8-1.6 14.5 0z"/><path class="st12" d="M42.5-127.5h15.9v3.2h-15.9z"/><path class="st6" d="M43.2-138.9h14.5M47.7-144.8v16.8M53.3-144.8v16.8"/><path class="st11" d="M88.7-144.2v16.8h-14.5v-16.8s6.7-1.6 14.5 0z"/><path class="st12" d="M73.5-127.5h15.9v3.2h-15.9z"/><path class="st6" d="M74.2-138.9h14.5M78.7-144.8v16.8M84.3-144.8v16.8"/><path class="st11" d="M119.7-144.2v16.8h-14.5v-16.8s6.7-1.6 14.5 0z"/><path class="st12" d="M104.5-127.5h15.9v3.2h-15.9z"/><path class="st6" d="M105.2-138.9h14.5M109.6-144.8v16.8M115.2-144.8v16.8"/><path class="st11" d="M57.7-116.8v26.2h-14.5v-26.2s6.8-1.5 14.5 0z"/><path class="st12" d="M42.5-90.5h15.9v3.2h-15.9z"/><path class="st6" d="M43.2-111.4h14.5M43.2-104.6h14.5M43.2-97.6h14.5M47.7-117.3v26.3M53.3-117.3v26.3"/><path class="st11" d="M88.7-116.8v26.2h-14.5v-26.2s6.7-1.5 14.5 0z"/><path class="st12" d="M73.5-90.5h15.9v3.2h-15.9z"/><path class="st6" d="M74.2-111.4h14.5M74.2-104.6h14.5M74.2-97.6h14.5M78.7-117.3v26.3M84.3-117.3v26.3"/><path class="st11" d="M119.7-116.8v26.2h-14.5v-26.2s6.7-1.5 14.5 0z"/><path class="st12" d="M104.5-90.5h15.9v3.2h-15.9z"/><path class="st6" d="M105.2-111.4h14.5M105.2-104.6h14.5M105.2-97.6h14.5M109.6-117.3v26.3M115.2-117.3v26.3"/><path class="st11" d="M57.7-75.4v26.2h-14.5v-26.2s6.8-1.6 14.5 0z"/><path class="st12" d="M42.5-49.2h15.9v3.2h-15.9z"/><path class="st6" d="M43.2-70h14.5M43.2-63.3h14.5M43.2-56.3h14.5M47.7-75.9v26.2M53.3-75.9v26.2"/><path class="st11" d="M88.7-75.4v26.2h-14.5v-26.2s6.7-1.6 14.5 0z"/><path class="st12" d="M73.5-49.2h15.9v3.2h-15.9z"/><path class="st6" d="M74.2-70h14.5M74.2-63.3h14.5M74.2-56.3h14.5M78.7-75.9v26.2M84.3-75.9v26.2"/><path class="st11" d="M119.7-75.4v26.2h-14.5v-26.2s6.7-1.6 14.5 0z"/><path class="st12" d="M104.5-49.2h15.9v3.2h-15.9z"/><path class="st6" d="M105.2-70h14.5M105.2-63.3h14.5M105.2-56.3h14.5M109.6-75.9v26.2M115.2-75.9v26.2"/><path class="st13" d="M60.8-74.2c0-5.2-4.7-9.4-10.4-9.4s-10.4 4.2-10.4 9.4v32.4h20.9v-32.4h-.1zM91.9-74.2c0-5.2-4.7-9.4-10.4-9.4-5.8 0-10.4 4.2-10.4 9.4v32.4h20.9v-32.4h-.1zM122.8-74.2c0-5.2-4.7-9.4-10.4-9.4s-10.4 4.2-10.4 9.4v32.4h20.9v-32.4h-.1z"/><path class="st14" d="M33.4-74.8h6.8v3.2h-6.8zM122.8-74.8h6.8v3.2h-6.8zM91.9-74.8h10.1v3.2h-10.1zM60.9-74.8h10.1v3.2h-10.1z"/><path class="st10" d="M42.5-44.5h15.9"/><path class="st2" d="M42.5-44.5s1-.1 2.5-.1c.7 0 1.6-.1 2.5-.1h5.8c.9 0 1.8.1 2.5.1 1.5.1 2.5.1 2.5.1s-1 .1-2.5.1c-.7 0-1.6.1-2.5.1h-5.8c-.9 0-1.8-.1-2.5-.1-1.5 0-2.5-.1-2.5-.1z"/><path class="st10" d="M73.5-44.5h15.9"/><path class="st2" d="M73.5-44.5s1-.1 2.5-.1c.7 0 1.6-.1 2.5-.1h5.8c.9 0 1.8.1 2.5.1 1.5.1 2.5.1 2.5.1s-1 .1-2.5.1c-.7 0-1.6.1-2.5.1h-5.8c-.9 0-1.8-.1-2.5-.1-1.5 0-2.5-.1-2.5-.1z"/><path class="st10" d="M104.4-44.5h15.9"/><path class="st2" d="M104.4-44.5s1-.1 2.5-.1c.7 0 1.6-.1 2.5-.1h5.8c.9 0 1.8.1 2.5.1 1.5.1 2.5.1 2.5.1s-1 .1-2.5.1c-.7 0-1.6.1-2.5.1h-5.8c-.9 0-1.8-.1-2.5-.1-1.5 0-2.5-.1-2.5-.1z"/><path class="st15" d="M43.2-122.9h14.5"/><path class="st2" d="M43.2-122.9s.9-.1 2.3-.1c1.4-.1 3.2-.1 5-.1 1.8 0 3.6 0 5 .1s2.3.1 2.3.1-.9.1-2.3.1c-1.4.1-3.2.1-5 .1-1.8 0-3.6-.1-5-.1s-2.3-.1-2.3-.1z"/><path class="st15" d="M74.2-122.9h14.5"/><path class="st2" d="M74.2-122.9s.9-.1 2.3-.1c1.4-.1 3.2-.1 5-.1 1.8 0 3.6 0 5 .1s2.3.1 2.3.1-.9.1-2.3.1c-1.4.1-3.2.1-5 .1-1.8 0-3.6-.1-5-.1s-2.3-.1-2.3-.1z"/><path class="st15" d="M105.1-122.9h14.5"/><path class="st2" d="M105.1-122.9s.9-.1 2.3-.1c1.4-.1 3.2-.1 5-.1 1.8 0 3.6 0 5 .1s2.3.1 2.3.1-.9.1-2.3.1c-1.4.1-3.2.1-5 .1-1.8 0-3.6-.1-5-.1s-2.3-.1-2.3-.1z"/><path class="st15" d="M43.2-85.9h14.5"/><path class="st2" d="M43.2-85.9s.9-.1 2.3-.1c1.4-.1 3.2-.1 5-.1 1.8 0 3.6 0 5 .1s2.3.1 2.3.1-.9.1-2.3.1c-1.4.1-3.2.1-5 .1-1.8 0-3.6-.1-5-.1s-2.3-.1-2.3-.1z"/><path class="st15" d="M74.2-85.9h14.5"/><path class="st2" d="M74.2-85.9s.9-.1 2.3-.1c1.4-.1 3.2-.1 5-.1 1.8 0 3.6 0 5 .1s2.3.1 2.3.1-.9.1-2.3.1c-1.4.1-3.2.1-5 .1-1.8 0-3.6-.1-5-.1s-2.3-.1-2.3-.1z"/><path class="st15" d="M105.1-86.4h14.5"/><path class="st2" d="M105.1-86.4s.9-.1 2.3-.1c1.4-.1 3.2-.1 5-.1 1.8 0 3.6 0 5 .1s2.3.1 2.3.1-.9.1-2.3.1c-1.4.1-3.2.1-5 .1-1.8 0-3.6-.1-5-.1s-2.3-.1-2.3-.1z"/><path class="st10" d="M185.3-69.2v21.099999999999998s6.3-8.9 16.3-9c10.1 0 18.3 7 19.8 14.5l.3.7v6.1h10.4v-8.8s2.8-14.1 20-14.8c0 0 15.5.9 19 15v8.6h9.6v-11.6s-.6 2.3 1.1-1.6 7.9-11.9 18.7-12c10.8-.1 18.8 9.9 19.2 15.8v9.4h9.7v-9.5s4.3-13.6 19.9-14.1c0 0 14.8 0 18.8 14.6v9.6h10.7v-7.4s4.7-14.4 20.4-14.3c0 0 15.9 1.2 18.6 15.6v7.6h.8v-36.4l-112.3-2.4-121 3.3z"/><path class="st11" d="M415.7-67.1l-114.4-3.9c-.8-.1-1.5-.1-2.3 0l-113.8 3.9v-5l113.8-3.9c.8-.1 1.5-.1 2.3 0l114.3 3.9v5z"/><path class="st16" d="M415.7-70.8l-114.3-3.9c-.8-.1-1.5-.1-2.3 0l-113.8 3.9"/><path class="st6" d="M309.4-70.2h-17.7v-6.2l7.8-2.8c.7-.1 1.3-.1 2 0l7.8 2.8v6.2z"/><circle class="st11" cx="300.4" cy="-81.5" r="1.8"/><path class="st4" d="M273.4-46.9c.8-1.9 1-3.7 1-5.7v-17.6h3.4v17.6c0 2.3.6 4.9 1.2 5.7"/><circle class="st11" cx="276.4" cy="-79.9" r="1.3"/><path class="st6" d="M279.9-76.1v6.2l-7.4.1v-6.3l3.9-2.5z"/><path class="st11" d="M273.4-76.1h5.6"/><path class="st4" d="M273.4-46.9h5.7v3h-5.7zM273.8-43.9h4.7v8h-4.7z"/><path class="st2" d="M273.3-69.6l-.3 20.5-.2-20.5c0-.1.1-.3.2-.3.2 0 .3.1.3.3zM279.4-69.6l-.2 20.5-.2-20.5c0-.1.1-.3.2-.3s.2.1.2.3z"/><path class="st4" d="M224.2-44.9c.8-1.9 1-3.7 1-5.7v-17.6h3.4v17.6c0 2.3.6 4.9 1.2 5.7"/><circle class="st11" cx="227.2" cy="-77.9" r="1.3"/><path class="st6" d="M230.8-74.1v6.2l-7.4.1v-6.3l3.8-2.5z"/><path class="st11" d="M224.2-74.1h5.7"/><path class="st4" d="M224.2-44.9h5.7v3h-5.7zM224.7-41.9h4.7v8h-4.7z"/><path class="st2" d="M224.1-67.6l-.2 20.5-.2-20.5c0-.1.1-.3.2-.3s.2.1.2.3zM230.2-67.6l-.2 20.5-.2-20.5c0-.1.1-.3.2-.3s.2.1.2.3z"/><path class="st4" d="M376.9-44.9c-.8-1.9-1-3.7-1-5.7v-17.6h-3.4v17.6c0 2.3-.6 4.9-1.2 5.7"/><circle class="st11" cx="373.9" cy="-77.9" r="1.3"/><path class="st6" d="M370.4-74.1v6.2l7.4.1v-6.3l-3.9-2.5z"/><path class="st11" d="M376.9-74.1h-5.6"/><path class="st4" d="M371.3-44.9h5.7v3h-5.7zM371.7-41.9h4.7v8h-4.7z"/><path class="st2" d="M377.5-67.6l-.2 20.5-.3-20.5c0-.1.1-.3.2-.3.2 0 .3.1.3.3zM371.4-67.6l-.2 20.5-.2-20.5c0-.1.1-.3.2-.3s.2.1.2.3z"/><path class="st4" d="M327.4-46.9c-.8-1.9-1-3.7-1-5.7v-17.6h-3.4v17.6c0 2.3-.6 4.9-1.2 5.7"/><circle class="st11" cx="324.4" cy="-79.9" r="1.3"/><path class="st6" d="M320.8-76.1v6.2l7.4.1v-6.3l-3.8-2.5z"/><path class="st11" d="M327.4-76.1h-5.7"/><path class="st4" d="M321.7-46.9h5.7v3h-5.7zM322.2-43.9h4.7v8h-4.7z"/><path class="st2" d="M328-69.6l-.2 20.5-.2-20.5c0-.1.1-.3.2-.3 0 0 .2.1.2.3zM321.8-69.6l-.2 20.5-.2-20.5c0-.1.1-.3.2-.3s.2.1.2.3z"/><path class="st4" d="M297.5-70.1h5.5v5.8h-5.5z"/><path class="st2" d="M293.2-74.8c2.3-1.3 4.7-2.4 7.1-3.3h.4c2.4 1 4.7 2 6.9 3.3-2.5-.6-4.9-1.5-7.3-2.4h.4c-2.4.9-4.9 1.8-7.5 2.4z"/><path class="st4" d="M302.5-73.1c0-1.2-1-2.2-2.2-2.2-1.2 0-2.2 1-2.2 2.2v.9h4.4v-.9zM368.5-45.2c0-9.7-9.8-17.5-19.5-17.5s-19.5 7.8-19.5 17.5v7.3h38.8l.2-7.3z"/><path class="st2" d="M368.5-42.1s0-.2-.1-.6c-.1-.4-.1-1-.3-1.8-.1-.4-.1-.8-.3-1.3-.2-.4-.3-.9-.5-1.4-.2-.5-.5-1-.7-1.6-.3-.5-.6-1.1-1-1.6-.8-1.1-1.7-2.2-2.8-3.2-1.1-1.1-2.4-2-3.9-2.8-1.4-.8-3-1.5-4.7-2-1.7-.5-3.5-.7-5.2-.7-1.8 0-3.5.3-5.2.7-1.7.5-3.3 1.1-4.7 2-1.4.8-2.8 1.8-3.9 2.8-1.2 1-2.1 2.1-2.8 3.2-.4.6-.7 1.1-1 1.6-.3.6-.5 1.1-.7 1.6-.2.5-.3 1-.5 1.4-.2.4-.2.9-.3 1.3-.2.8-.2 1.4-.3 1.8 0 .4-.1.6-.1.6v-.6c0-.4 0-1.1.1-1.8.1-.4.1-.8.2-1.3l.4-1.5c.2-.5.4-1.1.7-1.6.3-.5.6-1.1 1-1.7.8-1.1 1.7-2.3 2.8-3.4 1.1-1.1 2.5-2.1 3.9-3 1.5-.9 3.1-1.6 4.8-2.1 1.7-.5 3.6-.8 5.4-.8 1.9 0 3.7.3 5.4.8 1.7.5 3.4 1.2 4.8 2.1 1.5.9 2.8 1.9 3.9 3 1.2 1.1 2 2.3 2.8 3.4.4.6.7 1.2 1 1.7.2.6.5 1.1.7 1.6.2.5.3 1 .4 1.5.1.5.2.9.2 1.3.2.8.1 1.4.1 1.8.4.4.4.6.4.6zM346.3-65.2s-.3 0-.9.1c-.3 0-.6.1-1.1.1-.4 0-.8.2-1.3.3-.5.1-1 .2-1.6.4-.5.2-1.1.4-1.7.6-.6.2-1.2.5-1.8.8-.6.3-1.2.6-1.7 1l-1.6 1.1-.8.6-.7.6c-.5.4-.9.9-1.3 1.3-.4.5-.7.9-1 1.3-1.2 1.6-1.7 2.9-1.7 2.9s.4-1.3 1.6-3c.3-.4.6-.9 1-1.3s.8-.9 1.2-1.4l.7-.7c.2-.2.5-.4.8-.7.5-.5 1.1-.8 1.6-1.2.6-.4 1.2-.7 1.7-1.1l1.8-.9c.6-.2 1.2-.4 1.7-.7.6-.2 1.1-.3 1.6-.5.5-.1 1-.3 1.4-.3.4-.1.8-.1 1-.2.6-.1.9-.2.9-.2.3 0 .5.1.6.4.1.4-.1.7-.4.7zM332.2-54.4l-1.7-1.7 2.3.8c.3.1.4.4.3.7-.1.3-.4.4-.7.3l-.2-.1zM337.1-59l-1.3-2.8 2.1 2.2c.2.2.2.5 0 .7-.2.2-.5.2-.7 0-.1 0-.1-.1-.1-.1zM342.5-61.8l-.3-2.8 1.2 2.6c.1.3 0 .6-.2.7s-.6 0-.7-.2c.1-.2 0-.2 0-.3zM352.2-66.3s.3.1.9.2c.3.1.6.1 1.1.2.4.1.9.2 1.4.3l1.6.5c.6.2 1.1.4 1.7.7l1.8.9c.6.4 1.2.7 1.7 1.1l1.6 1.2c.5.4 1 .9 1.4 1.4.5.4.8.9 1.2 1.4.3.5.7.9 1 1.3 1.1 1.7 1.6 3 1.6 3s-.5-1.3-1.7-2.9c-.3-.4-.7-.8-1-1.3-.4-.4-.8-.9-1.3-1.3-.4-.4-1-.9-1.5-1.3s-1.1-.8-1.6-1.1c-.6-.4-1.2-.7-1.7-1l-1.8-.8c-.6-.2-1.2-.4-1.7-.6-.5-.2-1.1-.3-1.6-.4-.5-.1-.9-.2-1.3-.3-.4-.1-.8-.1-1.1-.2-.6-.1-.9-.1-.9-.1-.3 0-.5-.3-.4-.6 0-.2.3-.3.6-.3zM365.3-55.1l2.6-1-2.1 1.9c-.2.2-.5.2-.7 0-.2-.2-.2-.5 0-.7.1-.1.2-.1.2-.2zM360.5-59.6l2.1-2.2-1.3 2.8c-.1.3-.4.4-.7.2-.3-.1-.4-.4-.2-.7.1 0 .1-.1.1-.1zM354.9-62.1l1.2-2.6-.3 2.8c0 .3-.3.5-.6.5s-.5-.3-.5-.6c.2.1.2 0 .2-.1zM330.2-46.5s.1-.8.6-2.2c.5-1.3 1.2-3.3 2.7-5.3 1.4-2 3.6-4 6.4-5.4 2.8-1.4 6.1-2 9.4-2 1.6 0 3.3.2 4.9.6 1.6.4 3.1 1 4.4 1.8 2.7 1.5 4.8 3.6 6.2 5.6 1.5 2 2.3 3.9 2.7 5.2.5 1.4.5 2.2.5 2.2s-.1-.8-.6-2.1-1.4-3.2-2.9-5.1c-1.5-1.9-3.5-3.9-6.2-5.4-1.3-.7-2.8-1.3-4.3-1.7-1.5-.4-3.1-.6-4.8-.6-3.2 0-6.5.6-9.2 1.9-2.7 1.3-4.9 3.2-6.3 5.2-1.5 1.9-2.3 3.8-2.8 5.1-.6 1.4-.7 2.2-.7 2.2zM351.9-67.6s0 .2.1.4c0 .1.1.3.1.5v.6c0 .3-.1.6-.3.9l-.3.4c-.1.1-.2.2-.4.3-.3.2-.6.4-.9.5l-.5.1-.5.1c-.4 0-.6 0-1-.1s-.7-.2-1-.4c-.3-.2-.5-.4-.7-.7-.2-.3-.3-.5-.4-.8-.1-.3 0-.5 0-.7 0-.2.1-.4.1-.5.1-.3.1-.4.1-.4s0 .2.1.4c0 .1.1.3.1.5.1.2.1.4.2.5.1.2.2.3.4.5l.6.4c.2.1.5.2.7.2.2.1.6.1.8.1h.4l.4-.1c.2-.1.5-.1.7-.3l.3-.2.3-.2c.2-.2.2-.3.3-.5l.1-.3s0-.2.1-.3c0-.2.1-.4.1-.5v-.4z"/><path class="st4" d="M349.1-64.3v1.3"/><path class="st4" d="M417.8-42.8c0-9.7-9.8-17.5-19.5-17.5s-19.5 7.8-19.5 17.5v7.3h38.8l.2-7.3z"/><path class="st2" d="M417.8-39.6s0-.2-.1-.6c-.1-.4-.1-1-.3-1.8-.1-.4-.1-.8-.3-1.3-.2-.4-.3-.9-.5-1.4-.2-.5-.5-1-.7-1.6-.3-.5-.6-1.1-1-1.6-.8-1.1-1.7-2.2-2.8-3.2-1.1-1.1-2.4-2-3.9-2.8-1.4-.8-3-1.5-4.7-2-1.7-.5-3.5-.7-5.2-.7-1.8 0-3.5.3-5.2.7-1.7.5-3.3 1.1-4.7 2-1.4.8-2.8 1.8-3.9 2.8-1.2 1-2.1 2.1-2.8 3.2-.4.6-.7 1.1-1 1.6-.3.6-.5 1.1-.7 1.6-.2.5-.3 1-.5 1.4-.2.4-.2.9-.3 1.3-.2.8-.2 1.4-.3 1.8 0 .4-.1.6-.1.6v-.6c0-.4 0-1.1.1-1.8.1-.4.1-.8.2-1.3l.4-1.5c.2-.5.4-1.1.7-1.6.3-.5.6-1.1 1-1.7.8-1.1 1.7-2.3 2.8-3.4 1.1-1.1 2.5-2.1 3.9-3 1.5-.9 3.1-1.6 4.8-2.1 1.7-.5 3.6-.8 5.4-.8 1.9 0 3.7.3 5.4.8 1.7.5 3.4 1.2 4.8 2.1 1.5.9 2.8 1.9 3.9 3 1.2 1.1 2 2.3 2.8 3.4.4.6.7 1.2 1 1.7.2.6.5 1.1.7 1.6.2.5.3 1 .4 1.5.1.5.2.9.2 1.3.2.8.1 1.4.1 1.8.4.4.4.6.4.6zM395.7-62.7s-.3 0-.9.1c-.3 0-.6.1-1.1.1-.4 0-.8.2-1.3.3-.5.1-1 .2-1.6.4-.5.2-1.1.4-1.7.6-.6.2-1.2.5-1.8.8-.6.3-1.2.6-1.7 1l-1.6 1.1-.8.6-.7.6c-.5.4-.9.9-1.3 1.3-.4.5-.7.9-1 1.3-1.2 1.6-1.7 2.9-1.7 2.9s.4-1.3 1.6-3c.3-.4.6-.9 1-1.3s.8-.9 1.2-1.4l.7-.7c.2-.2.5-.4.8-.7.5-.5 1.1-.8 1.6-1.2.6-.4 1.2-.7 1.7-1.1l1.8-.9c.6-.2 1.2-.4 1.7-.7.6-.2 1.1-.3 1.6-.5.5-.1 1-.3 1.4-.3.4-.1.8-.1 1-.2.6-.1.9-.2.9-.2.3 0 .5.1.6.4.1.3-.1.6-.4.7zM381.6-52l-1.7-1.7 2.3.8c.3.1.4.4.3.7-.1.3-.4.4-.7.3-.1 0-.2 0-.2-.1zM386.4-56.6l-1.3-2.8 2.1 2.2c.2.2.2.5 0 .7-.2.2-.5.2-.7 0l-.1-.1zM391.9-59.3l-.3-2.8 1.2 2.6c.1.3 0 .6-.2.7-.3.1-.6 0-.7-.2v-.3zM401.5-63.9s.3.1.9.2c.3.1.6.1 1.1.2.4.1.9.2 1.4.3l1.6.5c.6.2 1.1.4 1.7.7l1.8.9c.6.4 1.2.7 1.7 1.1l1.6 1.2c.5.4 1 .9 1.4 1.4.5.4.8.9 1.2 1.4.3.5.7.9 1 1.3 1.1 1.7 1.6 3 1.6 3s-.5-1.3-1.7-2.9c-.3-.4-.7-.8-1-1.3-.4-.4-.8-.9-1.3-1.3-.4-.4-1-.9-1.5-1.3s-1.1-.8-1.6-1.1c-.6-.4-1.2-.7-1.7-1l-1.8-.8c-.6-.2-1.2-.4-1.7-.6-.5-.2-1.1-.3-1.6-.4-.5-.1-.9-.2-1.3-.3-.4-.1-.8-.1-1.1-.2-.6-.1-.9-.1-.9-.1-.3 0-.5-.3-.4-.6.1-.1.3-.3.6-.3zM414.7-52.6l2.6-1-2.1 1.9c-.2.2-.5.2-.7 0s-.2-.5 0-.7c.1-.2.2-.2.2-.2zM409.9-57.2l2.1-2.2-1.3 2.8c-.1.3-.4.4-.7.2-.3-.1-.4-.4-.2-.7 0 0 .1 0 .1-.1zM404.3-59.6l1.2-2.6-.3 2.8c0 .3-.3.5-.6.5s-.5-.3-.5-.6c.1 0 .2-.1.2-.1zM379.5-44s.1-.8.6-2.2c.5-1.3 1.2-3.3 2.7-5.3 1.4-2 3.6-4 6.4-5.4 2.8-1.4 6.1-2 9.4-2 1.6 0 3.3.2 4.9.6 1.6.4 3.1 1 4.4 1.8 2.7 1.5 4.8 3.6 6.2 5.6 1.5 2 2.3 3.9 2.7 5.2.5 1.4.5 2.2.5 2.2s-.1-.8-.6-2.1-1.4-3.2-2.9-5.1c-1.5-1.9-3.5-3.9-6.2-5.4-1.3-.7-2.8-1.3-4.3-1.7-1.5-.4-3.1-.6-4.8-.6-3.2 0-6.5.6-9.2 1.9-2.7 1.3-4.9 3.2-6.3 5.2-1.5 1.9-2.3 3.8-2.8 5.1-.5 1.4-.7 2.2-.7 2.2zM401.3-65.2s0 .2.1.4c0 .1.1.3.1.5v.6c0 .3-.1.6-.3.9l-.3.4c-.1.1-.2.2-.4.3-.3.2-.6.4-.9.5l-.5.1-.5.1c-.4 0-.6 0-1-.1s-.7-.2-1-.4c-.3-.2-.5-.4-.7-.7-.2-.3-.3-.5-.4-.8-.1-.3 0-.5 0-.7 0-.2.1-.4.1-.5.1-.3.1-.4.1-.4s0 .2.1.4c0 .1.1.3.1.5.1.2.1.4.2.5.1.2.2.3.4.5l.6.4c.2.1.5.2.7.2.2.1.6.1.8.1h.4l.4-.1c.2-.1.5-.1.7-.3l.3-.2.3-.2c.2-.2.2-.3.3-.5l.1-.3s0-.2.1-.3c0-.2.1-.4.1-.5-.1-.2 0-.4 0-.4z"/><path class="st4" d="M398.4-61.8v1.2"/><path class="st4" d="M232.1-45.2c0-9.7 9.8-17.5 19.5-17.5s19.5 7.8 19.5 17.5v7.3h-38.8l-.2-7.3z"/><path class="st2" d="M232.1-42.1v-.6c0-.4 0-1 .1-1.8.1-.4.1-.8.2-1.3l.4-1.5c.2-.5.4-1.1.7-1.6.3-.5.6-1.1 1-1.7.8-1.1 1.7-2.3 2.8-3.4 1.1-1.1 2.5-2.1 3.9-3 1.5-.9 3.1-1.6 4.8-2.1 1.7-.5 3.5-.8 5.4-.8 1.8 0 3.7.3 5.4.8 1.7.5 3.4 1.2 4.8 2.1 1.5.9 2.8 1.9 3.9 3 1.2 1.1 2 2.3 2.8 3.4.4.6.7 1.2 1 1.7.2.6.5 1.1.7 1.6.2.5.3 1 .4 1.5.1.5.2.9.2 1.3.2.8.1 1.4.1 1.8v.6s0-.2-.1-.6c-.1-.4-.1-1-.3-1.8-.1-.4-.1-.8-.3-1.3-.2-.4-.3-.9-.5-1.4-.2-.5-.5-1-.7-1.6-.3-.5-.6-1.1-1-1.6-.8-1.1-1.7-2.2-2.8-3.2-1.1-1.1-2.4-2-3.9-2.8-1.4-.8-3-1.5-4.7-2-1.7-.5-3.4-.7-5.2-.7-1.7 0-3.5.3-5.2.7-1.7.5-3.3 1.1-4.7 2-1.4.8-2.8 1.8-3.9 2.8-1.2 1-2.1 2.1-2.8 3.2-.4.6-.7 1.1-1 1.6-.3.6-.5 1.1-.7 1.6-.2.5-.3 1-.5 1.4-.2.4-.2.9-.3 1.3-.2.8-.2 1.4-.3 1.8.4.4.3.6.3.6zM254.4-66.2s.3.1.9.2c.3.1.6.1 1 .2s.9.2 1.4.3c.5.1 1.1.3 1.6.5.6.2 1.1.4 1.7.7l1.8.9c.6.4 1.2.7 1.7 1.1l1.6 1.2c.3.2.5.4.8.7l.7.7c.5.4.8.9 1.2 1.4.3.5.7.9 1 1.3 1.1 1.7 1.6 3 1.6 3s-.5-1.3-1.7-2.9c-.3-.4-.6-.8-1-1.3-.4-.4-.8-.9-1.3-1.3l-.7-.6-.8-.6c-.5-.4-1.1-.8-1.6-1.1-.6-.4-1.2-.6-1.7-1l-1.8-.8c-.6-.2-1.2-.4-1.7-.6-.5-.2-1.1-.3-1.6-.4-.5-.1-.9-.2-1.3-.3-.4-.1-.8-.1-1.1-.1-.6-.1-.9-.1-.9-.1-.3 0-.5-.3-.4-.6.1-.3.3-.5.6-.5zM267.9-55.3l2.3-.8-1.7 1.7c-.2.2-.5.2-.7 0s-.2-.5 0-.7c-.1-.1 0-.1.1-.2zM262.7-59.6l2.1-2.2-1.3 2.8c-.1.3-.4.4-.7.2-.3-.1-.4-.4-.2-.7.1 0 .1-.1.1-.1zM257.1-62.1l1.2-2.6-.3 2.8c0 .3-.3.5-.6.5s-.5-.3-.5-.6c.2.1.2 0 .2-.1zM248.6-65.3s-.3 0-.9.1c-.3 0-.7.1-1.1.2-.4 0-.9.2-1.3.3-.5.1-1 .2-1.6.4-.5.2-1.1.4-1.7.6l-1.8.8c-.6.3-1.2.6-1.7 1l-1.6 1.1c-.5.4-1 .8-1.5 1.3-.5.4-.9.9-1.3 1.3s-.7.9-1 1.3c-1.2 1.6-1.7 2.9-1.7 2.9s.4-1.3 1.6-3c.3-.4.6-.9 1-1.3s.8-.9 1.2-1.4c.4-.5.9-.9 1.4-1.4.5-.5 1.1-.8 1.6-1.2.6-.4 1.2-.7 1.7-1.1l1.8-.9c.6-.2 1.2-.5 1.7-.7.6-.2 1.1-.3 1.6-.5.5-.1 1-.3 1.4-.3.4-.1.8-.1 1.1-.2.6-.1.9-.2.9-.2.3-.1.5.1.6.4.1.2-.1.4-.4.5zM234.7-54.2l-2.1-1.9 2.6 1c.3.1.4.4.3.7-.1.3-.4.4-.7.3 0 0 0-.1-.1-.1zM239.3-59l-1.3-2.8 2.1 2.2c.2.2.2.5 0 .7-.2.2-.5.2-.7 0-.1 0-.1-.1-.1-.1zM244.7-61.8l-.3-2.8 1.2 2.6c.1.3 0 .6-.2.7-.3.1-.6 0-.7-.2.1-.2 0-.2 0-.3zM270.4-46.5s-.2-.8-.7-2.1c-.5-1.3-1.4-3.2-2.8-5.1-1.5-1.9-3.6-3.9-6.3-5.2-2.7-1.3-6-1.9-9.2-1.9-1.6 0-3.2.2-4.8.6-1.5.4-3 .9-4.3 1.7-2.6 1.5-4.7 3.5-6.2 5.4-1.5 1.9-2.4 3.8-2.9 5.1-.5 1.3-.6 2.1-.6 2.1s.1-.8.5-2.2c.5-1.3 1.3-3.2 2.7-5.2 1.4-2 3.5-4.1 6.2-5.6 1.3-.8 2.8-1.3 4.4-1.8 1.6-.4 3.2-.6 4.9-.6 3.3 0 6.6.6 9.4 2 2.8 1.4 4.9 3.4 6.4 5.4 1.5 2 2.2 3.9 2.7 5.3.5 1.3.6 2.1.6 2.1zM248.7-67.6s0 .2.1.4c0 .1.1.3.1.5 0 .1 0 .2.1.3l.1.3.3.5c.1.1.2.2.3.2l.3.2.7.3.4.1h.4c.2 0 .6 0 .8-.1.2 0 .5-.1.7-.2.2-.1.4-.2.6-.4l.4-.5c.1-.2.1-.4.2-.5 0-.2.1-.4.1-.5.1-.3.1-.4.1-.4s0 .2.1.4c0 .1.1.3.1.5s.1.5 0 .7c-.1.3-.2.5-.4.8-.2.2-.4.5-.7.7-.3.2-.6.3-1 .4-.4.1-.6.1-1 .1l-.5-.1-.5-.1c-.3-.1-.7-.3-.9-.5l-.4-.3c-.1-.1-.2-.2-.3-.4-.2-.2-.3-.6-.3-.9v-.6c0-.2.1-.4.1-.5v-.4z"/><path class="st4" d="M251.5-64.3v1.3"/><path class="st4" d="M280.8-46.8c0-9.7 9.8-17.5 19.5-17.5s19.5 7.8 19.5 17.5v7.3h-38.8l-.2-7.3z"/><path class="st2" d="M280.8-43.6v-.6c0-.4 0-1 .1-1.8.1-.4.1-.8.2-1.3l.4-1.5c.2-.5.4-1.1.7-1.6.3-.5.6-1.1 1-1.7.8-1.1 1.7-2.3 2.8-3.4 1.1-1.1 2.5-2.1 3.9-3 1.5-.9 3.1-1.6 4.8-2.1 1.7-.5 3.5-.8 5.4-.8 1.8 0 3.7.3 5.4.8 1.7.5 3.4 1.2 4.8 2.1 1.5.9 2.8 1.9 3.9 3 1.2 1.1 2 2.3 2.8 3.4.4.6.7 1.2 1 1.7.2.6.5 1.1.7 1.6.2.5.3 1 .4 1.5.1.5.2.9.2 1.3.2.8.1 1.4.1 1.8v.6s0-.2-.1-.6c-.1-.4-.1-1-.3-1.8-.1-.4-.1-.8-.3-1.3-.2-.4-.3-.9-.5-1.4-.2-.5-.5-1-.7-1.6-.3-.5-.6-1.1-1-1.6-.8-1.1-1.7-2.2-2.8-3.2-1.1-1.1-2.4-2-3.9-2.8-1.4-.8-3-1.5-4.7-2-1.7-.5-3.4-.7-5.2-.7-1.7 0-3.5.3-5.2.7-1.7.5-3.3 1.1-4.7 2-1.4.8-2.8 1.8-3.9 2.8-1.2 1-2.1 2.1-2.8 3.2-.4.6-.7 1.1-1 1.6-.3.6-.5 1.1-.7 1.6-.2.5-.3 1-.5 1.4-.2.4-.2.9-.3 1.3-.2.8-.2 1.4-.3 1.8.3.3.3.6.3.6zM303.1-67.8s.3.1.9.2c.3.1.6.1 1 .2s.9.2 1.4.3c.5.1 1.1.3 1.6.5.6.2 1.1.4 1.7.7l1.8.9c.6.4 1.2.7 1.7 1.1l1.6 1.2c.3.2.5.4.8.7l.7.7c.5.4.8.9 1.2 1.4.3.5.7.9 1 1.3 1.1 1.7 1.6 3 1.6 3s-.5-1.3-1.7-2.9c-.3-.4-.6-.8-1-1.3-.4-.4-.8-.9-1.3-1.3l-.7-.6-.8-.6c-.5-.4-1.1-.8-1.6-1.1-.6-.4-1.2-.6-1.7-1l-1.8-.8c-.6-.2-1.2-.4-1.7-.6-.5-.2-1.1-.3-1.6-.4-.5-.1-.9-.2-1.3-.3-.4-.1-.8-.1-1.1-.1-.6-.1-.9-.1-.9-.1-.3 0-.5-.3-.4-.6 0-.3.3-.5.6-.5zM316.5-56.9l2.3-.8-1.8 1.7c-.2.2-.5.2-.7 0s-.2-.5 0-.7l.2-.2zM311.3-61.2l2.1-2.2-1.3 2.8c-.1.3-.4.4-.7.2-.3-.1-.4-.4-.2-.7.1 0 .1-.1.1-.1zM305.7-63.7l1.2-2.6-.3 2.8c0 .3-.3.5-.6.5s-.5-.3-.5-.6c.2.1.2 0 .2-.1zM297.2-66.9s-.3 0-.9.1c-.3 0-.7.1-1.1.2-.4 0-.9.2-1.3.3-.5.1-1 .2-1.6.4-.5.2-1.1.4-1.7.6l-1.8.8c-.6.3-1.2.6-1.7 1l-1.6 1.1c-.5.4-1 .8-1.5 1.3-.5.4-.9.9-1.3 1.3s-.7.9-1 1.3c-1.2 1.6-1.7 2.9-1.7 2.9s.4-1.3 1.6-3c.3-.4.6-.9 1-1.3s.8-.9 1.2-1.4c.4-.5.9-.9 1.4-1.4.5-.5 1.1-.8 1.6-1.2.6-.4 1.2-.7 1.7-1.1l1.8-.9c.6-.2 1.2-.5 1.7-.7.6-.2 1.1-.3 1.6-.5.5-.1 1-.3 1.4-.3.4-.1.8-.1 1.1-.2.6-.1.9-.2.9-.2.3-.1.5.1.6.4.1.2-.1.4-.4.5zM283.4-55.8l-2.1-1.9 2.6 1c.3.1.4.4.3.7-.1.3-.4.4-.7.3l-.1-.1zM287.9-60.6l-1.3-2.8 2.1 2.2c.2.2.2.5 0 .7-.2.2-.5.2-.7 0-.1 0-.1-.1-.1-.1zM293.4-63.4l-.3-2.8 1.2 2.6c.1.3 0 .6-.2.7s-.6 0-.7-.2v-.3zM319.1-48.1s-.2-.8-.7-2.1c-.5-1.3-1.4-3.2-2.8-5.1-1.5-1.9-3.6-3.9-6.3-5.2-2.7-1.3-6-1.9-9.2-1.9-1.6 0-3.2.2-4.8.6-1.5.4-3 .9-4.3 1.7-2.6 1.5-4.7 3.5-6.2 5.4-1.5 1.9-2.4 3.8-2.9 5.1-.5 1.3-.6 2.1-.6 2.1s.1-.8.5-2.2c.5-1.3 1.3-3.2 2.7-5.2 1.4-2 3.5-4.1 6.2-5.6 1.3-.8 2.8-1.3 4.4-1.8 1.6-.4 3.2-.6 4.9-.6 3.3 0 6.6.6 9.4 2 2.8 1.4 4.9 3.4 6.4 5.4 1.5 2 2.2 3.9 2.7 5.3.4 1.3.6 2.1.6 2.1z"/><path class="st4" d="M182.8-42.8c0-9.7 9.8-17.5 19.5-17.5s19.5 7.8 19.5 17.5v7.3h-38.8l-.2-7.3z"/><path class="st2" d="M182.8-39.6v-.6c0-.4 0-1 .1-1.8.1-.4.1-.8.2-1.3l.4-1.5c.2-.5.4-1.1.7-1.6.3-.5.6-1.1 1-1.7.8-1.1 1.7-2.3 2.8-3.4 1.1-1.1 2.5-2.1 3.9-3 1.5-.9 3.1-1.6 4.8-2.1 1.7-.5 3.5-.8 5.4-.8 1.8 0 3.7.3 5.4.8 1.7.5 3.4 1.2 4.8 2.1 1.5.9 2.8 1.9 3.9 3 1.2 1.1 2 2.3 2.8 3.4.4.6.7 1.2 1 1.7.2.6.5 1.1.7 1.6.2.5.3 1 .4 1.5.1.5.2.9.2 1.3.2.8.1 1.4.1 1.8v.6s0-.2-.1-.6c-.1-.4-.1-1-.3-1.8-.1-.4-.1-.8-.3-1.3-.2-.4-.3-.9-.5-1.4-.2-.5-.5-1-.7-1.6-.3-.5-.6-1.1-1-1.6-.8-1.1-1.7-2.2-2.8-3.2-1.1-1.1-2.4-2-3.9-2.8-1.4-.8-3-1.5-4.7-2-1.7-.5-3.4-.7-5.2-.7-1.7 0-3.5.3-5.2.7-1.7.5-3.3 1.1-4.7 2-1.4.8-2.8 1.8-3.9 2.8-1.2 1-2.1 2.1-2.8 3.2-.4.6-.7 1.1-1 1.6-.3.6-.5 1.1-.7 1.6-.2.5-.3 1-.5 1.4-.2.4-.2.9-.3 1.3-.2.8-.2 1.4-.3 1.8.3.4.3.6.3.6zM205.1-63.7s.3.1.9.2c.3.1.6.1 1 .2s.9.2 1.4.3c.5.1 1.1.3 1.6.5.6.2 1.1.4 1.7.7l1.8.9c.6.4 1.2.7 1.7 1.1l1.6 1.2c.3.2.5.4.8.7l.7.7c.5.4.8.9 1.2 1.4.3.5.7.9 1 1.3 1.1 1.7 1.6 3 1.6 3s-.5-1.3-1.7-2.9c-.3-.4-.6-.8-1-1.3-.4-.4-.8-.9-1.3-1.3l-.7-.6-.8-.6c-.5-.4-1.1-.8-1.6-1.1-.6-.4-1.2-.6-1.7-1l-1.8-.8c-.6-.2-1.2-.4-1.7-.6-.5-.2-1.1-.3-1.6-.4-.5-.1-.9-.2-1.3-.3-.4-.1-.8-.1-1.1-.1-.6-.1-.9-.1-.9-.1-.3 0-.5-.3-.4-.6 0-.4.3-.6.6-.5zM218.5-52.8l2.3-.8-1.8 1.6c-.2.2-.5.2-.7 0-.2-.2-.2-.5 0-.7.1-.1.1-.1.2-.1zM213.4-57.2l2.1-2.2-1.3 2.8c-.1.3-.4.4-.7.2-.3-.1-.4-.4-.2-.7l.1-.1zM207.8-59.6l1.2-2.6-.3 2.8c0 .3-.3.5-.6.5s-.5-.3-.5-.6l.2-.1zM199.2-62.9s-.3 0-.9.1c-.3 0-.7.1-1.1.2-.4 0-.9.2-1.3.3-.5.1-1 .2-1.6.4-.5.2-1.1.4-1.7.6l-1.8.8c-.6.3-1.2.6-1.7 1l-1.6 1.1c-.5.4-1 .8-1.5 1.3-.5.4-.9.9-1.3 1.3s-.7.9-1 1.3c-1.2 1.6-1.7 2.9-1.7 2.9s.4-1.3 1.6-3c.3-.4.6-.9 1-1.3s.8-.9 1.2-1.4c.4-.5.9-.9 1.4-1.4.5-.5 1.1-.8 1.6-1.2.6-.4 1.2-.7 1.7-1.1l1.8-.9c.6-.2 1.2-.5 1.7-.7.6-.2 1.1-.3 1.6-.5.5-.1 1-.3 1.4-.3.4-.1.8-.1 1.1-.2.6-.1.9-.2.9-.2.3-.1.5.1.6.4.1.2-.1.5-.4.5zM185.4-51.8l-2.1-1.9 2.6 1c.3.1.4.4.3.7-.1.3-.4.4-.7.3 0 0-.1 0-.1-.1zM189.9-56.6l-1.3-2.8 2.1 2.2c.2.2.2.5 0 .7-.2.2-.5.2-.7 0 0 0-.1 0-.1-.1zM195.4-59.3l-.3-2.8 1.2 2.6c.1.3 0 .6-.2.7s-.6 0-.7-.2v-.3zM221.1-44s-.2-.8-.7-2.1c-.5-1.3-1.4-3.2-2.8-5.1-1.5-1.9-3.6-3.9-6.3-5.2-2.7-1.3-6-1.9-9.2-1.9-1.6 0-3.2.2-4.8.6-1.5.4-3 .9-4.3 1.7-2.6 1.5-4.7 3.5-6.2 5.4-1.5 1.9-2.4 3.8-2.9 5.1-.5 1.3-.6 2.1-.6 2.1s.1-.8.5-2.2c.5-1.3 1.3-3.2 2.7-5.2 1.4-2 3.5-4.1 6.2-5.6 1.3-.8 2.8-1.3 4.4-1.8 1.6-.4 3.2-.6 4.9-.6 3.3 0 6.6.6 9.4 2 2.8 1.4 4.9 3.4 6.4 5.4 1.5 2 2.2 3.9 2.7 5.3.5 1.3.6 2.1.6 2.1zM199.3-65.2s0 .2.1.4c0 .1.1.3.1.5 0 .1 0 .2.1.3l.1.3.3.5c.1.1.2.2.3.2l.3.2.7.3.4.1h.4c.2 0 .6 0 .8-.1.2 0 .5-.1.7-.2.2-.1.4-.2.6-.4l.4-.5c.1-.2.1-.4.2-.5 0-.2.1-.4.1-.5.1-.2.1-.4.1-.4s0 .2.1.4c0 .1.1.3.1.5s.1.5 0 .7c-.1.3-.2.5-.4.8-.2.2-.4.5-.7.7-.3.2-.6.3-1 .4-.4.1-.6.1-1 .1l-.5-.1-.5-.1c-.3-.1-.7-.3-.9-.5l-.4-.3c-.1-.1-.2-.2-.3-.4-.2-.2-.3-.6-.3-.9v-.6c0-.2.1-.4.1-.5v-.4z"/><path class="st4" d="M202.2-61.8v1.2"/><circle class="st11" cx="201.6" cy="-78.6" r="1.3"/><path class="st6" d="M201.6-77.3s-.1 3.8-2.2 6.3v1.3l4.6-.1v-1.3s-1.8-1.6-2.4-6.2z"/><circle class="st11" cx="398.6" cy="-78.6" r="1.3"/><path class="st6" d="M398.5-77.3s.1 3.8 2.2 6.3v1.3l-4.6-.1v-1.3c.1 0 1.9-1.6 2.4-6.2z"/><circle class="st11" cx="349.1" cy="-80.6" r="1.3"/><path class="st6" d="M349.1-79.3s.1 3.8 2.2 6.3v1.3l-4.6-.1v-1.3s1.9-1.6 2.4-6.2z"/><circle class="st11" cx="251.8" cy="-80.6" r="1.3"/><path class="st6" d="M251.7-79.3s.1 3.8 2.2 6.3v1.3l-4.6-.1v-1.3s1.9-1.6 2.4-6.2z"/><path class="st1" d="M557.9-56.2c.4-.8.7-1.8.7-2.8 0-3.3-2.7-6-6-6-1.1 0-2.1.3-2.9.8v-.8c0-5.8-4.7-10.5-10.5-10.5s-10.5 4.7-10.5 10.5c0 1 .2 2.1.4 3h-.2c-3.7 0-6.7 3-6.7 6.7 0 3.1 2.1 5.7 4.9 6.5-.7 1.5-1.1 3.2-1.1 4.9 0 1.6.3 3.1.9 4.5-.9 1.5-1.4 3.3-1.4 5.1 0 5.6 4.6 10.2 10.2 10.2 1.8 0 3.6-.5 5.1-1.4 1.2 2 3.4 3.4 5.9 3.4 3.8 0 7-3.1 7-7 0-1.3-.4-2.5-1-3.5h1c6.8 0 12.2-5.5 12.2-12.2-.1-5.2-3.4-9.6-8-11.4z"/><path class="st10" d="M526.1-41.9s.9 3.7 3.1 4.4"/><path class="st2" d="M526.6-42s0 .3.2.8c.1.5.3 1.1.6 1.7.1.3.3.6.5.9.2.3.4.5.6.7.2.2.4.3.5.4.1.1.2.1.2.1s-.1 0-.2-.1c-.2 0-.3-.1-.6-.3-.2-.1-.5-.3-.7-.6-.2-.2-.5-.5-.7-.8-.4-.6-.8-1.2-1-1.7-.2-.5-.4-.8-.4-.8l1-.3z"/><path class="st10" d="M549.6-66.4s.3 2.9-1.6 5.2"/><path class="st2" d="M550.1-66.5s0 .4-.1.9c0 .3-.1.6-.2.9l-.3 1c-.1.3-.3.7-.5.9-.2.3-.3.6-.5.8-.3.4-.6.7-.6.7s.2-.3.4-.7c.1-.2.2-.5.3-.8.1-.3.2-.6.3-1 .1-.3.1-.7.1-1v-.9c0-.5-.1-.8-.1-.8h1.2z"/><path class="st10" d="M556.2-32.7s-4.8.9-5.4-1.5"/><path class="st2" d="M556.3-32.2s-1.6.2-3.1-.2c-.4-.1-.8-.2-1.1-.4l-.5-.3-.4-.3c-.1-.1-.2-.2-.2-.3-.1-.1-.1-.2-.1-.3 0-.2-.1-.3-.1-.3s0 .1.1.2c0 .1.1.2.2.2.1.1.1.2.3.3.1.1.2.2.4.2.1.1.3.1.5.2.3.1.7.1 1.1.2.7 0 1.5-.1 2-.1.6-.1.9-.2.9-.2v1.1z"/><path class="st1" d="M515.5-170.5l-2 143h27.5l-2-143s-7.2-2.7-23.5 0z"/><path class="st17" d="M508.2-182.2h37.6v6.3h-37.6z"/><path class="st18" d="M516.4-204.9c11.7-2.3 21.3 0 21.3 0s.7 2.3 0 5-1.4 6.5 0 17.7"/><path class="st17" d="M537.6-182.2h-21.3c1.4-11.2.7-15 0-17.7-.7-2.7 0-5 0-5s9.7-2.3 21.3 0c0 0 .8 1.9.2 4.6-.5 2.7-1.5 5.9-.2 18.1z"/><path class="st18" d="M538-200.5s-7.6-2.3-21.9 0"/><path class="st19" d="M527-182.2M527-192.2M530.8-182.3v-11.2c0-1.1-.9-1.9-1.9-1.9h-3.6c-1.1 0-1.9.9-1.9 1.9v11.2M524.7-195.4s-.2 13.4 0 13.2"/><path class="st2" d="M537.6-27.6s-.2-17.7-.5-44.2c-.1-13.2-.3-28.7-.4-45.3-.1-8.3-.2-16.8-.2-25.5 0-4.3-.1-8.7-.1-13.1 0-2.2 0-4.4-.1-6.6v-3.3c0-.5 0-1.2-.1-1.5-.1-.2-.2-.3-.4-.4-.2-.1-.3-.1-.6-.1h-.4c-.2 0-.2 0-.3.1-.2.1-.3.2-.4.4l-.1.3v49.7c0 16.6.1 32 .1 45.3v44.2s-.1-17.7-.4-44.2c-.1-13.2-.2-28.7-.2-45.3 0-8.3-.1-16.8-.1-25.5 0-4.3 0-8.7-.1-13.1v-11.1c0-.2.1-.4.1-.5.1-.3.4-.6.7-.8.1-.1.4-.2.5-.1h.4c.2 0 .7 0 1 .2.3.2.6.4.7.8l.1.3v11.399999999999999c0 4.4 0 8.8.1 13.1 0 8.7.1 17.2.1 25.5.1 16.6.2 32 .2 45.3.4 26.4.4 44 .4 44zM531.7-27.6s-.1-17.7-.2-44.2c0-13.2-.1-28.7-.1-45.3v-48.5c0-.5.1-1.2-.1-1.5-.1-.2-.2-.3-.4-.4-.2-.1-.3-.1-.6-.1h-.4c-.2 0-.2 0-.3.1-.2.1-.3.2-.4.4l-.1.3v11.1c0 4.4 0 8.8-.1 13.1 0 8.7-.1 17.2-.1 25.5-.1 16.6-.2 32-.2 45.3-.2 26.5-.4 44.2-.4 44.2v-44.2c0-13.2.1-28.7.1-45.3v-49.699999999999996c0-.2.1-.4.1-.5.1-.3.4-.6.7-.8.4-.2.7-.2 1-.2.2 0 .7 0 1 .2.3.2.6.4.7.8.1.2.1.4.1.5v49.8c0 16.6-.1 32-.1 45.3-.1 26.5-.2 44.1-.2 44.1zM523.4-27.6s-.1-17.7-.2-44.2c0-13.2-.1-28.7-.1-45.3v-49.8c0-.1 0-.3.1-.5.1-.3.4-.6.7-.8.3-.2.7-.2 1-.2.3 0 .6 0 1 .2.3.2.6.4.7.8.1.2.1.3.1.5v49.7c0 16.6.1 32 .1 45.3v44.2s-.1-17.7-.4-44.2c-.1-13.2-.2-28.7-.2-45.3 0-8.3-.1-16.8-.1-25.5 0-4.3 0-8.7-.1-13.1v-11.1c0-.1 0-.2-.1-.3-.1-.2-.2-.3-.4-.4-.1 0-.1-.1-.3-.1h-.4c-.3 0-.5 0-.6.1-.2.1-.3.2-.4.4l-.1 1.5v48.5c0 16.6-.1 32-.1 45.3-.1 26.7-.2 44.3-.2 44.3zM517.4-27.6s0-17.7.1-44.2c.1-13.2.2-28.7.2-45.3 0-8.3.1-16.8.1-25.5 0-4.3 0-8.7.1-13.1v-11.399999999999999l.1-.3c.1-.3.4-.6.7-.8.3-.2.7-.2 1-.2h.4l.5.1c.3.2.6.4.7.8.1.2.1.3.1.5v11.1c0 4.4 0 8.8-.1 13.1 0 8.7-.1 17.2-.1 25.5-.1 16.6-.2 32-.2 45.3-.2 26.5-.4 44.2-.4 44.2v-44.2c0-13.2.1-28.7.1-45.3v-49.699999999999996c0-.1 0-.2-.1-.3-.1-.2-.2-.3-.4-.4-.1 0-.1-.1-.3-.1h-.4c-.3 0-.5 0-.6.1-.2.1-.3.2-.4.4l-.1 1.5v3.3c0 2.2 0 4.4-.1 6.6 0 4.4-.1 8.8-.1 13.1-.1 8.7-.2 17.2-.2 25.5-.1 16.6-.3 32-.4 45.3 0 26.8-.2 44.4-.2 44.4z"/><path class="st19" d="M543.3-182.3v-5.9c0-.4-.3-.7-.7-.7h-30.3c-.4 0-.7.3-.7.7v5.9"/><path class="st20" d="M540.5-188.8v6.5M536.6-188.8v6.5M532.8-188.8v6.5M528.9-188.8v6.5M525.1-188.8v6.5M521.2-188.8v6.5M517.4-188.8v6.5M513.5-188.8v6.5"/><path class="st21" d="M516.9-108.5h-135.4l4-28.6h127.4z"/><path class="st2" d="M386.8-135.4s7.8-.1 19.5-.1 27.2-.1 42.8-.1c15.6 0 31.1.1 42.8.1 11.7.1 19.5.1 19.5.1s-7.8.1-19.5.1-27.2.1-42.8.1c-15.6 0-31.1-.1-42.8-.1-11.8-.1-19.5-.1-19.5-.1z"/><path class="st1" d="M516.9-108.5l-20.9-22h-.2l-21.4 21.8h-4.9l-.5-.5-19.7-22.8c0-.1-.1-.1-.2 0l-20 23.2h-4.6l-21.4-21.8h-.2l-20.9 22-.1-.1c-.1 0-.1.1-.1.1v25.3l1.6 1.8v47.3l131.5-.8h.1v-46.5l1.4-1.5h.1c.1 0 .1-.1.1-.1v.1-8.3-8.5-8.5l.1.1h.2v-.3z"/><path class="st4" d="M382.2-108.6l20.9-22 21.4 21.8h4.7l20-23.3 19.7 22.8.5.5h5l21.4-21.8 21 22"/><path class="st2" d="M383.6-108.1c3.1-3.4 6.3-6.8 9.4-10.1l4.8-5 4.8-4.9c.2-.2.5-.2.7 0l4.9 4.9c1.6 1.6 3.3 3.2 4.9 4.9l4.8 5 4.8 5c-1.7-1.5-3.4-3.1-5.1-4.7l-5-4.8-5-4.8-5-4.8h.7l-4.9 4.9c-1.6 1.6-3.2 3.3-4.9 4.9-3.2 3.1-6.5 6.4-9.9 9.5zM466.8-109.3c-3.1-3.1-6.1-6.4-9.1-9.6l-4.5-4.9-4.5-4.9h.7l-4.4 5c-1.5 1.7-2.9 3.4-4.5 5l-4.5 4.9c-1.5 1.6-3 3.3-4.6 4.9 1.4-1.8 2.8-3.5 4.2-5.2l4.3-5.1c1.4-1.7 2.9-3.4 4.4-5.1l4.4-5.1c.2-.2.5-.2.7-.1l4.4 5 4.4 5c2.9 3.4 5.8 6.8 8.6 10.2zM402.2-128h1.5v17.5h-1.5zM394.7-111l7.9-7.8-.1-2.3-10.1 10.1h2.3000000000000003zM413.4-111.2l-9.9-9.9-.1 2.3 7.7 7.7c.8-.1 1.6-.1 2.3-.1zM448.5-127.1h1.5v16.3h-1.5zM445-110.7l3.9-4.2-.1-2.3-6 6.5h2.2zM438.8-110.8l10.1-11-.1-2.3-12.1 13.1 2.1.2zM455.5-110.9l-5.8-6.3-.1 2.2 3.7 4.1c.8.1 1.5.1 2.2 0zM443.6-122.6h11.1l1.4 1.1h-13.8c0 .1.3 0 .4 0 .5-.6.4-.6.9-1.1zM461.7-111.1l-12-13-.1 2.3 9.9 10.8c.7-.1 1.5-.1 2.2-.1z"/><path class="st11" d="M403-124.5c-.6 0-1-.4-1-1v-5c0-.5.4-1 1-1 .5 0 1 .4 1 1v5c-.1.5-.5 1-1 1z"/><circle class="st11" cx="402.9" cy="-132.5" r="1"/><path class="st11" d="M402.4-133.5s-1.1-4.6.7-7.9c0 0 1.7 2.2.3 8"/><path class="st11" d="M449.2-126.5c-.6 0-1-.4-1-1v-5c0-.5.4-1 1-1 .5 0 1 .4 1 1v5c-.1.5-.5 1-1 1z"/><circle class="st11" cx="449.1" cy="-134.5" r="1"/><path class="st11" d="M448.6-135.5s-1.1-5.6.7-8.9c0 0 1.7 3.2.3 9"/><path class="st2" d="M420.5-110.6c-.1-.1-.6-.4-.7-.6l-.3-.3h-32.5c-.5.4-.8.7-1 .9.1.1.7.1.9.1h32.9c.2 0 .6 0 .7-.1zM422.9-108.4c-.1-.1-.7-.4-.8-.6l-.4-.3h-37c-.6.4-.9.7-1.1.9.1.1.8.1 1 .1h37.4l.9-.1zM467.7-108.4h-36.1c-.2 0-.3.2-.4 0 .3-.2.4-.7.8-.9l34.9-.1.8 1"/><path class="st2" d="M385.2-109.8s2.3-.1 5.6-.1c1.7 0 3.7 0 5.8-.1h13.2c2.1 0 4.1.1 5.8.1 3.4.1 5.6.1 5.6.1s-2.3.1-5.6.1c-1.7 0-3.7 0-5.8.1h-13.2c-2.1 0-4.1-.1-5.8-.1-3.3 0-5.6-.1-5.6-.1zM432.3-109.8s2.1-.1 5.3-.1c1.6 0 3.5 0 5.4-.1h12.4c2 0 3.9.1 5.4.1 3.2.1 5.3.1 5.3.1s-2.1.1-5.3.1c-1.6 0-3.5 0-5.4.1h-12.4c-2 0-3.9-.1-5.4-.1-3.1 0-5.3-.1-5.3-.1zM515.4-108.1c-3.4-3.1-6.7-6.3-10-9.6-1.7-1.6-3.3-3.2-4.9-4.9l-4.9-4.9h.7l-5 4.8-5 4.8-5 4.8-5.1 4.7c1.6-1.7 3.2-3.4 4.8-5l4.8-5c1.6-1.7 3.3-3.3 4.9-4.9l4.9-4.9c.2-.2.5-.2.7 0l4.8 4.9 4.8 5c3.2 3.4 6.4 6.8 9.5 10.2zM495.3-128h1.5v17.5h-1.5zM504.3-111.1l-7.9-7.8.1-2.3 10.1 10.2h-.6c-.7-.1-1-.1-1.7-.1zM485.5-111.2l9.9-9.9.1 2.2-7.7 7.7h-2.3z"/><path class="st11" d="M496-124.5c.6 0 1-.4 1-1v-5c0-.5-.4-1-1-1-.5 0-1 .4-1 1v5c0 .5.5 1 1 1z"/><circle class="st11" cx="496" cy="-132.5" r="1"/><path class="st11" d="M496.5-133.5s1.1-4.6-.7-7.9c0 0-1.7 2.2-.3 8"/><path class="st2" d="M478.4-110.6c.1-.1.6-.4.7-.6l.3-.3h32.5c.5.4.8.7 1 .9-.1.1-.7.1-.9.1h-32.9c-.1 0-.6 0-.7-.1.1 0 0 .1 0 0zM464.9-111.5h-30.9l-.3.3c-.1.1-.6.4-.7.6.1.1.6.1.7.1h32.2c-.4-.2-.9-.6-1-1zM476.1-108.4c.1-.1.7-.4.8-.6l.4-.3h37c.6.4.9.7 1.1.9-.1.1-.8.1-1 .1h-37.4l-.9-.1zM513.7-109.8s-2.3.1-5.6.1c-1.7 0-3.7 0-5.8.1h-13.2c-2.1 0-4.1-.1-5.8-.1-3.4-.1-5.6-.1-5.6-.1s2.3-.1 5.6-.1c1.7 0 3.7 0 5.8-.1h13.2c2.1 0 4.1.1 5.8.1 3.4 0 5.6.1 5.6.1z"/><path class="st19" d="M382-83.3l1.6 1.8v47.2"/><path class="st16" d="M462.2-91.4c0 2 1.7 3.7 3.7 3.7M461.1-91.4c0 2-1.7 3.7-3.7 3.7M461.1-83.2c0-2-1.7-3.7-3.7-3.7M462.2-83.2c0-2 1.7-3.7 3.7-3.7"/><path class="st22" d="M445.5-91.4c0 2 1.6 3.7 3.6 3.7M444.4-91.4c0 2-1.6 3.7-3.6 3.7M444.4-83.2c0-2-1.6-3.7-3.6-3.7M445.5-83.2c0-2 1.6-3.7 3.6-3.7"/><path class="st16" d="M453.7-91.4c0 2 1.7 3.7 3.7 3.7M452.6-91.4c0 2-1.7 3.7-3.7 3.7M452.6-83.2c0-2-1.7-3.7-3.7-3.7M453.7-83.2c0-2 1.7-3.7 3.7-3.7"/><path class="st23" d="M448.9-91.6h8.5v8.5h-8.5zM440.9-91.6h8v8.5h-8zM457.4-91.6h8.5v8.5h-8.5z"/><path class="st16" d="M411.3-91.4c0 2-1.7 3.7-3.7 3.7M412.4-91.4c0 2 1.7 3.7 3.7 3.7M412.4-83.2c0-2 1.7-3.7 3.7-3.7M411.3-83.2c0-2-1.7-3.7-3.7-3.7M402.8-91.4c0 2-1.7 3.7-3.7 3.7M403.9-91.4c0 2 1.7 3.7 3.7 3.7M403.9-83.2c0-2 1.7-3.7 3.7-3.7M402.8-83.2c0-2-1.7-3.7-3.7-3.7"/><path class="st22" d="M428-91.4c0 2-1.6 3.7-3.6 3.7M429.1-91.4c0 2 1.6 3.7 3.6 3.7M429.1-83.2c0-2 1.6-3.7 3.6-3.7M428-83.2c0-2-1.6-3.7-3.6-3.7M428-99.9c0 2-1.6 3.7-3.6 3.7M429.1-99.9c0 2 1.6 3.7 3.6 3.7M429.1-91.7c0-2 1.6-3.7 3.6-3.7M428-91.7c0-2-1.6-3.7-3.6-3.7M428-108.3c0 2-1.6 3.7-3.6 3.7M429.1-108.3c0 2 1.6 3.7 3.6 3.7M429.1-100c0-2 1.6-3.7 3.6-3.7M428-100c0-2-1.6-3.7-3.6-3.7"/><path class="st16" d="M419.8-91.4c0 2-1.7 3.7-3.7 3.7M420.9-91.4c0 2 1.7 3.7 3.7 3.7M420.9-83.2c0-2 1.7-3.7 3.7-3.7M419.8-83.2c0-2-1.7-3.7-3.7-3.7M394.2-91.4c0 2-1.7 3.7-3.7 3.7M395.3-91.4c0 2 1.7 3.7 3.7 3.7M395.3-83.2c0-2 1.7-3.7 3.7-3.7M394.2-83.2c0-2-1.7-3.7-3.7-3.7"/><path class="st23" d="M416.1-91.6h8.5v8.5h-8.5zM424.6-91.6h8v8.5h-8z"/><path class="st22" d="M436.2-91.4c0 2-1.6 3.7-3.6 3.7M437.2-91.4c0 2 1.6 3.7 3.6 3.7M437.2-83.2c0-2 1.6-3.7 3.6-3.7M436.2-83.2c0-2-1.6-3.7-3.6-3.7"/><path class="st23" d="M432.8-91.6h8v8.5h-8zM399.1-91.6h8.5v8.5h-8.5zM390.5-91.6h8.5v8.5h-8.5zM407.6-91.6h8.5v8.5h-8.5z"/><path class="st24" d="M416.1-91.6l-4 1h-17.4l-4.2-1v-16.9l4.2.5h17.4l4-.5z"/><path class="st6" d="M400.5-107.8v17.2M406.3-107.8v17.2M412.1-107.8v17.2M394.7-107.8v17.2"/><path class="st5" d="M416.1-102.4l-4 .9h-17.4l-4.2-.9"/><path class="st2" d="M416.1-92.7c-1.3.4-2.7.8-4 1.1l-4.3.1h-4.3c-2.9 0-5.8 0-8.7-.1-1.4-.4-2.8-.8-4.2-1.1 1.4.3 2.8.5 4.3.9 2.9-.1 5.8-.1 8.7-.1h4.3l4.3.1c1.2-.4 2.6-.6 3.9-.9z"/><path class="st25" d="M400.5-91.7M406.3-91.7M412.1-91.7M394.7-91.7"/><path class="st26" d="M465.9-91.6l-4.3 1h-24.5l-4.4-1v-17l4.4.5h24.5l4.3-.5z"/><path class="st27" d="M449.3-107.8v17.2M443.1-107.8v17.2M455.5-107.8v17.2M461.6-107.8v17.2M437.1-107.8v17.2"/><path class="st28" d="M465.9-102.4l-4.3.9h-24.5l-4.4-.9"/><path class="st2" d="M465.9-92.7l-4.3 1.1-6.1.1h-12.2c-2 0-4.1 0-6.1-.1-1.5-.4-2.9-.8-4.4-1.1 1.5.3 3 .5 4.5.9l6.1-.1h12.2l6.1.1 4.2-.9z"/><path class="st25" d="M449.3-91.7M455.5-91.7M461.6-91.7M437.1-91.7"/><path class="st26" d="M465.9-59.6l-4.3 1h-24.5l-4.4-1v-19.5l4.4.5h24.5l4.3-.5z"/><path class="st27" d="M449.3-78.3v19.7M443.1-78.3v19.7M455.5-78.3v19.7M461.6-78.3v19.7M437.1-78.3v19.7"/><path class="st28" d="M465.9-71.9l-4.3.8h-24.5l-4.4-.8"/><path class="st2" d="M465.9-60.7l-4.3 1.1-6.1.1h-12.2c-2 0-4.1 0-6.1-.1-1.5-.4-2.9-.8-4.4-1.1 1.5.3 3 .5 4.5.9l6.1-.1h12.2l6.1.1 4.2-.9z"/><path class="st25" d="M449.3-59.7M455.5-59.7M461.6-59.7M437.1-59.7"/><path class="st29" d="M415.8-59.6l-4 1h-17.2l-4.1-1v-19.5l4.1.5h17.2l4-.5z"/><path class="st30" d="M400.3-78.3v19.7M406.1-78.3v19.7M411.8-78.3v19.7M394.6-78.3v19.7"/><path class="st31" d="M415.8-71.9l-4 .8h-17.2l-4.1-.8"/><path class="st2" d="M415.8-60.7c-1.3.4-2.6.8-4 1.1l-4.3.1h-4.3c-2.9 0-5.7 0-8.6-.1-1.4-.4-2.8-.8-4.1-1.1 1.4.3 2.8.5 4.2.9 2.9-.1 5.7-.1 8.6-.1h4.3l4.3.1c1.2-.4 2.5-.7 3.9-.9z"/><path class="st25" d="M400.3-59.7M406.1-59.7M411.8-59.7M394.6-59.7"/><path class="st23" d="M416.1-108.6h8.5v8.5h-8.5zM424.6-108.6h8v8.5h-8zM416.1-100.1h8.5v8.5h-8.5zM382-91.6h8.5v8.5h-8.5zM382-100.1h8.5v8.5h-8.5zM424.6-100.1h8v8.5h-8zM382-108.6h8.5v8.5h-8.5z"/><path class="st16" d="M385.7-108.4c0 2-1.7 3.7-3.7 3.7M386.8-108.4c0 2 1.7 3.7 3.7 3.7M386.8-100.2c0-2 1.7-3.7 3.7-3.7M385.7-100.2c0-2-1.7-3.7-3.7-3.7M385.7-99.9c0 2-1.7 3.7-3.7 3.7M386.8-99.9c0 2 1.7 3.7 3.7 3.7M386.8-91.7c0-2 1.7-3.7 3.7-3.7M385.7-91.7c0-2-1.7-3.7-3.7-3.7M419.8-108.4c0 2-1.7 3.7-3.7 3.7M420.9-108.4c0 2 1.7 3.7 3.7 3.7M420.9-100.2c0-2 1.7-3.7 3.7-3.7M419.8-100.2c0-2-1.7-3.7-3.7-3.7M419.8-99.9c0 2-1.7 3.7-3.7 3.7M420.9-99.9c0 2 1.7 3.7 3.7 3.7M420.9-91.7c0-2 1.7-3.7 3.7-3.7M419.8-91.7c0-2-1.7-3.7-3.7-3.7M385.7-91.4c0 2-1.7 3.7-3.7 3.7M386.8-91.4c0 2 1.7 3.7 3.7 3.7M386.8-83.2c0-2 1.7-3.7 3.7-3.7M385.7-83.2c0-2-1.7-3.7-3.7-3.7M487.1-91.4c0 2 1.7 3.7 3.7 3.7M486-91.4c0 2-1.7 3.7-3.7 3.7M486-83.2c0-2-1.7-3.7-3.7-3.7M487.1-83.2c0-2 1.7-3.7 3.7-3.7M495.6-91.4c0 2 1.7 3.7 3.7 3.7M494.5-91.4c0 2-1.7 3.7-3.7 3.7M494.5-83.2c0-2-1.7-3.7-3.7-3.7M495.6-83.2c0-2 1.7-3.7 3.7-3.7"/><path class="st22" d="M470.5-91.4c0 2 1.6 3.7 3.6 3.7M469.4-91.4c0 2-1.6 3.7-3.6 3.7M469.4-83.2c0-2-1.6-3.7-3.6-3.7M470.5-83.2c0-2 1.6-3.7 3.6-3.7M470.5-99.9c0 2 1.6 3.7 3.6 3.7M469.4-99.9c0 2-1.6 3.7-3.6 3.7M469.4-91.7c0-2-1.6-3.7-3.6-3.7M470.5-91.7c0-2 1.6-3.7 3.6-3.7M470.5-108.3c0 2 1.6 3.7 3.6 3.7M469.4-108.3c0 2-1.6 3.7-3.6 3.7M469.4-100c0-2-1.6-3.7-3.6-3.7M470.5-100c0-2 1.6-3.7 3.6-3.7"/><path class="st16" d="M478.6-91.4c0 2 1.7 3.7 3.7 3.7M477.5-91.4c0 2-1.7 3.7-3.7 3.7M477.5-83.2c0-2-1.7-3.7-3.7-3.7M478.6-83.2c0-2 1.7-3.7 3.7-3.7M504.3-91.4c0 2 1.7 3.7 3.7 3.7M503.2-91.4c0 2-1.7 3.7-3.7 3.7M503.2-83.2c0-2-1.7-3.7-3.7-3.7M504.3-83.2c0-2 1.7-3.7 3.7-3.7"/><path class="st23" d="M473.8-91.6h8.5v8.5h-8.5zM465.8-91.6h8v8.5h-8zM490.8-91.6h8.5v8.5h-8.5zM499.5-91.6h8.5v8.5h-8.5zM482.3-91.6h8.5v8.5h-8.5z"/><path class="st24" d="M482.3-91.6l4.1 1h17.4l4.2-1v-16.9l-4.2.5h-17.4l-4.1-.5z"/><path class="st6" d="M498-107.8v17.2M492.2-107.8v17.2M486.4-107.8v17.2M503.8-107.8v17.2"/><path class="st5" d="M482.3-102.4l4.1.9h17.4l4.2-.9"/><path class="st2" d="M482.3-92.7l4.1.9 4.3-.1h4.3c2.9 0 5.8 0 8.7.1 1.4-.3 2.8-.6 4.3-.9-1.4.4-2.8.8-4.2 1.1-2.9.1-5.8.1-8.7.1h-4.3l-4.3-.1c-1.5-.3-2.8-.7-4.2-1.1z"/><path class="st25" d="M498-91.7M492.2-91.7M486.4-91.7M503.8-91.7"/><path class="st23" d="M473.8-108.6h8.5v8.5h-8.5zM465.8-108.6h8v8.5h-8zM473.8-100.1h8.5v8.5h-8.5zM508-91.6h8.5v8.5h-8.5zM508-100.1h8.5v8.5h-8.5zM465.8-100.1h8v8.5h-8zM508-108.6h8.5v8.5h-8.5z"/><path class="st16" d="M512.8-108.4c0 2 1.7 3.7 3.7 3.7M511.7-108.4c0 2-1.7 3.7-3.7 3.7M511.7-100.2c0-2-1.7-3.7-3.7-3.7M512.8-100.2c0-2 1.7-3.7 3.7-3.7M512.8-99.9c0 2 1.7 3.7 3.7 3.7M511.7-99.9c0 2-1.7 3.7-3.7 3.7M511.7-91.7c0-2-1.7-3.7-3.7-3.7M512.8-91.7c0-2 1.7-3.7 3.7-3.7M478.6-108.4c0 2 1.7 3.7 3.7 3.7M477.5-108.4c0 2-1.7 3.7-3.7 3.7M477.5-100.2c0-2-1.7-3.7-3.7-3.7M478.6-100.2c0-2 1.7-3.7 3.7-3.7M478.6-99.9c0 2 1.7 3.7 3.7 3.7M477.5-99.9c0 2-1.7 3.7-3.7 3.7M477.5-91.7c0-2-1.7-3.7-3.7-3.7M478.6-91.7c0-2 1.7-3.7 3.7-3.7M512.8-91.4c0 2 1.7 3.7 3.7 3.7M511.7-91.4c0 2-1.7 3.7-3.7 3.7M511.7-83.2c0-2-1.7-3.7-3.7-3.7M512.8-83.2c0-2 1.7-3.7 3.7-3.7"/><path class="st19" d="M383.6-81.3h131.3M383.6-52.8h131.3M383.6-51h131.3"/><path class="st32" d="M383.8-80.4h130.9"/><path class="st2" d="M416.1-80s-.4.1-1.1.1c-.7.1-1.7.2-2.9.2-1.2.1-2.6.2-4.1.2-1.5 0-3.1.1-4.7.1s-3.2-.1-4.7-.1-2.9-.1-4.1-.2c-1.2-.1-2.2-.2-2.9-.2-.7-.1-1.1-.1-1.1-.1h12.8c6.4-.1 12.8-.1 12.8 0zM464.6-80s-.5.1-1.3.1c-.8.1-2 .2-3.4.3-1.4.1-3 .2-4.7.2-1.7 0-3.6.1-5.4.1-1.9 0-3.7-.1-5.4-.1-1.7 0-3.4-.2-4.7-.2-1.4-.1-2.5-.2-3.4-.3-.9-.1-1.3-.1-1.3-.1h14.8c7.4-.1 14.8-.1 14.8 0 0-.1.1-.1 0 0zM412.1-77.7s-.3 0-.7.1c-.5 0-1.2.1-2 .2-.8 0-1.8.1-2.8.2-1 0-2.1 0-3.2.1-1.1 0-2.2 0-3.2-.1-1 0-2-.1-2.8-.2-.8 0-1.5-.2-2-.2-.5-.1-.7-.1-.7-.1h17.4zM460.6-77.7s-.4 0-1 .1c-.6 0-1.5.1-2.5.2-1.1 0-2.3.1-3.6.2-1.3 0-2.7 0-4.1.1-1.4 0-2.8 0-4.1-.1-1.3 0-2.5-.1-3.6-.2-1.1 0-1.9-.2-2.5-.2-.6-.1-1-.1-1-.1h22.4z"/><path class="st33" d="M387.1-81.3v28.6M390.5-81.3v28.6M383.6-73.1h6.9M383.6-61.7h6.9M419.6-81.3v28.6M422.9-81.3v28.6M416-73.1h6.9M416-61.7h6.9M426.3-81.3v28.6M429.6-81.3v28.6M432.6-81.3v28.6M465.9-81.3v28.6M422.7-73.1h10M422.7-61.7h9.9M394.3-58.6v5.9M397.9-58.6v5.9M401.5-58.6v5.9M405.1-58.6v5.9M408.8-58.6v5.9M412.4-58.6v5.9M436.3-58.6v5.9M439.5-58.6v5.9M442.7-58.6v5.9M446-58.6v5.9M452.4-58.6v5.9M449.2-58.6v5.9M455.7-58.6v5.9M458.9-58.6v5.9M462.2-58.6v5.9M416-81.3v28.6"/><path class="st19" d="M516.5-83.3l-1.6 1.8v46.4"/><path class="st29" d="M482.7-59.6l4 1h17.2l4.1-1v-19.5l-4.1.5h-17.2l-4-.5z"/><path class="st30" d="M498.2-78.3v19.7M492.5-78.3v19.7M486.7-78.3v19.7M503.9-78.3v19.7"/><path class="st31" d="M482.7-71.9l4 .8h17.2l4.1-.8"/><path class="st2" d="M482.7-60.7l4 .9 4.3-.1h4.3c2.9 0 5.7 0 8.6.1l4.2-.9c-1.4.4-2.7.8-4.1 1.1-2.9.1-5.7.1-8.6.1h-4.3l-4.3-.1c-1.4-.4-2.7-.8-4.1-1.1z"/><path class="st25" d="M498.2-59.7M492.5-59.7M486.7-59.7M503.9-59.7"/><path class="st32" d="M514.7-51.7h-130.9"/><path class="st2" d="M482.4-80.1s.4-.1 1.1-.1c.7-.1 1.7-.2 2.9-.2 1.2-.1 2.6-.2 4.1-.2 1.5 0 3.1-.1 4.7-.1s3.2.1 4.7.1 2.9.1 4.1.2c1.2.1 2.2.2 2.9.2.7.1 1.1.1 1.1.1h-12.8c-6.4.1-12.8.1-12.8 0 0 .1-.1.1 0 0zM486.4-77.7s.3 0 .7-.1c.5 0 1.2-.1 2-.2.8 0 1.8-.1 2.8-.2 1 0 2.1 0 3.2-.1 1.1 0 2.2 0 3.2.1 1 0 2 .1 2.8.2.8 0 1.5.2 2 .2.5.1.7.1.7.1h-8.7c-4.3.1-8.7 0-8.7 0z"/><path class="st33" d="M511.4-81.3v28.6M508-81.3v28.6M514.9-73.1h-6.9M514.9-61.7h-6.9M479-81.3v28.6M475.6-81.3v28.6M482.5-73.1h-6.9M482.5-61.7h-6.9M472.2-81.3v28.6M468.9-81.3v28.6M475.8-73.1h-6.9M475.8-61.7h-6.9M504.3-58.6v5.9M500.6-58.6v5.9M497-58.6v5.9M493.4-58.6v5.9M489.7-58.6v5.9M486.1-58.6v5.9M482.5-81.3v28.6"/><path class="st19" d="M388.6-34.3v-13.3h12.4v13.3M493.1-34.8v-12.8h12.4v12.8M428.8-34.3v-13.3h12.4v13.3M403.9-34.3v-13.3h22.3v13.3M444.4-34.8v-13h34.6v13M452.4-47.6v12.6M461.7-47.6v12.6M470.5-47.6v12.6M444.4-41.3h34.6M489.7-35.1v-7.2h-1.2v-.2c0-1.1-.9-2-2-2s-2 .9-2 2v.2h-1.1v7.2M513.4-44.7h-4.2v9.9"/><path class="st10" d="M430.2-34.3v-12.2"/><path class="st2" d="M430-34.3l.2-12.2.3 12.2z"/><path class="st10" d="M440-34.3v-12.2"/><path class="st2" d="M439.7-34.3l.3-12.2.2 12.2z"/><path class="st10" d="M389.7-34.3v-12.2"/><path class="st2" d="M389.5-34.3l.2-12.2.3 12.2z"/><path class="st10" d="M399.5-34.3v-12.2"/><path class="st2" d="M399.3-34.3l.2-12.2.3 12.2z"/><path class="st1" d="M505.5-45.6h-10.1v10.5M495.4-45.3l-2.3-2.2"/><path class="st1" d="M498-92c-.4-.8-.7-1.8-.7-2.8 0-3.3 2.7-6 6-6 1.1 0 2.1.3 2.9.8v-.8c0-5.8 4.7-10.5 10.5-10.5s10.5 4.7 10.5 10.5c0 1-.2 2.1-.4 3h.2c3.7 0 6.7 3 6.7 6.7 0 3.1-2.1 5.7-4.9 6.5.7 1.5 1.1 3.2 1.1 4.9 0 1.6-.3 3.1-.9 4.5.9 1.5 1.4 3.3 1.4 5.1 0 5.6-4.6 10.2-10.2 10.2-1.8 0-3.6-.5-5.1-1.4-1.2 2-3.4 3.4-5.9 3.4-3.8 0-7-3.1-7-7 0-1.3.4-2.5 1-3.5h-1c-6.8 0-12.2-5.5-12.2-12.2.1-5.2 3.4-9.6 8-11.4zM514-75.8s-3.5 19.2 2.2 43h-9.8c4.2-21.8 2.5-45 2.5-45"/><path class="st2" d="M517.7-74.7c-.4.1-.8.1-1.2 0-.4-.1-.8-.1-1.2-.3-.4-.1-.8-.3-1.1-.5-.2-.1-.4-.2-.5-.4l-.5-.4c-.3-.3-.6-.6-.8-1-.3-.3-.5-.7-.7-1.1-.2-.4-.3-.8-.5-1.1l-.4-1.2h.9c-.1.4-.3.7-.5 1l-.3.4-.3.4c-.2.3-.5.5-.7.7l-.4.3-.4.3-.4.3c-.1.1-.3.1-.5.2-.3.1-.6.2-1 .3-.3.1-.7.1-1 .1-.3 0-.7 0-1 .1l.9-.3c.3-.1.6-.1.9-.3.3-.2.6-.3.8-.4.3-.1.5-.3.8-.5l.4-.3.3-.3c.2-.2.4-.4.6-.7l.3-.4.2-.4c.1-.2.3-.5.3-.8l.5-1.4.5 1.4.4 1.1.5 1c.2.3.3.7.6 1 .2.3.4.6.7.9.1.2.3.3.4.4l.4.4c.3.2.6.5.9.6.5.6 1.3.9 2.1.9z"/><path class="st10" d="M529.8-77.7s-.9 3.7-3.1 4.4"/><path class="st2" d="M530.3-77.5s-.1.4-.4.8c-.2.5-.6 1.1-1 1.7-.2.3-.5.6-.7.8l-.7.6-.6.3c-.1 0-.2.1-.2.1s.1 0 .2-.1.3-.2.5-.4.4-.4.6-.7c.2-.3.4-.6.5-.9.3-.6.5-1.3.6-1.7.1-.5.2-.8.2-.8l1 .3z"/><path class="st10" d="M506.4-102.2s-.3 2.9 1.6 5.2"/><path class="st2" d="M506.8-102.2s-.1.3-.1.8v.9c0 .3 0 .6.1 1 .1.3.1.7.3 1 .1.3.2.6.3.8.3.4.4.7.4.7s-.2-.3-.6-.7c-.2-.2-.3-.5-.5-.8l-.5-.9-.3-1-.2-.9c-.1-.5-.1-1-.1-.9h1.2z"/><path class="st10" d="M499.8-68.5s4.8.9 5.4-1.5"/><path class="st2" d="M499.8-69s.3.1.9.2c.5.1 1.3.2 2 .1.4 0 .7-.1 1.1-.2.2 0 .3-.1.5-.2s.3-.2.4-.2l.3-.3c.1-.1.1-.2.2-.2.1-.1.1-.2.1-.2s0 .1-.1.3c0 .1 0 .2-.1.3l-.2.3c-.1.1-.2.2-.4.3-.1.1-.3.2-.5.3-.3.2-.7.3-1.1.4-1.6.3-3.1.2-3.1.2v-1.1z"/><path class="st34" d="M512.3-77.9c-3.4 31.5 3 45.1 3 45.1"/><path class="st11" d="M171.6-41.2c.6-13.1-9.5-25.7-21.4-21.5l-12.3 17.2-.2 11h-23.5v-37.7l-2.9-3.7 6.3-2.1v-51.4c0-.2.3-.3.4-.1 0 0 2.9.6 2.4 4.6 0 0 .2 6.9 4.4 4.7l29.5-29.2h1.1l17.4 17.2 5.7 5.6 6.5 6.4c4.2 2.2 4.4-4.7 4.4-4.7-.6-4 2.4-4.6 2.4-4.6.1-.2.4-.1.4.1v51.4l6.4 2.1-2.9 3.7v37.7h-23.8l-.3-6.7M192-125s-.6.8-2.7-.2"/><path class="st4" d="M153.9-149.4v-5.1c0-.5.4-.9.9-.9s.9.4.9.9v5.1"/><path class="st11" d="M153.7-152h-1c-.5 0-.9-.4-.9-.9s.4-.9.9-.9h4c.5 0 .9.4.9.9s-.4.9-.9.9h-3z"/><path class="st2" d="M125.9-119.6c4.6-4.8 9.2-9.5 13.9-14.2 2.3-2.4 4.7-4.7 7-7l7-7c.1-.1.2-.1.3-.1h1l.3.1 7 7 7 7c4.7 4.7 9.3 9.4 13.9 14.2-4.9-4.5-9.6-9.1-14.4-13.7l-7.1-6.9-7.1-7 .3.1h-1l.3-.1-7.1 7c-2.4 2.3-4.7 4.7-7.1 6.9-4.5 4.6-9.3 9.2-14.2 13.7z"/><path class="st4" d="M147.9-134.5h-3.7l1 1.8h19.099999999999998l1-1.8h-3.7z"/><circle class="st4" cx="154.8" cy="-123.3" r="7.2"/><path class="st2" d="M154.8-128.4c.2.9.3 1.7.4 2.6.1.9.1 1.7.1 2.6l-.7-.4c1.1-.5 2.2-.9 3.4-1.1-.9.8-2 1.4-3 1.9-.2.1-.5 0-.6-.2 0-.1 0-.1-.1-.2 0-.9 0-1.7.1-2.6 0-.9.1-1.8.4-2.6z"/><path class="st35" d="M145.8-132.7h17.8v18.8h-17.8z"/><path class="st16" d="M149-129.9s-.1-1.8-1.4-1.7c-1.3.1 1.4 1.7 1.4 1.7zM160.6-129.9s.1-1.8 1.4-1.7l-1.4 1.7zM160.6-116.7s.1 1.8 1.4 1.7l-1.4-1.7zM149-116.7s-.1 1.8-1.4 1.7c-1.3-.2 1.4-1.7 1.4-1.7z"/><path class="st4" d="M117.5-125s.6.8 2.7-.2"/><path class="st11" d="M117.5-105l-1.2-1.5h77l-1.2 1.5z"/><path class="st4" d="M171.7-43.9c0-13.8-7.6-22-17-22s-17 8.2-17 22v11h34v-11zM171.7-41.3c0-13.8-7.6-22-17-22s-17 8.2-17 22v11h34v-11z"/><path class="st2" d="M134.7-35.8s-.2-1.3-.3-3.7c-.1-2.4-.1-5.8.5-9.9.3-2 .8-4.2 1.6-6.4s1.9-4.5 3.6-6.5c1.6-2 3.8-3.8 6.3-4.9 2.5-1.2 5.3-1.7 8.1-1.8 2.8-.1 5.6.3 8.1 1.4 2.6 1 4.7 2.8 6.4 4.8 1.6 2 2.7 4.3 3.5 6.6.8 2.2 1.3 4.4 1.6 6.5.6 4.1.6 7.5.5 9.9-.1 2.4-.3 3.7-.3 3.7s.1-1.4.1-3.7c0-2.4-.1-5.8-.8-9.8-.4-2-.9-4.1-1.7-6.3-.8-2.2-2-4.3-3.5-6.3-1.6-1.9-3.6-3.5-6.1-4.5-2.4-1-5.1-1.3-7.8-1.2-2.7.1-5.3.6-7.7 1.7-2.4 1.1-4.4 2.7-6 4.6-1.6 1.9-2.7 4.1-3.6 6.2-.8 2.2-1.4 4.3-1.8 6.3-.7 4-.9 7.4-.9 9.8.1 2.1.2 3.5.2 3.5z"/><path class="st4" d="M111.7-76l86.6.1"/><path class="st36" d="M117.5-77.9l74.5-.1"/><path class="st16" d="M154.7-68.7v2.8M144.8-66l1.6 2.3M139.2-60l1.9 1.3M170.1-60l-1.8 1.3M173-52.7l-2.3.6M135.9-52.7l2.4.6M134.7-44.5l2.4.1M174.2-44.5l-2.4.1M164.3-66l-1.5 2.3"/><path class="st11" d="M192.5-59.5h3.7v5.5h-3.7zM198.7-50.5h-4.2l-2-3.5h3.7zM194.5-50.5h4.2v15.2h-4.2z"/><path class="st37" d="M171.6-43.2h27.1v1.8h-27.1z"/><path class="st11" d="M113-59.5h3.7v5.5h-3.7zM110.5-50.5h4.1l2-3.5h-3.6zM110.5-50.5h4.2v15.2h-4.2z"/><path class="st38" d="M110.5-43.2h27.1v1.8h-27.1z"/><path class="st11" d="M149-109.9h9.9v1.2h-9.9z"/><path class="st39" d="M144.8-133.6h20"/><path class="st11" d="M159.6-84.4h-10.6v-19.2l5.3-4.2 5.3 4.2z"/><path class="st2" d="M149-102.4c.8-.8 1.7-1.5 2.5-2.2l2.6-2.1c.1-.1.2-.1.3 0 .9.7 1.8 1.4 2.6 2.1.9.7 1.7 1.4 2.5 2.2-.9-.6-1.9-1.2-2.8-1.9-.9-.6-1.8-1.3-2.7-2h.3l-2.7 2c-.7.6-1.6 1.3-2.6 1.9z"/><path class="st40" d="M138.3-103.6h8.7v19.2h-8.7zM161.5-103.6h8.7v19.2h-8.7zM142.6-103.6v19.2M165.8-103.6v19.2M138.3-94h8.6M161.5-94h8.7"/><path class="st41" d="M145.8-82.6h17M164.3-82.6h5.9v2.5M144-82.6h-5.9v2.5"/><path class="st42" d="M146.9-82.6v2.5h14.6v-2.5"/><path class="st19" d="M151.9-84.4s.2-5.2 0-7.1c-.2-1.9-.8-3.7 0-5.4.8-1.8 1.6-2.8 1.3-3.8s-.5-2.8.9-2.9c1.4-.2 1.8 1.3 1.7 3.3-.2 2 1.4 1.6 1.4 6.3 0 3.2-.9 5.2-.2 9.6"/><path class="st2" d="M155.1-89.2s-.3.1-.6.3l-.3.2-.2.2v.7c0 .6-.1 1.2-.1 1.6 0 .4-.1.7-.1.7s-.1-.3-.2-.7c0-.2-.1-.5-.1-.8v-1.3c0-.1 0-.3.1-.5s.3-.3.4-.3c.1-.1.2-.1.4-.1.4-.1.7 0 .7 0zM151.6-85.5h-1.3c-.1 0-.2-.1-.2-.2l.2-16.7.2 16.7-.2-.2h1.3c.1 0 .3.1.3.2s-.1.2-.3.2zM157.2-86h1.3l-.2.2.2-16.7.2 16.7c0 .1-.1.2-.2.2h-1.3c-.1 0-.3-.1-.3-.2s.1-.2.3-.2zM124.4-89.2s0-.4-.1-1.1c0-.7-.1-1.7-.2-2.9 0-1.2-.1-2.6-.2-4v-.30000000000000004c0-.1 0-.1.1-.3.2-.4.4-.5.7-.6l.4-.1h6.899999999999998c.1 0 .3.1.4.2.2.1.2.2.3.4.1.3.2.6.1.8 0 1.5-.1 2.9-.2 4 0 1.2-.1 2.2-.2 2.9-.1.7-.1 1.1-.1 1.1s0-.4-.1-1.1c0-.7-.1-1.7-.2-2.9 0-1.2-.1-2.6-.2-4 0-.2 0-.3-.1-.3 0 0 0-.1-.1-.1h-6.999999999999999.1c-.1 0-.1.1-.1.1v.4-.1c0 1.5-.1 2.9-.2 4 0 1.2-.1 2.2-.2 2.9.2.6.2 1 .2 1zM177-89.2s0-.4-.1-1.1c0-.7-.1-1.7-.2-2.9 0-1.2-.1-2.6-.2-4v-.30000000000000004c0-.1 0-.1.1-.3.2-.4.4-.5.7-.6l.4-.1h6.899999999999998c.1 0 .3.1.4.2.2.1.2.2.3.4.1.3.2.6.1.8 0 1.5-.1 2.9-.2 4 0 1.2-.1 2.2-.2 2.9-.1.7-.1 1.1-.1 1.1s0-.4-.1-1.1c0-.7-.1-1.7-.2-2.9 0-1.2-.1-2.6-.2-4 0-.2 0-.3-.1-.3 0 0 0-.1-.1-.1h-6.999999999999999.1c-.1 0-.1.1-.1.1v.4-.1c0 1.5-.1 2.9-.2 4 0 1.2-.1 2.2-.2 2.9.3.6.2 1 .2 1z"/><path class="st10" d="M118.9-66h19.2"/><path class="st2" d="M118.9-66s1.2-.1 3-.1c.9 0 2-.1 3.1-.1h7c1.1 0 2.2.1 3.1.1 1.8.1 3 .1 3 .1s-1.2.1-3 .1c-.9 0-2 .1-3.1.1h-7c-1.1 0-2.2-.1-3.1-.1-1.8 0-3-.1-3-.1z"/><path class="st10" d="M119.9-57.5h15.8"/><path class="st2" d="M119.9-57.5s1-.1 2.5-.1c.7 0 1.6-.1 2.5-.1h5.8c.9 0 1.8.1 2.5.1 1.5.1 2.5.1 2.5.1s-1 .1-2.5.1c-.7 0-1.6.1-2.5.1h-5.8c-.9 0-1.8-.1-2.5-.1-1.5 0-2.5-.1-2.5-.1z"/><path class="st10" d="M119.9-70.3h24.9"/><path class="st2" d="M119.9-70.3s1.6-.1 3.9-.1c1.2 0 2.5 0 4-.1h9.2c1.5 0 2.8.1 4 .1 2.3.1 3.9.1 3.9.1s-1.6.1-3.9.1c-1.2 0-2.5 0-4 .1h-9.2c-1.5 0-2.8-.1-4-.1-2.3 0-3.9-.1-3.9-.1z"/><path class="st10" d="M166.8-70.3h25"/><path class="st2" d="M166.8-70.3s1.6-.1 3.9-.1c1.2 0 2.5 0 4-.1h9.2c1.5 0 2.8.1 4 .1 2.3.1 3.9.1 3.9.1s-1.6.1-3.9.1c-1.2 0-2.5 0-4 .1h-9.2c-1.5 0-2.8-.1-4-.1-2.3 0-3.9-.1-3.9-.1z"/><path class="st10" d="M175.1-57.3h15.9"/><path class="st2" d="M175.1-57.3s1-.1 2.5-.1c.7 0 1.6-.1 2.5-.1h5.8c.9 0 1.8.1 2.5.1 1.5.1 2.5.1 2.5.1s-1 .1-2.5.1c-.7 0-1.6.1-2.5.1h-5.8c-.9 0-1.8-.1-2.5-.1-1.5 0-2.5-.1-2.5-.1z"/><path class="st10" d="M172-66h19.6"/><path class="st2" d="M172-66s1.2-.1 3.1-.1c.9 0 2-.1 3.2-.1h7.2c1.2 0 2.2.1 3.2.1 1.8.1 3.1.1 3.1.1s-1.2.1-3.1.1c-.9 0-2 .1-3.2.1h-7.2c-1.2 0-2.2-.1-3.2-.1-1.9 0-3.1-.1-3.1-.1z"/><path class="st10" d="M116.4-61.8h22.2"/><path class="st2" d="M116.4-61.8s1.4-.1 3.5-.1c1 0 2.3 0 3.6-.1h8.2c1.3 0 2.5.1 3.6.1 2.1.1 3.5.1 3.5.1s-1.4.1-3.5.1c-1 0-2.3.1-3.6.1h-8.2c-1.3 0-2.5-.1-3.6-.1-2.1-.1-3.5-.1-3.5-.1z"/><path class="st10" d="M172-61.8h22.1"/><path class="st2" d="M172-61.8s1.4-.1 3.5-.1c1 0 2.3 0 3.6-.1h8.2c1.3 0 2.5.1 3.6.1 2.1.1 3.5.1 3.5.1s-1.4.1-3.5.1c-1 0-2.3.1-3.6.1h-8.2c-1.3 0-2.5-.1-3.6-.1-2.1-.1-3.5-.1-3.5-.1z"/><path class="st43" d="M127.5-66v4.2M131.7-61.7v4M131.7-70.3v4.3M124.4-70.1v3.8M122.8-61.7v4M188.2-61.7v4.2M184.1-65.9v4.1M178.9-61.7v4.2M178.9-69.9v3.6M186.7-69.9v3.6"/><path class="st2" d="M139.2-53.3s.2-.6.8-1.6c.5-1 1.4-2.4 2.6-3.9.6-.7 1.4-1.5 2.2-2.2l1.3-1.1c.5-.3 1-.6 1.5-1 .5-.3 1.1-.6 1.7-.8l1.8-.6 1.9-.4c.6 0 1.3-.1 2-.1l1.9.2c.6.1 1.3.2 1.9.4.6.2 1.2.4 1.8.7.6.3 1.1.5 1.6.9 1 .6 2 1.4 2.8 2.1.8.8 1.5 1.6 2.1 2.3.6.8 1.1 1.5 1.5 2.2.4.7.7 1.3.9 1.8.5 1 .7 1.6.7 1.6s-.2-.6-.7-1.6c-.2-.5-.6-1.1-1-1.8s-.9-1.4-1.5-2.2c-.6-.8-1.3-1.6-2.1-2.3-.8-.8-1.7-1.5-2.8-2.1l-1.6-.8-1.8-.6c-.6-.2-1.2-.3-1.9-.4-.6-.1-1.3-.1-1.9-.1l-1.9.1c-.6 0-1.3.2-1.9.3l-1.8.6-1.7.8c-.5.3-1 .6-1.5 1s-.9.7-1.3 1.1c-.8.7-1.6 1.5-2.2 2.2-1.3 1.5-2.1 2.8-2.7 3.8-.4.9-.7 1.5-.7 1.5z"/><circle class="st5" cx="139.2" cy="-123.7" r="2.2"/><circle class="st5" cx="169.4" cy="-123.7" r="2.2"/><circle class="st6" cx="138.2" cy="-66.6" r="2.2"/><circle class="st6" cx="170.4" cy="-66.6" r="2.2"/><path class="st1" d="M126-92c.4-.8.7-1.8.7-2.8 0-3.3-2.7-6-6-6-1.1 0-2.1.3-2.9.8v-.8c0-5.8-4.7-10.5-10.5-10.5s-10.5 4.7-10.5 10.5c0 1 .2 2.1.4 3h-.2c-3.7 0-6.7 3-6.7 6.7 0 3.1 2.1 5.7 4.9 6.5-.7 1.5-1.1 3.2-1.1 4.9 0 1.6.3 3.1.9 4.5-.9 1.5-1.4 3.3-1.4 5.1 0 5.6 4.6 10.2 10.2 10.2 1.8 0 3.6-.5 5.1-1.4 1.2 2 3.4 3.4 5.9 3.4 3.8 0 7-3.1 7-7 0-1.3-.4-2.5-1-3.5h1c6.8 0 12.2-5.5 12.2-12.2 0-5.2-3.3-9.6-8-11.4zM110.1-75.8s3.5 19.2-2.2 43h9.8c-4.2-21.8-2.5-45-2.5-45"/><path class="st2" d="M106.4-74.7c.8-.1 1.6-.3 2.2-.7.3-.2.7-.4.9-.6.1-.1.3-.2.4-.4l.4-.4.7-.9.6-1 .5-1c.1-.4.2-.7.4-1.1l.5-1.4.5 1.4c.1.2.2.5.3.8l.2.4.3.4.6.7.3.3.4.3c.3.2.5.4.8.5.3.1.6.3.8.4.3.2.6.2.9.3l.9.3c-.3 0-.6 0-1-.1-.3 0-.7 0-1-.1-.3-.1-.6-.2-1-.3-.2 0-.3-.1-.5-.2l-.4-.3-.4-.3-.4-.3c-.3-.2-.5-.4-.7-.7l-.3-.4-.3-.4c-.2-.3-.3-.6-.5-1h.9c-.1.4-.2.8-.4 1.2-.2.4-.3.8-.5 1.1-.2.4-.4.7-.7 1.1-.2.3-.5.7-.8 1-.1.2-.3.3-.5.4l-.5.4c-.4.2-.7.4-1.1.5-.4.2-.8.2-1.2.3-.5-.1-.9-.1-1.3-.2z"/><path class="st10" d="M94.2-77.7s.9 3.7 3.1 4.4"/><path class="st2" d="M94.7-77.8s0 .3.2.8c.1.5.3 1.1.6 1.7.1.3.3.6.5.9.2.3.4.5.6.7.2.2.4.3.5.4.1.1.2.1.2.1s-.1 0-.2-.1c-.2 0-.3-.1-.6-.3-.2-.1-.5-.3-.7-.6-.2-.2-.5-.5-.7-.8-.4-.6-.8-1.2-1-1.7-.2-.5-.4-.8-.4-.8l1-.3z"/><path class="st10" d="M117.7-102.2s.3 2.9-1.6 5.2"/><path class="st2" d="M118.2-102.3s0 .4-.1.9c0 .3-.1.6-.2.9l-.3 1c-.1.3-.3.7-.5.9-.2.3-.3.6-.5.8-.3.4-.6.7-.6.7s.2-.3.4-.7c.1-.2.2-.5.3-.8.1-.3.2-.6.3-1 .1-.3.1-.7.1-1v-.9c0-.5-.1-.8-.1-.8h1.2z"/><path class="st10" d="M124.3-68.5s-4.8.9-5.4-1.5"/><path class="st2" d="M124.4-68s-1.6.2-3.1-.2c-.4-.1-.8-.2-1.1-.4l-.5-.3-.4-.3c-.1-.1-.2-.2-.2-.3-.1-.1-.1-.2-.1-.3 0-.2-.1-.3-.1-.3s0 .1.1.2c0 .1.1.2.2.2.1.1.1.2.3.3.1.1.2.2.4.2.1.1.3.1.5.2.3.1.7.1 1.1.2.7 0 1.5-.1 2-.1.6-.1.9-.2.9-.2v1.1z"/><path class="st34" d="M111.7-77.9c3.4 31.5-3 45.1-3 45.1"/><path class="st44" d="M323.3 149.2"/><path class="st45" d="M545.8 225c-2 0-3.6-1.6-3.6-3.6 0-.7.2-1.3.5-1.8h-.5c-3.5 0-6.4-2.9-6.4-6.4 0-2.7 1.7-5.1 4.2-6-.2-.4-.4-.9-.4-1.5 0-1.7 1.4-3.1 3.1-3.1.6 0 1.1.1 1.5.4v-.4c0-3 2.5-5.5 5.5-5.5s5.5 2.5 5.5 5.5c0 .5-.1 1.1-.2 1.6h.1c1.9 0 3.5 1.6 3.5 3.5 0 1.6-1.1 3-2.5 3.4.4.8.6 1.6.6 2.6 0 .8-.2 1.6-.5 2.3.5.8.7 1.7.7 2.7 0 2.9-2.4 5.3-5.3 5.3-1 0-1.9-.3-2.6-.7-.3.4-.6.8-1.1 1.1M544.4 238.1c2.2-11.4 1.3-23.5 1.3-23.5M548.3 215.6s-1.8 10.1 1.2 22.5"/><path class="st10" d="M550.2 216.2c-.2.1-.4.1-.6.1-.2 0-.4 0-.7-.1-.2 0-.4-.2-.6-.3l-.6-.4c-.2-.1-.3-.3-.5-.5l-.4-.6-.3-.6c-.1-.2-.2-.4-.2-.6h.9l-.3.6c-.1.2-.2.3-.4.5-.1.2-.3.3-.4.4-.1.1-.3.2-.5.3-.2.1-.3.2-.5.2s-.4.1-.5.1h-1c.2-.1.3-.2.5-.2l.4-.2c.1-.1.3-.2.4-.2.1-.1.2-.2.4-.3l.3-.3.3-.3c.1-.1.2-.2.2-.4.1-.1.1-.3.2-.3l.4-1.3.5 1.3c.1.2.2.4.2.5.1.2.1.4.2.5l.3.5.3.5c.1.1.2.3.4.4l.4.4.5.3c.3-.1.5-.1.7 0zM556.6 214.6s-.5 1.9-1.6 2.3"/><path class="st10" d="M557 214.8l-.2.4c-.1.3-.4.6-.6.9-.1.2-.3.3-.4.4-.2.1-.3.2-.4.3-.3.1-.4.2-.4.2s.1-.1.4-.3c.1-.1.2-.2.3-.4.1-.2.2-.3.2-.5.1-.3.2-.7.2-.9 0-.2.1-.4.1-.4l.8.3zM544.3 201.8s-.2 1.5.8 2.7"/><path class="st10" d="M544.8 201.8s0 .1-.1.4c0 .2-.1.6 0 .9 0 .2 0 .3.1.5s.1.3.1.4l.2.4-.3-.3c-.1-.1-.2-.2-.3-.4-.1-.1-.2-.3-.3-.5-.2-.4-.3-.7-.3-1-.1-.3-.1-.5-.1-.5l1 .1zM541.6 219.5s1.9 0 2.1-.9"/><path class="st10" d="M541.6 219s.1 0 .3.1c.2 0 .5.1.8 0 .3 0 .6-.1.7-.2.2-.1.2-.3.2-.3s0 .2-.1.4-.4.4-.7.6c-.3.2-.6.3-.8.3-.2.1-.4.1-.4.1v-1z"/><path class="st46" d="M547.4 214.5c-1.8 16.5 1.6 23.6 1.6 23.6M306.3 214.5c1.8 16.5-1.9 22.4-1.9 22.4"/><path class="st47" d="M426.8 192.8l-9.1 1.8-46.6-3.2-54-14.9.1-2.9 53.9 15.2 46.5 3.5 9.1-1.7z"/><path class="st48" d="M321.1 177.9v2.4l50 13.6 46.6 3 5.8-1.2v-2.1"/><path class="st10" d="M321.1 178.9l12.5 3.3 12.6 3.4 25 6.7h-.1l23.3 1.5 11.7.8 11.6.9 5.8-1.2-5.8 1.3-11.7-.7-11.6-.7-23.3-1.4-25-6.9-12.5-3.5z"/><path class="st48" d="M322.7 180.9v49.3"/><path class="st46" d="M330 182.8v43.2M347.9 187.5v38.8M370.7 193.9v32.7"/><path class="st45" d="M421.8 196.1v14.9"/><path class="st47" d="M416.3 236.7v-14.2h-34.3v-11.5h79.5v25.7"/><path class="st10" d="M382 212.1s5-.1 12.4-.1 17.4-.1 27.3-.1c9.9 0 19.9.1 27.3.1 7.4.1 12.4.1 12.4.1s-5 .1-12.4.1-17.4.1-27.3.1c-9.9 0-19.9-.1-27.3-.1-7.4 0-12.4-.1-12.4-.1z"/><path class="st48" d="M421.8 199.6s22.5-1.4 23.1 1.8c.5 2.6.4 9.2.4 9.2"/><path class="st45" d="M421.8 200.9s22.5-1.4 23.1 1.8"/><path class="st49" d="M421.8 206s22-1.1 23.5 1.5"/><path class="st46" d="M370.7 193.9h-48M421.8 202h-99.1M421.8 210.2h-99.1M382 218.3h-59.3M416.3 234.6h-31.9"/><circle class="st50" cx="400.3" cy="219" r="1.4"/><path class="st50" d="M429.3 221.4c0 1.3-1.1 3.8-2.4 3.8-1.3 0-2.4-2.5-2.4-3.8h4.8zM426.9 225.2v11.5"/><path class="st50" d="M472.6 218.9c0 1.3-1.1 3.8-2.4 3.8-1.3 0-2.4-2.5-2.4-3.8h4.8zM470.2 222.7v14.7"/><path class="st50" d="M497.8 218.9c0 1.3-1.1 3.8-2.4 3.8-1.3 0-2.4-2.5-2.4-3.8h4.8zM495.4 222.7v14.7"/><path class="st50" d="M522.5 218.9c0 1.3-1.1 3.8-2.4 3.8-1.3 0-2.4-2.5-2.4-3.8h4.8zM520.1 222.7v14.7"/><path class="st47" d="M541.1 219.9v17.9M461.5 215.3h74.3M541.1 219.4M461.5 216.5h75"/><path class="st50" d="M461.5 224.8h75c3.7 0 4.6 0 4.6 2.5M392.7 222.5v14.2"/><path class="st10" d="M391.9 222.5s.1.9.1 2.2c.1 1.3.1 3.1.1 4.9 0 1.8 0 3.5-.1 4.9-.1 1.3-.1 2.2-.1 2.2s-.1-.9-.1-2.2c-.1-1.3-.1-3.1-.1-4.9 0-1.8.1-3.5.1-4.9 0-1.3.1-2.2.1-2.2zM408.7 222.5s.1.9.1 2.2c.1 1.3.1 3.1.1 4.9 0 1.8 0 3.5-.1 4.9-.1 1.3-.1 2.2-.1 2.2s-.1-.9-.1-2.2c-.1-1.3-.1-3.1-.1-4.9 0-1.8.1-3.5.1-4.9 0-1.3.1-2.2.1-2.2z"/><path class="st50" d="M407.8 222.5v14.2M392.7 229.6h15.1"/><path class="st51" d="M383.3 229.2h8.6M408.7 229.2h7.6"/><path class="st52" d="M400.3 222.5v14.2"/><path class="st48" d="M312.4 170.6h17.6"/><path class="st50" d="M478.9 237.4v-11.3h9.8v11.3M479.1 227h8.7v9.3M483.4 227v9.6M461.5 230.4h17.4M461.6 231.3h17.3"/><ellipse class="st50" cx="483.4" cy="222.3" rx=".6" ry="1.1"/><path class="st50" d="M502.9 237.4v-11.3h9.8v11.3M503.1 227h8.7v9.3M507.4 227v9.6M528.4 237.4v-11.3h5.4v11.3M528.6 227h4.3v9.3"/><ellipse class="st50" cx="507.5" cy="222.3" rx=".6" ry="1.1"/><ellipse class="st50" cx="530.7" cy="222.3" rx=".6" ry="1.1"/><path class="st50" d="M533.8 230.4h1.5c1.5 0 5 0 5.8.5M512.7 230.4h15.6M488.7 230.4h14M533.8 231.3h1.5c1.6 0 4.9 0 5.8.6M512.8 231.3h15.5M488.7 231.3h14.2"/><path class="st10" d="M453.6 220.8s-.1.1-.4.2c-.3.1-.7.1-1.1.1h-.7c-.2 0-.5.1-.8.1h-.9c-.3 0-.7-.2-.9-.2-.1 0-.2-.1-.3 0l-.4.1c-.3.1-.6.1-.8.1l-.4.1c-.2 0-.3 0-.4.1h-.8c-.9-.1-1.5-.3-1.5-.3h.4c.3 0 .6 0 1.1-.1.2 0 .5 0 .7-.1l.4-.1.4-.1.9-.2.4-.1h.6c.3.1.6.2.8.2h.8l.8-.1c.3 0 .6.1.8.1.4.1.8.2 1 .3.1-.1.3-.1.3-.1zM455 215.8s-.1.2-.4.4c-.3.2-.8.4-1.4.4-.3 0-.7-.1-1-.2-.3-.1-.6-.1-.9 0-.4.1-.7.2-1.2.2h-.6c-.2 0-.4 0-.6-.1h-1.1c-.3.1-.5.3-1.1.4-.6.1-.9-.3-1.2-.5l-.2-.1h-.2c-.2-.1-.3-.1-.4-.1-.6-.1-1.1-.1-1.4-.1h-.6s.2-.1.5-.1c.3-.1.8-.2 1.5-.2h.6l.2.1.3.1c.3.2.6.3.8.3l1-.4c.5-.1.9-.1 1.3-.1.2 0 .4 0 .6.1h.5c.3 0 .7 0 1.1-.1.4 0 .9 0 1.2.2.3.2.6.2.8.3.6.1 1 0 1.3-.2l.6-.3zM457.8 218.3s-.3 0-.8.1c-.5 0-1.3.2-2.1.4-.4.1-.9.2-1.5.3-.5.1-1.1.1-1.7 0-.6-.1-1.2-.3-1.7-.3-.3-.1-.5-.1-.8 0l-.9.2c-.6.1-1.2.2-1.8.2-.6 0-1.3-.1-1.8-.2s-1.1-.2-1.6-.2h-1.4c-.4.1-.9.2-1.2.1-.4 0-.7 0-1-.1-.5-.1-.8-.2-.8-.2h.8c.3 0 .6 0 .9-.1.3-.1.7-.2 1.2-.3.9-.2 2.1-.2 3.2 0 .6.1 1.1.2 1.7.2.6 0 1.1-.1 1.7-.2l.9-.1c.4-.1.7 0 1 0 .6.1 1.2.3 1.7.4.5.1 1.1.1 1.6.1s1-.1 1.4-.2c.9-.2 1.7-.1 2.2-.1.5-.1.8 0 .8 0z"/><path class="st46" d="M329.6 226.4h-6.9M347.4 226.4h-15.2M357.1 226.4h-5.1M374.9 226.4h-15M382.5 226.4h-2.8"/><path class="st48" d="M382.5 222.5v5.7"/><path class="st45" d="M320.3 236.4v-3.6c0-1.5 1.2-2.6 2.6-2.6.2 0 .5 0 .7.1.7-1.4 2.1-2.3 3.8-2.3.3 0 .6 0 .9.1.3-1.2 1.4-2.1 2.6-2.1 1.3 0 2.3.9 2.6 2l.6-.1c.8 0 1.5.3 2 .7.4-1.2 1.6-2.1 3-2.1.7 0 1.4.3 1.9.7.8-.6 1.8-.9 2.8-.9 1.1 0 2.1.4 2.9 1 .5-1.1 1.6-1.8 2.9-1.8 1 0 1.9.5 2.5 1.3.4-.1.9-.2 1.4-.2 1 0 1.9.3 2.7.8.5-.8 1.3-1.4 2.4-1.4 1.3 0 2.3.9 2.6 2l.6-.1c.8 0 1.5.3 2 .7.4-1.2 1.6-2.1 3-2.1.7 0 1.4.3 1.9.7.8-.6 1.8-.9 2.8-.9 1.1 0 2.1.4 2.9 1 .5-1.1 1.6-1.8 2.9-1.8 1.2 0 2.2.6 2.7 1.6h.4c1.5 0 2.7 1.2 2.7 2.7v.2c.8.6 1.3 1.5 1.3 2.5v4.9M344.9 236.7v-5.4c0-.9.7-1.6 1.6-1.6.9 0 1.6.7 1.6 1.6v5.4"/><path class="st46" d="M347.1 233.2c0 .3-.3.6-.6.6s-.6-.3-.6-.6v-.8c0-.3.3-.6.6-.6s.6.3.6.6v.8z"/><path class="st10" d="M352.5 227.1s-.1 0-.2.1-.3.2-.5.3c-.4.3-.6.7-.6.7v-.3c0-.2.1-.5.2-.7.1-.3.2-.5.4-.7l.2-.3.5.9zM328.8 227.8s-.1.1-.1.2c-.1.1-.1.4-.2.6-.1.5.1 1 .1 1l-.2-.2c-.1-.1-.3-.4-.4-.6-.1-.3-.2-.5-.2-.8v-.4l1 .2zM320.8 232.2l-.1.3v.6l.2.3c.1.1.2.2.3.2.2.1.3.1.3.1h-.4c-.1 0-.2 0-.4-.1-.2 0-.3-.2-.4-.3-.2-.3-.4-.6-.4-.8l-.1-.3v-.1l1 .1zM383.6 229.8s-.1.2-.2.3c-.1.2-.3.4-.5.6-.2.2-.4.3-.6.4-.2.1-.3.1-.3.1s.4-.4.5-.8c.1-.2.1-.4.1-.6v-.3l1 .3z"/><path class="st48" d="M312.4 202.9v-33.8h17.6v7.6M312.4 236.7v-17"/><path class="st45" d="M307.9 225c2 0 3.6-1.6 3.6-3.6 0-.7-.2-1.3-.5-1.8h.5c3.5 0 6.4-2.9 6.4-6.4 0-2.7-1.7-5.1-4.2-6 .2-.4.4-.9.4-1.5 0-1.7-1.4-3.1-3.1-3.1-.6 0-1.1.1-1.5.4v-.4c0-3-2.5-5.5-5.5-5.5s-5.5 2.5-5.5 5.5c0 .5.1 1.1.2 1.6h-.1c-1.9 0-3.5 1.6-3.5 3.5 0 1.6 1.1 3 2.5 3.4-.4.8-.6 1.6-.6 2.6 0 .8.2 1.6.5 2.3-.5.8-.7 1.7-.7 2.7 0 2.9 2.4 5.3 5.3 5.3 1 0 1.9-.3 2.6-.7.3.5.7.9 1.3 1.2M309.4 237.1c-2.2-11.4-1.3-22.5-1.3-22.5M305.5 215.6s1.8 9-1.2 21.4"/><path class="st10" d="M303.6 216.2l.6-.2c.2-.1.4-.2.5-.3.2-.1.3-.2.4-.4l.4-.4c.1-.1.2-.3.3-.5l.3-.5c.1-.2.1-.4.2-.5.1-.2.1-.4.2-.5l.5-1.3.4 1.3c0 .1.1.2.2.3.1.1.1.2.2.4l.3.3.3.3c.1.1.2.2.4.3.1.1.3.2.4.2l.4.2.5.2h-1l-.5-.1c-.2 0-.3-.1-.5-.2l-.5-.3c-.1-.1-.3-.2-.4-.4-.1-.1-.3-.3-.4-.5-.1-.2-.2-.3-.3-.6h.9l-.2.6-.3.6-.4.6c-.1.2-.3.4-.5.5-.2.1-.3.3-.6.4l-.6.3c-.2 0-.4.1-.7.1-.1.2-.3.2-.5.1zM297.7 214.5s0 .2.1.4c0 .3.1.6.2.9l.2.5.3.4c.2.2.4.3.4.3l-.4-.2-.4-.3-.4-.4c-.3-.3-.5-.6-.6-.9-.1-.3-.2-.5-.2-.4l.8-.3zM310 201.7s0 .2-.1.5l-.3 1c-.1.2-.2.4-.3.5l-.3.4-.3.3.2-.4c.1-.1.1-.3.1-.4.1-.2.1-.3.1-.5v-.9c0-.3-.1-.4-.1-.4l1-.1zM312.3 220s-.2 0-.5-.1l-1-.3-.5-.3-.3-.4c-.1-.3-.1-.4-.1-.4s.1.2.2.3c.1.1.2.2.4.2.1.1.3.1.5.1h.9c.2 0 .4-.1.4-.1v1z"/><path class="st45" d="M556.8 214c12.5.6 25.6 1.6 45.1-.9M445.4 209.1c22.8-2 27.8-3.5 51.5-2.9 15.3.4 27.4 3 39.2 5M297.2 221.1c-29.3 1.2-43-11.8-99-2.6-51.8 8.5-88.4.7-88.4.7-63.3-13.1-134.5 5.8-134.5 5.8"/><path class="st4" d="M31.5 73.3v37.9c0 .7.6 1.3 1.3 1.3.7 0 1.3-.6 1.3-1.3v-37.9M72 73.3v37.9c0 .7.6 1.3 1.3 1.3.7 0 1.3-.6 1.3-1.3v-37.9M132.2 73.3v37.9c0 .7.6 1.3 1.3 1.3.7 0 1.3-.6 1.3-1.3v-37.9M172.5 73.3v37.9c0 .7.6 1.3 1.3 1.3s1.3-.6 1.3-1.3v-37.9"/><path class="st4" d="M31.7 13.5c0 6.8-5.5 12.2-12.2 12.2s-12.3-5.4-12.3-12.2h24.5zM14.9 25.2s.2 2.8 3.2 2.8h1.9c3 0 3.2-2.8 3.2-2.8M18.2 28v76.5c0 2.1-1.7 3.8-3.8 3.8h-.1c-1.5 0-2.7 1.2-2.7 2.7 0 0-.1 1.5 7.5 1.5l7.5-1.5c0-1.5-1.2-2.7-2.7-2.7h-.1c-2.1 0-3.8-1.7-3.8-3.8v-76.5"/><path class="st4" d="M566 13.5c0 6.8-5.5 12.2-12.2 12.2s-12.2-5.5-12.2-12.2h24.4zM549.2 25.2s.2 2.8 3.2 2.8h1.8c3 0 3.2-2.8 3.2-2.8M552.5 28v76.5c0 2.1-1.7 3.8-3.8 3.8h-.1c-1.5 0-2.7 1.2-2.7 2.7 0 0-.1 1.5 7.5 1.5s7.5-1.5 7.5-1.5c0-1.5-1.2-2.7-2.7-2.7h-.2c-2.1 0-3.8-1.7-3.8-3.8v-76.5M269.8 73.3v37.9c0 .7.6 1.3 1.3 1.3s1.3-.6 1.3-1.3v-37.9M326.1 73.3v37.9c0 .7.6 1.3 1.3 1.3.7 0 1.3-.6 1.3-1.3v-37.9M364.9 73.4v37.9c0 .7.6 1.3 1.3 1.3s1.3-.6 1.3-1.3v-37.9"/><path class="st4" d="M268.5 69h100v4.3h-100zM272.6 81.8h53.5M328.8 73.3v25h36.1"/><path class="st2" d="M329.8 85.8s2.1-.1 5.4-.2c1.6 0 3.5-.1 5.5-.1h12.6c2 0 3.9.1 5.5.1 3.2.1 5.4.2 5.4.2s-2.1.1-5.4.2c-1.6 0-3.5.1-5.5.1h-12.6c-2 0-3.9-.1-5.5-.1-3.2-.1-5.4-.2-5.4-.2z"/><path class="st4" d="M352.5 80.3h-10.8c-.3 0-.6-.3-.6-.6v-.6c0-.3.3-.6.6-.6h10.8c.3 0 .6.3.6.6v.6c0 .4-.3.6-.6.6zM352.5 92.8h-10.8c-.3 0-.6-.3-.6-.6v-.6c0-.3.3-.6.6-.6h10.8c.3 0 .6.3.6.6v.6c0 .4-.3.6-.6.6zM538 73.3v37.9c0 .7-.6 1.3-1.3 1.3s-1.3-.6-1.3-1.3v-37.9M481.7 73.3v37.9c0 .7-.6 1.3-1.3 1.3s-1.3-.6-1.3-1.3v-37.9M442.9 73.4v37.9c0 .7-.6 1.3-1.3 1.3-.7 0-1.3-.6-1.3-1.3v-37.9"/><path class="st4" d="M439.3 69h100v4.3h-100zM535.2 81.8h-53.5M479 73.3v25h-36.1"/><path class="st2" d="M478 85.8s-2.1.1-5.4.2c-1.6 0-3.5.1-5.5.1h-12.6c-2 0-3.9-.1-5.5-.1-3.2-.1-5.4-.2-5.4-.2s2.1-.1 5.4-.2c1.6 0 3.5-.1 5.5-.1h12.6c2 0 3.9.1 5.5.1 3.2 0 5.4.2 5.4.2z"/><path class="st4" d="M455.4 80.3h10.8c.3 0 .6-.3.6-.6v-.6c0-.3-.3-.6-.6-.6h-10.8c-.3 0-.6.3-.6.6v.6c-.1.4.2.6.6.6zM455.4 92.8h10.8c.3 0 .6-.3.6-.6v-.6c0-.3-.3-.6-.6-.6h-10.8c-.3 0-.6.3-.6.6v.6c-.1.4.2.6.6.6zM324.4 63.2h-43.1c-.4 0-.7-.3-.7-.7v-27.5c0-.4.3-.7.7-.7h44.4c.4 0 .7.3.7.7v24.6"/><path class="st16" d="M280.6 37h45.9M280.6 58h45.9"/><circle class="st16" cx="303.6" cy="60.5" r=".8"/><path class="st4" d="M301.2 63.2s.6 5.8-2 5.8M306 63.2s-.6 5.8 2 5.8"/><path class="st3" d="M304.4 40.4h20.5v15.8h-20.5z"/><path class="st16" d="M304.4 38.6h20.5v17.7h-20.5z"/><path class="st10" d="M315.6 43.6l.2 2.9 2.8.7-2.7 1.1.2 2.9-1.9-2.2-2.6 1.1 1.5-2.5-1.9-2.2 2.8.7z"/><path class="st16" d="M283.2 39.8h18.5M283.2 41h12.4M283.2 44.4h14.1M283.2 45.5h12.4M283.2 47.8h12.4M283.2 46.6h16.4M283.2 48.9h14.1M283.2 50h12.4M283.2 52.3h12.4M283.2 51.2h16.4M283.2 42.1h1.1M283.2 43.2h1.1M283.2 53.4h1.1M283.2 54.6h1.1M283.2 55.7h1.1"/><path class="st4" d="M537.1 63.2h-44.4c-.4 0-.7-.3-.7-.7v-27.5c0-.4.3-.7.7-.7h44.4c.4 0 .7.3.7.7v27.5c.1.4-.2.7-.7.7z"/><path class="st16" d="M492 37h45.9M492 58h45.9"/><circle class="st16" cx="514.9" cy="60.5" r=".8"/><path class="st4" d="M512.5 63.2s.6 5.8-2 5.8M517.3 63.2s-.6 5.8 2 5.8"/><path class="st4" d="M334.9 32.1c0-5.1 4.2-9.3 9.3-9.3s9.3 4.2 9.3 9.3h-18.6zM347.3 23.3s-.2-2.1-2.5-2.1h-1.3c-2.3 0-2.5 2.1-2.5 2.1M344.9 21.2v-2.7c0-2.3 1.8-4 4.1-4h4.9c2.3 0 4.1 1.7 4.1 4v43.9c0 2.1-1.7 3.8-3.8 3.8h-.1c-1.5 0-2.7 1.2-2.7 2.7M343.2 21.2v-2.9c0-3 2.4-5.4 5.4-5.4h5.8c3 0 5.4 2.4 5.4 5.4v44.2c0 2.1 1.7 3.8 3.8 3.8h.1c1.5 0 2.7 1.2 2.7 2.7"/><path class="st4" d="M228.2 112.5h-16.9c-1.2 0-2.2-1-2.2-2.2v-42.1c0-1.2 1-2.2 2.2-2.2h16.9c1.2 0 2.2 1 2.2 2.2v42.1c0 1.3-1 2.2-2.2 2.2zM211 70h17.5v25.5h-17.5z"/><path class="st5" d="M211 75.6h17.5M211 82.4h17.5M211 89.3h17.5"/><circle class="st4" cx="219.8" cy="106.6" r="1.2"/><path class="st5" d="M212.8 99.5h13.9M212.8 101.3h13.9M212.8 103h13.9M220.9 75.6v-1.6h7.6M220.9 95.5v-1.6h7.6M220.9 82.4v-1.6h7.6M220.9 89.1v-1.6h7.6"/><path class="st4" d="M254.3 112.5h-16.9c-1.2 0-2.2-1-2.2-2.2v-42.1c0-1.2 1-2.2 2.2-2.2h16.9c1.2 0 2.2 1 2.2 2.2v42.1c0 1.3-1 2.2-2.2 2.2zM237.1 70h17.5v25.5h-17.5z"/><path class="st5" d="M237.1 75.6h17.4M237.1 82.4h17.4M237.1 89.3h17.4"/><circle class="st4" cx="245.8" cy="106.6" r="1.2"/><path class="st5" d="M238.8 99.5h14M238.8 101.3h14M238.8 103h14M247 75.6v-1.6h7.5M247 95.5v-1.6h7.5M247 82.4v-1.6h7.5M247 89.1v-1.6h7.5"/><path class="st4" d="M204.7 42.5h54.8v3.9h-54.8zM212.7 46.4l2.5 4.6v-4.6M252 46.4l-2.5 4.6v-4.6"/><path class="st4" d="M225.461 42.096l-4.109-.87 3.604-17.022 4.109.87z"/><path class="st16" d="M227 25.2l-3.6 16.6"/><path class="st4" d="M244.4 20h8.5v22.3h-8.5zM236 20h8.5v22.3h-8.5zM229 22.3h7v20.1h-7z"/><circle class="st16" cx="248.6" cy="38.2" r="1.1"/><circle class="st16" cx="240.2" cy="38.2" r="1.1"/><path class="st16" d="M236 24.5s-2.5.6-7 0"/><path class="st2" d="M204.7 44.5s3.4-.1 8.6-.1c2.6 0 5.6 0 8.8-.1h20.2c3.2 0 6.2.1 8.8.1 5.1.1 8.6.1 8.6.1s-3.4.1-8.6.1c-2.6 0-5.6 0-8.8.1h-20.2c-3.2 0-6.2-.1-8.8-.1-5.2-.1-8.6-.1-8.6-.1z"/><path class="st4" d="M86.5 63.2h-39.8c-.4 0-.7-.3-.7-.7v-6.9M46 38.5v-3.5c0-.4.3-.7.7-.7h44.4c.4 0 .7.3.7.7v13.9"/><path class="st16" d="M46 37h45.9M46 58h41.1"/><circle class="st16" cx="68.9" cy="60.5" r=".8"/><path class="st4" d="M66.5 63.2s.6 5.8-2 5.8M71.3 63.2s-.6 5.8 2 5.8"/><path class="st53" d="M70.2 40.9l.4 5.3 5.1 1.4-4.9 2 .3 5.3-3.4-4-5 1.9 2.8-4.5-3.4-4.2 5.2 1.3z"/><path class="st10" d="M517 40.4l.4 5.3 5.1 1.4-4.9 2 .3 5.3-3.4-4-5 1.9 2.8-4.5-3.4-4.2 5.2 1.3z"/><path class="st5" d="M45.3 39.3l-2.7.3.9 7.3 7.3-.9-.9-7.3-3 .3"/><path class="st6" d="M50.4 44.4l-6.9.8"/><circle class="st5" cx="46.2" cy="39.3" r=".6"/><path class="st5" d="M45.6 47.7l-3-.9-2.1 7 7.1 2.1 2.1-7-2.8-.9"/><path class="st6" d="M47.8 54.2l-6.7-1.9"/><circle class="st5" cx="46.2" cy="47.7" r=".6"/><path class="st4" d="M30.8 69h145.7v4.3h-145.7zM132.2 81.8h-57.3M132.2 78h-57.3M326.1 78h-53.5M535.2 78h-53.5M71.7 73.3v25h-37.6"/><path class="st2" d="M70.7 85.8s-2.2.1-5.6.2c-1.7 0-3.6.1-5.7.1h-13c-2.1 0-4-.1-5.7-.1-3.3-.1-5.6-.2-5.6-.2s2.2-.1 5.6-.2c1.7 0 3.6-.1 5.7-.1h13c2.1 0 4 .1 5.7.1 3.4 0 5.6.2 5.6.2z"/><path class="st4" d="M47.9 80.3h10.8c.3 0 .6-.3.6-.6v-.6c0-.3-.3-.6-.6-.6h-10.8c-.3 0-.6.3-.6.6v.6c-.1.4.2.6.6.6zM47.9 92.8h10.8c.3 0 .6-.3.6-.6v-.6c0-.3-.3-.6-.6-.6h-10.8c-.3 0-.6.3-.6.6v.6c-.1.4.2.6.6.6zM134.9 73.3v25h37.6"/><path class="st2" d="M135.9 85.8s2.2-.1 5.6-.2c1.7 0 3.6-.1 5.7-.1h13c2.1 0 4 .1 5.7.1 3.3.1 5.6.2 5.6.2s-2.2.1-5.6.2c-1.7 0-3.6.1-5.7.1h-13c-2.1 0-4-.1-5.7-.1-3.4-.1-5.6-.2-5.6-.2z"/><path class="st4" d="M158.8 80.3h-10.8c-.3 0-.6-.3-.6-.6v-.6c0-.3.3-.6.6-.6h10.8c.3 0 .6.3.6.6v.6c0 .4-.3.6-.6.6zM158.8 92.8h-10.8c-.3 0-.6-.3-.6-.6v-.6c0-.3.3-.6.6-.6h10.8c.3 0 .6.3.6.6v.6c0 .4-.3.6-.6.6z"/><path class="st5" d="M41.2 62.5h-.8l.1-3.7h.7z"/><path class="st16" d="M40.6 58.8s-.1-.8.2-.8h.1c.3 0 .2.8.2.8"/><path class="st5" d="M40.4 62.5s.1 2-.2 4.4v.6M41.2 62.5s-.1 2 .2 4.4v.6M38.9 68.6c0-1 .8-1.2 1.8-1.2s1.8.2 1.8 1.2"/><path class="st4" d="M119.9 66.2h-33.7l2-17.3h29.2z"/><path class="st54" d="M116.7 64.1h-28.2l1.5-13.4h25z"/><path class="st4" d="M117.5 58.7l.7 5.4M117.2 56.9l.1.5M116.8 53.6l.2 1.8M116.4 50.7l.3 1.8M94 66.2s-1.9.4-2.1 2.4h3.2s0-2.4 3-2.4M112.8 66.2s1.9.4 2.1 2.4h-3.2s0-2.4-3-2.4"/><path class="st10" d="M103.8 53.2l.2 3 3 .8-2.9 1.1.2 3.1-2-2.3-2.8 1.1 1.6-2.6-1.9-2.4 2.9.7z"/><path class="st4" d="M138.7 69h7.1l.9-9.1h-9zM137.7 61.8h-2.4s.2 4.7 3.1 4.5"/><path class="st4" d="M164.4 52.6h4.2v16.4h-4.2zM151.9 68.8l-1.8-.2 2.6-18.7 1.8.3zM155.4 47.3h8.5v21.6h-8.5z"/><circle class="st16" cx="159.7" cy="64.4" r="1.1"/><path class="st5" d="M100.923 40.518l-1.959-23.921 5.681-.465 1.959 23.921z"/><path class="st39" d="M104.9 20l-5.6.5"/><path class="st2" d="M100.3 18.1s0-.1.1-.2.1-.2.3-.3c.1-.1.3-.1.4 0l.2.2c.2.1.4 0 .6-.1.1 0 .2-.1.4-.1s.3.1.4.1h.2s.1-.2.2-.2c.2-.1.4 0 .5 0 .1 0 .2.1.2.1h-.2c-.1 0-.3 0-.4.1-.1 0-.1.1-.2.2s-.3.1-.4.1l-.3-.1s-.2.1-.3.1c-.2.1-.5.1-.8 0l-.3-.2c0-.1-.1-.1-.2 0-.3.1-.4.3-.4.3z"/><path class="st39" d="M106.5 39l-5.6.5M106.1 34.3l-5.6.4M105.7 29.3l-5.6.5M105.3 24.6l-5.6.5"/><path class="st2" d="M100.4 18.9s.2-.1.5-.1c.3-.1.7-.1 1.1-.1h1.6s-.2.1-.5.1c-.3.1-.7.1-1.1.1h-1.6z"/><circle class="st5" cx="101.6" cy="16" r=".7"/><path class="st4" d="M430.4 23.7c0-.4-.3-.6-.6-.6h-32.1c-.4 0-.6.3-.6.6v88c0 .4.3.6.6.6h32.1c.4 0 .6-.3.6-.6v-88zm-31.5 85.5v-26.2h29.5v26.2h-29.5zm.6-84.2h28.4c.3 0 .6.3.6.6v26.7h-29.5v-26.6c-.1-.4.2-.7.5-.7zm-.6 56.5v-27.6h29.5v27.7h-29.5z"/><path class="st2" d="M400.7 26.9s1.6-.1 4-.1c1.2 0 2.6 0 4.1-.1h9.4c1.5 0 2.9.1 4.1.1 2.4.1 4 .1 4 .1s-1.6.1-4 .1c-1.2 0-2.6 0-4.1.1h-9.4c-1.5 0-2.9-.1-4.1-.1-2.4 0-4-.1-4-.1zM400.7 55.9s1.6-.1 4-.1c1.2 0 2.6 0 4.1-.1h9.4c1.5 0 2.9.1 4.1.1 2.4.1 4 .1 4 .1s-1.6.1-4 .1c-1.2 0-2.6 0-4.1.1h-9.4c-1.5 0-2.9-.1-4.1-.1-2.4 0-4-.1-4-.1zM400.7 85.1s1.6-.1 4-.1c1.2 0 2.6 0 4.1-.1h9.4c1.5 0 2.9.1 4.1.1 2.4.1 4 .1 4 .1s-1.6.1-4 .1c-1.2 0-2.6 0-4.1.1h-9.4c-1.5 0-2.9-.1-4.1-.1-2.4-.1-4-.1-4-.1z"/><path class="st4" d="M416.1 29.1h10.2v3h-10.2zM416.1 58.1h10.2v3h-10.2zM416.1 87.1h10.2v3h-10.2zM477.8 69h7.1l1-9.1h-9zM476.9 61.8h-2.4s.2 4.7 3.1 4.5"/><path class="st4" d="M332.3 69h-7.1l-1-9.1h9zM333.2 61.8h2.4s-.2 4.7-3.1 4.5"/></g></svg>