<svg xmlns="http://www.w3.org/2000/svg" viewBox="0 0 175.5 108.3" enable-background="new 0 0 175.5 108.3"><style type="text/css">.st0{fill:none;stroke:#333433;stroke-width:0.75;stroke-linecap:round;stroke-linejoin:round;stroke-miterlimit:10;} .st1{fill:none;stroke:#020202;stroke-width:0.5;stroke-linecap:round;stroke-linejoin:round;stroke-miterlimit:10;} .st2{fill:none;stroke:#020202;stroke-width:0.1;stroke-miterlimit:10;} .st3{fill:none;stroke:#020202;stroke-width:0.1;stroke-linecap:round;stroke-linejoin:round;stroke-miterlimit:10;} .st4{fill:none;stroke:#333433;stroke-linecap:round;stroke-linejoin:round;stroke-miterlimit:10;} .st5{fill:none;stroke:#333433;stroke-width:0.5;stroke-linecap:round;stroke-linejoin:round;stroke-miterlimit:10;} .st6{fill:#C0503E;} .st7{fill:#FFFFFF;stroke:#333433;stroke-width:0.75;stroke-linecap:round;stroke-linejoin:round;stroke-miterlimit:10;} .st8{fill:#333433;} .st9{fill:#C0503E;stroke:#333433;stroke-width:0.75;stroke-linecap:round;stroke-linejoin:round;stroke-miterlimit:10;} .st10{fill:#FFFFFF;} .st11{fill:none;stroke:#333433;stroke-width:0.25;stroke-linecap:round;stroke-linejoin:round;stroke-miterlimit:10;}</style><path class="st0" d="M105.1 4.9h42.7v27.6h-42.7z"/><path class="st1" d="M131.2 7.8c-11.9 0-21.5 9.6-21.5 21.5"/><path class="st2" d="M131.2 21.1h13.5v8.2h-13.5z"/><path class="st1" d="M144.7 21.1c0-7.4-6-13.4-13.4-13.4M136.5 29.4c4.5 0 8.2-3.7 8.2-8.2M131.2 24.1c0 2.9 2.3 5.2 5.2 5.2M134.2 21.1c-1.6 0-3 1.3-3 3"/><path class="st3" d="M109.7 7.8h21.5v21.6h-21.5zM131.2 7.8h13.5v13.4h-13.5zM131.2 24.1h5.3v5.2h-5.3zM131.2 21.1h3v3h-3zM134.2 21.1h2.3v2.3h-2.3z"/><path class="st1" d="M136.5 23.4c0-1.3-1-2.3-2.3-2.3"/><path class="st4" d="M28 64.1v37.9c0 .7.6 1.3 1.3 1.3s1.3-.6 1.3-1.3v-37.9M68.5 64.1v37.9c0 .7.6 1.3 1.3 1.3s1.3-.6 1.3-1.3v-37.9M128.7 64.1v37.9c0 .7.6 1.3 1.3 1.3.7 0 1.3-.6 1.3-1.3v-37.9M169 64.1v37.9c0 .7.6 1.3 1.3 1.3.7 0 1.3-.6 1.3-1.3v-37.9"/><path class="st4" d="M28.2 4.3c0 6.8-5.5 12.2-12.2 12.2s-12.3-5.5-12.3-12.2h24.5zM11.4 16s.2 2.8 3.2 2.8h1.8c3 0 3.2-2.8 3.2-2.8M14.7 18.7v76.5c0 2.1-1.7 3.8-3.8 3.8h-.1c-1.5 0-2.7 1.2-2.7 2.7 0 0-.1 1.5 7.5 1.5l7.5-1.5c0-1.5-1.2-2.7-2.7-2.7h-.1c-2.1 0-3.8-1.7-3.8-3.8v-76.5M83 54h-39.8c-.4 0-.7-.3-.7-.7v-6.9M42.5 29.2v-3.5c0-.4.3-.7.7-.7h44.4c.4 0 .7.3.7.7v13.9"/><path class="st5" d="M42.5 27.7h45.9M42.5 48.7h41.1"/><circle class="st5" cx="65.4" cy="51.3" r=".8"/><path class="st4" d="M63 54s.6 5.8-2 5.8M67.8 54s-.6 5.8 2 5.8"/><path class="st6" d="M66.7 31.7l.4 5.3 5.1 1.3-4.9 2 .3 5.3-3.4-4-5 1.9 2.8-4.5-3.4-4.1 5.2 1.2z"/><path class="st0" d="M41.8 30l-2.7.3.9 7.4 7.4-.9-1-7.4-3 .4"/><path class="st7" d="M46.9 35.1l-6.9.8"/><circle class="st0" cx="42.7" cy="30" r=".6"/><path class="st0" d="M42.1 38.4l-3-.9-2.1 7.1 7.1 2.1 2.1-7.1-2.8-.8"/><path class="st7" d="M44.3 45l-6.7-2"/><circle class="st0" cx="42.7" cy="38.4" r=".6"/><path class="st4" d="M27.3 59.7h145.7v4.3h-145.7zM128.7 72.6h-57.3M128.7 68.7h-57.3M68.3 64.1v25h-37.6"/><path class="st8" d="M67.3 76.5s-2.2.1-5.6.2c-1.7 0-3.6.1-5.7.1h-13c-2.1 0-4-.1-5.7-.1-3.3-.1-5.6-.2-5.6-.2s2.2-.1 5.6-.2c1.7 0 3.6-.1 5.7-.1h13c2.1 0 4 .1 5.7.1 3.3.1 5.6.2 5.6.2z"/><path class="st4" d="M44.4 71.1h10.8c.3 0 .6-.3.6-.6v-.6c0-.3-.3-.6-.6-.6h-10.8c-.3 0-.6.3-.6.6v.6c-.1.3.2.6.6.6zM44.4 83.6h10.8c.3 0 .6-.3.6-.6v-.6c0-.3-.3-.6-.6-.6h-10.8c-.3 0-.6.3-.6.6v.6c-.1.3.2.6.6.6zM131.4 64.1v25h37.6"/><path class="st8" d="M132.4 76.5s2.2-.1 5.6-.2c1.7 0 3.6-.1 5.7-.1h13c2.1 0 4 .1 5.7.1 3.3.1 5.6.2 5.6.2s-2.2.1-5.6.2c-1.7 0-3.6.1-5.7.1h-13c-2.1 0-4-.1-5.7-.1-3.4-.1-5.6-.2-5.6-.2z"/><path class="st4" d="M155.3 71.1h-10.8c-.3 0-.6-.3-.6-.6v-.6c0-.3.3-.6.6-.6h10.8c.3 0 .6.3.6.6v.6c0 .3-.3.6-.6.6zM155.3 83.6h-10.8c-.3 0-.6-.3-.6-.6v-.6c0-.3.3-.6.6-.6h10.8c.3 0 .6.3.6.6v.6c0 .3-.3.6-.6.6z"/><path class="st0" d="M37.8 53.3h-.9l.1-3.7h.7z"/><path class="st5" d="M37.1 49.6s-.1-.8.2-.8h.1c.3 0 .2.8.2.8"/><path class="st0" d="M36.9 53.3s.1 2-.2 4.4v.6M37.8 53.3s-.1 2 .2 4.4v.6M35.4 59.4c0-1 .8-1.2 1.8-1.2s1.8.2 1.8 1.2"/><path class="st4" d="M116.4 56.9h-33.7l2-17.3h29.2z"/><path class="st9" d="M113.2 54.9h-28.2l1.5-13.4h25.1z"/><path class="st4" d="M114 49.5l.7 5.4M113.7 47.6l.1.6M113.3 44.4l.2 1.7M112.9 41.5l.3 1.7M90.5 56.9s-1.9.4-2.1 2.4h3.2s0-2.4 3-2.4M109.3 56.9s1.9.4 2.1 2.4h-3.2s0-2.4-3-2.4"/><path class="st10" d="M100.3 43.9l.2 3 3 .8-2.9 1.2.2 3-2-2.3-2.8 1.1 1.6-2.6-1.9-2.4 2.9.8z"/><path class="st4" d="M135.2 59.7h7.1l.9-9h-9zM134.2 52.6h-2.4s.2 4.7 3.1 4.5"/><path class="st4" d="M160.9 43.3h4.2v16.4h-4.2zM148.4 59.5l-1.8-.2 2.6-18.6 1.8.2zM151.9 38h8.5v21.6h-8.5z"/><circle class="st5" cx="156.2" cy="55.2" r="1.1"/><path class="st0" d="M97.394 31.259l-1.959-23.921 5.681-.465 1.959 23.921z"/><path class="st11" d="M101.5 10.7l-5.7.5"/><path class="st8" d="M96.8 8.8s0-.1.1-.2.1-.2.3-.3c.1-.1.3-.1.4 0l.2.2c.2.1.4 0 .6-.1.1 0 .2-.1.4-.1s.3.1.4.1h.2s.1-.2.2-.2c.2-.1.4 0 .5 0 .1 0 .2.1.2.1h-.2c-.1 0-.3 0-.4.1-.1 0-.1.1-.2.2s-.3.1-.4.1l-.3-.1s-.2.1-.3.1c-.2.1-.5.1-.8 0l-.3-.2c0-.1-.1-.1-.2 0l-.4.3z"/><path class="st11" d="M103 29.8l-5.6.4M102.6 25l-5.6.5M102.2 20.1l-5.6.4M101.8 15.3l-5.6.5"/><path class="st8" d="M96.9 9.7s.2-.1.5-.1c.3-.1.7-.1 1.1-.1h1.6s-.2.1-.5.1c-.3.1-.7.1-1.1.1h-1.6z"/><circle class="st0" cx="98.1" cy="6.7" r=".7"/></svg>