<svg xmlns="http://www.w3.org/2000/svg" viewBox="0 0 184.3 120.3" enable-background="new 0 0 184.3 120.3"><style type="text/css">.st0{opacity:0.22;fill:#B04939;} .st1{fill:#FFFFFF;stroke:#333433;stroke-miterlimit:10;} .st2{fill:#333433;} .st3{fill:#C1503E;stroke:#333433;stroke-width:0.25;stroke-linecap:round;stroke-linejoin:round;stroke-miterlimit:10;} .st4{fill:none;stroke:#333433;stroke-linecap:round;stroke-linejoin:round;stroke-miterlimit:10;} .st5{fill:none;stroke:#333433;stroke-width:0.75;stroke-linecap:round;stroke-linejoin:round;stroke-miterlimit:10;} .st6{fill:#FFFFFF;stroke:#333433;stroke-width:0.75;stroke-linecap:round;stroke-linejoin:round;stroke-miterlimit:10;} .st7{fill:none;stroke:#020202;stroke-width:0.5;stroke-linecap:round;stroke-linejoin:round;stroke-miterlimit:10;} .st8{fill:none;stroke:#020202;stroke-width:0.1;stroke-miterlimit:10;} .st9{fill:none;stroke:#020202;stroke-width:0.1;stroke-linecap:round;stroke-linejoin:round;stroke-miterlimit:10;} .st10{fill:#FFFFFF;} .st11{fill:#FFFFFF;stroke:#333433;stroke-linecap:round;stroke-linejoin:round;stroke-miterlimit:10;} .st12{fill:#FFFFFF;stroke:#333433;stroke-width:0.9141;stroke-linecap:round;stroke-linejoin:round;stroke-miterlimit:10;} .st13{fill:none;stroke:#333433;stroke-width:0.9581;stroke-linecap:round;stroke-linejoin:round;stroke-miterlimit:10;} .st14{fill:#FFFFFF;stroke:#333433;stroke-width:0.8907;stroke-linecap:round;stroke-linejoin:round;stroke-miterlimit:10;} .st15{fill:#B04939;} .st16{fill:none;stroke:#333433;stroke-width:0.5;stroke-linecap:round;stroke-linejoin:round;stroke-miterlimit:10;} .st17{fill:#FFFFFF;stroke:#333433;stroke-width:0.8094;stroke-miterlimit:10;} .st18{fill:none;stroke:#333433;stroke-width:0.8094;stroke-miterlimit:10;} .st19{fill:none;stroke:#333433;stroke-miterlimit:10;} .st20{fill:none;stroke:#333433;stroke-width:0.5052;stroke-miterlimit:10;} .st21{fill:#FFFFFF;stroke:#333433;stroke-width:0.976;stroke-linecap:round;stroke-linejoin:round;stroke-miterlimit:10;} .st22{fill:none;stroke:#333433;stroke-width:0.4935;stroke-linecap:round;stroke-linejoin:round;stroke-miterlimit:10;} .st23{fill:none;stroke:#333433;stroke-width:0.9269;stroke-linecap:round;stroke-linejoin:round;stroke-miterlimit:10;} .st24{fill:#FFFFFF;stroke:#333433;stroke-width:0.9618;stroke-linecap:round;stroke-linejoin:round;stroke-miterlimit:10;} .st25{fill:none;} .st26{fill:#FFFFFF;stroke:#333433;stroke-width:0.988;stroke-linecap:round;stroke-linejoin:round;stroke-miterlimit:10;} .st27{fill:#FFFFFF;stroke:#333433;stroke-width:0.7704;stroke-linecap:round;stroke-linejoin:round;stroke-miterlimit:10;} .st28{fill:none;stroke:#333433;stroke-width:0.7704;stroke-linecap:round;stroke-linejoin:round;stroke-miterlimit:10;} .st29{fill:#FFFFFF;stroke:#333433;stroke-width:0.9552;stroke-linecap:round;stroke-linejoin:round;stroke-miterlimit:10;} .st30{fill:#FFFFFF;stroke:#333433;stroke-width:0.7448;stroke-linecap:round;stroke-linejoin:round;stroke-miterlimit:10;} .st31{fill:none;stroke:#333433;stroke-width:0.7448;stroke-linecap:round;stroke-linejoin:round;stroke-miterlimit:10;} .st32{fill:none;stroke:#333433;stroke-width:0.25;stroke-miterlimit:10;} .st33{fill:none;stroke:#333433;stroke-linejoin:round;stroke-miterlimit:10;} .st34{fill:none;stroke:#333433;stroke-width:0.5;stroke-miterlimit:10;} .st35{fill:none;stroke:#333433;stroke-width:1.0112;stroke-linecap:round;stroke-linejoin:round;stroke-miterlimit:10;} .st36{fill:none;stroke:#333433;stroke-width:0.9271;stroke-linecap:round;stroke-linejoin:round;stroke-miterlimit:10;} .st37{fill:#FFFFFF;stroke:#333433;stroke-width:0.9554;stroke-linecap:round;stroke-linejoin:round;stroke-miterlimit:10;} .st38{fill:#FFFFFF;stroke:#333433;stroke-width:0.9569;stroke-linecap:round;stroke-linejoin:round;stroke-miterlimit:10;} .st39{fill:none;stroke:#333433;stroke-width:0.25;stroke-linecap:round;stroke-linejoin:round;stroke-miterlimit:10;} .st40{fill:#FFFFFF;stroke:#333433;stroke-width:0.9904;stroke-linecap:round;stroke-linejoin:round;stroke-miterlimit:10;} .st41{fill:#FFFFFF;stroke:#333433;stroke-width:0.7918;stroke-linecap:round;stroke-linejoin:round;stroke-miterlimit:10;} .st42{fill:none;stroke:#333433;stroke-width:0.7918;stroke-linecap:round;stroke-linejoin:round;stroke-miterlimit:10;} .st43{fill:#FFFFFF;stroke:#333433;stroke-width:0.5;stroke-linecap:round;stroke-linejoin:round;stroke-miterlimit:10;} .st44{fill:#ED1C24;} .st45{fill:none;stroke:#FFFFFF;stroke-miterlimit:10;} .st46{fill:none;stroke:#FFFFFF;stroke-width:0.5;stroke-miterlimit:10;} .st47{fill:none;stroke:#FFFFFF;stroke-width:1.15;stroke-linecap:round;stroke-linejoin:round;stroke-miterlimit:10;} .st48{fill:none;stroke:#FFFFFF;stroke-width:1.15;stroke-miterlimit:10;} .st49{fill:none;stroke:#FFFFFF;stroke-width:0.8282;stroke-miterlimit:10;} .st50{fill:none;stroke:#FFFFFF;stroke-linecap:round;stroke-linejoin:round;stroke-miterlimit:10;} .st51{fill:none;stroke:#FFFFFF;stroke-linejoin:round;stroke-miterlimit:10;} .st52{fill:none;stroke:#FFFFFF;stroke-width:0.5;stroke-linejoin:round;stroke-miterlimit:10;} .st53{fill:#C1503E;} .st54{fill:#C1503E;stroke:#333433;stroke-width:0.75;stroke-linecap:round;stroke-linejoin:round;stroke-miterlimit:10;}</style><g id="Background"><path class="st0" d="M119.6-23.3l294.6-57.7-295.2 54.7 271-129.2-272.3 126.5 230.4-192.6-232.3 190.2 175.2-243.8-177.7 242 109.1-279.7-111.9 278.6 36.1-298.1-39.2 297.7-39.1-297.7 36.1 298.1-111.9-278.6 109.1 279.7-177.7-242 175.2 243.8-232.3-190.2 230.4 192.6-272.4-126.5 271.1 129.2-295.3-54.7 294.7 57.7M95.5-20.2h23.9M114.6-215.7M116.8-217.7M118.5-220.3"/></g><g id="Linework"><path class="st1" d="M340.7-205.4c-.3-2.9-.7-7.4-1.5-11.6-1.5-8.2 1.4-3.8.9-14.2-.4-10.3-3.5-5.2-3.8-10.5-.3-5.3-6.4-5-6.6 0s3.6 3.5-.1 8.2-3 10.6-2.4 14.3c.9 5.7.3 9.8-.7 13.8h14.2z"/><path class="st2" d="M333.3-245.4c.6.2 1 1 1.1 1.8 0 .9-.1 1.9-.2 3-.1.6-.1 1.2.1 1.8.2.6.5 1.2.8 1.8.6 1.2 1.4 2.3 1.7 3.6.4 1.3.2 2.7-.3 4.1-.5 1.4-1.3 2.7-1.7 4.2-.5 1.5-.7 3.1-.5 4.6.1 1.5.5 3 .9 4.3.3 1.4.6 2.7.7 4 .1 1.3-.2 2.4-.7 3.5-.3.9-.6 1.7-.8 2.5h.3c.2-.7.5-1.5.9-2.3.5-1 .8-2.3.8-3.6 0-1.3-.3-2.7-.6-4.1-.3-1.4-.7-2.8-.8-4.2-.1-1.4.1-2.9.5-4.3s1.2-2.7 1.7-4.2c.5-1.4.8-3 .3-4.5-.2-.7-.5-1.4-.9-2-.3-.6-.7-1.2-1-1.7-.6-1.1-1.1-2.2-.9-3.3.2-1.1.2-2.2.1-3.1-.1-.5-.2-.9-.4-1.3s-.6-.6-.9-.7c-.7-.2-1.2.1-1.5.2-.3.1-.5.2-.5.2s.2-.1.5-.2c.2-.1.7-.2 1.3-.1zM330-214.4l.3.7c.3 1.2.3 2.8.3 4.5 0 1.2-.1 2.3-.1 3.4.2-.1.4-.1.6-.1.1-1 .2-2.1.3-3.2 0-1.7-.1-3.4-.6-4.6-.1-.3-.3-.6-.5-.8-.2-.2-.4-.3-.6-.4h-.5.2c.1 0 .2 0 .4.1-.1.1.1.2.2.4z"/><path class="st1" d="M321.8-170s-3.5-2.2-4.8-5.8h32.5c-1.3 3.7-4.3 5.3-4.3 5.3"/><path class="st3" d="M298.2 36.8h46v21.2h-46z"/><path class="st4" d="M287.1 17.4h3.7v36h-43.1v-36h4.7M255.3 17.4h29.1"/><path class="st4" d="M252.5 13.2h2.8v6.8h-2.8zM284.4 13.2h2.8v6.8h-2.8z"/><path class="st5" d="M264.2 22.4h11.3v3.4h-11.3zM254.8 28.3h11.3v3.4h-11.3zM273.1 28.3h11.3v3.4h-11.3zM273.1 42.5h11.3v5.1h-11.3zM254.8 34.2h15v5.1h-15zM254.8 42.5h15v5.1h-15z"/><path class="st6" d="M259.4 31.7v2.5M259.4 39.3v3.2"/><path class="st5" d="M259.4 28.3c0-2.3 2.1-4.2 4.8-4.2M280.3 28.3c0-2.3-2.1-4.2-4.8-4.2"/><path class="st6" d="M273.6 34.5h10.7M273.6 36.3h8.4M273.6 39.8h8.4M273.6 38.1h9.8"/><path class="st5" d="M-85.1 14.2h42.7v27.6h-42.7z"/><path class="st7" d="M-59.1 17c-11.9 0-21.5 9.6-21.5 21.5"/><path class="st8" d="M-59.1 30.4h13.5v8.2h-13.5z"/><path class="st7" d="M-45.6 30.4c0-7.4-6-13.4-13.4-13.4M-53.8 38.6c4.5 0 8.2-3.7 8.2-8.2M-59.1 33.4c0 2.9 2.3 5.2 5.2 5.2M-56.1 30.4c-1.6 0-3 1.3-3 3"/><path class="st9" d="M-80.6 17h21.5v21.6h-21.5zM-59.1 17h13.5v13.4h-13.5zM-59.1 33.4h5.3v5.2h-5.3zM-59.1 30.4h3v3h-3zM-56.1 30.4h2.3v2.3h-2.3z"/><path class="st7" d="M-53.8 32.7c0-1.3-1-2.3-2.3-2.3"/><path class="st1" d="M-178.6-56.2c-.4-.8-.7-1.8-.7-2.8 0-3.3 2.7-6 6-6 1.1 0 2.1.3 2.9.8v-.8c0-5.8 4.7-10.5 10.5-10.5s10.5 4.7 10.5 10.5c0 1-.2 2.1-.4 3h.2c3.7 0 6.7 3 6.7 6.7 0 3.1-2.1 5.7-4.9 6.5.7 1.5 1.1 3.2 1.1 4.9 0 1.6-.3 3.1-.9 4.5.9 1.5 1.4 3.3 1.4 5.1 0 5.6-4.6 10.2-10.2 10.2-1.8 0-3.6-.5-5.1-1.4-1.2 2-3.4 3.4-5.9 3.4-3.8 0-7-3.1-7-7 0-1.3.4-2.5 1-3.5h-1c-6.8 0-12.2-5.5-12.2-12.2 0-5.2 3.3-9.6 8-11.4z"/><path class="st10" d="M-146.8-41.9s-.9 3.7-3.1 4.4"/><path class="st2" d="M-146.4-41.7s-.1.4-.4.8c-.2.5-.6 1.1-1 1.7-.2.3-.5.6-.7.8l-.7.6-.6.3c-.1 0-.2.1-.2.1s.1 0 .2-.1.3-.2.5-.4.4-.4.6-.7c.2-.3.4-.6.5-.9.3-.6.5-1.3.6-1.7.1-.5.2-.8.2-.8l1 .3z"/><path class="st10" d="M-170.3-66.4s-.3 2.9 1.6 5.2"/><path class="st2" d="M-169.8-66.4s-.1.3-.1.8v.9c0 .3 0 .6.1 1 .1.3.1.7.3 1 .1.3.2.6.3.8.3.4.4.7.4.7s-.2-.3-.6-.7c-.2-.2-.3-.5-.5-.8l-.5-.9-.3-1-.2-.9c-.1-.5-.1-1-.1-.9h1.2z"/><path class="st10" d="M-176.9-32.7s4.8.9 5.4-1.5"/><path class="st2" d="M-176.8-33.2s.3.1.9.2c.5.1 1.3.2 2 .1.4 0 .7-.1 1.1-.2.2 0 .3-.1.5-.2s.3-.2.4-.2l.3-.3c.1-.1.1-.2.2-.2.1-.1.1-.2.1-.2s0 .1-.1.3c0 .1 0 .2-.1.3l-.2.3c-.1.1-.2.2-.4.3-.1.1-.3.2-.5.3-.3.2-.7.3-1.1.4-1.6.3-3.1.2-3.1.2v-1.1zM-66.7-171.6s-1.4 0-4 .1c-2.5.1-6.1.2-10.4.3-4.3.1-9.4.2-14.7.2-5.4 0-11.1.1-16.9.1-5.8 0-11.5-.1-16.9-.1-5.4 0-10.4-.1-14.7-.2-4.3-.1-7.9-.2-10.4-.3-2.5-.1-4-.1-4-.1v-.1l92 .1zM-66.7-153.7s-1.4 0-4 .1c-2.5.1-6.1.2-10.4.3-4.3.1-9.4.2-14.7.2-5.4 0-11.1.1-16.9.1-5.8 0-11.5-.1-16.9-.1-5.4 0-10.4-.1-14.7-.2-4.3-.1-7.9-.2-10.4-.3-2.5-.1-4-.1-4-.1v-.1l92 .1z"/><path class="st11" d="M-73.3-187.8h6.6v10.2h-6.6z"/><path class="st1" d="M-73.3-177.5l-1.6 4.5h9.7l-1.5-4.5z"/><path class="st11" d="M-160-173h95.3v137.7h-95.3zM-64.7-41.3h-95.3M-64.7-38.9h-95.3"/><path class="st10" d="M-64.7-40h-95.3"/><path class="st2" d="M-64.7-40s-6 .1-14.9.1-20.8.1-32.8.1c-11.9 0-23.8-.1-32.8-.1-8.8 0-14.8-.1-14.8-.1s6-.1 14.9-.1 20.8-.1 32.8-.1c11.9 0 23.8.1 32.8.1 8.9 0 14.8.1 14.8.1z"/><path class="st11" d="M-113.5-155h-46.5c-.4-4.7-1-4.2-1-4.2-2.2-.3-1.8-3.2-1.8-3.2h101.1s.4 2.8-1.8 3.2c0 0-.7-.5-1 4.2h-49z"/><path class="st1" d="M-161.7-159.2h98.7"/><path class="st11" d="M-136-144.2v16.8h-14.5v-16.8s6.7-1.6 14.5 0z"/><path class="st12" d="M-151.2-127.5h15.9v3.2h-15.9z"/><path class="st6" d="M-150.5-138.9h14.5M-146-144.8v16.8M-140.5-144.8v16.8"/><path class="st11" d="M-105.1-144.2v16.8h-14.5v-16.8s6.8-1.6 14.5 0z"/><path class="st12" d="M-120.3-127.5h15.9v3.2h-15.9z"/><path class="st6" d="M-119.6-138.9h14.5M-115.1-144.8v16.8M-109.5-144.8v16.8"/><path class="st11" d="M-74.1-144.2v16.8h-14.5v-16.8s6.7-1.6 14.5 0z"/><path class="st12" d="M-89.3-127.5h15.9v3.2h-15.9z"/><path class="st6" d="M-88.6-138.9h14.5M-84.1-144.8v16.8M-78.5-144.8v16.8"/><path class="st11" d="M-136-116.8v26.2h-14.5v-26.2s6.7-1.5 14.5 0z"/><path class="st12" d="M-151.2-90.5h15.9v3.2h-15.9z"/><path class="st6" d="M-150.5-111.4h14.5M-150.5-104.6h14.5M-150.5-97.6h14.5M-146-117.3v26.3M-140.5-117.3v26.3"/><path class="st11" d="M-105.1-116.8v26.2h-14.5v-26.2s6.8-1.5 14.5 0z"/><path class="st12" d="M-120.3-90.5h15.9v3.2h-15.9z"/><path class="st6" d="M-119.6-111.4h14.5M-119.6-104.6h14.5M-119.6-97.6h14.5M-115.1-117.3v26.3M-109.5-117.3v26.3"/><path class="st11" d="M-74.1-116.8v26.2h-14.5v-26.2s6.7-1.5 14.5 0z"/><path class="st12" d="M-89.3-90.5h15.9v3.2h-15.9z"/><path class="st6" d="M-88.6-111.4h14.5M-88.6-104.6h14.5M-88.6-97.6h14.5M-84.1-117.3v26.3M-78.5-117.3v26.3"/><path class="st11" d="M-136-75.4v26.2h-14.5v-26.2s6.7-1.6 14.5 0z"/><path class="st12" d="M-151.2-49.2h15.9v3.2h-15.9z"/><path class="st6" d="M-150.5-70h14.5M-150.5-63.3h14.5M-150.5-56.3h14.5M-146-75.9v26.2M-140.5-75.9v26.2"/><path class="st11" d="M-105.1-75.4v26.2h-14.5v-26.2s6.8-1.6 14.5 0z"/><path class="st12" d="M-120.3-49.2h15.9v3.2h-15.9z"/><path class="st6" d="M-119.6-70h14.5M-119.6-63.3h14.5M-119.6-56.3h14.5M-115.1-75.9v26.2M-109.5-75.9v26.2"/><path class="st11" d="M-74.1-75.4v26.2h-14.5v-26.2s6.7-1.6 14.5 0z"/><path class="st12" d="M-89.3-49.2h15.9v3.2h-15.9z"/><path class="st6" d="M-88.6-70h14.5M-88.6-63.3h14.5M-88.6-56.3h14.5M-84.1-75.9v26.2M-78.5-75.9v26.2"/><path class="st13" d="M-132.9-74.2c0-5.2-4.7-9.4-10.4-9.4-5.8 0-10.4 4.2-10.4 9.4v32.4h20.9v-32.4h-.1zM-101.9-74.2c0-5.2-4.7-9.4-10.4-9.4-5.8 0-10.4 4.2-10.4 9.4v32.4h20.9v-32.4h-.1zM-70.9-74.2c0-5.2-4.7-9.4-10.4-9.4s-10.4 4.2-10.4 9.4v32.4h20.9v-32.4h-.1z"/><path class="st14" d="M-160.4-74.8h6.8v3.2h-6.8zM-70.9-74.8h6.8v3.2h-6.8zM-101.9-74.8h10.1v3.2h-10.1zM-132.8-74.8h10.1v3.2h-10.1z"/><path class="st10" d="M-151.2-44.5h15.9"/><path class="st2" d="M-151.2-44.5s1-.1 2.5-.1c.7 0 1.6-.1 2.5-.1h5.8c.9 0 1.8.1 2.5.1 1.5.1 2.5.1 2.5.1s-1 .1-2.5.1c-.7 0-1.6.1-2.5.1h-5.8c-.9 0-1.8-.1-2.5-.1-1.5 0-2.5-.1-2.5-.1z"/><path class="st10" d="M-120.3-44.5h15.9"/><path class="st2" d="M-120.3-44.5s1-.1 2.5-.1c.7 0 1.6-.1 2.5-.1h5.8c.9 0 1.8.1 2.5.1 1.5.1 2.5.1 2.5.1s-1 .1-2.5.1c-.7 0-1.6.1-2.5.1h-5.8c-.9 0-1.8-.1-2.5-.1-1.5 0-2.5-.1-2.5-.1z"/><path class="st10" d="M-89.3-44.5h15.9"/><path class="st2" d="M-89.3-44.5s1-.1 2.5-.1c.7 0 1.6-.1 2.5-.1h5.8c.9 0 1.8.1 2.5.1 1.5.1 2.5.1 2.5.1s-1 .1-2.5.1c-.7 0-1.6.1-2.5.1h-5.8c-.9 0-1.8-.1-2.5-.1-1.5 0-2.5-.1-2.5-.1z"/><path class="st15" d="M-150.5-122.9h14.5"/><path class="st2" d="M-150.5-122.9s.9-.1 2.3-.1c1.4-.1 3.2-.1 5-.1 1.8 0 3.6 0 5 .1s2.3.1 2.3.1-.9.1-2.3.1c-1.4.1-3.2.1-5 .1-1.8 0-3.6-.1-5-.1s-2.3-.1-2.3-.1z"/><path class="st15" d="M-119.6-122.9h14.5"/><path class="st2" d="M-119.6-122.9s.9-.1 2.3-.1c1.4-.1 3.2-.1 5-.1 1.8 0 3.6 0 5 .1s2.3.1 2.3.1-.9.1-2.3.1c-1.4.1-3.2.1-5 .1-1.8 0-3.6-.1-5-.1s-2.3-.1-2.3-.1z"/><path class="st15" d="M-88.6-122.9h14.5"/><path class="st2" d="M-88.6-122.9s.9-.1 2.3-.1c1.4-.1 3.2-.1 5-.1 1.8 0 3.6 0 5 .1s2.3.1 2.3.1-.9.1-2.3.1c-1.4.1-3.2.1-5 .1-1.8 0-3.6-.1-5-.1s-2.3-.1-2.3-.1z"/><path class="st15" d="M-150.5-85.9h14.5"/><path class="st2" d="M-150.5-85.9s.9-.1 2.3-.1c1.4-.1 3.2-.1 5-.1 1.8 0 3.6 0 5 .1s2.3.1 2.3.1-.9.1-2.3.1c-1.4.1-3.2.1-5 .1-1.8 0-3.6-.1-5-.1s-2.3-.1-2.3-.1z"/><path class="st15" d="M-119.6-85.9h14.5"/><path class="st2" d="M-119.6-85.9s.9-.1 2.3-.1c1.4-.1 3.2-.1 5-.1 1.8 0 3.6 0 5 .1s2.3.1 2.3.1-.9.1-2.3.1c-1.4.1-3.2.1-5 .1-1.8 0-3.6-.1-5-.1s-2.3-.1-2.3-.1z"/><path class="st15" d="M-88.6-86.4h14.5"/><path class="st2" d="M-88.6-86.4s.9-.1 2.3-.1c1.4-.1 3.2-.1 5-.1 1.8 0 3.6 0 5 .1s2.3.1 2.3.1-.9.1-2.3.1c-1.4.1-3.2.1-5 .1-1.8 0-3.6-.1-5-.1s-2.3-.1-2.3-.1z"/><path class="st10" d="M-8.5-69.2v21.099999999999998s6.3-8.9 16.3-9c10.1 0 18.3 7 19.8 14.5l.3.7v6.1h10.4v-8.8s2.8-14.1 20-14.8c0 0 15.5.9 19 15v8.6h9.7v-11.6s-.6 2.3 1.1-1.6 7.9-11.9 18.7-12 18.8 9.9 19.2 15.8v9.4h9.7v-9.5s4.3-13.6 19.9-14.1c0 0 14.8 0 18.8 14.6v9.6h10.7v-7.4s4.7-14.4 20.4-14.3c0 0 15.9 1.2 18.6 15.6v7.6h.8v-36.4l-112.3-2.4-121.1 3.3z"/><path class="st11" d="M221.9-67.1l-114.3-3.9c-.8-.1-1.5-.1-2.3 0l-113.8 3.9v-5l113.8-3.9c.8-.1 1.5-.1 2.3 0l114.3 3.9v5z"/><path class="st16" d="M221.9-70.8l-114.3-3.9c-.8-.1-1.5-.1-2.3 0l-113.8 3.9"/><path class="st6" d="M115.6-70.2h-17.7v-6.2l7.8-2.8c.7-.1 1.3-.1 2 0l7.8 2.8v6.2z"/><circle class="st11" cx="106.6" cy="-81.5" r="1.8"/><path class="st4" d="M79.6-46.9c.8-1.9 1-3.7 1-5.7v-17.6h3.4v17.6c0 2.3.6 4.9 1.2 5.7"/><circle class="st11" cx="82.6" cy="-79.9" r="1.3"/><path class="st6" d="M86.2-76.1v6.2l-7.4.1v-6.3l3.8-2.5z"/><path class="st11" d="M79.6-76.1h5.7"/><path class="st4" d="M79.6-46.9h5.7v3h-5.7zM80.1-43.9h4.7v8h-4.7z"/><path class="st2" d="M79.5-69.6l-.2 20.5-.3-20.5c0-.1.1-.3.2-.3.2 0 .3.1.3.3zM85.7-69.6l-.2 20.5-.2-20.5c0-.1.1-.3.2-.3 0 0 .2.1.2.3z"/><path class="st4" d="M30.4-44.9c.8-1.9 1-3.7 1-5.7v-17.6h3.4v17.6c0 2.3.6 4.9 1.2 5.7"/><circle class="st11" cx="33.5" cy="-77.9" r="1.3"/><path class="st6" d="M37-74.1v6.2l-7.4.1v-6.3l3.9-2.5z"/><path class="st11" d="M30.4-74.1h5.7"/><path class="st4" d="M30.4-44.9h5.7v3h-5.7zM30.9-41.9h4.7v8h-4.7z"/><path class="st2" d="M30.4-67.6l-.2 20.5-.2-20.5c0-.1.1-.3.2-.3 0 0 .2.1.2.3zM36.5-67.6l-.2 20.5-.3-20.5c0-.1.1-.3.2-.3.2 0 .3.1.3.3z"/><path class="st4" d="M183.2-44.9c-.8-1.9-1-3.7-1-5.7v-17.6h-3.4v17.6c0 2.3-.6 4.9-1.2 5.7"/><circle class="st11" cx="180.1" cy="-77.9" r="1.3"/><path class="st6" d="M176.6-74.1v6.2l7.4.1v-6.3l-3.8-2.5z"/><path class="st11" d="M183.2-74.1h-5.7"/><path class="st4" d="M177.5-44.9h5.7v3h-5.7zM178-41.9h4.7v8h-4.7z"/><path class="st2" d="M183.8-67.6l-.2 20.5-.2-20.5c0-.1.1-.3.2-.3 0 0 .2.1.2.3zM177.6-67.6l-.2 20.5-.2-20.5c0-.1.1-.3.2-.3s.2.1.2.3z"/><path class="st4" d="M133.6-46.9c-.8-1.9-1-3.7-1-5.7v-17.6h-3.4v17.6c0 2.3-.6 4.9-1.2 5.7"/><circle class="st11" cx="130.6" cy="-79.9" r="1.3"/><path class="st6" d="M127.1-76.1v6.2l7.4.1v-6.3l-3.9-2.5z"/><path class="st11" d="M133.6-76.1h-5.6"/><path class="st4" d="M128-46.9h5.7v3h-5.7zM128.4-43.9h4.7v8h-4.7z"/><path class="st2" d="M134.2-69.6l-.2 20.5-.2-20.5c0-.1.1-.3.2-.3s.2.1.2.3zM128.1-69.6l-.3 20.5-.2-20.5c0-.1.1-.3.2-.3.2 0 .3.1.3.3z"/><path class="st4" d="M103.7-70.1h5.5v5.8h-5.5z"/><path class="st2" d="M99.5-74.8c2.3-1.3 4.7-2.4 7.1-3.3h.4c2.4 1 4.7 2 6.9 3.3-2.5-.6-4.9-1.5-7.3-2.4h.4c-2.5.9-4.9 1.8-7.5 2.4z"/><path class="st4" d="M108.7-73.1c0-1.2-1-2.2-2.2-2.2-1.2 0-2.2 1-2.2 2.2v.9h4.4v-.9zM174.7-45.2c0-9.7-9.8-17.5-19.5-17.5s-19.5 7.8-19.5 17.5v7.3h38.8l.2-7.3z"/><path class="st2" d="M174.7-42.1s0-.2-.1-.6c-.1-.4-.1-1-.3-1.8-.1-.4-.1-.8-.3-1.3-.2-.4-.3-.9-.5-1.4-.2-.5-.5-1-.7-1.6-.3-.5-.6-1.1-1-1.6-.8-1.1-1.7-2.2-2.8-3.2-1.1-1.1-2.4-2-3.9-2.8-1.4-.8-3-1.5-4.7-2-1.7-.5-3.5-.7-5.2-.7-1.8 0-3.5.3-5.2.7-1.7.5-3.3 1.1-4.7 2-1.4.8-2.8 1.8-3.9 2.8-1.2 1-2.1 2.1-2.8 3.2-.4.6-.7 1.1-1 1.6-.3.6-.5 1.1-.7 1.6-.2.5-.3 1-.5 1.4-.2.4-.2.9-.3 1.3-.2.8-.2 1.4-.3 1.8 0 .4-.1.6-.1.6v-.6c0-.4 0-1.1.1-1.8.1-.4.1-.8.2-1.3l.4-1.5c.2-.5.4-1.1.7-1.6.3-.5.6-1.1 1-1.7.8-1.1 1.7-2.3 2.8-3.4 1.1-1.1 2.5-2.1 3.9-3 1.5-.9 3.1-1.6 4.8-2.1 1.7-.5 3.6-.8 5.4-.8 1.9 0 3.7.3 5.4.8 1.7.5 3.4 1.2 4.8 2.1 1.5.9 2.8 1.9 3.9 3 1.2 1.1 2 2.3 2.8 3.4.4.6.7 1.2 1 1.7.2.6.5 1.1.7 1.6.2.5.3 1 .4 1.5.1.5.2.9.2 1.3.2.8.1 1.4.1 1.8.4.4.4.6.4.6zM152.6-65.2s-.3 0-.9.1c-.3 0-.6.1-1.1.1-.4 0-.8.2-1.3.3-.5.1-1 .2-1.6.4-.5.2-1.1.4-1.7.6-.6.2-1.2.5-1.8.8-.6.3-1.2.6-1.7 1l-1.6 1.1-.8.6-.7.6c-.5.4-.9.9-1.3 1.3-.4.5-.7.9-1 1.3-1.2 1.6-1.7 2.9-1.7 2.9s.4-1.3 1.6-3c.3-.4.6-.9 1-1.3s.8-.9 1.2-1.4l.7-.7c.2-.2.5-.4.8-.7.5-.5 1.1-.8 1.6-1.2.6-.4 1.2-.7 1.7-1.1l1.8-.9c.6-.2 1.2-.4 1.7-.7.6-.2 1.1-.3 1.6-.5.5-.1 1-.3 1.4-.3.4-.1.8-.1 1-.2.6-.1.9-.2.9-.2.3 0 .5.1.6.4 0 .4-.1.7-.4.7zM138.5-54.4l-1.7-1.7 2.3.8c.3.1.4.4.3.7-.1.3-.4.4-.7.3-.1 0-.2-.1-.2-.1zM143.3-59l-1.3-2.8 2.1 2.2c.2.2.2.5 0 .7-.2.2-.5.2-.7 0l-.1-.1zM148.8-61.8l-.3-2.8 1.2 2.6c.1.3 0 .6-.2.7s-.6 0-.7-.2v-.3zM158.4-66.3s.3.1.9.2c.3.1.6.1 1.1.2.4.1.9.2 1.4.3l1.6.5c.6.2 1.1.4 1.7.7l1.8.9c.6.4 1.2.7 1.7 1.1l1.6 1.2c.5.4 1 .9 1.4 1.4.5.4.8.9 1.2 1.4.3.5.7.9 1 1.3 1.1 1.7 1.6 3 1.6 3s-.5-1.3-1.7-2.9c-.3-.4-.7-.8-1-1.3-.4-.4-.8-.9-1.3-1.3-.4-.4-1-.9-1.5-1.3s-1.1-.8-1.6-1.1c-.6-.4-1.2-.7-1.7-1l-1.8-.8c-.6-.2-1.2-.4-1.7-.6-.5-.2-1.1-.3-1.6-.4-.5-.1-.9-.2-1.3-.3-.4-.1-.8-.1-1.1-.2-.6-.1-.9-.1-.9-.1-.3 0-.5-.3-.4-.6.1-.2.3-.3.6-.3zM171.6-55.1l2.6-1-2.1 1.9c-.2.2-.5.2-.7 0-.2-.2-.2-.5 0-.7l.2-.2zM166.8-59.6l2.1-2.2-1.3 2.8c-.1.3-.4.4-.7.2-.3-.1-.4-.4-.2-.7 0 0 0-.1.1-.1zM161.2-62.1l1.2-2.6-.3 2.8c0 .3-.3.5-.6.5s-.5-.3-.5-.6c.1.1.1 0 .2-.1zM136.4-46.5s.1-.8.6-2.2c.5-1.3 1.2-3.3 2.7-5.3 1.4-2 3.6-4 6.4-5.4 2.8-1.4 6.1-2 9.4-2 1.6 0 3.3.2 4.9.6 1.6.4 3.1 1 4.4 1.8 2.7 1.5 4.8 3.6 6.2 5.6 1.5 2 2.3 3.9 2.7 5.2.5 1.4.5 2.2.5 2.2s-.1-.8-.6-2.1-1.4-3.2-2.9-5.1c-1.5-1.9-3.5-3.9-6.2-5.4-1.3-.7-2.8-1.3-4.3-1.7-1.5-.4-3.1-.6-4.8-.6-3.2 0-6.5.6-9.2 1.9-2.7 1.3-4.9 3.2-6.3 5.2-1.5 1.9-2.3 3.8-2.8 5.1-.5 1.4-.7 2.2-.7 2.2zM158.2-67.6s0 .2.1.4c0 .1.1.3.1.5v.6c0 .3-.1.6-.3.9l-.3.4c-.1.1-.2.2-.4.3-.3.2-.6.4-.9.5l-.5.1-.5.1c-.4 0-.6 0-1-.1s-.7-.2-1-.4c-.3-.2-.5-.4-.7-.7-.2-.3-.3-.5-.4-.8-.1-.3 0-.5 0-.7 0-.2.1-.4.1-.5.1-.3.1-.4.1-.4s0 .2.1.4c0 .1.1.3.1.5.1.2.1.4.2.5.1.2.2.3.4.5l.6.4c.2.1.5.2.7.2.2.1.6.1.8.1h.4l.4-.1c.2-.1.5-.1.7-.3l.3-.2.3-.2c.2-.2.2-.3.3-.5l.1-.3s0-.2.1-.3c0-.2.1-.4.1-.5-.1-.3 0-.4 0-.4z"/><path class="st4" d="M155.3-64.3v1.3"/><path class="st4" d="M224.1-42.8c0-9.7-9.8-17.5-19.5-17.5s-19.5 7.8-19.5 17.5v7.3h38.8l.2-7.3z"/><path class="st2" d="M224.1-39.6s0-.2-.1-.6c-.1-.4-.1-1-.3-1.8-.1-.4-.1-.8-.3-1.3-.2-.4-.3-.9-.5-1.4-.2-.5-.5-1-.7-1.6-.3-.5-.6-1.1-1-1.6-.8-1.1-1.7-2.2-2.8-3.2-1.1-1.1-2.4-2-3.9-2.8-1.4-.8-3-1.5-4.7-2-1.7-.5-3.5-.7-5.2-.7-1.8 0-3.5.3-5.2.7-1.7.5-3.3 1.1-4.7 2-1.4.8-2.8 1.8-3.9 2.8-1.2 1-2.1 2.1-2.8 3.2-.4.6-.7 1.1-1 1.6-.3.6-.5 1.1-.7 1.6-.2.5-.3 1-.5 1.4-.2.4-.2.9-.3 1.3-.2.8-.2 1.4-.3 1.8 0 .4-.1.6-.1.6v-.6c0-.4 0-1.1.1-1.8.1-.4.1-.8.2-1.3l.4-1.5c.2-.5.4-1.1.7-1.6.3-.5.6-1.1 1-1.7.8-1.1 1.7-2.3 2.8-3.4 1.1-1.1 2.5-2.1 3.9-3 1.5-.9 3.1-1.6 4.8-2.1 1.7-.5 3.6-.8 5.4-.8 1.9 0 3.7.3 5.4.8 1.7.5 3.4 1.2 4.8 2.1 1.5.9 2.8 1.9 3.9 3 1.2 1.1 2 2.3 2.8 3.4.4.6.7 1.2 1 1.7.2.6.5 1.1.7 1.6.2.5.3 1 .4 1.5.1.5.2.9.2 1.3.2.8.1 1.4.1 1.8.4.4.4.6.4.6zM201.9-62.7s-.3 0-.9.1c-.3 0-.6.1-1.1.1-.4 0-.8.2-1.3.3-.5.1-1 .2-1.6.4-.5.2-1.1.4-1.7.6-.6.2-1.2.5-1.8.8-.6.3-1.2.6-1.7 1l-1.6 1.1-.8.6-.7.6c-.5.4-.9.9-1.3 1.3-.4.5-.7.9-1 1.3-1.2 1.6-1.7 2.9-1.7 2.9s.4-1.3 1.6-3c.3-.4.6-.9 1-1.3s.8-.9 1.2-1.4l.7-.7c.2-.2.5-.4.8-.7.5-.5 1.1-.8 1.6-1.2.6-.4 1.2-.7 1.7-1.1l1.8-.9c.6-.2 1.2-.4 1.7-.7.6-.2 1.1-.3 1.6-.5.5-.1 1-.3 1.4-.3.4-.1.8-.1 1-.2.6-.1.9-.2.9-.2.3 0 .5.1.6.4.1.3-.1.6-.4.7zM187.8-52l-1.7-1.7 2.3.8c.3.1.4.4.3.7-.1.3-.4.4-.7.3-.1 0-.1 0-.2-.1zM192.7-56.6l-1.3-2.8 2.1 2.2c.2.2.2.5 0 .7-.2.2-.5.2-.7 0-.1 0-.1 0-.1-.1zM198.1-59.3l-.3-2.8 1.2 2.6c.1.3 0 .6-.2.7-.3.1-.6 0-.7-.2.1-.2 0-.3 0-.3zM207.8-63.9s.3.1.9.2c.3.1.6.1 1.1.2.4.1.9.2 1.4.3l1.6.5c.6.2 1.1.4 1.7.7l1.8.9c.6.4 1.2.7 1.7 1.1l1.6 1.2c.5.4 1 .9 1.4 1.4.5.4.8.9 1.2 1.4.3.5.7.9 1 1.3 1.1 1.7 1.6 3 1.6 3s-.5-1.3-1.7-2.9c-.3-.4-.7-.8-1-1.3-.4-.4-.8-.9-1.3-1.3-.4-.4-1-.9-1.5-1.3s-1.1-.8-1.6-1.1c-.6-.4-1.2-.7-1.7-1l-1.8-.8c-.6-.2-1.2-.4-1.7-.6-.5-.2-1.1-.3-1.6-.4-.5-.1-.9-.2-1.3-.3-.4-.1-.8-.1-1.1-.2-.6-.1-.9-.1-.9-.1-.3 0-.5-.3-.4-.6 0-.1.3-.3.6-.3zM220.9-52.6l2.6-1-2.1 1.9c-.2.2-.5.2-.7 0s-.2-.5 0-.7c.1-.2.2-.2.2-.2zM216.1-57.2l2.1-2.2-1.3 2.8c-.1.3-.4.4-.7.2-.3-.1-.4-.4-.2-.7.1 0 .1 0 .1-.1zM210.5-59.6l1.2-2.6-.3 2.8c0 .3-.3.5-.6.5s-.5-.3-.5-.6c.2 0 .2-.1.2-.1zM185.8-44s.1-.8.6-2.2c.5-1.3 1.2-3.3 2.7-5.3 1.4-2 3.6-4 6.4-5.4 2.8-1.4 6.1-2 9.4-2 1.6 0 3.3.2 4.9.6 1.6.4 3.1 1 4.4 1.8 2.7 1.5 4.8 3.6 6.2 5.6 1.5 2 2.3 3.9 2.7 5.2.5 1.4.5 2.2.5 2.2s-.1-.8-.6-2.1-1.4-3.2-2.9-5.1c-1.5-1.9-3.5-3.9-6.2-5.4-1.3-.7-2.8-1.3-4.3-1.7-1.5-.4-3.1-.6-4.8-.6-3.2 0-6.5.6-9.2 1.9-2.7 1.3-4.9 3.2-6.3 5.2-1.5 1.9-2.3 3.8-2.8 5.1-.6 1.4-.7 2.2-.7 2.2zM207.5-65.2s0 .2.1.4c0 .1.1.3.1.5v.6c0 .3-.1.6-.3.9l-.3.4c-.1.1-.2.2-.4.3-.3.2-.6.4-.9.5l-.5.1-.5.1c-.4 0-.6 0-1-.1s-.7-.2-1-.4c-.3-.2-.5-.4-.7-.7-.2-.3-.3-.5-.4-.8-.1-.3 0-.5 0-.7 0-.2.1-.4.1-.5.1-.3.1-.4.1-.4s0 .2.1.4c0 .1.1.3.1.5.1.2.1.4.2.5.1.2.2.3.4.5l.6.4c.2.1.5.2.7.2.2.1.6.1.8.1h.4l.4-.1c.2-.1.5-.1.7-.3l.3-.2.3-.2c.2-.2.2-.3.3-.5l.1-.3s0-.2.1-.3c0-.2.1-.4.1-.5v-.4z"/><path class="st4" d="M204.7-61.8v1.2"/><path class="st4" d="M38.4-45.2c0-9.7 9.8-17.5 19.5-17.5s19.5 7.8 19.5 17.5v7.3h-38.8l-.2-7.3z"/><path class="st2" d="M38.4-42.1v-.6c0-.4 0-1 .1-1.8.1-.4.1-.8.2-1.3l.4-1.5c.2-.5.4-1.1.7-1.6.3-.5.6-1.1 1-1.7.8-1.1 1.7-2.3 2.8-3.4 1.1-1.1 2.5-2.1 3.9-3 1.5-.9 3.1-1.6 4.8-2.1 1.7-.5 3.5-.8 5.4-.8 1.8 0 3.7.3 5.4.8 1.7.5 3.4 1.2 4.8 2.1 1.5.9 2.8 1.9 3.9 3 1.2 1.1 2 2.3 2.8 3.4.4.6.7 1.2 1 1.7.2.6.5 1.1.7 1.6.2.5.3 1 .4 1.5.1.5.2.9.2 1.3.2.8.1 1.4.1 1.8v.6s0-.2-.1-.6c-.1-.4-.1-1-.3-1.8-.1-.4-.1-.8-.3-1.3-.2-.4-.3-.9-.5-1.4-.2-.5-.5-1-.7-1.6-.3-.5-.6-1.1-1-1.6-.8-1.1-1.7-2.2-2.8-3.2-1.1-1.1-2.4-2-3.9-2.8-1.4-.8-3-1.5-4.7-2-1.7-.5-3.4-.7-5.2-.7-1.7 0-3.5.3-5.2.7-1.7.5-3.3 1.1-4.7 2-1.4.8-2.8 1.8-3.9 2.8-1.2 1-2.1 2.1-2.8 3.2-.4.6-.7 1.1-1 1.6-.3.6-.5 1.1-.7 1.6-.2.5-.3 1-.5 1.4-.2.4-.2.9-.3 1.3-.2.8-.2 1.4-.3 1.8.3.4.3.6.3.6zM60.7-66.2s.3.1.9.2c.3.1.6.1 1 .2s.9.2 1.4.3c.5.1 1.1.3 1.6.5.6.2 1.1.4 1.7.7l1.8.9c.6.4 1.2.7 1.7 1.1l1.6 1.2c.3.2.5.4.8.7l.7.7c.5.4.8.9 1.2 1.4.3.5.7.9 1 1.3 1.1 1.7 1.6 3 1.6 3s-.5-1.4-1.7-3c-.3-.4-.6-.8-1-1.3-.4-.4-.8-.9-1.3-1.3l-.7-.6-.8-.6c-.5-.4-1.1-.8-1.6-1.1-.6-.4-1.2-.6-1.7-1l-1.8-.8c-.6-.2-1.2-.4-1.7-.6-.5-.2-1.1-.3-1.6-.4-.5-.1-.9-.2-1.3-.3-.4-.1-.8-.1-1.1-.1-.6-.1-.9-.1-.9-.1-.3 0-.5-.3-.4-.6 0-.2.3-.4.6-.4zM74.1-55.3l2.3-.8-1.7 1.7c-.2.2-.5.2-.7 0s-.2-.5 0-.7l.1-.2zM69-59.6l2.1-2.2-1.3 2.8c-.1.3-.4.4-.7.2-.3-.1-.4-.4-.2-.7 0 0 0-.1.1-.1zM63.4-62.1l1.2-2.6-.3 2.8c0 .3-.3.5-.6.5s-.5-.3-.5-.6c.1.1.1 0 .2-.1zM54.9-65.3s-.3 0-.9.1c-.3 0-.7.1-1.1.2-.4 0-.9.2-1.3.3-.5.1-1 .2-1.6.4-.5.2-1.1.4-1.7.6l-1.8.8c-.6.3-1.2.6-1.7 1l-1.6 1.1c-.5.4-1 .8-1.5 1.3-.5.4-.9.9-1.3 1.3s-.7.9-1 1.3c-1.2 1.6-1.7 2.9-1.7 2.9s.4-1.3 1.6-3c.3-.4.6-.9 1-1.3s.8-.9 1.2-1.4c.4-.5.9-.9 1.4-1.4.5-.5 1.1-.8 1.6-1.2.6-.4 1.2-.7 1.7-1.1l1.8-.9c.6-.2 1.2-.5 1.7-.7.6-.2 1.1-.3 1.6-.5.5-.1 1-.3 1.4-.3.4-.1.8-.1 1.1-.2.6-.1.9-.2.9-.2.3-.1.5.1.6.4 0 .2-.1.4-.4.5zM41-54.2l-2.1-1.9 2.6 1c.3.1.4.4.3.7-.1.3-.4.4-.7.3l-.1-.1zM45.5-59l-1.3-2.8 2.1 2.2c.2.2.2.5 0 .7-.2.2-.5.2-.7 0l-.1-.1zM51-61.8l-.3-2.8 1.2 2.6c.1.3 0 .6-.2.7-.3.1-.6 0-.7-.2v-.3zM76.7-46.5s-.2-.8-.7-2.1c-.5-1.3-1.4-3.2-2.8-5.1-1.5-1.9-3.6-3.9-6.3-5.2-2.7-1.3-6-1.9-9.2-1.9-1.6 0-3.2.2-4.8.6-1.5.4-3 .9-4.3 1.7-2.6 1.5-4.7 3.5-6.2 5.4-1.5 1.9-2.4 3.8-2.9 5.1-.5 1.3-.6 2.1-.6 2.1s.1-.8.5-2.2c.5-1.3 1.3-3.2 2.7-5.2 1.4-2 3.5-4.1 6.2-5.6 1.3-.8 2.8-1.3 4.4-1.8 1.6-.4 3.2-.6 4.9-.6 3.3 0 6.6.6 9.4 2 2.8 1.4 4.9 3.4 6.4 5.4 1.5 2 2.2 3.9 2.7 5.3.5 1.3.6 2.1.6 2.1zM54.9-67.6s0 .2.1.4c0 .1.1.3.1.5 0 .1 0 .2.1.3l.1.3.3.5c.1.1.2.2.3.2l.3.2.7.3.4.1h.4c.2 0 .6 0 .8-.1.2 0 .5-.1.7-.2.2-.1.4-.2.6-.4l.4-.5c.1-.2.1-.4.2-.5 0-.2.1-.4.1-.5.1-.3.1-.4.1-.4s0 .2.1.4c0 .1.1.3.1.5s.1.5 0 .7c-.1.3-.2.5-.4.8-.2.2-.4.5-.7.7-.3.2-.6.3-1 .4-.4.1-.6.1-1 .1l-.5-.1-.6-.1c-.3-.1-.7-.3-.9-.5l-.4-.3c-.1-.1-.2-.2-.3-.4-.2-.2-.3-.6-.3-.9v-.6c0-.2.1-.4.1-.5.1-.3.1-.4.1-.4z"/><path class="st4" d="M57.8-64.3v1.3"/><path class="st4" d="M87-46.8c0-9.7 9.8-17.5 19.5-17.5s19.5 7.8 19.5 17.5v7.3h-38.8l-.2-7.3z"/><path class="st2" d="M87-43.6v-.6c0-.4 0-1 .1-1.8.1-.4.1-.8.2-1.3l.4-1.5c.2-.5.4-1.1.7-1.6.3-.5.6-1.1 1-1.7.8-1.1 1.7-2.3 2.8-3.4 1.1-1.1 2.5-2.1 3.9-3 1.5-.9 3.1-1.6 4.8-2.1 1.7-.5 3.5-.8 5.4-.8 1.8 0 3.7.3 5.4.8 1.7.5 3.4 1.2 4.8 2.1 1.5.9 2.8 1.9 3.9 3 1.2 1.1 2 2.3 2.8 3.4.4.6.7 1.2 1 1.7.2.6.5 1.1.7 1.6.2.5.3 1 .4 1.5.1.5.2.9.2 1.3.2.8.1 1.4.1 1.8v.6s0-.2-.1-.6c-.1-.4-.1-1-.3-1.8-.1-.4-.1-.8-.3-1.3-.2-.4-.3-.9-.5-1.4-.2-.5-.5-1-.7-1.6-.3-.5-.6-1.1-1-1.6-.8-1.1-1.7-2.2-2.8-3.2-1.1-1.1-2.4-2-3.9-2.8-1.4-.8-3-1.5-4.7-2-1.7-.5-3.4-.7-5.2-.7-1.7 0-3.5.3-5.2.7-1.7.5-3.3 1.1-4.7 2-1.4.8-2.8 1.8-3.9 2.8-1.2 1-2.1 2.1-2.8 3.2-.4.6-.7 1.1-1 1.6-.3.6-.5 1.1-.7 1.6-.2.5-.3 1-.5 1.4-.2.4-.2.9-.3 1.3-.2.8-.2 1.4-.3 1.8.3.3.3.6.3.6zM109.3-67.8s.3.1.9.2c.3.1.6.1 1 .2s.9.2 1.4.3c.5.1 1.1.3 1.6.5.6.2 1.1.4 1.7.7l1.8.9c.6.4 1.2.7 1.7 1.1l1.6 1.2c.3.2.5.4.8.7l.7.7c.5.4.8.9 1.2 1.4.3.5.7.9 1 1.3 1.1 1.7 1.6 3 1.6 3s-.5-1.3-1.7-2.9c-.3-.4-.6-.8-1-1.3-.4-.4-.8-.9-1.3-1.3l-.7-.6-.8-.6c-.5-.4-1.1-.8-1.6-1.1-.6-.4-1.2-.6-1.7-1l-1.8-.8c-.6-.2-1.2-.4-1.7-.6-.5-.2-1.1-.3-1.6-.4-.5-.1-.9-.2-1.3-.3-.4-.1-.8-.1-1.1-.1-.6-.1-.9-.1-.9-.1-.3 0-.5-.3-.4-.6.1-.3.3-.5.6-.5zM122.7-56.9l2.3-.8-1.7 1.7c-.2.2-.5.2-.7 0s-.2-.5 0-.7l.1-.2zM117.6-61.2l2.1-2.2-1.3 2.8c-.1.3-.4.4-.7.2-.3-.1-.4-.4-.2-.7l.1-.1zM112-63.7l1.2-2.6-.3 2.8c0 .3-.3.5-.6.5s-.5-.3-.5-.6c.1.1.2 0 .2-.1zM103.5-66.9s-.3 0-.9.1c-.3 0-.7.1-1.1.2-.4 0-.9.2-1.3.3-.5.1-1 .2-1.6.4-.5.2-1.1.4-1.7.6l-1.8.8c-.6.3-1.2.6-1.7 1l-1.6 1.1c-.5.4-1 .8-1.5 1.3-.5.4-.9.9-1.3 1.3s-.7.9-1 1.3c-1.2 1.6-1.7 2.9-1.7 2.9s.4-1.3 1.6-3c.3-.4.6-.9 1-1.3s.8-.9 1.2-1.4c.4-.5.9-.9 1.4-1.4.5-.5 1.1-.8 1.6-1.2.6-.4 1.2-.7 1.7-1.1l1.8-.9c.6-.2 1.2-.5 1.7-.7.6-.2 1.1-.3 1.6-.5.5-.1 1-.3 1.4-.3.4-.1.8-.1 1.1-.2.6-.1.9-.2.9-.2.3-.1.5.1.6.4.1.2-.1.4-.4.5zM89.6-55.8l-2.1-1.9 2.6 1c.3.1.4.4.3.7-.1.3-.4.4-.7.3 0 0 0-.1-.1-.1zM94.1-60.6l-1.3-2.8 2.1 2.2c.2.2.2.5 0 .7-.2.2-.5.2-.7 0 0 0 0-.1-.1-.1zM99.6-63.4l-.3-2.8 1.2 2.6c.1.3 0 .6-.2.7s-.6 0-.7-.2v-.3zM125.3-48.1s-.2-.8-.7-2.1c-.5-1.3-1.4-3.2-2.8-5.1-1.5-1.9-3.6-3.9-6.3-5.2-2.7-1.3-6-1.9-9.2-1.9-1.6 0-3.2.2-4.8.6-1.5.4-3 .9-4.3 1.7-2.6 1.5-4.7 3.5-6.2 5.4-1.5 1.9-2.4 3.8-2.9 5.1-.5 1.3-.6 2.1-.6 2.1s.1-.8.5-2.2c.5-1.3 1.3-3.2 2.7-5.2 1.4-2 3.5-4.1 6.2-5.6 1.3-.8 2.8-1.3 4.4-1.8 1.6-.4 3.2-.6 4.9-.6 3.3 0 6.6.6 9.4 2 2.8 1.4 4.9 3.4 6.4 5.4 1.5 2 2.2 3.9 2.7 5.3.5 1.3.6 2.1.6 2.1z"/><path class="st4" d="M-11-42.8c0-9.7 9.8-17.5 19.5-17.5s19.5 7.8 19.5 17.5v7.3h-38.8l-.2-7.3z"/><path class="st2" d="M-11-39.6v-.6c0-.4 0-1 .1-1.8.1-.4.1-.8.2-1.3l.4-1.5c.2-.5.4-1.1.7-1.6.3-.5.6-1.1 1-1.7.8-1.1 1.7-2.3 2.8-3.4 1.1-1.1 2.5-2.1 3.9-3 1.5-.9 3.1-1.6 4.8-2.1 1.7-.5 3.5-.8 5.4-.8 1.8 0 3.7.3 5.4.8 1.7.5 3.4 1.2 4.8 2.1 1.5.9 2.8 1.9 3.9 3 1.2 1.1 2 2.3 2.8 3.4.4.6.7 1.2 1 1.7.2.6.5 1.1.7 1.6.2.5.3 1 .4 1.5.1.5.2.9.2 1.3.2.8.1 1.4.1 1.8v.6s0-.2-.1-.6c-.1-.4-.1-1-.3-1.8-.1-.4-.1-.8-.3-1.3-.2-.4-.3-.9-.5-1.4-.2-.5-.5-1-.7-1.6-.3-.5-.6-1.1-1-1.6-.8-1.1-1.7-2.2-2.8-3.2-1.1-1.1-2.4-2-3.9-2.8-1.4-.8-3-1.5-4.7-2-1.7-.5-3.4-.7-5.2-.7-1.7 0-3.5.3-5.2.7-1.7.5-3.3 1.1-4.7 2-1.4.8-2.8 1.8-3.9 2.8-1.2 1-2.1 2.1-2.8 3.2-.4.6-.7 1.1-1 1.6-.3.6-.5 1.1-.7 1.6-.2.5-.3 1-.5 1.4-.2.4-.2.9-.3 1.3-.2.8-.2 1.4-.3 1.8.3.4.3.6.3.6zM11.3-63.7s.3.1.9.2c.3.1.6.1 1 .2s.9.2 1.4.3c.5.1 1.1.3 1.6.5.6.2 1.1.4 1.7.7l1.8.9c.6.4 1.2.7 1.7 1.1l1.6 1.2c.3.2.5.4.8.7l.7.7c.5.4.8.9 1.2 1.4.3.5.7.9 1 1.3 1.1 1.7 1.6 3 1.6 3s-.5-1.3-1.7-2.9c-.3-.4-.6-.8-1-1.3-.4-.4-.8-.9-1.3-1.3l-.7-.6-.8-.6c-.5-.4-1.1-.8-1.6-1.1-.6-.4-1.2-.6-1.7-1l-1.8-.8c-.6-.2-1.2-.4-1.7-.6-.5-.2-1.1-.3-1.6-.4-.5-.1-.9-.2-1.3-.3-.4-.1-.8-.1-1.1-.1-.6-.1-.9-.1-.9-.1-.3 0-.5-.3-.4-.6.1-.4.3-.6.6-.5zM24.7-52.8l2.3-.8-1.7 1.6c-.2.2-.5.2-.7 0-.2-.2-.2-.5 0-.7 0-.1.1-.1.1-.1zM19.6-57.2l2.1-2.2-1.3 2.8c-.1.3-.4.4-.7.2-.3-.1-.4-.4-.2-.7 0 0 .1 0 .1-.1zM14-59.6l1.2-2.6-.2 2.9c0 .3-.3.5-.6.5s-.5-.3-.5-.6c.1-.1.1-.2.1-.2zM5.5-62.9s-.3 0-.9.1c-.3 0-.7.1-1.1.2-.4 0-.9.2-1.3.3-.5.1-1 .2-1.6.4-.5.2-1.1.4-1.7.6l-1.8.8c-.6.3-1.2.6-1.7 1l-1.6 1.1c-.5.4-1 .8-1.5 1.3-.5.4-.9.9-1.3 1.3s-.7.9-1 1.3c-1.2 1.6-1.7 2.9-1.7 2.9s.4-1.3 1.6-3c.3-.4.6-.9 1-1.3s.8-.9 1.2-1.4c.4-.5.9-.9 1.4-1.4.5-.5 1.1-.8 1.6-1.2.6-.4 1.2-.7 1.7-1.1l1.8-.9c.6-.2 1.2-.5 1.7-.7.6-.3 1.2-.4 1.7-.5.5-.1 1-.3 1.4-.3.4-.1.8-.1 1.1-.2.6-.1.9-.2.9-.2.3-.1.5.1.6.4 0 .2-.2.5-.5.5zM-8.4-51.8l-2.1-1.9 2.6 1c.3.1.4.4.3.7-.1.3-.4.4-.7.3l-.1-.1zM-3.9-56.6l-1.3-2.8 2.1 2.2c.2.2.2.5 0 .7-.2.2-.5.2-.7 0l-.1-.1zM1.6-59.3l-.3-2.8 1.2 2.6c.1.3 0 .6-.2.7s-.6 0-.7-.2v-.3zM27.3-44s-.2-.8-.7-2.1c-.5-1.3-1.4-3.2-2.8-5.1-1.5-1.9-3.6-3.9-6.3-5.2-2.7-1.3-6-1.9-9.2-1.9-1.6 0-3.2.2-4.8.6-1.5.4-3 .9-4.3 1.7-2.6 1.5-4.7 3.5-6.2 5.4-1.5 1.9-2.4 3.8-2.9 5.1-.5 1.3-.6 2.1-.6 2.1s.1-.8.5-2.2c.5-1.3 1.3-3.2 2.7-5.2 1.4-2 3.5-4.1 6.2-5.6 1.3-.8 2.8-1.3 4.4-1.8 1.6-.4 3.2-.6 4.9-.6 3.3 0 6.6.6 9.4 2 2.8 1.4 4.9 3.4 6.4 5.4 1.5 2 2.2 3.9 2.7 5.3.5 1.3.6 2.1.6 2.1zM5.6-65.2s0 .2.1.4c0 .1.1.3.1.5 0 .1 0 .2.1.3l.1.3.3.5c.1.1.2.2.3.2l.3.2.7.3.4.1h.4c.2 0 .6 0 .8-.1.2 0 .5-.1.7-.2.2-.1.4-.2.6-.4l.4-.5c.1-.2.1-.4.2-.5 0-.2.1-.4.1-.5.1-.3.1-.4.1-.4s0 .2.1.4c0 .1.1.3.1.5s.1.5 0 .7c-.1.3-.2.5-.4.8-.2.2-.4.5-.7.7-.3.2-.6.3-1 .4-.4.1-.6.1-1 .1l-.5-.1-.5-.1c-.3-.1-.7-.3-.9-.5l-.4-.3c-.1-.1-.2-.2-.3-.4-.2-.2-.3-.6-.3-.9v-.6c0-.2.1-.4.1-.5-.1-.2 0-.4 0-.4z"/><path class="st4" d="M8.4-61.8v1.2"/><circle class="st11" cx="7.9" cy="-78.6" r="1.3"/><path class="st6" d="M7.9-77.3s-.1 3.8-2.2 6.3v1.3l4.6-.1v-1.3s-1.9-1.6-2.4-6.2z"/><circle class="st11" cx="204.8" cy="-78.6" r="1.3"/><path class="st6" d="M204.8-77.3s.1 3.8 2.2 6.3v1.3l-4.6-.1v-1.3s1.9-1.6 2.4-6.2z"/><circle class="st11" cx="155.3" cy="-80.6" r="1.3"/><path class="st6" d="M155.3-79.3s.1 3.8 2.2 6.3v1.3l-4.6-.1v-1.3s1.9-1.6 2.4-6.2z"/><circle class="st11" cx="58" cy="-80.6" r="1.3"/><path class="st6" d="M58-79.3s.1 3.8 2.2 6.3v1.3l-4.6-.1v-1.3s1.9-1.6 2.4-6.2z"/><path class="st1" d="M364.1-56.2c.4-.8.7-1.8.7-2.8 0-3.3-2.7-6-6-6-1.1 0-2.1.3-2.9.8v-.8c0-5.8-4.7-10.5-10.5-10.5s-10.5 4.7-10.5 10.5c0 1 .2 2.1.4 3h-.2c-3.7 0-6.7 3-6.7 6.7 0 3.1 2.1 5.7 4.9 6.5-.7 1.5-1.1 3.2-1.1 4.9 0 1.6.3 3.1.9 4.5-.9 1.5-1.4 3.3-1.4 5.1 0 5.6 4.6 10.2 10.2 10.2 1.8 0 3.6-.5 5.1-1.4 1.2 2 3.4 3.4 5.9 3.4 3.8 0 7-3.1 7-7 0-1.3-.4-2.5-1-3.5h1c6.8 0 12.2-5.5 12.2-12.2 0-5.2-3.3-9.6-8-11.4z"/><path class="st10" d="M332.4-41.9s.9 3.7 3.1 4.4"/><path class="st2" d="M332.8-42s0 .3.2.8c.1.5.3 1.1.6 1.7.1.3.3.6.5.9.2.3.4.5.6.7.2.2.4.3.5.4.1.1.2.1.2.1s-.1 0-.2-.1c-.2 0-.3-.1-.6-.3-.2-.1-.5-.3-.7-.6-.2-.2-.5-.5-.7-.8-.4-.6-.8-1.2-1-1.7-.2-.5-.4-.8-.4-.8l1-.3z"/><path class="st10" d="M355.8-66.4s.3 2.9-1.6 5.2"/><path class="st2" d="M356.3-66.5s0 .4-.1.9c0 .3-.1.6-.2.9l-.3 1c-.1.3-.3.7-.5.9-.2.3-.3.6-.5.8-.3.4-.6.7-.6.7s.2-.3.4-.7c.1-.2.2-.5.3-.8.1-.3.2-.6.3-1 .1-.3.1-.7.1-1v-.9c0-.5-.1-.8-.1-.8h1.2z"/><path class="st10" d="M362.4-32.7s-4.8.9-5.4-1.5"/><path class="st2" d="M362.5-32.2s-1.6.2-3.1-.2c-.4-.1-.8-.2-1.1-.4l-.5-.3-.4-.3c-.1-.1-.2-.2-.2-.3-.1-.1-.1-.2-.1-.3 0-.2-.1-.3-.1-.3s0 .1.1.2c0 .1.1.2.2.2.1.1.1.2.3.3.1.1.2.2.4.2.1.1.3.1.5.2.3.1.7.1 1.1.2.7 0 1.5-.1 2-.1.6-.1.9-.2.9-.2v1.1z"/><path class="st1" d="M321.8-170.5l-2 143h27.5l-2-143s-7.3-2.7-23.5 0z"/><path class="st17" d="M314.5-182.2h37.6v6.3h-37.6z"/><path class="st18" d="M322.7-204.9c11.7-2.3 21.3 0 21.3 0s.7 2.3 0 5-1.4 6.5 0 17.7"/><path class="st17" d="M343.9-182.2h-21.3c1.4-11.2.7-15 0-17.7-.7-2.7 0-5 0-5s9.7-2.3 21.3 0c0 0 .8 1.9.2 4.6-.6 2.7-1.6 5.9-.2 18.1z"/><path class="st18" d="M344.2-200.5s-7.6-2.3-21.9 0"/><path class="st19" d="M333.3-182.2M333.3-192.2M337-182.3v-11.2c0-1.1-.9-1.9-1.9-1.9h-3.6c-1.1 0-1.9.9-1.9 1.9v11.2M331-195.4s-.2 13.4 0 13.2"/><path class="st2" d="M343.9-27.6s-.2-17.7-.5-44.2c-.1-13.2-.3-28.7-.4-45.3-.1-8.3-.2-16.8-.2-25.5 0-4.3-.1-8.7-.1-13.1 0-2.2 0-4.4-.1-6.6v-3.3c0-.5 0-1.2-.1-1.5-.1-.2-.2-.3-.4-.4-.2-.1-.3-.1-.6-.1h-.4c-.2 0-.2 0-.3.1-.2.1-.3.2-.4.4l-.1.3v49.7c0 16.6.1 32 .1 45.3v44.2s-.1-17.7-.4-44.2c-.1-13.2-.2-28.7-.2-45.3 0-8.3-.1-16.8-.1-25.5 0-4.3 0-8.7-.1-13.1v-11.1c0-.2.1-.4.1-.5.1-.3.4-.6.7-.8.1-.1.4-.2.5-.1h.4c.2 0 .7 0 1 .2.3.2.6.4.7.8l.1.3v11.399999999999999c0 4.4 0 8.8.1 13.1 0 8.7.1 17.2.1 25.5.1 16.6.2 32 .2 45.3.3 26.4.4 44 .4 44zM338-27.6s-.1-17.7-.2-44.2c0-13.2-.1-28.7-.1-45.3v-48.5c0-.5.1-1.2-.1-1.5-.1-.2-.2-.3-.4-.4-.2-.1-.3-.1-.6-.1h-.4c-.2 0-.2 0-.3.1-.2.1-.3.2-.4.4l-.1.3v11.1c0 4.4 0 8.8-.1 13.1 0 8.7-.1 17.2-.1 25.5-.1 16.6-.2 32-.2 45.3-.2 26.5-.4 44.2-.4 44.2v-44.2c0-13.2.1-28.7.1-45.3v-49.699999999999996c0-.2.1-.4.1-.5.1-.3.4-.6.7-.8.4-.2.7-.2 1-.2.2 0 .7 0 1 .2.3.2.6.4.7.8.1.2.1.4.1.5v49.8c0 16.6-.1 32-.1 45.3-.1 26.5-.2 44.1-.2 44.1zM329.6-27.6s-.1-17.7-.2-44.2c0-13.2-.1-28.7-.1-45.3v-49.8c0-.1 0-.3.1-.5.1-.3.4-.6.7-.8.3-.2.7-.2 1-.2.3 0 .6 0 1 .2.3.2.6.4.7.8.1.2.1.3.1.5v49.7c0 16.6.1 32 .1 45.3v44.2s-.1-17.7-.4-44.2c-.1-13.2-.2-28.7-.2-45.3 0-8.3-.1-16.8-.1-25.5 0-4.3 0-8.7-.1-13.1v-11.1c0-.1 0-.2-.1-.3-.1-.2-.2-.3-.4-.4-.1 0-.1-.1-.3-.1h-.4c-.3 0-.5 0-.6.1-.2.1-.3.2-.4.4l-.1 1.5v48.5c0 16.6-.1 32-.1 45.3-.1 26.7-.2 44.3-.2 44.3zM323.7-27.6s0-17.7.1-44.2c.1-13.2.2-28.7.2-45.3 0-8.3.1-16.8.1-25.5 0-4.3 0-8.7.1-13.1v-11.399999999999999l.1-.3c.1-.3.4-.6.7-.8.3-.2.7-.2 1-.2h.4l.5.1c.3.2.6.4.7.8.1.2.1.3.1.5v11.1c0 4.4 0 8.8-.1 13.1 0 8.7-.1 17.2-.1 25.5-.1 16.6-.2 32-.2 45.3-.2 26.5-.4 44.2-.4 44.2v-44.2c0-13.2.1-28.7.1-45.3v-49.699999999999996c0-.1 0-.2-.1-.3-.1-.2-.2-.3-.4-.4-.1 0-.1-.1-.3-.1h-.4c-.3 0-.5 0-.6.1-.2.1-.3.2-.4.4l-.1 1.5v3.3c0 2.2 0 4.4-.1 6.6 0 4.4-.1 8.8-.1 13.1-.1 8.7-.2 17.2-.2 25.5-.1 16.6-.3 32-.4 45.3 0 26.8-.2 44.4-.2 44.4z"/><path class="st19" d="M349.5-182.3v-5.9c0-.4-.3-.7-.7-.7h-30.3c-.4 0-.7.3-.7.7v5.9"/><path class="st20" d="M346.7-188.8v6.5M342.9-188.8v6.5M339-188.8v6.5M335.2-188.8v6.5M331.3-188.8v6.5M327.5-188.8v6.5M323.6-188.8v6.5M319.8-188.8v6.5"/><path class="st21" d="M323.1-108.5h-135.3l4-28.6h127.3z"/><path class="st2" d="M193-135.4s7.8-.1 19.5-.1 27.2-.1 42.8-.1c15.6 0 31.1.1 42.8.1 11.7.1 19.5.1 19.5.1s-7.8.1-19.5.1-27.2.1-42.8.1c-15.6 0-31.1-.1-42.8-.1-11.7-.1-19.5-.1-19.5-.1z"/><path class="st1" d="M323.1-108.5l-20.9-22h-.2l-21.4 21.8h-4.9l-.5-.5-19.6-22.8c0-.1-.1-.1-.2 0l-20 23.2h-4.6l-21.4-21.8h-.2l-20.9 22-.1-.1c-.1 0-.1.1-.1.1v25.3l1.6 1.8v47.3l131.5-.8h.1v-46.5l1.4-1.5h.1c.1 0 .1-.1.1-.1v.1-8.3-8.5-8.5l.1.1h.2c0-.2 0-.3-.1-.3z"/><path class="st4" d="M188.4-108.6l21-22 21.4 21.8h4.7l20-23.3 19.7 22.8.5.5h5l21.4-21.8 20.9 22"/><path class="st2" d="M189.8-108.1c3.1-3.4 6.3-6.8 9.4-10.1l4.8-5 4.8-4.9c.2-.2.5-.2.7 0l4.9 4.9c1.6 1.6 3.3 3.2 4.9 4.9l4.8 5 4.8 5c-1.7-1.5-3.4-3.1-5.1-4.7l-5-4.8-5-4.8-5-4.8h.7l-4.9 4.9c-1.6 1.6-3.2 3.3-4.9 4.9-3.2 3.1-6.5 6.4-9.9 9.5zM273-109.3c-3.1-3.1-6.1-6.4-9.1-9.6l-4.5-4.9-4.5-4.9h.7l-4.4 5c-1.5 1.7-2.9 3.4-4.5 5l-4.5 4.9c-1.5 1.6-3 3.3-4.6 4.9 1.4-1.8 2.8-3.5 4.2-5.2l4.3-5.1c1.4-1.7 2.9-3.4 4.4-5.1l4.4-5.1c.2-.2.5-.2.7-.1l4.4 5 4.4 5c3 3.4 5.9 6.8 8.6 10.2zM208.5-128h1.5v17.5h-1.5zM200.9-111l7.9-7.8-.1-2.3-10.1 10.1h2.3000000000000003zM219.7-111.2l-9.9-9.9-.1 2.3 7.7 7.7c.7-.1 1.5-.1 2.3-.1zM254.8-127.1h1.5v16.3h-1.5zM251.2-110.7l3.9-4.2-.1-2.3-6 6.5h2.2zM245-110.8l10.1-11-.1-2.3-12.1 13.1 2.1.2zM261.8-110.9l-5.8-6.3-.1 2.2 3.7 4.1c.7.1 1.4.1 2.2 0zM249.8-122.6h11.1l1.4 1.1h-13.8c0 .1.3 0 .4 0 .5-.6.4-.6.9-1.1zM267.9-111.1l-12-13-.1 2.3 9.9 10.8c.8-.1 1.5-.1 2.2-.1z"/><path class="st11" d="M209.2-124.5c-.6 0-1-.4-1-1v-5c0-.5.4-1 1-1 .5 0 1 .4 1 1v5c0 .5-.5 1-1 1z"/><circle class="st11" cx="209.2" cy="-132.5" r="1"/><path class="st11" d="M208.7-133.5s-1.1-4.6.7-7.9c0 0 1.7 2.2.3 8"/><path class="st11" d="M255.4-126.5c-.6 0-1-.4-1-1v-5c0-.5.4-1 1-1 .5 0 1 .4 1 1v5c0 .5-.5 1-1 1z"/><circle class="st11" cx="255.4" cy="-134.5" r="1"/><path class="st11" d="M254.9-135.5s-1.1-5.6.7-8.9c0 0 1.7 3.2.3 9"/><path class="st2" d="M226.8-110.6c-.1-.1-.6-.4-.7-.6l-.3-.3h-32.5c-.5.4-.8.7-1 .9.1.1.7.1.9.1h32.9c.1 0 .6 0 .7-.1zM229.1-108.4c-.1-.1-.7-.4-.8-.6l-.4-.3h-37c-.6.4-.9.7-1.1.9.1.1.8.1 1 .1h37.4l.9-.1c0-.1.1 0 0 0zM273.9-108.4h-36.1c-.2 0-.3.2-.4 0 .3-.2.4-.7.8-.9l34.9-.1.8 1"/><path class="st2" d="M191.5-109.8s2.3-.1 5.6-.1c1.7 0 3.7 0 5.8-.1h13.2c2.1 0 4.1.1 5.8.1 3.4.1 5.6.1 5.6.1s-2.3.1-5.6.1c-1.7 0-3.7 0-5.8.1h-13.2c-2.1 0-4.1-.1-5.8-.1-3.4 0-5.6-.1-5.6-.1zM238.6-109.8s2.1-.1 5.3-.1c1.6 0 3.5 0 5.4-.1h12.4c2 0 3.9.1 5.4.1 3.2.1 5.3.1 5.3.1s-2.1.1-5.3.1c-1.6 0-3.5 0-5.4.1h-12.4c-2 0-3.9-.1-5.4-.1-3.2 0-5.3-.1-5.3-.1zM321.6-108.1c-3.4-3.1-6.7-6.3-10-9.6-1.7-1.6-3.3-3.2-4.9-4.9l-4.9-4.9h.7l-5 4.8-5 4.8-5 4.8-5.1 4.7c1.6-1.7 3.2-3.4 4.8-5l4.8-5c1.6-1.7 3.3-3.3 4.9-4.9l4.9-4.9c.2-.2.5-.2.7 0l4.8 4.9 4.8 5c3.3 3.4 6.4 6.8 9.5 10.2zM301.5-128h1.5v17.5h-1.5zM310.5-111.1l-7.9-7.8.1-2.3 10.1 10.2h-.6c-.7-.1-.9-.1-1.7-.1zM291.8-111.2l9.9-9.9.1 2.2-7.7 7.7h-2.3z"/><path class="st11" d="M302.3-124.5c.6 0 1-.4 1-1v-5c0-.5-.4-1-1-1-.5 0-1 .4-1 1v5c0 .5.4 1 1 1z"/><circle class="st11" cx="302.3" cy="-132.5" r="1"/><path class="st11" d="M302.8-133.5s1.1-4.6-.7-7.9c0 0-1.7 2.2-.3 8"/><path class="st2" d="M284.7-110.6c.1-.1.6-.4.7-.6l.3-.3h32.5c.5.4.8.7 1 .9-.1.1-.7.1-.9.1h-32.9c-.2 0-.6 0-.7-.1zM271.1-111.5h-30.9l-.3.3c-.1.1-.6.4-.7.6.1.1.6.1.7.1h32.2c-.4-.2-.9-.6-1-1zM282.3-108.4c.1-.1.7-.4.8-.6l.4-.3h37c.6.4.9.7 1.1.9-.1.1-.8.1-1 .1h-37.4l-.9-.1zM320-109.8s-2.3.1-5.6.1c-1.7 0-3.7 0-5.8.1h-13.2c-2.1 0-4.1-.1-5.8-.1-3.4-.1-5.6-.1-5.6-.1s2.3-.1 5.6-.1c1.7 0 3.7 0 5.8-.1h13.2c2.1 0 4.1.1 5.8.1 3.3 0 5.6.1 5.6.1z"/><path class="st19" d="M188.2-83.3l1.6 1.8v47.2"/><path class="st16" d="M268.4-91.4c0 2 1.7 3.7 3.7 3.7M267.3-91.4c0 2-1.7 3.7-3.7 3.7M267.3-83.2c0-2-1.7-3.7-3.7-3.7M268.4-83.2c0-2 1.7-3.7 3.7-3.7"/><path class="st22" d="M251.7-91.4c0 2 1.6 3.7 3.6 3.7M250.7-91.4c0 2-1.6 3.7-3.6 3.7M250.7-83.2c0-2-1.6-3.7-3.6-3.7M251.7-83.2c0-2 1.6-3.7 3.6-3.7"/><path class="st16" d="M259.9-91.4c0 2 1.7 3.7 3.7 3.7M258.8-91.4c0 2-1.7 3.7-3.7 3.7M258.8-83.2c0-2-1.7-3.7-3.7-3.7M259.9-83.2c0-2 1.7-3.7 3.7-3.7"/><path class="st23" d="M255.1-91.6h8.5v8.5h-8.5zM247.1-91.6h8v8.5h-8zM263.6-91.6h8.5v8.5h-8.5z"/><path class="st16" d="M217.6-91.4c0 2-1.7 3.7-3.7 3.7M218.7-91.4c0 2 1.7 3.7 3.7 3.7M218.7-83.2c0-2 1.7-3.7 3.7-3.7M217.6-83.2c0-2-1.7-3.7-3.7-3.7M209.1-91.4c0 2-1.7 3.7-3.7 3.7M210.2-91.4c0 2 1.7 3.7 3.7 3.7M210.2-83.2c0-2 1.7-3.7 3.7-3.7M209.1-83.2c0-2-1.7-3.7-3.7-3.7"/><path class="st22" d="M234.2-91.4c0 2-1.6 3.7-3.6 3.7M235.3-91.4c0 2 1.6 3.7 3.6 3.7M235.3-83.2c0-2 1.6-3.7 3.6-3.7M234.2-83.2c0-2-1.6-3.7-3.6-3.7M234.2-99.9c0 2-1.6 3.7-3.6 3.7M235.3-99.9c0 2 1.6 3.7 3.6 3.7M235.3-91.7c0-2 1.6-3.7 3.6-3.7M234.2-91.7c0-2-1.6-3.7-3.6-3.7M234.2-108.3c0 2-1.6 3.7-3.6 3.7M235.3-108.3c0 2 1.6 3.7 3.6 3.7M235.3-100c0-2 1.6-3.7 3.6-3.7M234.2-100c0-2-1.6-3.7-3.6-3.7"/><path class="st16" d="M226.1-91.4c0 2-1.7 3.7-3.7 3.7M227.2-91.4c0 2 1.7 3.7 3.7 3.7M227.2-83.2c0-2 1.7-3.7 3.7-3.7M226.1-83.2c0-2-1.7-3.7-3.7-3.7M200.4-91.4c0 2-1.7 3.7-3.7 3.7M201.5-91.4c0 2 1.7 3.7 3.7 3.7M201.5-83.2c0-2 1.7-3.7 3.7-3.7M200.4-83.2c0-2-1.7-3.7-3.7-3.7"/><path class="st23" d="M222.4-91.6h8.5v8.5h-8.5zM230.9-91.6h8v8.5h-8z"/><path class="st22" d="M242.4-91.4c0 2-1.6 3.7-3.6 3.7M243.5-91.4c0 2 1.6 3.7 3.6 3.7M243.5-83.2c0-2 1.6-3.7 3.6-3.7M242.4-83.2c0-2-1.6-3.7-3.6-3.7"/><path class="st23" d="M239-91.6h8v8.5h-8zM205.4-91.6h8.5v8.5h-8.5zM196.7-91.6h8.5v8.5h-8.5zM213.9-91.6h8.5v8.5h-8.5z"/><path class="st24" d="M222.4-91.6l-4.1 1h-17.4l-4.2-1v-16.9l4.2.5h17.4l4.1-.5z"/><path class="st6" d="M206.7-107.8v17.2M212.5-107.8v17.2M218.3-107.8v17.2M200.9-107.8v17.2"/><path class="st5" d="M222.4-102.4l-4.1.9h-17.4l-4.2-.9"/><path class="st2" d="M222.4-92.7c-1.3.4-2.7.8-4 1.1l-4.3.1h-4.3c-2.9 0-5.8 0-8.7-.1-1.4-.4-2.8-.8-4.2-1.1 1.4.3 2.8.5 4.3.9 2.9-.1 5.8-.1 8.7-.1h4.3l4.3.1c1.1-.4 2.5-.6 3.9-.9z"/><path class="st25" d="M206.7-91.7M212.5-91.7M218.3-91.7M200.9-91.7"/><path class="st26" d="M272.1-91.6l-4.3 1h-24.4l-4.5-1v-17l4.5.5h24.4l4.3-.5z"/><path class="st27" d="M255.6-107.8v17.2M249.3-107.8v17.2M261.7-107.8v17.2M267.8-107.8v17.2M243.4-107.8v17.2"/><path class="st28" d="M272.1-102.4l-4.3.9h-24.4l-4.5-.9"/><path class="st2" d="M272.1-92.7l-4.3 1.1-6.1.1h-12.2c-2 0-4.1 0-6.1-.1-1.5-.4-2.9-.8-4.4-1.1 1.5.3 3 .5 4.5.9l6.1-.1h12.2l6.1.1 4.2-.9z"/><path class="st25" d="M255.6-91.7M261.7-91.7M267.8-91.7M243.4-91.7"/><path class="st26" d="M272.1-59.6l-4.3 1h-24.4l-4.5-1v-19.5l4.5.5h24.4l4.3-.5z"/><path class="st27" d="M255.6-78.3v19.7M249.3-78.3v19.7M261.7-78.3v19.7M267.8-78.3v19.7M243.4-78.3v19.7"/><path class="st28" d="M272.1-71.9l-4.3.8h-24.4l-4.5-.8"/><path class="st2" d="M272.1-60.7l-4.3 1.1-6.1.1h-12.2c-2 0-4.1 0-6.1-.1-1.5-.4-2.9-.8-4.4-1.1 1.5.3 3 .5 4.5.9l6.1-.1h12.2l6.1.1 4.2-.9z"/><path class="st25" d="M255.6-59.7M261.7-59.7M267.8-59.7M243.4-59.7"/><path class="st29" d="M222-59.6l-4 1h-17.1l-4.2-1v-19.5l4.2.5h17.1l4-.5z"/><path class="st30" d="M206.6-78.3v19.7M212.3-78.3v19.7M218-78.3v19.7M200.9-78.3v19.7"/><path class="st31" d="M222-71.9l-4 .8h-17.1l-4.2-.8"/><path class="st2" d="M222-60.7c-1.3.4-2.6.8-4 1.1l-4.3.1h-4.3c-2.9 0-5.7 0-8.6-.1-1.4-.4-2.8-.8-4.1-1.1 1.4.3 2.8.5 4.2.9 2.9-.1 5.7-.1 8.6-.1h4.3l4.3.1c1.2-.4 2.6-.7 3.9-.9z"/><path class="st25" d="M206.6-59.7M212.3-59.7M218-59.7M200.9-59.7"/><path class="st23" d="M222.4-108.6h8.5v8.5h-8.5zM230.9-108.6h8v8.5h-8zM222.4-100.1h8.5v8.5h-8.5zM188.2-91.6h8.5v8.5h-8.5zM188.2-100.1h8.5v8.5h-8.5zM230.9-100.1h8v8.5h-8zM188.2-108.6h8.5v8.5h-8.5z"/><path class="st16" d="M191.9-108.4c0 2-1.7 3.7-3.7 3.7M193-108.4c0 2 1.7 3.7 3.7 3.7M193-100.2c0-2 1.7-3.7 3.7-3.7M191.9-100.2c0-2-1.7-3.7-3.7-3.7M191.9-99.9c0 2-1.7 3.7-3.7 3.7M193-99.9c0 2 1.7 3.7 3.7 3.7M193-91.7c0-2 1.7-3.7 3.7-3.7M191.9-91.7c0-2-1.7-3.7-3.7-3.7M226.1-108.4c0 2-1.7 3.7-3.7 3.7M227.2-108.4c0 2 1.7 3.7 3.7 3.7M227.2-100.2c0-2 1.7-3.7 3.7-3.7M226.1-100.2c0-2-1.7-3.7-3.7-3.7M226.1-99.9c0 2-1.7 3.7-3.7 3.7M227.2-99.9c0 2 1.7 3.7 3.7 3.7M227.2-91.7c0-2 1.7-3.7 3.7-3.7M226.1-91.7c0-2-1.7-3.7-3.7-3.7M191.9-91.4c0 2-1.7 3.7-3.7 3.7M193-91.4c0 2 1.7 3.7 3.7 3.7M193-83.2c0-2 1.7-3.7 3.7-3.7M191.9-83.2c0-2-1.7-3.7-3.7-3.7M293.4-91.4c0 2 1.7 3.7 3.7 3.7M292.3-91.4c0 2-1.7 3.7-3.7 3.7M292.3-83.2c0-2-1.7-3.7-3.7-3.7M293.4-83.2c0-2 1.7-3.7 3.7-3.7M301.9-91.4c0 2 1.7 3.7 3.7 3.7M300.8-91.4c0 2-1.7 3.7-3.7 3.7M300.8-83.2c0-2-1.7-3.7-3.7-3.7M301.9-83.2c0-2 1.7-3.7 3.7-3.7"/><path class="st22" d="M276.7-91.4c0 2 1.6 3.7 3.6 3.7M275.7-91.4c0 2-1.6 3.7-3.6 3.7M275.7-83.2c0-2-1.6-3.7-3.6-3.7M276.7-83.2c0-2 1.6-3.7 3.6-3.7M276.7-99.9c0 2 1.6 3.7 3.6 3.7M275.7-99.9c0 2-1.6 3.7-3.6 3.7M275.7-91.7c0-2-1.6-3.7-3.6-3.7M276.7-91.7c0-2 1.6-3.7 3.6-3.7M276.7-108.3c0 2 1.6 3.7 3.6 3.7M275.7-108.3c0 2-1.6 3.7-3.6 3.7M275.7-100c0-2-1.6-3.7-3.6-3.7M276.7-100c0-2 1.6-3.7 3.6-3.7"/><path class="st16" d="M284.9-91.4c0 2 1.7 3.7 3.7 3.7M283.8-91.4c0 2-1.7 3.7-3.7 3.7M283.8-83.2c0-2-1.7-3.7-3.7-3.7M284.9-83.2c0-2 1.7-3.7 3.7-3.7M310.5-91.4c0 2 1.7 3.7 3.7 3.7M309.4-91.4c0 2-1.7 3.7-3.7 3.7M309.4-83.2c0-2-1.7-3.7-3.7-3.7M310.5-83.2c0-2 1.7-3.7 3.7-3.7"/><path class="st23" d="M280.1-91.6h8.5v8.5h-8.5zM272.1-91.6h8v8.5h-8zM297.1-91.6h8.5v8.5h-8.5zM305.7-91.6h8.5v8.5h-8.5zM288.6-91.6h8.5v8.5h-8.5z"/><path class="st24" d="M288.6-91.6l4 1h17.4l4.2-1v-16.9l-4.2.5h-17.4l-4-.5z"/><path class="st6" d="M304.2-107.8v17.2M298.4-107.8v17.2M292.6-107.8v17.2M310-107.8v17.2"/><path class="st5" d="M288.6-102.4l4 .9h17.4l4.2-.9"/><path class="st2" d="M288.6-92.7l4.1.9 4.3-.1h4.3c2.9 0 5.8 0 8.7.1 1.4-.3 2.8-.6 4.3-.9-1.4.4-2.8.8-4.2 1.1-2.9.1-5.8.1-8.7.1h-4.3l-4.3-.1c-1.5-.3-2.9-.7-4.2-1.1z"/><path class="st25" d="M304.2-91.7M298.4-91.7M292.6-91.7M310-91.7"/><path class="st23" d="M280.1-108.6h8.5v8.5h-8.5zM272.1-108.6h8v8.5h-8zM280.1-100.1h8.5v8.5h-8.5zM314.2-91.6h8.5v8.5h-8.5zM314.2-100.1h8.5v8.5h-8.5zM272.1-100.1h8v8.5h-8zM314.2-108.6h8.5v8.5h-8.5z"/><path class="st16" d="M319-108.4c0 2 1.7 3.7 3.7 3.7M317.9-108.4c0 2-1.7 3.7-3.7 3.7M317.9-100.2c0-2-1.7-3.7-3.7-3.7M319-100.2c0-2 1.7-3.7 3.7-3.7M319-99.9c0 2 1.7 3.7 3.7 3.7M317.9-99.9c0 2-1.7 3.7-3.7 3.7M317.9-91.7c0-2-1.7-3.7-3.7-3.7M319-91.7c0-2 1.7-3.7 3.7-3.7M284.9-108.4c0 2 1.7 3.7 3.7 3.7M283.8-108.4c0 2-1.7 3.7-3.7 3.7M283.8-100.2c0-2-1.7-3.7-3.7-3.7M284.9-100.2c0-2 1.7-3.7 3.7-3.7M284.9-99.9c0 2 1.7 3.7 3.7 3.7M283.8-99.9c0 2-1.7 3.7-3.7 3.7M283.8-91.7c0-2-1.7-3.7-3.7-3.7M284.9-91.7c0-2 1.7-3.7 3.7-3.7M319-91.4c0 2 1.7 3.7 3.7 3.7M317.9-91.4c0 2-1.7 3.7-3.7 3.7M317.9-83.2c0-2-1.7-3.7-3.7-3.7M319-83.2c0-2 1.7-3.7 3.7-3.7"/><path class="st19" d="M189.8-81.3h131.4M189.8-52.8h131.4M189.8-51h131.4"/><path class="st32" d="M190.1-80.4h130.8"/><path class="st2" d="M222.4-80s-.4.1-1.1.1c-.7.1-1.7.2-2.9.2-1.2.1-2.6.2-4.1.2-1.5 0-3.1.1-4.7.1s-3.2-.1-4.7-.1-2.9-.1-4.1-.2c-1.2-.1-2.2-.2-2.9-.2-.7-.1-1.1-.1-1.1-.1h12.8c6.4-.1 12.8-.1 12.8 0zM270.9-80s-.5.1-1.3.1c-.8.1-2 .2-3.4.3-1.4.1-3 .2-4.7.2-1.7 0-3.6.1-5.4.1-1.9 0-3.7-.1-5.4-.1-1.7 0-3.4-.2-4.7-.2-1.4-.1-2.5-.2-3.4-.3-.8-.1-1.3-.1-1.3-.1h14.8c7.3-.1 14.8-.1 14.8 0zM218.3-77.7s-.3 0-.7.1c-.5 0-1.2.1-2 .2-.8 0-1.8.1-2.8.2-1 0-2.1 0-3.2.1-1.1 0-2.2 0-3.2-.1-1 0-2-.1-2.8-.2-.8 0-1.5-.2-2-.2-.5-.1-.7-.1-.7-.1h17.4zM266.8-77.7s-.4 0-1 .1c-.6 0-1.5.1-2.5.2-1.1 0-2.3.1-3.6.2-1.3 0-2.7 0-4.1.1-1.4 0-2.8 0-4.1-.1-1.3 0-2.5-.1-3.6-.2-1.1 0-1.9-.2-2.5-.2-.6-.1-1-.1-1-.1h22.4z"/><path class="st33" d="M193.4-81.3v28.6M196.7-81.3v28.6M189.8-73.1h6.9M189.8-61.7h6.9M225.8-81.3v28.6M229.2-81.3v28.6M222.3-73.1h6.9M222.3-61.7h6.9M232.5-81.3v28.6M235.9-81.3v28.6M238.9-81.3v28.6M272.1-81.3v28.6M229-73.1h9.9M229-61.7h9.9M200.5-58.6v5.9M204.1-58.6v5.9M207.8-58.6v5.9M211.4-58.6v5.9M215-58.6v5.9M218.6-58.6v5.9M242.5-58.6v5.9M245.7-58.6v5.9M249-58.6v5.9M252.2-58.6v5.9M258.7-58.6v5.9M255.4-58.6v5.9M261.9-58.6v5.9M265.2-58.6v5.9M268.4-58.6v5.9M222.3-81.3v28.6"/><path class="st19" d="M322.8-83.3l-1.6 1.8v46.4"/><path class="st29" d="M289-59.6l4 1h17.1l4.2-1v-19.5l-4.2.5h-17.1l-4-.5z"/><path class="st30" d="M304.4-78.3v19.7M298.7-78.3v19.7M293-78.3v19.7M310.1-78.3v19.7"/><path class="st31" d="M289-71.9l4 .8h17.1l4.2-.8"/><path class="st2" d="M289-60.7l4 .9 4.3-.1h4.3c2.9 0 5.7 0 8.6.1l4.2-.9c-1.4.4-2.7.8-4.1 1.1-2.9.1-5.7.1-8.6.1h-4.3l-4.3-.1c-1.5-.4-2.8-.8-4.1-1.1z"/><path class="st25" d="M304.4-59.7M298.7-59.7M293-59.7M310.1-59.7"/><path class="st32" d="M320.9-51.7h-130.8"/><path class="st2" d="M288.6-80.1s.4-.1 1.1-.1c.7-.1 1.7-.2 2.9-.2 1.2-.1 2.6-.2 4.1-.2 1.5 0 3.1-.1 4.7-.1s3.2.1 4.7.1 2.9.1 4.1.2c1.2.1 2.2.2 2.9.2.7.1 1.1.1 1.1.1h-12.8c-6.4.1-12.8.1-12.8 0zM292.7-77.7s.3 0 .7-.1c.5 0 1.2-.1 2-.2.8 0 1.8-.1 2.8-.2 1 0 2.1 0 3.2-.1 1.1 0 2.2 0 3.2.1 1 0 2 .1 2.8.2.8 0 1.5.2 2 .2.5.1.7.1.7.1h-8.7c-4.4.1-8.7 0-8.7 0z"/><path class="st33" d="M317.6-81.3v28.6M314.3-81.3v28.6M321.2-73.1h-6.9M321.2-61.7h-6.9M285.2-81.3v28.6M281.8-81.3v28.6M288.7-73.1h-6.9M288.7-61.7h-6.9M278.5-81.3v28.6M275.1-81.3v28.6M282-73.1h-6.9M282-61.7h-6.9M310.5-58.6v5.9M306.9-58.6v5.9M303.2-58.6v5.9M299.6-58.6v5.9M296-58.6v5.9M292.4-58.6v5.9M288.7-81.3v28.6"/><path class="st19" d="M194.9-34.3v-13.3h12.3v13.3M299.4-34.8v-12.8h12.4v12.8M235-34.3v-13.3h12.4v13.3M210.2-34.3v-13.3h22.2v13.3M250.7-34.8v-13h34.6v13M258.7-47.6v12.6M268-47.6v12.6M276.7-47.6v12.6M250.7-41.3h34.6M296-35.1v-7.2h-1.2v-.2c0-1.1-.9-2-2-2s-2 .9-2 2v.2h-1.1v7.2M319.7-44.7h-4.2v9.9"/><path class="st10" d="M236.5-34.3v-12.2"/><path class="st2" d="M236.2-34.3l.3-12.2.2 12.2z"/><path class="st10" d="M246.2-34.3v-12.2"/><path class="st2" d="M246-34.3l.2-12.2.3 12.2z"/><path class="st10" d="M196-34.3v-12.2"/><path class="st2" d="M195.7-34.3l.3-12.2.2 12.2z"/><path class="st10" d="M205.8-34.3v-12.2"/><path class="st2" d="M205.5-34.3l.3-12.2.2 12.2z"/><path class="st1" d="M311.8-45.6h-10.2v10.5M301.6-45.3l-2.3-2.2"/><path class="st1" d="M304.3-92c-.4-.8-.7-1.8-.7-2.8 0-3.3 2.7-6 6-6 1.1 0 2.1.3 2.9.8v-.8c0-5.8 4.7-10.5 10.5-10.5s10.5 4.7 10.5 10.5c0 1-.2 2.1-.4 3h.2c3.7 0 6.7 3 6.7 6.7 0 3.1-2.1 5.7-4.9 6.5.7 1.5 1.1 3.2 1.1 4.9 0 1.6-.3 3.1-.9 4.5.9 1.5 1.4 3.3 1.4 5.1 0 5.6-4.6 10.2-10.2 10.2-1.8 0-3.6-.5-5.1-1.4-1.2 2-3.4 3.4-5.9 3.4-3.8 0-7-3.1-7-7 0-1.3.4-2.5 1-3.5h-1c-6.8 0-12.2-5.5-12.2-12.2 0-5.2 3.3-9.6 8-11.4zM320.2-75.8s-3.5 19.2 2.2 43h-9.8c4.2-21.8 2.5-45 2.5-45"/><path class="st2" d="M323.9-74.7c-.4.1-.8.1-1.2 0-.4-.1-.8-.1-1.2-.3-.4-.1-.8-.3-1.1-.5-.2-.1-.4-.2-.5-.4l-.5-.4c-.3-.3-.6-.6-.8-1-.3-.3-.5-.7-.7-1.1-.2-.4-.3-.8-.5-1.1l-.4-1.2h.9c-.1.4-.3.7-.5 1l-.3.4-.3.4c-.2.3-.5.5-.7.7l-.4.3-.4.3-.4.3c-.1.1-.3.1-.5.2-.3.1-.6.2-1 .3-.3.1-.7.1-1 .1-.3 0-.7 0-1 .1l.9-.3c.3-.1.6-.1.9-.3.3-.2.6-.3.8-.4.3-.1.5-.3.8-.5l.4-.3.3-.3c.2-.2.4-.4.6-.7l.3-.4.2-.4c.1-.2.3-.5.3-.8l.5-1.4.5 1.4.4 1.1.5 1c.2.3.3.7.6 1 .2.3.4.6.7.9.1.2.3.3.4.4l.4.4c.3.2.6.5.9.6.5.6 1.3.9 2.1.9z"/><path class="st10" d="M336.1-77.7s-.9 3.7-3.1 4.4"/><path class="st2" d="M336.5-77.5s-.1.4-.4.8c-.2.5-.6 1.1-1 1.7-.2.3-.5.6-.7.8l-.7.6-.6.3c-.1 0-.2.1-.2.1s.1 0 .2-.1.3-.2.5-.4.4-.4.6-.7c.2-.3.4-.6.5-.9.3-.6.5-1.3.6-1.7.1-.5.2-.8.2-.8l1 .3z"/><path class="st10" d="M312.6-102.2s-.3 2.9 1.6 5.2"/><path class="st2" d="M313.1-102.2s-.1.3-.1.8v.9c0 .3 0 .6.1 1 .1.3.1.7.3 1 .1.3.2.6.3.8.3.4.4.7.4.7s-.2-.3-.6-.7c-.2-.2-.3-.5-.5-.8l-.5-.9-.3-1-.2-.9c-.1-.5-.1-1-.1-.9h1.2z"/><path class="st10" d="M306-68.5s4.8.9 5.4-1.5"/><path class="st2" d="M306.1-69s.3.1.9.2c.5.1 1.3.2 2 .1.4 0 .7-.1 1.1-.2.2 0 .3-.1.5-.2s.3-.2.4-.2l.3-.3c.1-.1.1-.2.2-.2.1-.1.1-.2.1-.2s0 .1-.1.3c0 .1 0 .2-.1.3l-.2.3c-.1.1-.2.2-.4.3-.1.1-.3.2-.5.3-.3.2-.7.3-1.1.4-1.6.3-3.1.2-3.1.2v-1.1z"/><path class="st34" d="M318.6-77.9c-3.4 31.5 3 45.1 3 45.1"/><path class="st11" d="M-22.1-41.2c.6-13.1-9.5-25.7-21.4-21.5l-12.3 17.2-.2 11h-23.5v-37.7l-2.9-3.7 6.3-2.1v-51.4c0-.2.3-.3.4-.1 0 0 2.9.6 2.4 4.6 0 0 .2 6.9 4.4 4.7l29.5-29.2h1.1l17.4 17.2 5.7 5.6 6.5 6.4c4.2 2.2 4.4-4.7 4.4-4.7-.6-4 2.4-4.6 2.4-4.6.1-.2.4-.1.4.1v51.4l6.4 2.1-2.9 3.7v37.7h-23.8l-.3-6.7M-1.8-125s-.6.8-2.7-.2"/><path class="st4" d="M-39.8-149.4v-5.1c0-.5.4-.9.9-.9s.9.4.9.9v5.1"/><path class="st11" d="M-40-152h-1c-.5 0-.9-.4-.9-.9s.4-.9.9-.9h4c.5 0 .9.4.9.9s-.4.9-.9.9h-3z"/><path class="st2" d="M-67.8-119.6c4.6-4.8 9.2-9.5 13.9-14.2 2.3-2.4 4.7-4.7 7-7l7-7c.1-.1.2-.1.3-.1h1l.3.1 7 7 7 7c4.7 4.7 9.3 9.4 13.9 14.2-4.9-4.5-9.6-9.1-14.4-13.7l-7.1-6.9-7.1-7 .3.1h-1l.3-.1-7.1 7c-2.4 2.3-4.7 4.7-7.1 6.9-4.6 4.6-9.4 9.2-14.2 13.7z"/><path class="st4" d="M-45.8-134.5h-3.8l1 1.8h19.2l1-1.8h-3.8z"/><circle class="st4" cx="-39" cy="-123.3" r="7.2"/><path class="st2" d="M-39-128.4c.2.9.3 1.7.4 2.6.1.9.1 1.7.1 2.6l-.7-.4c1.1-.5 2.2-.9 3.4-1.1-.9.8-2 1.4-3 1.9-.2.1-.5 0-.6-.2 0-.1 0-.1-.1-.2 0-.9 0-1.7.1-2.6 0-.9.1-1.8.4-2.6z"/><path class="st35" d="M-47.9-132.7h17.8v18.8h-17.8z"/><path class="st16" d="M-44.7-129.9s-.1-1.8-1.4-1.7l1.4 1.7zM-33.1-129.9s.1-1.8 1.4-1.7c1.3.1-1.4 1.7-1.4 1.7zM-33.1-116.7s.1 1.8 1.4 1.7c1.3-.2-1.4-1.7-1.4-1.7zM-44.7-116.7s-.1 1.8-1.4 1.7l1.4-1.7z"/><path class="st4" d="M-76.2-125s.6.8 2.7-.2"/><path class="st11" d="M-76.2-105l-1.2-1.5h77l-1.2 1.5z"/><path class="st4" d="M-22.1-43.9c0-13.8-7.6-22-17-22s-17 8.2-17 22v11h34v-11zM-22.1-41.3c0-13.8-7.6-22-17-22s-17 8.2-17 22v11h34v-11z"/><path class="st2" d="M-59-35.8s-.2-1.3-.3-3.7c-.1-2.4-.1-5.8.5-9.9.3-2 .8-4.2 1.6-6.4s1.9-4.5 3.6-6.5c1.6-2 3.8-3.8 6.3-4.9 2.5-1.2 5.3-1.7 8.1-1.8 2.8-.1 5.6.3 8.1 1.4 2.6 1 4.7 2.8 6.4 4.8 1.6 2 2.7 4.3 3.5 6.6.8 2.2 1.3 4.4 1.6 6.5.6 4.1.6 7.5.5 9.9-.1 2.4-.3 3.7-.3 3.7s.1-1.4.1-3.7c0-2.4-.1-5.8-.8-9.8-.4-2-.9-4.1-1.7-6.3-.8-2.2-2-4.3-3.5-6.3-1.6-1.9-3.6-3.5-6.1-4.5-2.4-1-5.1-1.3-7.8-1.2-2.7.1-5.3.6-7.7 1.7-2.4 1.1-4.4 2.7-6 4.6-1.6 1.9-2.7 4.1-3.6 6.2-.8 2.2-1.4 4.3-1.8 6.3-.7 4-.9 7.4-.9 9.8.1 2.1.2 3.5.2 3.5z"/><path class="st4" d="M-82.1-76l86.6.1"/><path class="st36" d="M-76.2-77.9l74.4-.1"/><path class="st16" d="M-39.1-68.7v2.8M-48.9-66l1.5 2.3M-54.5-60l1.8 1.3M-23.6-60l-1.9 1.3M-20.7-52.7l-2.4.6M-57.8-52.7l2.3.6M-59-44.5l2.4.1M-19.5-44.5l-2.4.1M-29.5-66l-1.5 2.3"/><path class="st11" d="M-1.3-59.5h3.7v5.5h-3.7zM4.9-50.5h-4.2l-2-3.5h3.7zM.7-50.5h4.2v15.2h-4.2z"/><path class="st37" d="M-22.1-43.2h27.1v1.8h-27.1z"/><path class="st11" d="M-80.8-59.5h3.7v5.5h-3.7zM-83.3-50.5h4.2l2-3.5h-3.7zM-83.3-50.5h4.2v15.2h-4.2z"/><path class="st38" d="M-83.3-43.2h27.1v1.8h-27.1z"/><path class="st11" d="M-44.7-109.9h9.9v1.2h-9.9z"/><path class="st39" d="M-48.9-133.6h20"/><path class="st11" d="M-34.1-84.4h-10.6v-19.2l5.3-4.2 5.3 4.2z"/><path class="st2" d="M-44.7-102.4c.8-.8 1.7-1.5 2.5-2.2l2.6-2.1c.1-.1.2-.1.3 0 .9.7 1.8 1.4 2.6 2.1.9.7 1.7 1.4 2.5 2.2-.9-.6-1.9-1.2-2.8-1.9-.9-.6-1.8-1.3-2.7-2h.3l-2.7 2c-.8.6-1.7 1.3-2.6 1.9z"/><path class="st40" d="M-55.5-103.6h8.7v19.2h-8.7zM-32.3-103.6h8.7v19.2h-8.7zM-51.2-103.6v19.2M-27.9-103.6v19.2M-55.5-94h8.7M-32.3-94h8.7"/><path class="st41" d="M-47.9-82.6h16.9M-29.5-82.6h6v2.5M-49.7-82.6h-5.9v2.5"/><path class="st42" d="M-46.8-82.6v2.5h14.5v-2.5"/><path class="st19" d="M-41.9-84.4s.2-5.2 0-7.1c-.2-1.9-.8-3.7 0-5.4.8-1.8 1.6-2.8 1.3-3.8s-.5-2.8.9-2.9c1.4-.2 1.8 1.3 1.7 3.3s1.4 1.6 1.4 6.3c0 3.2-.9 5.2-.2 9.6"/><path class="st2" d="M-38.6-89.2s-.3.1-.6.3l-.3.2-.2.2v.7c0 .6-.1 1.2-.1 1.6 0 .4-.1.7-.1.7s-.1-.3-.2-.7c0-.2-.1-.5-.1-.8v-1.3c0-.1 0-.3.1-.5s.3-.3.4-.3c.1-.1.2-.1.4-.1.4-.1.7 0 .7 0zM-42.1-85.5h-1.3c-.1 0-.2-.1-.2-.2l.2-16.7.2 16.7-.2-.2h1.3c.1 0 .3.1.3.2-.1.1-.2.2-.3.2zM-36.6-86h1.3l-.2.2.2-16.7.2 16.7c0 .1-.1.2-.2.2h-1.3c-.1 0-.3-.1-.3-.2s.2-.2.3-.2zM-69.4-89.2s0-.4-.1-1.1c0-.7-.1-1.7-.2-2.9 0-1.2-.1-2.6-.2-4v-.30000000000000004c0-.1 0-.1.1-.3.2-.4.4-.5.7-.6l.4-.1h6.899999999999998c.1 0 .3.1.4.2.2.1.2.2.3.4.1.3.2.6.1.8 0 1.5-.1 2.9-.2 4 0 1.2-.1 2.2-.2 2.9-.1.7-.1 1.1-.1 1.1s0-.4-.1-1.1c0-.7-.1-1.7-.2-2.9 0-1.2-.1-2.6-.2-4 0-.2 0-.3-.1-.3 0 0 0-.1-.1-.1h-6.999999999999999.1c-.1 0-.1.1-.1.1v.4-.1c0 1.5-.1 2.9-.2 4 0 1.2-.1 2.2-.2 2.9.3.6.2 1 .2 1zM-16.7-89.2s0-.4-.1-1.1c0-.7-.1-1.7-.2-2.9 0-1.2-.1-2.6-.2-4v-.30000000000000004c0-.1 0-.1.1-.3.2-.4.4-.5.7-.6l.4-.1h6.899999999999998c.1 0 .3.1.4.2.2.1.2.2.3.4.1.3.2.6.1.8 0 1.5-.1 2.9-.2 4 0 1.2-.1 2.2-.2 2.9-.1.7-.1 1.1-.1 1.1s0-.4-.1-1.1c0-.7-.1-1.7-.2-2.9 0-1.2-.1-2.6-.2-4 0-.2 0-.3-.1-.3 0 0 0-.1-.1-.1h-6.999999999999999.1c-.1 0-.1.1-.1.1v.4-.1c0 1.5-.1 2.9-.2 4 0 1.2-.1 2.2-.2 2.9.2.6.2 1 .2 1z"/><path class="st10" d="M-74.9-66h19.3"/><path class="st2" d="M-74.9-66s1.2-.1 3-.1c.9 0 2-.1 3.1-.1h7c1.1 0 2.2.1 3.1.1 1.8.1 3 .1 3 .1s-1.2.1-3 .1c-.9 0-2 .1-3.1.1h-7c-1.1 0-2.2-.1-3.1-.1-1.8 0-3-.1-3-.1z"/><path class="st10" d="M-73.9-57.5h15.9"/><path class="st2" d="M-73.9-57.5s1-.1 2.5-.1c.7 0 1.6-.1 2.5-.1h5.8c.9 0 1.8.1 2.5.1 1.5.1 2.5.1 2.5.1s-1 .1-2.5.1c-.7 0-1.6.1-2.5.1h-5.8c-.9 0-1.8-.1-2.5-.1-1.5 0-2.5-.1-2.5-.1z"/><path class="st10" d="M-73.9-70.3h25"/><path class="st2" d="M-73.9-70.3s1.6-.1 3.9-.1c1.2 0 2.5 0 4-.1h9.2c1.5 0 2.8.1 4 .1 2.3.1 3.9.1 3.9.1s-1.6.1-3.9.1c-1.2 0-2.5 0-4 .1h-9.2c-1.5 0-2.8-.1-4-.1-2.3 0-3.9-.1-3.9-.1z"/><path class="st10" d="M-26.9-70.3h25"/><path class="st2" d="M-26.9-70.3s1.6-.1 3.9-.1c1.2 0 2.5 0 4-.1h9.2c1.5 0 2.8.1 4 .1 2.3.1 3.9.1 3.9.1s-1.6.1-3.9.1c-1.2 0-2.5 0-4 .1h-9.2c-1.5 0-2.8-.1-4-.1-2.4 0-3.9-.1-3.9-.1z"/><path class="st10" d="M-18.6-57.3h15.8"/><path class="st2" d="M-18.6-57.3s1-.1 2.5-.1c.7 0 1.6-.1 2.5-.1h5.8c.9 0 1.8.1 2.5.1 1.5.1 2.5.1 2.5.1s-1 .1-2.5.1c-.7 0-1.6.1-2.5.1h-5.8c-.9 0-1.8-.1-2.5-.1-1.5 0-2.5-.1-2.5-.1z"/><path class="st10" d="M-21.8-66h19.7"/><path class="st2" d="M-21.8-66s1.2-.1 3.1-.1c.9 0 2-.1 3.2-.1h7.2c1.2 0 2.2.1 3.2.1 1.8.1 3.1.1 3.1.1s-1.2.1-3.1.1c-.9 0-2 .1-3.2.1h-7.2c-1.2 0-2.2-.1-3.2-.1-1.9 0-3.1-.1-3.1-.1z"/><path class="st10" d="M-77.4-61.8h22.2"/><path class="st2" d="M-77.4-61.8s1.4-.1 3.5-.1c1 0 2.3 0 3.6-.1h8.2c1.3 0 2.5.1 3.6.1 2.1.1 3.5.1 3.5.1s-1.4.1-3.5.1c-1 0-2.3.1-3.6.1h-8.2c-1.3 0-2.5-.1-3.6-.1-2.1-.1-3.5-.1-3.5-.1z"/><path class="st10" d="M-21.8-61.8h22.2"/><path class="st2" d="M-21.8-61.8s1.4-.1 3.5-.1c1 0 2.3 0 3.6-.1h8.2c1.3 0 2.5.1 3.6.1 2.1.1 3.5.1 3.5.1s-1.4.1-3.5.1c-1 0-2.3.1-3.6.1h-8.2c-1.3 0-2.5-.1-3.6-.1-2.1-.1-3.5-.1-3.5-.1z"/><path class="st43" d="M-66.3-66v4.2M-62-61.7v4M-62-70.3v4.3M-69.4-70.1v3.8M-71-61.7v4M-5.5-61.7v4.2M-9.7-65.9v4.1M-14.8-61.7v4.2M-14.8-69.9v3.6M-7.1-69.9v3.6"/><path class="st2" d="M-54.5-53.3s.2-.6.8-1.6c.5-1 1.4-2.4 2.6-3.9.6-.7 1.4-1.5 2.2-2.2l1.3-1.1c.5-.3 1-.6 1.5-1 .5-.3 1.1-.6 1.7-.8l1.8-.6 1.9-.4c.6 0 1.3-.1 2-.1l1.9.2c.6.1 1.3.2 1.9.4.6.2 1.2.4 1.8.7.6.3 1.1.5 1.6.9 1 .6 2 1.4 2.8 2.1.8.8 1.5 1.6 2.1 2.3.6.8 1.1 1.5 1.5 2.2.4.7.7 1.3.9 1.8.5 1 .7 1.6.7 1.6s-.2-.6-.7-1.6c-.2-.5-.6-1.1-1-1.8s-.9-1.4-1.5-2.2c-.6-.8-1.3-1.6-2.1-2.3-.8-.8-1.7-1.5-2.8-2.1l-1.6-.8-1.8-.6c-.6-.2-1.2-.3-1.9-.4-.6-.1-1.3-.1-1.9-.1l-1.9.1c-.6 0-1.3.2-1.9.3l-1.8.6-1.7.8c-.5.3-1 .6-1.5 1s-.9.7-1.3 1.1c-.8.7-1.6 1.5-2.2 2.2-1.3 1.5-2.1 2.8-2.7 3.8-.5.9-.7 1.5-.7 1.5z"/><circle class="st5" cx="-54.5" cy="-123.7" r="2.2"/><circle class="st5" cx="-24.3" cy="-123.7" r="2.2"/><circle class="st6" cx="-55.5" cy="-66.6" r="2.2"/><circle class="st6" cx="-23.3" cy="-66.6" r="2.2"/><path class="st1" d="M-67.7-92c.4-.8.7-1.8.7-2.8 0-3.3-2.7-6-6-6-1.1 0-2.1.3-2.9.8v-.8c0-5.8-4.7-10.5-10.5-10.5s-10.5 4.7-10.5 10.5c0 1 .2 2.1.4 3h-.2c-3.7 0-6.7 3-6.7 6.7 0 3.1 2.1 5.7 4.9 6.5-.7 1.5-1.1 3.2-1.1 4.9 0 1.6.3 3.1.9 4.5-.9 1.5-1.4 3.3-1.4 5.1 0 5.6 4.6 10.2 10.2 10.2 1.8 0 3.6-.5 5.1-1.4 1.2 2 3.4 3.4 5.9 3.4 3.8 0 7-3.1 7-7 0-1.3-.4-2.5-1-3.5h1c6.8 0 12.2-5.5 12.2-12.2-.1-5.2-3.4-9.6-8-11.4zM-83.7-75.8s3.5 19.2-2.2 43h9.8c-4.2-21.8-2.5-45-2.5-45"/><path class="st2" d="M-87.4-74.7c.8-.1 1.6-.3 2.2-.7.3-.2.7-.4.9-.6.1-.1.3-.2.4-.4l.4-.4.7-.9.6-1 .5-1c.1-.4.2-.7.4-1.1l.5-1.4.5 1.4c.1.2.2.5.3.8l.2.4.3.4.6.7.3.3.4.3c.3.2.5.4.8.5.3.1.6.3.8.4.3.2.6.2.9.3l.9.3c-.3 0-.6 0-1-.1-.3 0-.7 0-1-.1-.3-.1-.6-.2-1-.3-.2 0-.3-.1-.5-.2l-.4-.3-.4-.3-.4-.3c-.3-.2-.5-.4-.7-.7l-.3-.4-.3-.4c-.2-.3-.3-.6-.5-1h.9c-.1.4-.2.8-.4 1.2-.2.4-.3.8-.5 1.1-.2.4-.4.7-.7 1.1-.2.3-.5.7-.8 1-.1.2-.3.3-.5.4l-.5.4c-.4.2-.7.4-1.1.5-.4.2-.8.2-1.2.3l-1.3-.2z"/><path class="st10" d="M-99.5-77.7s.9 3.7 3.1 4.4"/><path class="st2" d="M-99-77.8s0 .3.2.8c.1.5.3 1.1.6 1.7.1.3.3.6.5.9.2.3.4.5.6.7.2.2.4.3.5.4.1.1.2.1.2.1s-.1 0-.2-.1c-.2 0-.3-.1-.6-.3-.2-.1-.5-.3-.7-.6-.2-.2-.5-.5-.7-.8-.4-.6-.8-1.2-1-1.7-.2-.5-.4-.8-.4-.8l1-.3z"/><path class="st10" d="M-76-102.2s.3 2.9-1.6 5.2"/><path class="st2" d="M-75.5-102.3s0 .4-.1.9c0 .3-.1.6-.2.9l-.3 1c-.1.3-.3.7-.5.9-.2.3-.3.6-.5.8-.3.4-.6.7-.6.7s.2-.3.4-.7c.1-.2.2-.5.3-.8.1-.3.2-.6.3-1 .1-.3.1-.7.1-1v-.9c0-.5-.1-.8-.1-.8h1.2z"/><path class="st10" d="M-69.4-68.5s-4.8.9-5.4-1.5"/><path class="st2" d="M-69.4-68s-1.6.2-3.1-.2c-.4-.1-.8-.2-1.1-.4l-.5-.3-.4-.3c-.1-.1-.2-.2-.2-.3-.1-.1-.1-.2-.1-.3 0-.2-.1-.3-.1-.3s0 .1.1.2c0 .1.1.2.2.2.1.1.1.2.3.3.1.1.2.2.4.2.1.1.3.1.5.2.3.1.7.1 1.1.2.7 0 1.5-.1 2-.1.6-.1.9-.2.9-.2v1.1z"/><path class="st34" d="M-82-77.9c3.4 31.5-3 45.1-3 45.1"/><path class="st44" d="M129.6 149.2"/><path class="st45" d="M352.1 225c-2 0-3.6-1.6-3.6-3.6 0-.7.2-1.3.5-1.8h-.5c-3.5 0-6.4-2.9-6.4-6.4 0-2.7 1.7-5.1 4.2-6-.2-.4-.4-.9-.4-1.5 0-1.7 1.4-3.1 3.1-3.1.6 0 1.1.1 1.5.4v-.4c0-3 2.5-5.5 5.5-5.5s5.5 2.5 5.5 5.5c0 .5-.1 1.1-.2 1.6h.1c1.9 0 3.5 1.6 3.5 3.5 0 1.6-1.1 3-2.5 3.4.4.8.6 1.6.6 2.6 0 .8-.2 1.6-.5 2.3.5.8.7 1.7.7 2.7 0 2.9-2.4 5.3-5.3 5.3-1 0-1.9-.3-2.6-.7-.3.4-.6.8-1.1 1.1M350.6 238.1c2.2-11.4 1.3-23.5 1.3-23.5M354.5 215.6s-1.8 10.1 1.2 22.5"/><path class="st10" d="M356.5 216.2c-.2.1-.4.1-.6.1-.2 0-.4 0-.7-.1-.2 0-.4-.2-.6-.3l-.6-.4c-.2-.1-.3-.3-.5-.5l-.4-.6-.3-.6c-.1-.2-.2-.4-.2-.6h.9l-.3.6c-.1.2-.2.3-.4.5-.1.2-.3.3-.4.4-.1.1-.3.2-.5.3-.2.1-.3.2-.5.2s-.4.1-.5.1h-1c.2-.1.3-.2.5-.2l.4-.2c.1-.1.3-.2.4-.2.1-.1.2-.2.4-.3l.3-.3.3-.3c.1-.1.2-.2.2-.4.1-.1.1-.3.2-.3l.4-1.3.5 1.3c.1.2.2.4.2.5.1.2.1.4.2.5l.3.5.3.5c.1.1.2.3.4.4l.4.4.5.3c.2-.1.4-.1.7 0zM362.8 214.6s-.5 1.9-1.6 2.3"/><path class="st10" d="M363.3 214.8l-.2.4c-.1.3-.4.6-.6.9-.1.2-.3.3-.4.4-.2.1-.3.2-.4.3-.3.1-.4.2-.4.2s.1-.1.4-.3c.1-.1.2-.2.3-.4.1-.2.2-.3.2-.5.1-.3.2-.7.2-.9 0-.2.1-.4.1-.4l.8.3zM350.5 201.8s-.2 1.5.8 2.7"/><path class="st10" d="M351 201.8s0 .1-.1.4c0 .2-.1.6 0 .9 0 .2 0 .3.1.5s.1.3.1.4l.2.4-.3-.3c-.1-.1-.2-.2-.3-.4-.1-.1-.2-.3-.3-.5-.2-.4-.3-.7-.3-1-.1-.3-.1-.5-.1-.5l1 .1zM347.8 219.5s1.9 0 2.1-.9"/><path class="st10" d="M347.8 219s.1 0 .3.1c.2 0 .5.1.8 0 .3 0 .6-.1.7-.2.2-.1.2-.3.2-.3s0 .2-.1.4-.4.4-.7.6c-.3.2-.6.3-.8.3-.2.1-.4.1-.4.1v-1z"/><path class="st46" d="M353.7 214.5c-1.8 16.5 1.6 23.6 1.6 23.6M112.6 214.5c1.8 16.5-1.9 22.4-1.9 22.4"/><path class="st47" d="M233 192.8l-9.1 1.8-46.5-3.2-54-14.9v-2.9l53.9 15.2 46.6 3.5 9.1-1.7z"/><path class="st48" d="M127.3 177.9v2.4l50.1 13.6 46.5 3 5.8-1.2v-2.1"/><path class="st10" d="M127.3 178.9l12.6 3.3 12.5 3.4 25 6.7 23.3 1.5 11.6.8 11.6.9 5.8-1.2-5.7 1.3h-.1l-11.6-.7-11.7-.7-23.2-1.4h-.1l-25-6.9-12.5-3.5z"/><path class="st48" d="M128.9 180.9v49.3"/><path class="st46" d="M136.2 182.8v43.2M154.1 187.5v38.8M176.9 193.9v32.7"/><path class="st45" d="M228.1 196.1v14.9"/><path class="st47" d="M222.5 236.7v-14.2h-34.2v-11.5h79.4v25.7"/><path class="st10" d="M188.3 212.1s5-.1 12.4-.1 17.4-.1 27.3-.1c9.9 0 19.9.1 27.3.1 7.4.1 12.4.1 12.4.1s-5 .1-12.4.1-17.4.1-27.3.1c-9.9 0-19.9-.1-27.3-.1-7.5 0-12.4-.1-12.4-.1z"/><path class="st48" d="M228.1 199.6s22.5-1.4 23.1 1.8c.5 2.6.4 9.2.4 9.2"/><path class="st45" d="M228.1 200.9s22.5-1.4 23.1 1.8"/><path class="st49" d="M228.1 206s22-1.1 23.5 1.5"/><path class="st46" d="M176.9 193.9h-48M228.1 202h-99.2M228.1 210.2h-99.2M188.3 218.3h-59.4M222.5 234.6h-31.8"/><circle class="st50" cx="206.5" cy="219" r="1.4"/><path class="st50" d="M235.6 221.4c0 1.3-1.1 3.8-2.4 3.8s-2.4-2.5-2.4-3.8h4.8zM233.1 225.2v11.5"/><path class="st50" d="M278.8 218.9c0 1.3-1.1 3.8-2.4 3.8-1.3 0-2.4-2.5-2.4-3.8h4.8zM276.4 222.7v14.7"/><path class="st50" d="M304 218.9c0 1.3-1.1 3.8-2.4 3.8-1.3 0-2.4-2.5-2.4-3.8h4.8zM301.6 222.7v14.7"/><path class="st50" d="M328.7 218.9c0 1.3-1.1 3.8-2.4 3.8s-2.4-2.5-2.4-3.8h4.8zM326.3 222.7v14.7"/><path class="st47" d="M347.4 219.9v17.9M267.7 215.3h74.4M347.4 219.4M267.7 216.5h75.1"/><path class="st50" d="M267.7 224.8h75c3.7 0 4.6 0 4.6 2.5M199 222.5v14.2"/><path class="st10" d="M198.1 222.5s.1.9.1 2.2c.1 1.3.1 3.1.1 4.9 0 1.8 0 3.5-.1 4.9-.1 1.3-.1 2.2-.1 2.2s-.1-.9-.1-2.2c-.1-1.3-.1-3.1-.1-4.9 0-1.8.1-3.5.1-4.9 0-1.3.1-2.2.1-2.2zM214.9 222.5s.1.9.1 2.2c.1 1.3.1 3.1.1 4.9 0 1.8 0 3.5-.1 4.9-.1 1.3-.1 2.2-.1 2.2s-.1-.9-.1-2.2c-.1-1.3-.1-3.1-.1-4.9 0-1.8.1-3.5.1-4.9.1-1.3.1-2.2.1-2.2z"/><path class="st50" d="M214.1 222.5v14.2M199 229.6h15.1"/><path class="st51" d="M189.5 229.2h8.6M214.9 229.2h7.6"/><path class="st52" d="M206.5 222.5v14.2"/><path class="st48" d="M118.6 170.6h17.6"/><path class="st50" d="M285.1 237.4v-11.3h9.8v11.3M285.3 227h8.7v9.3M289.6 227v9.6M267.7 230.4h17.4M267.9 231.3h17.2"/><ellipse class="st50" cx="289.7" cy="222.3" rx=".6" ry="1.1"/><path class="st50" d="M309.1 237.4v-11.3h9.9v11.3M309.4 227h8.7v9.3M313.6 227v9.6M334.6 237.4v-11.3h5.4v11.3M334.9 227h4.2v9.3"/><ellipse class="st50" cx="313.7" cy="222.3" rx=".6" ry="1.1"/><ellipse class="st50" cx="337" cy="222.3" rx=".6" ry="1.1"/><path class="st50" d="M340 230.4h1.5c1.5 0 5 0 5.8.5M319 230.4h15.5M294.9 230.4h14M340 231.3h1.5c1.6 0 4.9 0 5.8.6M319 231.3h15.5M294.9 231.3h14.2"/><path class="st10" d="M259.9 220.8s-.1.1-.4.2c-.3.1-.7.1-1.1.1h-.7c-.2 0-.5.1-.8.1h-.9c-.3 0-.7-.2-.9-.2-.1 0-.2-.1-.3 0l-.4.1c-.3.1-.6.1-.8.1l-.4.1c-.2 0-.3 0-.4.1h-.8c-.9-.1-1.5-.3-1.5-.3h.4c.3 0 .6 0 1.1-.1.2 0 .5 0 .7-.1l.4-.1.4-.1.9-.2.4-.1h.6c.3.1.6.2.8.2h.8l.8-.1c.3 0 .6.1.8.1.4.1.8.2 1 .3.1-.1.3-.1.3-.1zM261.3 215.8s-.1.2-.4.4c-.3.2-.8.4-1.4.4-.3 0-.7-.1-1-.2-.3-.1-.6-.1-.9 0-.4.1-.7.2-1.2.2h-.6c-.2 0-.4 0-.6-.1h-1.1c-.3.1-.5.3-1.1.4-.6.1-.9-.3-1.2-.5l-.2-.1h-.2c-.2-.1-.3-.1-.4-.1-.6-.1-1.1-.1-1.4-.1h-.6s.2-.1.5-.1c.3-.1.8-.2 1.5-.2h.6l.2.1.3.1c.3.2.6.3.8.3l1-.4c.5-.1.9-.1 1.3-.1.2 0 .4 0 .6.1h.5c.3 0 .7 0 1.1-.1.4 0 .9 0 1.2.2.3.2.6.2.8.3.6.1 1 0 1.3-.2l.6-.3zM264.1 218.3s-.3 0-.8.1c-.5 0-1.3.2-2.1.4-.4.1-.9.2-1.5.3-.5.1-1.1.1-1.7 0-.6-.1-1.2-.3-1.7-.3-.3-.1-.5-.1-.8 0l-.9.2c-.6.1-1.2.2-1.8.2-.6 0-1.3-.1-1.8-.2s-1.1-.2-1.6-.2h-1.4c-.4.1-.9.2-1.2.1-.4 0-.7 0-1-.1-.5-.1-.8-.2-.8-.2h.8c.3 0 .6 0 .9-.1.3-.1.7-.2 1.2-.3.9-.2 2.1-.2 3.2 0 .6.1 1.1.2 1.7.2.6 0 1.1-.1 1.7-.2l.9-.1c.4-.1.7 0 1 0 .6.1 1.2.3 1.7.4.5.1 1.1.1 1.6.1s1-.1 1.4-.2c.9-.2 1.7-.1 2.2-.1.5-.1.8 0 .8 0z"/><path class="st46" d="M135.9 226.4h-7M153.7 226.4h-15.3M163.3 226.4h-5.1M181.2 226.4h-15M188.7 226.4h-2.8"/><path class="st48" d="M188.7 222.5v5.7"/><path class="st45" d="M126.5 236.4v-3.6c0-1.5 1.2-2.6 2.6-2.6.2 0 .5 0 .7.1.7-1.4 2.1-2.3 3.8-2.3.3 0 .6 0 .9.1.3-1.2 1.4-2.1 2.6-2.1 1.3 0 2.3.9 2.6 2l.6-.1c.8 0 1.5.3 2 .7.4-1.2 1.6-2.1 3-2.1.7 0 1.4.3 1.9.7.8-.6 1.8-.9 2.8-.9 1.1 0 2.1.4 2.9 1 .5-1.1 1.6-1.8 2.9-1.8 1 0 1.9.5 2.5 1.3.4-.1.9-.2 1.4-.2 1 0 1.9.3 2.7.8.5-.8 1.3-1.4 2.4-1.4 1.3 0 2.3.9 2.6 2l.6-.1c.8 0 1.5.3 2 .7.4-1.2 1.6-2.1 3-2.1.7 0 1.4.3 1.9.7.8-.6 1.8-.9 2.8-.9 1.1 0 2.1.4 2.9 1 .5-1.1 1.6-1.8 2.9-1.8 1.2 0 2.2.6 2.7 1.6h.4c1.5 0 2.7 1.2 2.7 2.7v.2c.8.6 1.3 1.5 1.3 2.5v4.9M151.2 236.7v-5.4c0-.9.7-1.6 1.6-1.6.9 0 1.6.7 1.6 1.6v5.4"/><path class="st46" d="M153.4 233.2c0 .3-.3.6-.6.6s-.6-.3-.6-.6v-.8c0-.3.3-.6.6-.6s.6.3.6.6v.8z"/><path class="st10" d="M158.8 227.1s-.1 0-.2.1-.3.2-.5.3c-.4.3-.6.7-.6.7v-.3c0-.2.1-.5.2-.7.1-.3.2-.5.4-.7l.2-.3.5.9zM135.1 227.8s-.1.1-.1.2c-.1.1-.1.4-.2.6-.1.5.1 1 .1 1l-.2-.2c-.1-.1-.3-.4-.4-.6-.1-.3-.2-.5-.2-.8v-.4l1 .2zM127.1 232.2l-.1.3v.6l.2.3c.1.1.2.2.3.2.2.1.3.1.3.1h-.4c-.1 0-.2 0-.4-.1-.2 0-.3-.2-.4-.3-.2-.3-.4-.6-.4-.8l-.1-.3v-.1l1 .1zM189.9 229.8s-.1.2-.2.3c-.1.2-.3.4-.5.6-.2.2-.4.3-.6.4-.2.1-.3.1-.3.1s.4-.4.5-.8c.1-.2.1-.4.1-.6v-.3l1 .3z"/><path class="st48" d="M118.6 202.9v-33.8h17.6v7.6M118.6 236.7v-17"/><path class="st45" d="M114.2 225c2 0 3.6-1.6 3.6-3.6 0-.7-.2-1.3-.5-1.8h.5c3.5 0 6.4-2.9 6.4-6.4 0-2.7-1.7-5.1-4.2-6 .2-.4.4-.9.4-1.5 0-1.7-1.4-3.1-3.1-3.1-.6 0-1.1.1-1.5.4v-.4c0-3-2.5-5.5-5.5-5.5s-5.5 2.5-5.5 5.5c0 .5.1 1.1.2 1.6h-.1c-1.9 0-3.5 1.6-3.5 3.5 0 1.6 1.1 3 2.5 3.4-.4.8-.6 1.6-.6 2.6 0 .8.2 1.6.5 2.3-.5.8-.7 1.7-.7 2.7 0 2.9 2.4 5.3 5.3 5.3 1 0 1.9-.3 2.6-.7.3.5.7.9 1.3 1.2M115.6 237.1c-2.2-11.4-1.3-22.5-1.3-22.5M111.7 215.6s1.8 9-1.2 21.4"/><path class="st10" d="M109.8 216.2l.6-.2c.2-.1.4-.2.5-.3.2-.1.3-.2.4-.4l.4-.4c.1-.1.2-.3.3-.5l.3-.5c.1-.2.1-.4.2-.5.1-.2.1-.4.2-.5l.5-1.3.4 1.3c0 .1.1.2.2.3.1.1.1.2.2.4l.3.3.3.3c.1.1.2.2.4.3.1.1.3.2.4.2l.4.2.5.2h-1l-.5-.1c-.2 0-.3-.1-.5-.2l-.5-.3c-.1-.1-.3-.2-.4-.4-.1-.1-.3-.3-.4-.5-.1-.2-.2-.3-.3-.6h.9l-.2.6-.3.6-.4.6c-.1.2-.3.4-.5.5-.2.1-.3.3-.6.4l-.6.3c-.2 0-.4.1-.7.1-.1.2-.3.2-.5.1zM103.9 214.5s0 .2.1.4c0 .3.1.6.2.9l.2.5.3.4c.2.2.4.3.4.3l-.4-.2-.4-.3-.4-.4c-.3-.3-.5-.6-.6-.9-.1-.3-.2-.5-.2-.4l.8-.3zM116.2 201.7s0 .2-.1.5l-.3 1c-.1.2-.2.4-.3.5l-.3.4-.3.3.2-.4c.1-.1.1-.3.1-.4.1-.2.1-.3.1-.5v-.9c0-.3-.1-.4-.1-.4l1-.1zM118.5 220s-.2 0-.5-.1l-1-.3-.5-.3-.3-.4c-.1-.3-.1-.4-.1-.4s.1.2.2.3c.1.1.2.2.4.2.1.1.3.1.5.1h.9c.2 0 .4-.1.4-.1v1z"/><path class="st45" d="M363.1 214c12.5.6 25.6 1.6 45.1-.9M251.6 209.1c22.8-2 27.8-3.5 51.5-2.9 15.3.4 27.4 3 39.2 5M103.4 221.1c-29.3 1.2-43-11.8-99-2.6-51.8 8.5-88.4.7-88.4.7-63.3-13.1-134.4 5.8-134.4 5.8"/><path class="st4" d="M-162.3 73.3v37.9c0 .7.6 1.3 1.3 1.3.7 0 1.3-.6 1.3-1.3v-37.9M-121.8 73.3v37.9c0 .7.6 1.3 1.3 1.3.7 0 1.3-.6 1.3-1.3v-37.9M-61.6 73.3v37.9c0 .7.6 1.3 1.3 1.3.7 0 1.3-.6 1.3-1.3v-37.9M-21.3 73.3v37.9c0 .7.6 1.3 1.3 1.3s1.3-.6 1.3-1.3v-37.9"/><path class="st4" d="M-162.1 13.5c0 6.8-5.5 12.2-12.2 12.2s-12.2-5.5-12.2-12.2h24.4zM-178.8 25.2s.2 2.8 3.2 2.8h1.8c3 0 3.2-2.8 3.2-2.8M-175.6 28v76.5c0 2.1-1.7 3.8-3.8 3.8h-.1c-1.5 0-2.7 1.2-2.7 2.7 0 0-.1 1.5 7.5 1.5l7.5-1.5c0-1.5-1.2-2.7-2.7-2.7h-.1c-2.1 0-3.8-1.7-3.8-3.8v-76.5"/><path class="st4" d="M372.2 13.5c0 6.8-5.5 12.2-12.2 12.2-6.8 0-12.2-5.5-12.2-12.2h24.4zM355.5 25.2s.2 2.8 3.2 2.8h1.8c3 0 3.2-2.8 3.2-2.8M358.7 28v76.5c0 2.1-1.7 3.8-3.8 3.8h-.1c-1.5 0-2.7 1.2-2.7 2.7 0 0-.1 1.5 7.5 1.5l7.5-1.5c0-1.5-1.2-2.7-2.7-2.7h-.1c-2.1 0-3.8-1.7-3.8-3.8v-76.5M76.1 73.3v37.9c0 .7.6 1.3 1.3 1.3s1.3-.6 1.3-1.3v-37.9M132.4 73.3v37.9c0 .7.6 1.3 1.3 1.3s1.3-.6 1.3-1.3v-37.9M171.1 73.4v37.9c0 .7.6 1.3 1.3 1.3.7 0 1.3-.6 1.3-1.3v-37.9"/><path class="st4" d="M74.8 69h100v4.3h-100zM78.8 81.8h53.6M135.1 73.3v25h36"/><path class="st2" d="M136.1 85.8s2.1-.1 5.4-.2c1.6 0 3.5-.1 5.5-.1h12.6c2 0 3.9.1 5.5.1 3.2.1 5.4.2 5.4.2s-2.1.1-5.4.2c-1.6 0-3.5.1-5.5.1h-12.6c-2 0-3.9-.1-5.5-.1-3.3-.1-5.4-.2-5.4-.2z"/><path class="st4" d="M158.7 80.3h-10.7c-.3 0-.6-.3-.6-.6v-.6c0-.3.3-.6.6-.6h10.8c.3 0 .6.3.6.6v.6c-.1.4-.3.6-.7.6zM158.7 92.8h-10.7c-.3 0-.6-.3-.6-.6v-.6c0-.3.3-.6.6-.6h10.8c.3 0 .6.3.6.6v.6c-.1.4-.3.6-.7.6zM344.3 73.3v37.9c0 .7-.6 1.3-1.3 1.3-.7 0-1.3-.6-1.3-1.3v-37.9M287.9 73.3v37.9c0 .7-.6 1.3-1.3 1.3-.7 0-1.3-.6-1.3-1.3v-37.9M249.2 73.4v37.9c0 .7-.6 1.3-1.3 1.3-.7 0-1.3-.6-1.3-1.3v-37.9"/><path class="st4" d="M245.6 69h100v4.3h-100zM341.5 81.8h-53.6M285.2 73.3v25h-36"/><path class="st2" d="M284.2 85.8s-2.1.1-5.4.2c-1.6 0-3.5.1-5.5.1h-12.6c-2 0-3.9-.1-5.5-.1-3.2-.1-5.4-.2-5.4-.2s2.1-.1 5.4-.2c1.6 0 3.5-.1 5.5-.1h12.6c2 0 3.9.1 5.5.1 3.3 0 5.4.2 5.4.2z"/><path class="st4" d="M261.6 80.3h10.8c.3 0 .6-.3.6-.6v-.6c0-.3-.3-.6-.6-.6h-10.8c-.3 0-.6.3-.6.6v.6c0 .4.3.6.6.6zM261.6 92.8h10.8c.3 0 .6-.3.6-.6v-.6c0-.3-.3-.6-.6-.6h-10.8c-.3 0-.6.3-.6.6v.6c0 .4.3.6.6.6zM130.7 63.2h-43.1c-.4 0-.7-.3-.7-.7v-27.5c0-.4.3-.7.7-.7h44.4c.4 0 .7.3.7.7v24.6"/><path class="st16" d="M86.9 37h45.9M86.9 58h45.9"/><circle class="st16" cx="109.8" cy="60.5" r=".8"/><path class="st4" d="M107.4 63.2s.6 5.8-2 5.8M112.2 63.2s-.6 5.8 2 5.8"/><path class="st3" d="M110.6 40.4h20.5v15.8h-20.5z"/><path class="st16" d="M110.6 38.6h20.5v17.7h-20.5z"/><path class="st10" d="M121.8 43.6l.3 2.9 2.7.7-2.6 1.1.2 2.9-1.9-2.2-2.7 1.1 1.5-2.5-1.8-2.2 2.8.7z"/><path class="st16" d="M89.5 39.8h18.5M89.5 41h12.3M89.5 44.4h14.1M89.5 45.5h12.3M89.5 47.8h12.3M89.5 46.6h16.3M89.5 48.9h14.1M89.5 50h12.3M89.5 52.3h12.3M89.5 51.2h16.3M89.5 42.1h1M89.5 43.2h1M89.5 53.4h1M89.5 54.6h1M89.5 55.7h1"/><path class="st4" d="M343.4 63.2h-44.4c-.4 0-.7-.3-.7-.7v-27.5c0-.4.3-.7.7-.7h44.4c.4 0 .7.3.7.7v27.5c0 .4-.3.7-.7.7z"/><path class="st16" d="M298.2 37h45.9M298.2 58h45.9"/><circle class="st16" cx="321.2" cy="60.5" r=".8"/><path class="st4" d="M318.8 63.2s.6 5.8-2 5.8M323.6 63.2s-.6 5.8 2 5.8"/><path class="st4" d="M141.1 32.1c0-5.1 4.2-9.3 9.3-9.3s9.3 4.2 9.3 9.3h-18.6zM153.5 23.3s-.2-2.1-2.5-2.1h-1.3c-2.3 0-2.5 2.1-2.5 2.1M151.1 21.2v-2.7c0-2.3 1.8-4 4.1-4h4.9c2.3 0 4.1 1.7 4.1 4v43.9c0 2.1-1.7 3.8-3.8 3.8h-.1c-1.5 0-2.7 1.2-2.7 2.7M149.5 21.2v-2.9c0-3 2.4-5.4 5.4-5.4h5.8c3 0 5.4 2.4 5.4 5.4v44.2c0 2.1 1.7 3.8 3.8 3.8h.1c1.5 0 2.7 1.2 2.7 2.7"/><path class="st4" d="M34.5 112.5h-17c-1.2 0-2.2-1-2.2-2.2v-42.1c0-1.2 1-2.2 2.2-2.2h16.9c1.2 0 2.2 1 2.2 2.2v42.1c0 1.3-.9 2.2-2.1 2.2zM17.3 70h17.5v25.5h-17.5z"/><path class="st5" d="M17.3 75.6h17.4M17.3 82.4h17.4M17.3 89.3h17.4"/><circle class="st4" cx="26" cy="106.6" r="1.2"/><path class="st5" d="M19 99.5h14M19 101.3h14M19 103h14M27.2 75.6v-1.6h7.5M27.2 95.5v-1.6h7.5M27.2 82.4v-1.6h7.5M27.2 89.1v-1.6h7.5"/><path class="st4" d="M60.5 112.5h-16.9c-1.2 0-2.2-1-2.2-2.2v-42.1c0-1.2 1-2.2 2.2-2.2h16.9c1.2 0 2.2 1 2.2 2.2v42.1c0 1.3-1 2.2-2.2 2.2zM43.3 70h17.5v25.5h-17.5z"/><path class="st5" d="M43.3 75.6h17.5M43.3 82.4h17.5M43.3 89.3h17.5"/><circle class="st4" cx="52" cy="106.6" r="1.2"/><path class="st5" d="M45.1 99.5h13.9M45.1 101.3h13.9M45.1 103h13.9M53.2 75.6v-1.6h7.6M53.2 95.5v-1.6h7.6M53.2 82.4v-1.6h7.6M53.2 89.1v-1.6h7.6"/><path class="st4" d="M10.9 42.5h54.8v3.9h-54.8zM18.9 46.4l2.5 4.6v-4.6M58.2 46.4l-2.5 4.6v-4.6"/><path class="st4" d="M31.646 42.077l-4.109-.87 3.604-17.022 4.109.87z"/><path class="st16" d="M33.3 25.2l-3.7 16.6"/><path class="st4" d="M50.6 20h8.5v22.3h-8.5zM42.2 20h8.5v22.3h-8.5zM35.3 22.3h7v20.1h-7z"/><circle class="st16" cx="54.9" cy="38.2" r="1.1"/><circle class="st16" cx="46.5" cy="38.2" r="1.1"/><path class="st16" d="M42.2 24.5s-2.5.6-7 0"/><path class="st2" d="M10.9 44.5s3.4-.1 8.6-.1c2.6 0 5.6 0 8.8-.1h20.2c3.2 0 6.2.1 8.8.1 5.1.1 8.6.1 8.6.1s-3.4.1-8.6.1c-2.6 0-5.6 0-8.8.1h-20.2c-3.2 0-6.2-.1-8.8-.1-5.1-.1-8.6-.1-8.6-.1z"/><path class="st4" d="M-107.3 63.2h-39.8c-.4 0-.7-.3-.7-.7v-6.9M-147.8 38.5v-3.5c0-.4.3-.7.7-.7h44.4c.4 0 .7.3.7.7v13.9"/><path class="st16" d="M-147.8 37h45.9M-147.8 58h41.2"/><circle class="st16" cx="-124.8" cy="60.5" r=".8"/><path class="st4" d="M-127.2 63.2s.6 5.8-2 5.8M-122.4 63.2s-.6 5.8 2 5.8"/><path class="st53" d="M-123.6 40.9l.4 5.3 5.1 1.4-4.9 2 .3 5.3-3.4-4-4.9 1.9 2.7-4.5-3.3-4.2 5.1 1.3z"/><path class="st10" d="M323.2 40.4l.4 5.3 5.2 1.4-4.9 2 .3 5.3-3.5-4-4.9 1.9 2.8-4.5-3.4-4.2 5.2 1.3z"/><path class="st5" d="M-148.4 39.3l-2.7.3.9 7.3 7.3-.9-.9-7.3-3 .3"/><path class="st6" d="M-143.4 44.4l-6.9.8"/><circle class="st5" cx="-147.6" cy="39.3" r=".6"/><path class="st5" d="M-148.2 47.7l-3-.9-2.1 7 7.1 2.1 2.1-7-2.7-.9"/><path class="st6" d="M-146 54.2l-6.6-1.9"/><circle class="st5" cx="-147.6" cy="47.7" r=".6"/><path class="st4" d="M-162.9 69h145.7v4.3h-145.7zM-61.6 81.8h-57.3M-61.6 78h-57.3M132.4 78h-53.6M341.5 78h-53.6M-122 73.3v25h-37.6"/><path class="st2" d="M-123 85.8s-2.2.1-5.6.2c-1.7 0-3.6.1-5.7.1h-13c-2.1 0-4-.1-5.7-.1-3.3-.1-5.6-.2-5.6-.2s2.2-.1 5.6-.2c1.7 0 3.6-.1 5.7-.1h13c2.1 0 4 .1 5.7.1 3.4 0 5.6.2 5.6.2z"/><path class="st4" d="M-145.9 80.3h10.8c.3 0 .6-.3.6-.6v-.6c0-.3-.3-.6-.6-.6h-10.8c-.3 0-.6.3-.6.6v.6c0 .4.3.6.6.6zM-145.9 92.8h10.8c.3 0 .6-.3.6-.6v-.6c0-.3-.3-.6-.6-.6h-10.8c-.3 0-.6.3-.6.6v.6c0 .4.3.6.6.6zM-58.9 73.3v25h37.6"/><path class="st2" d="M-57.9 85.8s2.2-.1 5.6-.2c1.7 0 3.6-.1 5.7-.1h13c2.1 0 4 .1 5.7.1 3.3.1 5.6.2 5.6.2s-2.2.1-5.6.2c-1.7 0-3.6.1-5.7.1h-13c-2.1 0-4-.1-5.7-.1-3.4-.1-5.6-.2-5.6-.2z"/><path class="st4" d="M-35 80.3h-10.8c-.3 0-.6-.3-.6-.6v-.6c0-.3.3-.6.6-.6h10.8c.3 0 .6.3.6.6v.6c0 .4-.3.6-.6.6zM-35 92.8h-10.8c-.3 0-.6-.3-.6-.6v-.6c0-.3.3-.6.6-.6h10.8c.3 0 .6.3.6.6v.6c0 .4-.3.6-.6.6z"/><path class="st5" d="M-152.5 62.5h-.9l.1-3.7h.7z"/><path class="st16" d="M-153.2 58.8s-.1-.8.2-.8h.1c.3 0 .2.8.2.8"/><path class="st5" d="M-153.4 62.5s.1 2-.2 4.4v.6M-152.5 62.5s-.1 2 .2 4.4v.6M-154.8 68.6c0-1 .8-1.2 1.8-1.2s1.8.2 1.8 1.2"/><path class="st4" d="M-73.8 66.2h-33.8l2-17.3h29.3z"/><path class="st54" d="M-77.1 64.1h-28.1l1.4-13.4h25.1z"/><path class="st4" d="M-76.3 58.7l.7 5.4M-76.5 56.9l.1.5M-76.9 53.6l.2 1.8M-77.3 50.7l.2 1.8M-99.7 66.2s-1.9.4-2.1 2.4h3.2s0-2.4 3-2.4M-81 66.2s1.9.4 2.1 2.4h-3.2s0-2.4-3-2.4"/><path class="st10" d="M-90 53.2l.3 3 2.9.8-2.8 1.1.2 3.1-2-2.3-2.9 1.1 1.6-2.6-1.9-2.4 3 .7z"/><path class="st4" d="M-55.1 69h7.1l1-9.1h-9zM-56 61.8h-2.4s.2 4.7 3.1 4.5"/><path class="st4" d="M-29.3 52.6h4.2v16.4h-4.2zM-41.8 68.8l-1.9-.2 2.7-18.7 1.8.3zM-38.3 47.3h8.5v21.6h-8.5z"/><circle class="st16" cx="-34.1" cy="64.4" r="1.1"/><path class="st5" d="M-92.831 40.568l-1.959-23.921 5.681-.465 1.959 23.921z"/><path class="st39" d="M-88.8 20l-5.7.5"/><path class="st2" d="M-93.4 18.1s0-.1.1-.2.1-.2.3-.3c.1-.1.3-.1.4 0l.2.2c.2.1.4 0 .6-.1.1 0 .2-.1.4-.1s.3.1.4.1h.2s.1-.2.2-.2c.2-.1.4 0 .5 0 .1 0 .2.1.2.1h-.2c-.1 0-.3 0-.4.1-.1 0-.1.1-.2.2s-.3.1-.4.1l-.3-.1s-.2.1-.3.1c-.2.1-.5.1-.8 0l-.3-.2c0-.1-.1-.1-.2 0-.3.1-.4.3-.4.3z"/><path class="st39" d="M-87.3 39l-5.6.5M-87.6 34.3l-5.7.4M-88.1 29.3l-5.6.5M-88.4 24.6l-5.7.5"/><path class="st2" d="M-93.4 18.9s.2-.1.5-.1c.3-.1.7-.1 1.1-.1h1.6s-.2.1-.5.1c-.3.1-.7.1-1.1.1h-1.6z"/><circle class="st5" cx="-92.2" cy="16" r=".7"/><path class="st4" d="M236.6 23.7c0-.4-.3-.6-.6-.6h-32.1c-.4 0-.6.3-.6.6v88c0 .4.3.6.6.6h32.1c.4 0 .6-.3.6-.6v-88zm-31.5 85.5v-26.2h29.5v26.2h-29.5zm.6-84.2h28.4c.3 0 .6.3.6.6v26.7h-29.5v-26.6c-.1-.4.2-.7.5-.7zm-.6 56.5v-27.6h29.5v27.7h-29.5z"/><path class="st2" d="M206.9 26.9s1.6-.1 4-.1c1.2 0 2.6 0 4.1-.1h9.4c1.5 0 2.9.1 4.1.1 2.4.1 4 .1 4 .1s-1.6.1-4 .1c-1.2 0-2.6 0-4.1.1h-9.4c-1.5 0-2.9-.1-4.1-.1-2.3 0-4-.1-4-.1zM206.9 55.9s1.6-.1 4-.1c1.2 0 2.6 0 4.1-.1h9.4c1.5 0 2.9.1 4.1.1 2.4.1 4 .1 4 .1s-1.6.1-4 .1c-1.2 0-2.6 0-4.1.1h-9.4c-1.5 0-2.9-.1-4.1-.1-2.3 0-4-.1-4-.1zM206.9 85.1s1.6-.1 4-.1c1.2 0 2.6 0 4.1-.1h9.4c1.5 0 2.9.1 4.1.1 2.4.1 4 .1 4 .1s-1.6.1-4 .1c-1.2 0-2.6 0-4.1.1h-9.4c-1.5 0-2.9-.1-4.1-.1-2.3-.1-4-.1-4-.1z"/><path class="st4" d="M222.4 29.1h10.2v3h-10.2zM222.4 58.1h10.2v3h-10.2zM222.4 87.1h10.2v3h-10.2zM284 69h7.2l.9-9.1h-9zM283.1 61.8h-2.4s.2 4.7 3.1 4.5"/><path class="st4" d="M138.5 69h-7.1l-.9-9.1h9zM139.5 61.8h2.4s-.2 4.7-3.1 4.5"/></g></svg>