<svg xmlns="http://www.w3.org/2000/svg" viewBox="0 0 450.4 79.3" enable-background="new 0 0 450.4 79.3"><style type="text/css">.st0{fill:#C1503E;}</style><path class="st0" d="M50.7 18c.3.3.4.6.4 1v9.5c0 .4-.1.7-.4 1-.3.3-.6.4-1 .4h-24.1c-.2 0-.4.1-.4.3v8.6c0 .2.1.4.4.4h18.3c.4 0 .7.1.9.4.2.3.4.6.4 1v8.3c0 .4-.1.7-.4 1-.2.3-.6.4-.9.4h-18.3c-.2 0-.4.1-.4.4v16.2c0 .9-.5 1.4-1.4 1.4h-9.8c-.9 0-1.4-.5-1.4-1.4v-47.9c0-.4.1-.7.4-1 .3-.3.6-.4 1-.4h35.8c.3 0 .7.1.9.4zM59.3 6.1c1 0 1.9.4 2.6 1.1.7.7 1 1.6 1 2.6s-.3 1.8-1 2.5-1.5 1.1-2.6 1.1c-1 0-1.9-.4-2.6-1.1-.7-.7-1-1.6-1-2.5 0-1 .3-1.9 1-2.6.8-.8 1.6-1.1 2.6-1.1zm12.1 60.5c0 .9-.5 1.4-1.4 1.4h-9.9c-.9 0-1.4-.5-1.4-1.4v-47.6c0-.4.1-.7.4-1 .3-.3.6-.4 1-.4h9.9c.4 0 .7.1 1 .4.3.3.4.6.4 1v47.6zm-.5-60.5c1 0 1.9.4 2.6 1.1.7.7 1 1.6 1 2.6s-.3 1.8-1 2.5-1.5 1.1-2.6 1.1c-1 0-1.9-.4-2.6-1.1-.7-.7-1-1.6-1-2.5 0-1 .3-1.9 1-2.6.7-.8 1.6-1.1 2.6-1.1zM117.9 18c.3.3.4.6.4 1v9.5c0 .4-.1.7-.4 1-.3.3-.6.4-1 .4h-24.1c-.2 0-.4.1-.4.3v8.6c0 .2.1.4.4.4h18.3c.4 0 .7.1.9.4.2.3.4.6.4 1v8.3c0 .4-.1.7-.4 1-.2.3-.6.4-.9.4h-18.3c-.2 0-.4.1-.4.4v16.2c0 .9-.5 1.4-1.4 1.4h-9.9c-.9 0-1.4-.5-1.4-1.4v-47.9c0-.4.1-.7.4-1 .3-.3.6-.4 1-.4h35.8c.4 0 .8.1 1 .4zM163.1 28.5c0 .4-.1.7-.4 1-.3.3-.6.4-1 .4h-10.2c-.4 0-.7.1-1 .4-.3.2-.4.6-.4.9v35.5c0 .4-.1.7-.4 1-.2.3-.6.4-.9.4h-10c-.4 0-.7-.1-1-.4-.3-.3-.4-.6-.4-1v-35.6c0-.4-.1-.7-.4-.9-.2-.2-.6-.4-.9-.4h-10.2c-.4 0-.7-.1-1-.4-.3-.3-.4-.6-.4-1v-9.4c0-.9.5-1.4 1.4-1.4h35.8c.4 0 .7.1 1 .4.3.3.4.6.4 1v9.5zM210.8 17.6c.4 0 .7.1 1 .4.3.3.4.6.4 1v47.7c0 .4-.1.7-.4 1-.3.3-.6.4-1 .4h-10c-.4 0-.7-.1-1-.4-.3-.3-.4-.6-.4-1v-16.7c0-.4-.1-.7-.4-.9-.2-.2-.6-.4-.9-.4h-14.3c-.4 0-.7.1-1 .4-.3.2-.4.6-.4.9v16.6c0 .9-.5 1.4-1.4 1.4h-9.9c-.9 0-1.4-.5-1.4-1.4v-47.6c0-.9.5-1.4 1.4-1.4h9.9c.9 0 1.4.5 1.4 1.4v16.1c0 .9.5 1.4 1.4 1.4h14.3c.4 0 .7-.1.9-.4.2-.3.4-.6.4-1v-16.1c0-.4.1-.7.4-1 .3-.3.6-.4 1-.4h10zM288.5 17.9c.1.2.1.5-.1.8l-16.2 29.4c-.2.3-.3.7-.5 1.2-.1.5-.2.9-.2 1.3v16c0 .4-.1.7-.4 1-.2.3-.6.4-.9.4h-10c-.4 0-.7-.1-1-.4-.3-.3-.4-.6-.4-1v-16c0-.4-.1-.8-.2-1.3s-.3-.9-.5-1.2l-16.1-29.4c-.2-.3-.2-.6-.1-.8.1-.2.4-.3.8-.3h10.8c.4 0 .8.1 1.1.3.4.2.6.5.8.8l9.6 18.9 9.6-18.9c.2-.3.5-.6.9-.8.4-.2.8-.3 1.2-.3h10.8c.6 0 .9.1 1 .3zM333.3 17.6c.4 0 .7.1 1 .4.3.3.4.6.4 1v9c0 .4-.1.7-.4.9-.3.2-.6.4-1 .4h-24.1c-.2 0-.4.1-.4.4v7.8c0 .2.1.3.4.3h20.6c.4 0 .7.1.9.4.2.3.4.6.4 1v7.2c0 .4-.1.7-.4 1-.2.3-.6.4-.9.4h-20.6c-.2 0-.4.1-.4.4v7.800000000000001c0 .2.1.4.4.4h24.1c.4 0 .7.1 1 .4.3.3.4.6.4 1v9c0 .4-.1.7-.4 1-.3.3-.6.4-1 .4h-35.8c-.9 0-1.4-.5-1.4-1.4v-47.8c0-.4.1-.7.4-1 .3-.3.6-.4 1-.4h35.8zm-5.5-5.3c-.1.3-.4.6-.7.7s-.7.2-1.1.1l-9.4-3.2c-.4-.1-.8-.2-1.3-.2s-.9.1-1.2.2l-9.4 3.2c-.4.1-.7.1-1.1-.1-.3-.1-.6-.4-.7-.7l-.5-1.4c-.1-.3-.2-.7 0-1.1.1-.4.3-.7.6-.9l11.2-6.9c.3-.2.7-.3 1.2-.3.4 0 .8.1 1.2.3l11.2 6.9c.3.2.6.5.7.9.1.4.1.7 0 1.1l-.7 1.4zM384.5 24.7c.1.3.3.8.4 1.3.1.5.2.9.2 1.3v39.3c0 .4-.1.7-.4.9-.3.2-.6.4-1 .4h-10c-.4 0-.7-.1-.9-.4-.2-.2-.4-.6-.4-.9v-13c0-.4-.1-.7-.4-.9-.3-.2-.6-.4-1-.4h-14.3c-.4 0-.7.1-1 .4-.3.2-.4.6-.4.9v13c0 .4-.1.7-.4.9-.2.2-.6.4-.9.4h-10c-.4 0-.7-.1-1-.4-.3-.2-.4-.6-.4-.9v-39.50000000000001c0-.4.1-.8.2-1.2.1-.4.2-.8.4-1.2l6.6-6.6c.3-.1.7-.3 1.2-.4.5-.1.9-.2 1.3-.2h22.9c.4 0 .8.1 1.3.2s.9.3 1.3.4l6.7 6.6zm-10.4-18.8c.2.2.3.4.3.7l-.2 1.7c-.1.5-.4.9-.9 1.2l-.6.2-9.6 4.2c-.2.1-.3.1-.4.1-.1 0-.2 0-.2-.1-.3 0-.5-.1-.6-.3-.2-.2-.3-.4-.2-.7l.3-2.4-7.3 1.9s-.1.1-.3.1c-.3 0-.5-.1-.7-.3-.2-.2-.3-.5-.2-.8l.2-1.7c0-.2.1-.5.3-.7.2-.2.4-.4.6-.5l.5-.3 9.6-4.2c.1 0 .2-.1.4-.1h.2c.2 0 .4.1.7.3.1.2.2.5.2.8l-.4 2.4 7.3-1.9h.30000000000000004c.4.1.6.2.7.4zm-1.7 22.9h-17v12.7h17v-12.7zM399.3 51.8l-6.6-6.8c-.2-.3-.4-.7-.5-1.1-.1-.4-.2-.8-.2-1v-15.7c0-.4.1-.8.2-1.3s.3-.9.4-1.2l6.6-6.6c.3-.1.8-.3 1.3-.4.5-.1.9-.2 1.3-.2h31.2c.4 0 .7.1 1 .4.3.3.4.6.4 1v47.7c0 .9-.5 1.4-1.4 1.4h-10c-.9 0-1.4-.5-1.4-1.4v-13.5c0-.2-.1-.4-.4-.4h-8.1c-.2 0-.4.1-.5.3l-8.1 13.7c-.2.3-.5.6-.9.8-.4.2-.8.3-1.2.3h-11.4c-.4 0-.6-.1-.8-.3-.1-.2-.1-.5.1-.8l9-14.9zm5.4-19.4v9h17.4v-12.2h-17.4v3.2z"/></svg>