<svg xmlns="http://www.w3.org/2000/svg" viewBox="0 0 617.8 296.8" enable-background="new 0 0 617.8 296.8"><style type="text/css">.st0{opacity:0.22;fill:#AF4939;} .st1{fill:#FFFFFF;stroke:#333433;stroke-miterlimit:10;} .st2{fill:#333433;} .st3{fill:#FFFFFF;} .st4{fill:#FFFFFF;stroke:#333433;stroke-linecap:round;stroke-linejoin:round;stroke-miterlimit:10;} .st5{fill:#FFFFFF;stroke:#333433;stroke-width:0.9141;stroke-linecap:round;stroke-linejoin:round;stroke-miterlimit:10;} .st6{fill:#FFFFFF;stroke:#333433;stroke-width:0.75;stroke-linecap:round;stroke-linejoin:round;stroke-miterlimit:10;} .st7{fill:none;stroke:#333433;stroke-width:0.9581;stroke-linecap:round;stroke-linejoin:round;stroke-miterlimit:10;} .st8{fill:#FFFFFF;stroke:#333433;stroke-width:0.8907;stroke-linecap:round;stroke-linejoin:round;stroke-miterlimit:10;} .st9{fill:#AF4939;} .st10{fill:none;stroke:#333433;stroke-width:0.5;stroke-linecap:round;stroke-linejoin:round;stroke-miterlimit:10;} .st11{fill:none;stroke:#333433;stroke-linecap:round;stroke-linejoin:round;stroke-miterlimit:10;} .st12{fill:#FFFFFF;stroke:#333433;stroke-width:0.8094;stroke-miterlimit:10;} .st13{fill:none;stroke:#333433;stroke-width:0.8094;stroke-miterlimit:10;} .st14{fill:none;stroke:#333433;stroke-miterlimit:10;} .st15{fill:none;stroke:#333433;stroke-width:0.5052;stroke-miterlimit:10;} .st16{fill:#FFFFFF;stroke:#333433;stroke-width:0.976;stroke-linecap:round;stroke-linejoin:round;stroke-miterlimit:10;} .st17{fill:none;stroke:#333433;stroke-width:0.4935;stroke-linecap:round;stroke-linejoin:round;stroke-miterlimit:10;} .st18{fill:none;stroke:#333433;stroke-width:0.9269;stroke-linecap:round;stroke-linejoin:round;stroke-miterlimit:10;} .st19{fill:#FFFFFF;stroke:#333433;stroke-width:0.9618;stroke-linecap:round;stroke-linejoin:round;stroke-miterlimit:10;} .st20{fill:none;stroke:#333433;stroke-width:0.75;stroke-linecap:round;stroke-linejoin:round;stroke-miterlimit:10;} .st21{fill:none;} .st22{fill:#FFFFFF;stroke:#333433;stroke-width:0.988;stroke-linecap:round;stroke-linejoin:round;stroke-miterlimit:10;} .st23{fill:#FFFFFF;stroke:#333433;stroke-width:0.7704;stroke-linecap:round;stroke-linejoin:round;stroke-miterlimit:10;} .st24{fill:none;stroke:#333433;stroke-width:0.7704;stroke-linecap:round;stroke-linejoin:round;stroke-miterlimit:10;} .st25{fill:#FFFFFF;stroke:#333433;stroke-width:0.9552;stroke-linecap:round;stroke-linejoin:round;stroke-miterlimit:10;} .st26{fill:#FFFFFF;stroke:#333433;stroke-width:0.7448;stroke-linecap:round;stroke-linejoin:round;stroke-miterlimit:10;} .st27{fill:none;stroke:#333433;stroke-width:0.7448;stroke-linecap:round;stroke-linejoin:round;stroke-miterlimit:10;} .st28{fill:none;stroke:#333433;stroke-width:0.25;stroke-miterlimit:10;} .st29{fill:none;stroke:#333433;stroke-linejoin:round;stroke-miterlimit:10;} .st30{fill:none;stroke:#333433;stroke-width:0.5;stroke-miterlimit:10;} .st31{fill:none;stroke:#333433;stroke-width:1.0112;stroke-linecap:round;stroke-linejoin:round;stroke-miterlimit:10;} .st32{fill:none;stroke:#333433;stroke-width:0.9271;stroke-linecap:round;stroke-linejoin:round;stroke-miterlimit:10;} .st33{fill:#FFFFFF;stroke:#333433;stroke-width:0.9554;stroke-linecap:round;stroke-linejoin:round;stroke-miterlimit:10;} .st34{fill:#FFFFFF;stroke:#333433;stroke-width:0.9569;stroke-linecap:round;stroke-linejoin:round;stroke-miterlimit:10;} .st35{fill:none;stroke:#333433;stroke-width:0.25;stroke-linecap:round;stroke-linejoin:round;stroke-miterlimit:10;} .st36{fill:#FFFFFF;stroke:#333433;stroke-width:0.9904;stroke-linecap:round;stroke-linejoin:round;stroke-miterlimit:10;} .st37{fill:#FFFFFF;stroke:#333433;stroke-width:0.7918;stroke-linecap:round;stroke-linejoin:round;stroke-miterlimit:10;} .st38{fill:none;stroke:#333433;stroke-width:0.7918;stroke-linecap:round;stroke-linejoin:round;stroke-miterlimit:10;} .st39{fill:#FFFFFF;stroke:#333433;stroke-width:0.5;stroke-linecap:round;stroke-linejoin:round;stroke-miterlimit:10;}</style><path class="st0" d="M321.2 315.8l294.6-57.8-295.2 54.8 271-129.3-272.3 126.5 230.4-192.6-232.3 190.2 175.2-243.8-177.7 242 109.1-279.7-111.9 278.6 36.1-298-39.2 297.6-39.1-297.6 36.1 298-111.9-278.6 109.1 279.7-177.7-242 175.2 243.8-232.3-190.2 230.4 192.6-272.4-126.5 271 129.3-295.2-54.8 294.7 57.8M297.1 318.8h23.9M316.2 123.4M318.4 121.3M320.1 118.7"/><path class="st1" d="M542.2 133.6c-.3-2.9-.7-7.4-1.5-11.6-1.5-8.2 1.4-3.8.9-14.2s-3.5-5.2-3.8-10.5-6.4-5-6.6 0c-.2 5 3.6 3.5-.1 8.2-3.7 4.7-3 10.6-2.4 14.3.9 5.7.3 9.8-.7 13.8h14.2z"/><path class="st2" d="M534.9 93.7c.6.2 1 1 1.1 1.8 0 .9-.1 1.9-.2 3-.1.6-.1 1.2.1 1.8.2.6.5 1.2.8 1.8.6 1.2 1.4 2.3 1.7 3.6.4 1.3.2 2.7-.3 4.1-.5 1.4-1.3 2.7-1.7 4.2-.5 1.5-.7 3.1-.5 4.6.1 1.5.5 3 .9 4.3.3 1.4.6 2.7.7 4 .1 1.3-.2 2.4-.7 3.5-.3.9-.6 1.7-.8 2.5h.3c.2-.7.5-1.5.9-2.3.5-1 .8-2.3.8-3.6 0-1.3-.3-2.7-.6-4.1-.3-1.4-.7-2.8-.8-4.2-.1-1.4.1-2.9.5-4.3s1.2-2.7 1.7-4.2c.5-1.4.8-3 .3-4.5-.2-.7-.5-1.4-.9-2-.3-.6-.7-1.2-1-1.7-.6-1.1-1.1-2.2-.9-3.3.2-1.1.2-2.2.1-3.1-.1-.5-.2-.9-.4-1.3s-.6-.6-.9-.7c-.7-.2-1.2.1-1.5.2-.3.1-.5.2-.5.2s.2-.1.5-.2c.2-.1.7-.3 1.3-.1zM531.6 124.6l.3.7c.3 1.2.3 2.8.3 4.5 0 1.2-.1 2.3-.1 3.4.2-.1.4-.1.6-.1.1-1 .2-2.1.3-3.2 0-1.7-.1-3.4-.6-4.6-.1-.3-.3-.6-.5-.8-.2-.2-.4-.3-.6-.4h-.5.2c.1 0 .2 0 .4.1-.1.1 0 .2.2.4z"/><path class="st1" d="M523.4 169s-3.5-2.2-4.8-5.8h32.5c-1.3 3.7-4.3 5.3-4.3 5.3"/><path class="st1" d="M23 282.9c-.4-.8-.7-1.8-.7-2.8 0-3.3 2.7-6 6-6 1.1 0 2.1.3 2.9.8v-.8c0-5.8 4.7-10.5 10.5-10.5s10.5 4.7 10.5 10.5c0 1-.2 2.1-.4 3h.2c3.7 0 6.7 3 6.7 6.7 0 3.1-2.1 5.7-4.9 6.5.7 1.5 1.1 3.2 1.1 4.9 0 1.6-.3 3.1-.9 4.5.9 1.5 1.4 3.3 1.4 5.1 0 5.6-4.6 10.2-10.2 10.2-1.8 0-3.6-.5-5.1-1.4-1.2 2-3.4 3.4-5.9 3.4-3.8 0-7-3.1-7-7 0-1.3.4-2.5 1-3.5h-1c-6.8 0-12.2-5.5-12.2-12.2 0-5.2 3.3-9.7 8-11.4z"/><path class="st3" d="M54.7 297.2s-.9 3.7-3.1 4.4"/><path class="st2" d="M55.2 297.3s-.1.4-.4.8c-.2.5-.6 1.1-1 1.7-.2.3-.5.6-.7.8l-.7.6-.6.3c-.1 0-.2.1-.2.1s.1 0 .2-.1.3-.2.5-.4.4-.4.6-.7c.2-.3.4-.6.5-.9.3-.6.5-1.3.6-1.7.1-.5.2-.8.2-.8l1 .3z"/><path class="st3" d="M31.3 272.6s-.3 2.9 1.6 5.2"/><path class="st2" d="M31.8 272.7s-.1.3-.1.8v.9c0 .3 0 .6.1 1 .1.3.1.7.3 1 .1.3.2.6.3.8.3.4.4.7.4.7s-.2-.3-.6-.7c-.2-.2-.3-.5-.5-.8l-.5-.9-.3-1-.2-.9c-.1-.5-.1-1-.1-.9h1.2z"/><path class="st3" d="M24.7 306.3s4.8.9 5.4-1.5"/><path class="st2" d="M24.8 305.8s.3.1.9.2c.5.1 1.3.2 2 .1.4 0 .7-.1 1.1-.2.2 0 .3-.1.5-.2s.3-.2.4-.2l.3-.3c.1-.1.1-.2.2-.2.1-.1.1-.2.1-.2s0 .1-.1.3c0 .1 0 .2-.1.3l-.2.3c-.1.1-.2.2-.4.3-.1.1-.3.2-.5.3-.3.2-.7.3-1.1.4-1.6.3-3.1.2-3.1.2v-1.1zM134.9 167.4s-1.4 0-4 .1c-2.5.1-6.1.2-10.4.3-4.3.1-9.4.2-14.7.2-5.4 0-11.1.1-16.9.1-5.8 0-11.5-.1-16.9-.1-5.4 0-10.4-.1-14.7-.2-4.3-.1-7.9-.2-10.4-.3-2.5-.1-4-.1-4-.1v-.1l92 .1zM134.9 185.3s-1.4 0-4 .1c-2.5.1-6.1.2-10.4.3-4.3.1-9.4.2-14.7.2-5.4 0-11.1.1-16.9.1-5.8 0-11.5-.1-16.9-.1-5.4 0-10.4-.1-14.7-.2-4.3-.1-7.9-.2-10.4-.3-2.5-.1-4-.1-4-.1v-.1l92 .1z"/><path class="st4" d="M128.3 151.3h6.6v10.2h-6.6z"/><path class="st1" d="M128.3 161.5l-1.6 4.5h9.7l-1.5-4.5z"/><path class="st4" d="M41.6 166h95.3v137.7h-95.3zM136.9 297.7h-95.3M136.9 300.2h-95.3"/><path class="st3" d="M136.9 299h-95.3"/><path class="st2" d="M136.9 299s-6 .1-14.9.1-20.8.1-32.8.1c-11.9 0-23.8-.1-32.8-.1-8.9-.1-14.9-.1-14.9-.1s6-.1 14.9-.1 20.8-.1 32.8-.1c11.9 0 23.8.1 32.8.1 9 .1 14.9.1 14.9.1z"/><path class="st4" d="M88.1 184h-46.5c-.4-4.7-1-4.2-1-4.2-2.2-.3-1.8-3.2-1.8-3.2h101.1s.4 2.8-1.8 3.2c0 0-.7-.5-1 4.2h-49z"/><path class="st1" d="M39.9 179.9h98.7"/><path class="st4" d="M65.6 194.8v16.8h-14.5v-16.8s6.7-1.6 14.5 0z"/><path class="st5" d="M50.4 211.5h15.9v3.2h-15.9z"/><path class="st6" d="M51.1 200.2h14.5M55.6 194.3v16.7M61.1 194.3v16.7"/><path class="st4" d="M96.5 194.8v16.8h-14.5v-16.8s6.8-1.6 14.5 0z"/><path class="st5" d="M81.3 211.5h15.9v3.2h-15.9z"/><path class="st6" d="M82 200.2h14.5M86.5 194.3v16.7M92.1 194.3v16.7"/><path class="st4" d="M127.5 194.8v16.8h-14.5v-16.8s6.7-1.6 14.5 0z"/><path class="st5" d="M112.3 211.5h15.9v3.2h-15.9z"/><path class="st6" d="M113 200.2h14.5M117.5 194.3v16.7M123.1 194.3v16.7"/><path class="st4" d="M65.6 222.3v26.2h-14.5v-26.2s6.7-1.6 14.5 0z"/><path class="st5" d="M50.4 248.5h15.9v3.2h-15.9z"/><path class="st6" d="M51.1 227.7h14.5M51.1 234.4h14.5M51.1 241.4h14.5M55.6 221.8v26.2M61.1 221.8v26.2"/><path class="st4" d="M96.5 222.3v26.2h-14.5v-26.2s6.8-1.6 14.5 0z"/><path class="st5" d="M81.3 248.5h15.9v3.2h-15.9z"/><path class="st6" d="M82 227.7h14.5M82 234.4h14.5M82 241.4h14.5M86.5 221.8v26.2M92.1 221.8v26.2"/><path class="st4" d="M127.5 222.3v26.2h-14.5v-26.2s6.7-1.6 14.5 0z"/><path class="st5" d="M112.3 248.5h15.9v3.2h-15.9z"/><path class="st6" d="M113 227.7h14.5M113 234.4h14.5M113 241.4h14.5M117.5 221.8v26.2M123.1 221.8v26.2"/><path class="st4" d="M65.6 263.6v26.2h-14.5v-26.2s6.7-1.6 14.5 0z"/><path class="st5" d="M50.4 289.9h15.9v3.2h-15.9z"/><path class="st6" d="M51.1 269h14.5M51.1 275.7h14.5M51.1 282.7h14.5M55.6 263.1v26.3M61.1 263.1v26.3"/><path class="st4" d="M96.5 263.6v26.2h-14.5v-26.2s6.8-1.6 14.5 0z"/><path class="st5" d="M81.3 289.9h15.9v3.2h-15.9z"/><path class="st6" d="M82 269h14.5M82 275.7h14.5M82 282.7h14.5M86.5 263.1v26.3M92.1 263.1v26.3"/><path class="st4" d="M127.5 263.6v26.2h-14.5v-26.2s6.7-1.6 14.5 0z"/><path class="st5" d="M112.3 289.9h15.9v3.2h-15.9z"/><path class="st6" d="M113 269h14.5M113 275.7h14.5M113 282.7h14.5M117.5 263.1v26.3M123.1 263.1v26.3"/><path class="st7" d="M68.7 264.8c0-5.2-4.7-9.4-10.4-9.4s-10.4 4.2-10.4 9.4v32.4h20.9v-32.4h-.1zM99.7 264.8c0-5.2-4.7-9.4-10.4-9.4-5.8 0-10.4 4.2-10.4 9.4v32.4h20.9v-32.4h-.1zM130.7 264.8c0-5.2-4.7-9.4-10.4-9.4-5.8 0-10.4 4.2-10.4 9.4v32.4h20.9v-32.4h-.1z"/><path class="st8" d="M41.2 264.3h6.8v3.2h-6.8zM130.7 264.3h6.8v3.2h-6.8zM99.7 264.3h10.1v3.2h-10.1zM68.8 264.3h10.1v3.2h-10.1z"/><path class="st3" d="M50.4 294.5h15.9"/><path class="st2" d="M50.4 294.5s1-.1 2.5-.1c.7 0 1.6-.1 2.5-.1h5.8c.9 0 1.8.1 2.5.1 1.5.1 2.5.1 2.5.1s-1 .1-2.5.1c-.7 0-1.6.1-2.5.1h-5.8c-.9 0-1.8-.1-2.5-.1-1.5 0-2.5-.1-2.5-.1z"/><path class="st3" d="M81.3 294.5h15.9"/><path class="st2" d="M81.3 294.5s1-.1 2.5-.1c.7 0 1.6-.1 2.5-.1h5.8c.9 0 1.8.1 2.5.1 1.5.1 2.5.1 2.5.1s-1 .1-2.5.1c-.7 0-1.6.1-2.5.1h-5.8c-.9 0-1.8-.1-2.5-.1-1.5 0-2.5-.1-2.5-.1z"/><path class="st3" d="M112.3 294.5h15.9"/><path class="st2" d="M112.3 294.5s1-.1 2.5-.1c.7 0 1.6-.1 2.5-.1h5.8c.9 0 1.8.1 2.5.1 1.5.1 2.5.1 2.5.1s-1 .1-2.5.1c-.7 0-1.6.1-2.5.1h-5.8c-.9 0-1.8-.1-2.5-.1-1.5 0-2.5-.1-2.5-.1z"/><path class="st9" d="M51.1 216.1h14.5"/><path class="st2" d="M51.1 216.1s.9-.1 2.3-.1c1.4-.1 3.2-.1 5-.1 1.8 0 3.6 0 5 .1s2.3.1 2.3.1-.9.1-2.3.1c-1.4.1-3.2.1-5 .1-1.8 0-3.6-.1-5-.1s-2.3-.1-2.3-.1z"/><path class="st9" d="M82 216.1h14.5"/><path class="st2" d="M82 216.1s.9-.1 2.3-.1c1.4-.1 3.2-.1 5-.1 1.8 0 3.6 0 5 .1s2.3.1 2.3.1-.9.1-2.3.1c-1.4.1-3.2.1-5 .1-1.8 0-3.6-.1-5-.1s-2.3-.1-2.3-.1z"/><path class="st9" d="M113 216.1h14.5"/><path class="st2" d="M113 216.1s.9-.1 2.3-.1c1.4-.1 3.2-.1 5-.1 1.8 0 3.6 0 5 .1s2.3.1 2.3.1-.9.1-2.3.1c-1.4.1-3.2.1-5 .1-1.8 0-3.6-.1-5-.1s-2.3-.1-2.3-.1z"/><path class="st9" d="M51.1 253.2h14.5"/><path class="st2" d="M51.1 253.2s.9-.1 2.3-.1c1.4-.1 3.2-.1 5-.1 1.8 0 3.6 0 5 .1s2.3.1 2.3.1-.9.1-2.3.1c-1.4.1-3.2.1-5 .1-1.8 0-3.6-.1-5-.1-1.4-.1-2.3-.1-2.3-.1z"/><path class="st9" d="M82 253.2h14.5"/><path class="st2" d="M82 253.2s.9-.1 2.3-.1c1.4-.1 3.2-.1 5-.1 1.8 0 3.6 0 5 .1s2.3.1 2.3.1-.9.1-2.3.1c-1.4.1-3.2.1-5 .1-1.8 0-3.6-.1-5-.1-1.4-.1-2.3-.1-2.3-.1z"/><path class="st9" d="M113 252.7h14.5"/><path class="st2" d="M113 252.7s.9-.1 2.3-.1c1.4-.1 3.2-.1 5-.1 1.8 0 3.6 0 5 .1s2.3.1 2.3.1-.9.1-2.3.1c-1.4.1-3.2.1-5 .1-1.8 0-3.6-.1-5-.1-1.4-.1-2.3-.1-2.3-.1z"/><path class="st3" d="M193.1 269.8v21.099999999999998s6.3-8.9 16.3-9c10.1 0 18.3 7 19.8 14.5l.3.7v6.1h10.5v-8.8s2.8-14.1 20-14.8c0 0 15.5.9 19 15v8.6h9.6v-11.6s-.6 2.3 1.1-1.6 7.9-11.9 18.7-12c10.8-.1 18.8 9.9 19.2 15.8v9.4h9.7v-9.5s4.3-13.6 19.9-14.1c0 0 14.8 0 18.8 14.6v9.6h10.7v-7.4s4.7-14.4 20.4-14.3c0 0 15.9 1.2 18.6 15.6v7.6h.8v-36.4l-112.3-2.4-121.1 3.3z"/><path class="st4" d="M423.5 271.9l-114.3-3.9c-.8-.1-1.5-.1-2.3 0l-113.8 3.9v-5l113.8-3.9c.8-.1 1.5-.1 2.3 0l114.3 3.9v5z"/><path class="st10" d="M423.5 268.3l-114.3-3.9c-.8-.1-1.5-.1-2.3 0l-113.8 3.9"/><path class="st6" d="M317.2 268.8h-17.7v-6.2l7.8-2.8c.7-.1 1.3-.1 2 0l7.8 2.8v6.2z"/><circle class="st4" cx="308.2" cy="257.6" r="1.8"/><path class="st11" d="M281.2 292.1c.8-1.9 1-3.7 1-5.7v-17.6h3.4v17.6c0 2.3.6 4.9 1.2 5.7"/><circle class="st4" cx="284.2" cy="259.1" r="1.3"/><path class="st6" d="M287.8 262.9v6.2l-7.4.1v-6.3l3.8-2.5z"/><path class="st4" d="M281.2 262.9h5.7"/><path class="st11" d="M281.2 292.1h5.7v3h-5.7zM281.7 295.1h4.7v8h-4.7z"/><path class="st2" d="M281.1 269.4l-.2 20.5-.2-20.5c0-.1.1-.3.2-.3.1.1.2.2.2.3zM287.3 269.4l-.2 20.5-.2-20.5c0-.1.1-.3.2-.3l.2.3z"/><path class="st11" d="M232 294.1c.8-1.9 1-3.7 1-5.7v-17.6h3.4v17.6c0 2.3.6 4.9 1.2 5.7"/><circle class="st4" cx="235.1" cy="261.1" r="1.3"/><path class="st6" d="M238.6 264.9v6.2l-7.4.1v-6.3l3.9-2.5z"/><path class="st4" d="M232 264.9h5.7"/><path class="st11" d="M232 294.1h5.7v3h-5.7zM232.5 297.1h4.7v8h-4.7z"/><path class="st2" d="M232 271.4l-.2 20.5-.2-20.5c0-.1.1-.3.2-.3l.2.3zM238.1 271.4l-.2 20.5-.2-20.5c0-.1.1-.3.2-.3.1.1.2.2.2.3z"/><path class="st11" d="M384.8 294.1c-.8-1.9-1-3.7-1-5.7v-17.6h-3.4v17.6c0 2.3-.6 4.9-1.2 5.7"/><circle class="st4" cx="381.7" cy="261.1" r="1.3"/><path class="st6" d="M378.2 264.9v6.2l7.4.1v-6.3l-3.8-2.5z"/><path class="st4" d="M384.8 264.9h-5.7"/><path class="st11" d="M379.1 294.1h5.7v3h-5.7zM379.6 297.1h4.7v8h-4.7z"/><path class="st2" d="M385.4 271.4l-.2 20.5-.2-20.5c0-.1.1-.3.2-.3 0 .1.1.2.2.3zM379.2 271.4l-.2 20.5-.2-20.5c0-.1.1-.3.2-.3.1.1.2.2.2.3z"/><path class="st11" d="M335.2 292.1c-.8-1.9-1-3.7-1-5.7v-17.6h-3.4v17.6c0 2.3-.6 4.9-1.2 5.7"/><circle class="st4" cx="332.2" cy="259.1" r="1.3"/><path class="st6" d="M328.6 262.9v6.2l7.4.1v-6.3l-3.8-2.5z"/><path class="st4" d="M335.2 262.9h-5.6"/><path class="st11" d="M329.6 292.1h5.7v3h-5.7zM330 295.1h4.7v8h-4.7z"/><path class="st2" d="M335.8 269.4l-.2 20.5-.2-20.5c0-.1.1-.3.2-.3.1.1.2.2.2.3zM329.7 269.4l-.2 20.5-.2-20.5c0-.1.1-.3.2-.3.1.1.2.2.2.3z"/><path class="st11" d="M305.3 268.9h5.5v5.8h-5.5z"/><path class="st2" d="M301.1 264.2c2.3-1.3 4.7-2.4 7.1-3.3h.4c2.4 1 4.7 2 6.9 3.3-2.5-.6-4.9-1.5-7.3-2.4h.4c-2.5 1-4.9 1.8-7.5 2.4z"/><path class="st11" d="M310.3 265.9c0-1.2-1-2.2-2.2-2.2-1.2 0-2.2 1-2.2 2.2v.9h4.4v-.9zM376.3 293.8c0-9.7-9.8-17.5-19.5-17.5s-19.5 7.8-19.5 17.5v7.3h38.8l.2-7.3z"/><path class="st2" d="M376.3 297s0-.2-.1-.6c-.1-.4-.1-1-.3-1.8-.1-.4-.1-.8-.3-1.3-.2-.4-.3-.9-.5-1.4-.2-.5-.5-1-.7-1.6-.3-.5-.6-1.1-1-1.6-.8-1.1-1.7-2.2-2.8-3.2-1.1-1.1-2.4-2-3.9-2.8-1.4-.8-3-1.5-4.7-2-1.7-.5-3.5-.7-5.2-.7-1.8 0-3.5.3-5.2.7-1.7.5-3.3 1.1-4.7 2-1.4.8-2.8 1.8-3.9 2.8-1.2 1-2.1 2.1-2.8 3.2-.4.6-.7 1.1-1 1.6-.3.6-.5 1.1-.7 1.6-.2.5-.3 1-.5 1.4-.2.4-.2.9-.3 1.3-.2.8-.2 1.4-.3 1.8 0 .4-.1.6-.1.6v-.6c0-.4 0-1.1.1-1.8.1-.4.1-.8.2-1.3l.4-1.5c.2-.5.4-1.1.7-1.6.3-.5.6-1.1 1-1.7.8-1.1 1.7-2.3 2.8-3.4 1.1-1.1 2.5-2.1 3.9-3 1.5-.9 3.1-1.6 4.8-2.1 1.7-.5 3.6-.8 5.4-.8 1.9 0 3.7.3 5.4.8 1.7.5 3.4 1.2 4.8 2.1 1.5.9 2.8 1.9 3.9 3 1.2 1.1 2 2.3 2.8 3.4.4.6.7 1.2 1 1.7.2.6.5 1.1.7 1.6.2.5.3 1 .4 1.5.1.5.2.9.2 1.3.2.8.1 1.4.1 1.8.4.4.4.6.4.6zM354.2 273.9s-.3 0-.9.1c-.3 0-.6.1-1.1.1-.4 0-.8.2-1.3.3-.5.1-1 .2-1.6.4-.5.2-1.1.4-1.7.6-.6.2-1.2.5-1.8.8-.6.3-1.2.6-1.7 1l-1.6 1.1-.8.6-.7.6c-.5.4-.9.9-1.3 1.3-.4.5-.7.9-1 1.3-1.2 1.6-1.7 2.9-1.7 2.9s.4-1.3 1.6-3c.3-.4.6-.9 1-1.3s.8-.9 1.2-1.4l.7-.7c.2-.2.5-.4.8-.7.5-.5 1.1-.8 1.6-1.2.6-.4 1.2-.7 1.7-1.1l1.8-.9c.6-.2 1.2-.4 1.7-.7.6-.2 1.1-.3 1.6-.5.5-.1 1-.3 1.4-.3.4-.1.8-.1 1-.2.6-.1.9-.2.9-.2.3 0 .5.1.6.4 0 .3-.1.6-.4.7zM340.1 284.6l-1.7-1.7 2.3.8c.3.1.4.4.3.7-.1.3-.4.4-.7.3-.1 0-.2 0-.2-.1zM344.9 280l-1.3-2.8 2.1 2.2c.2.2.2.5 0 .7-.2.2-.5.2-.7 0 0 0-.1 0-.1-.1zM350.4 277.2l-.3-2.8 1.2 2.6c.1.3 0 .6-.2.7s-.6 0-.7-.2v-.3zM360 272.7s.3.1.9.2c.3.1.6.1 1.1.2.4.1.9.2 1.4.3l1.6.5c.6.2 1.1.4 1.7.7l1.8.9c.6.4 1.2.7 1.7 1.1l1.6 1.2c.5.4 1 .9 1.4 1.4.5.4.8.9 1.2 1.4.3.5.7.9 1 1.3 1.1 1.7 1.6 3 1.6 3s-.5-1.3-1.7-2.9c-.3-.4-.7-.8-1-1.3-.4-.4-.8-.9-1.3-1.3-.4-.4-1-.9-1.5-1.3s-1.1-.8-1.6-1.1c-.6-.4-1.2-.7-1.7-1l-1.8-.8c-.6-.2-1.2-.4-1.7-.6-.5-.2-1.1-.3-1.6-.4-.5-.1-.9-.2-1.3-.3-.4-.1-.8-.1-1.1-.2-.6-.1-.9-.1-.9-.1-.3 0-.5-.3-.4-.6.1-.1.3-.3.6-.3zM373.2 284l2.6-1-2.1 1.9c-.2.2-.5.2-.7 0-.2-.2-.2-.5 0-.7.1-.2.1-.2.2-.2zM368.4 279.4l2.1-2.2-1.3 2.8c-.1.3-.4.4-.7.2-.3-.1-.4-.4-.2-.7l.1-.1zM362.7 277l1.2-2.6-.3 2.8c0 .3-.3.5-.6.5s-.5-.3-.5-.6c.2 0 .2-.1.2-.1zM338 292.6s.1-.8.6-2.2c.5-1.3 1.2-3.3 2.7-5.3 1.4-2 3.6-4 6.4-5.4 2.8-1.4 6.1-2 9.4-2 1.6 0 3.3.2 4.9.6 1.6.4 3.1 1 4.4 1.8 2.7 1.5 4.8 3.6 6.2 5.6 1.5 2 2.3 3.9 2.7 5.2.5 1.4.5 2.2.5 2.2s-.1-.8-.6-2.1-1.4-3.2-2.9-5.1c-1.5-1.9-3.5-3.9-6.2-5.4-1.3-.7-2.8-1.3-4.3-1.7-1.5-.4-3.1-.6-4.8-.6-3.2 0-6.5.6-9.2 1.9-2.7 1.3-4.9 3.2-6.3 5.2-1.5 1.9-2.3 3.8-2.8 5.1-.5 1.4-.7 2.2-.7 2.2zM359.8 271.4s0 .2.1.4c0 .1.1.3.1.5v.6c0 .3-.1.6-.3.9l-.3.4c-.1.1-.2.2-.4.3-.3.2-.6.4-.9.5l-.5.1-.5.1c-.4 0-.6 0-1-.1s-.7-.2-1-.4c-.3-.2-.5-.4-.7-.7-.2-.3-.3-.5-.4-.8-.1-.3 0-.5 0-.7 0-.2.1-.4.1-.5.1-.3.1-.4.1-.4s0 .2.1.4c0 .1.1.3.1.5.1.2.1.4.2.5.1.2.2.3.4.5l.6.4c.2.1.5.2.7.2.2.1.6.1.8.1h.4l.4-.1c.2-.1.5-.1.7-.3l.3-.2.3-.2c.2-.2.2-.3.3-.5l.1-.3s0-.2.1-.3c0-.2.1-.4.1-.5-.1-.2 0-.4 0-.4z"/><path class="st11" d="M356.9 274.8v1.2"/><path class="st11" d="M425.7 296.2c0-9.7-9.8-17.5-19.5-17.5s-19.5 7.8-19.5 17.5v7.3h38.8l.2-7.3z"/><path class="st2" d="M425.7 299.4s0-.2-.1-.6c-.1-.4-.1-1-.3-1.8-.1-.4-.1-.8-.3-1.3-.2-.4-.3-.9-.5-1.4-.2-.5-.5-1-.7-1.6-.3-.5-.6-1.1-1-1.6-.8-1.1-1.7-2.2-2.8-3.2-1.1-1.1-2.4-2-3.9-2.8-1.4-.8-3-1.5-4.7-2-1.7-.5-3.5-.7-5.2-.7-1.8 0-3.5.3-5.2.7-1.7.5-3.3 1.1-4.7 2-1.4.8-2.8 1.8-3.9 2.8-1.2 1-2.1 2.1-2.8 3.2-.4.6-.7 1.1-1 1.6-.3.6-.5 1.1-.7 1.6-.2.5-.3 1-.5 1.4-.2.4-.2.9-.3 1.3-.2.8-.2 1.4-.3 1.8 0 .4-.1.6-.1.6v-.6c0-.4 0-1.1.1-1.8.1-.4.1-.8.2-1.3l.4-1.5c.2-.5.4-1.1.7-1.6.3-.5.6-1.1 1-1.7.8-1.1 1.7-2.3 2.8-3.4 1.1-1.1 2.5-2.1 3.9-3 1.5-.9 3.1-1.6 4.8-2.1 1.7-.5 3.6-.8 5.4-.8 1.9 0 3.7.3 5.4.8 1.7.5 3.4 1.2 4.8 2.1 1.5.9 2.8 1.9 3.9 3 1.2 1.1 2 2.3 2.8 3.4.4.6.7 1.2 1 1.7.2.6.5 1.1.7 1.6.2.5.3 1 .4 1.5.1.5.2.9.2 1.3.2.8.1 1.4.1 1.8.4.4.4.6.4.6zM403.5 276.3s-.3 0-.9.1c-.3 0-.6.1-1.1.1-.4 0-.8.2-1.3.3-.5.1-1 .2-1.6.4-.5.2-1.1.4-1.7.6-.6.2-1.2.5-1.8.8-.6.3-1.2.6-1.7 1l-1.6 1.1-.8.6-.7.6c-.5.4-.9.9-1.3 1.3-.4.5-.7.9-1 1.3-1.2 1.6-1.7 2.9-1.7 2.9s.4-1.3 1.6-3c.3-.4.6-.9 1-1.3s.8-.9 1.2-1.4l.7-.7c.2-.2.5-.4.8-.7.5-.5 1.1-.8 1.6-1.2.6-.4 1.2-.7 1.7-1.1l1.8-.9c.6-.2 1.2-.4 1.7-.7.6-.2 1.1-.3 1.6-.5.5-.1 1-.3 1.4-.3.4-.1.8-.1 1-.2.6-.1.9-.2.9-.2.3 0 .5.1.6.4.1.4-.1.6-.4.7zM389.4 287l-1.7-1.7 2.3.8c.3.1.4.4.3.7-.1.3-.4.4-.7.3-.1 0-.1 0-.2-.1zM394.3 282.4l-1.3-2.8 2.1 2.2c.2.2.2.5 0 .7-.2.2-.5.2-.7 0-.1 0-.1 0-.1-.1zM399.7 279.7l-.3-2.8 1.2 2.6c.1.3 0 .6-.2.7-.3.1-.6 0-.7-.2.1-.2 0-.3 0-.3zM409.4 275.2s.3.1.9.2c.3.1.6.1 1.1.2.4.1.9.2 1.4.3l1.6.5c.6.2 1.1.4 1.7.7l1.8.9c.6.4 1.2.7 1.7 1.1l1.6 1.2c.5.4 1 .9 1.4 1.4.5.4.8.9 1.2 1.4.3.5.7.9 1 1.3 1.1 1.7 1.6 3 1.6 3s-.5-1.3-1.7-2.9c-.3-.4-.7-.8-1-1.3-.4-.4-.8-.9-1.3-1.3-.4-.4-1-.9-1.5-1.3s-1.1-.8-1.6-1.1c-.6-.4-1.2-.7-1.7-1l-1.8-.8c-.6-.2-1.2-.4-1.7-.6-.5-.2-1.1-.3-1.6-.4-.5-.1-.9-.2-1.3-.3-.4-.1-.8-.1-1.1-.2-.6-.1-.9-.1-.9-.1-.3 0-.5-.3-.4-.6 0-.2.3-.4.6-.3zM422.5 286.4l2.6-1-2.1 1.9c-.2.2-.5.2-.7 0s-.2-.5 0-.7l.2-.2zM417.7 281.9l2.1-2.2-1.3 2.8c-.1.3-.4.4-.7.2-.3-.1-.4-.4-.2-.7.1 0 .1-.1.1-.1zM412.1 279.4l1.2-2.6-.3 2.8c0 .3-.3.5-.6.5s-.5-.3-.5-.6c.2 0 .2 0 .2-.1zM387.4 295s.1-.8.6-2.2c.5-1.3 1.2-3.3 2.7-5.3 1.4-2 3.6-4 6.4-5.4 2.8-1.4 6.1-2 9.4-2 1.6 0 3.3.2 4.9.6 1.6.4 3.1 1 4.4 1.8 2.7 1.5 4.8 3.6 6.2 5.6 1.5 2 2.3 3.9 2.7 5.2.5 1.4.5 2.2.5 2.2s-.1-.8-.6-2.1-1.4-3.2-2.9-5.1c-1.5-1.9-3.5-3.9-6.2-5.4-1.3-.7-2.8-1.3-4.3-1.7-1.5-.4-3.1-.6-4.8-.6-3.2 0-6.5.6-9.2 1.9-2.7 1.3-4.9 3.2-6.3 5.2-1.5 1.9-2.3 3.8-2.8 5.1-.6 1.4-.7 2.2-.7 2.2zM409.1 273.9s0 .2.1.4c0 .1.1.3.1.5v.6c0 .3-.1.6-.3.9l-.3.4c-.1.1-.2.2-.4.3-.3.2-.6.4-.9.5l-.5.1-.5.1c-.4 0-.6 0-1-.1s-.7-.2-1-.4c-.3-.2-.5-.4-.7-.7-.2-.3-.3-.5-.4-.8-.1-.3 0-.5 0-.7 0-.2.1-.4.1-.5.1-.3.1-.4.1-.4s0 .2.1.4c0 .1.1.3.1.5.1.2.1.4.2.5.1.2.2.3.4.5l.6.4c.2.1.5.2.7.2.2.1.6.1.8.1h.4l.4-.1c.2-.1.5-.1.7-.3l.3-.2.3-.2c.2-.2.2-.3.3-.5l.1-.3s0-.2.1-.3c0-.2.1-.4.1-.5v-.4z"/><path class="st11" d="M406.3 277.2v1.3"/><path class="st11" d="M240 293.8c0-9.7 9.8-17.5 19.5-17.5s19.5 7.8 19.5 17.5v7.3h-38.8l-.2-7.3z"/><path class="st2" d="M240 297v-.6c0-.4 0-1 .1-1.8.1-.4.1-.8.2-1.3l.4-1.5c.2-.5.4-1.1.7-1.6.3-.5.6-1.1 1-1.7.8-1.1 1.7-2.3 2.8-3.4 1.1-1.1 2.5-2.1 3.9-3 1.5-.9 3.1-1.6 4.8-2.1 1.7-.5 3.5-.8 5.4-.8 1.8 0 3.7.3 5.4.8 1.7.5 3.4 1.2 4.8 2.1 1.5.9 2.8 1.9 3.9 3 1.2 1.1 2 2.3 2.8 3.4.4.6.7 1.2 1 1.7.2.6.5 1.1.7 1.6.2.5.3 1 .4 1.5.1.5.2.9.2 1.3.2.8.1 1.4.1 1.8v.6s0-.2-.1-.6c-.1-.4-.1-1-.3-1.8-.1-.4-.1-.8-.3-1.3-.2-.4-.3-.9-.5-1.4-.2-.5-.5-1-.7-1.6-.3-.5-.6-1.1-1-1.6-.8-1.1-1.7-2.2-2.8-3.2-1.1-1.1-2.4-2-3.9-2.8-1.4-.8-3-1.5-4.7-2-1.7-.5-3.4-.7-5.2-.7-1.7 0-3.5.3-5.2.7-1.7.5-3.3 1.1-4.7 2-1.4.8-2.8 1.8-3.9 2.8-1.2 1-2.1 2.1-2.8 3.2-.4.6-.7 1.1-1 1.6-.3.6-.5 1.1-.7 1.6-.2.5-.3 1-.5 1.4-.2.4-.2.9-.3 1.3-.2.8-.2 1.4-.3 1.8.3.4.3.6.3.6zM262.3 272.9s.3.1.9.2c.3.1.6.1 1 .2s.9.2 1.4.3c.5.1 1.1.3 1.6.5.6.2 1.1.4 1.7.7l1.8.9c.6.4 1.2.7 1.7 1.1l1.6 1.2c.3.2.5.4.8.7l.7.7c.5.4.8.9 1.2 1.4.3.5.7.9 1 1.3 1.1 1.7 1.6 3 1.6 3s-.5-1.3-1.7-2.9c-.3-.4-.6-.8-1-1.3-.4-.4-.8-.9-1.3-1.3l-.7-.6-.8-.6c-.5-.4-1.1-.8-1.6-1.1-.6-.4-1.2-.6-1.7-1l-1.8-.8c-.6-.2-1.2-.4-1.7-.6-.5-.2-1.1-.3-1.6-.4-.5-.1-.9-.2-1.3-.3-.4-.1-.8-.1-1.1-.1-.6-.1-.9-.1-.9-.1-.3 0-.5-.3-.4-.6 0-.4.3-.6.6-.5zM275.7 283.8l2.3-.8-1.7 1.7c-.2.2-.5.2-.7 0s-.2-.5 0-.7c0-.2 0-.2.1-.2zM270.6 279.4l2.1-2.2-1.3 2.8c-.1.3-.4.4-.7.2-.3-.1-.4-.4-.2-.7l.1-.1zM265 277l1.2-2.6-.3 2.8c0 .3-.3.5-.6.5s-.5-.3-.5-.6l.2-.1zM256.5 273.7s-.3 0-.9.1c-.3 0-.7.1-1.1.2-.4 0-.9.2-1.3.3-.5.1-1 .2-1.6.4-.5.2-1.1.4-1.7.6l-1.8.8c-.6.3-1.2.6-1.7 1l-1.6 1.1c-.5.4-1 .8-1.5 1.3-.5.4-.9.9-1.3 1.3s-.7.9-1 1.3c-1.2 1.6-1.7 2.9-1.7 2.9s.4-1.3 1.6-3c.3-.4.6-.9 1-1.3s.8-.9 1.2-1.4c.4-.5.9-.9 1.4-1.4.5-.5 1.1-.8 1.6-1.2.6-.4 1.2-.7 1.7-1.1l1.8-.9c.6-.2 1.2-.5 1.7-.7.6-.2 1.1-.3 1.6-.5.5-.1 1-.3 1.4-.3.4-.1.8-.1 1.1-.2.6-.1.9-.2.9-.2.3-.1.5.1.6.4 0 .2-.2.5-.4.5zM242.6 284.8l-2.1-1.9 2.6 1c.3.1.4.4.3.7-.1.3-.4.4-.7.3 0 0-.1 0-.1-.1zM247.1 280l-1.3-2.8 2.1 2.2c.2.2.2.5 0 .7-.2.2-.5.2-.7 0 0 0-.1 0-.1-.1zM252.6 277.2l-.3-2.8 1.2 2.6c.1.3 0 .6-.2.7-.3.1-.6 0-.7-.2v-.3zM278.3 292.6s-.2-.8-.7-2.1c-.5-1.3-1.4-3.2-2.8-5.1-1.5-1.9-3.6-3.9-6.3-5.2-2.7-1.3-6-1.9-9.2-1.9-1.6 0-3.2.2-4.8.6-1.5.4-3 .9-4.3 1.7-2.6 1.5-4.7 3.5-6.2 5.4-1.5 1.9-2.4 3.8-2.9 5.1-.5 1.3-.6 2.1-.6 2.1s.1-.8.5-2.2c.5-1.3 1.3-3.2 2.7-5.2 1.4-2 3.5-4.1 6.2-5.6 1.3-.8 2.8-1.3 4.4-1.8 1.6-.4 3.2-.6 4.9-.6 3.3 0 6.6.6 9.4 2 2.8 1.4 4.9 3.4 6.4 5.4 1.5 2 2.2 3.9 2.7 5.3.5 1.3.6 2.1.6 2.1zM256.5 271.4s0 .2.1.4c0 .1.1.3.1.5 0 .1 0 .2.1.3l.1.3.3.5c.1.1.2.2.3.2l.3.2.7.3.4.1h.4c.2 0 .6 0 .8-.1.2 0 .5-.1.7-.2.2-.1.4-.2.6-.4l.4-.5c.1-.2.1-.4.2-.5 0-.2.1-.4.1-.5.1-.3.1-.4.1-.4s0 .2.1.4c0 .1.1.3.1.5s.1.5 0 .7c-.1.3-.2.5-.4.8-.2.2-.4.5-.7.7-.3.2-.6.3-1 .4-.4.1-.6.1-1 .1l-.5-.1-.5-.1c-.3-.1-.7-.3-.9-.5l-.4-.3c-.1-.1-.2-.2-.3-.4-.2-.2-.3-.6-.3-.9v-.6c0-.2.1-.4.1-.5v-.4z"/><path class="st11" d="M259.4 274.8v1.2"/><path class="st11" d="M288.6 292.2c0-9.7 9.8-17.5 19.5-17.5s19.5 7.8 19.5 17.5v7.3h-38.8l-.2-7.3z"/><path class="st2" d="M288.6 295.4v-.6c0-.4 0-1 .1-1.8.1-.4.1-.8.2-1.3l.4-1.5c.2-.5.4-1.1.7-1.6.3-.5.6-1.1 1-1.7.8-1.1 1.7-2.3 2.8-3.4 1.1-1.1 2.5-2.1 3.9-3 1.5-.9 3.1-1.6 4.8-2.1 1.7-.5 3.5-.8 5.4-.8 1.8 0 3.7.3 5.4.8 1.7.5 3.4 1.2 4.8 2.1 1.5.9 2.8 1.9 3.9 3 1.2 1.1 2 2.3 2.8 3.4.4.6.7 1.2 1 1.7.2.6.5 1.1.7 1.6.2.5.3 1 .4 1.5.1.5.2.9.2 1.3.2.8.1 1.4.1 1.8v.6s0-.2-.1-.6c-.1-.4-.1-1-.3-1.8-.1-.4-.1-.8-.3-1.3-.2-.4-.3-.9-.5-1.4-.2-.5-.5-1-.7-1.6-.3-.5-.6-1.1-1-1.6-.8-1.1-1.7-2.2-2.8-3.2-1.1-1.1-2.4-2-3.9-2.8-1.4-.8-3-1.5-4.7-2-1.7-.5-3.4-.7-5.2-.7-1.7 0-3.5.3-5.2.7-1.7.5-3.3 1.1-4.7 2-1.4.8-2.8 1.8-3.9 2.8-1.2 1-2.1 2.1-2.8 3.2-.4.6-.7 1.1-1 1.6-.3.6-.5 1.1-.7 1.6-.2.5-.3 1-.5 1.4-.2.4-.2.9-.3 1.3-.2.8-.2 1.4-.3 1.8.3.4.3.6.3.6zM310.9 271.3s.3.1.9.2c.3.1.6.1 1 .2s.9.2 1.4.3c.5.1 1.1.3 1.6.5.6.2 1.1.4 1.7.7l1.8.9c.6.4 1.2.7 1.7 1.1l1.6 1.2c.3.2.5.4.8.7l.7.7c.5.4.8.9 1.2 1.4.3.5.7.9 1 1.3 1.1 1.7 1.6 3 1.6 3s-.5-1.3-1.7-2.9c-.3-.4-.6-.8-1-1.3-.4-.4-.8-.9-1.3-1.3l-.7-.6-.8-.6c-.5-.4-1.1-.8-1.6-1.1-.6-.4-1.2-.6-1.7-1l-1.8-.8c-.6-.2-1.2-.4-1.7-.6-.5-.2-1.1-.3-1.6-.4-.5-.1-.9-.2-1.3-.3-.4-.1-.8-.1-1.1-.1-.6-.1-.9-.1-.9-.1-.3 0-.5-.3-.4-.6.1-.4.3-.6.6-.5zM324.3 282.2l2.3-.8-1.7 1.7c-.2.2-.5.2-.7 0s-.2-.5 0-.7c0-.2.1-.2.1-.2zM319.2 277.8l2.1-2.2-1.3 2.8c-.1.3-.4.4-.7.2-.3-.1-.4-.4-.2-.7 0 0 .1 0 .1-.1zM313.6 275.4l1.2-2.6-.3 2.8c0 .3-.3.5-.6.5s-.5-.3-.5-.6c.1 0 .2-.1.2-.1zM305.1 272.1s-.3 0-.9.1c-.3 0-.7.1-1.1.2-.4 0-.9.2-1.3.3-.5.1-1 .2-1.6.4-.5.2-1.1.4-1.7.6l-1.8.8c-.6.3-1.2.6-1.7 1l-1.6 1.1c-.5.4-1 .8-1.5 1.3-.5.4-.9.9-1.3 1.3s-.7.9-1 1.3c-1.2 1.6-1.7 2.9-1.7 2.9s.4-1.3 1.6-3c.3-.4.6-.9 1-1.3s.8-.9 1.2-1.4c.4-.5.9-.9 1.4-1.4.5-.5 1.1-.8 1.6-1.2.6-.4 1.2-.7 1.7-1.1l1.8-.9c.6-.2 1.2-.5 1.7-.7.6-.2 1.1-.3 1.6-.5.5-.1 1-.3 1.4-.3.4-.1.8-.1 1.1-.2.6-.1.9-.2.9-.2.3-.1.5.1.6.4 0 .2-.1.5-.4.5zM291.2 283.2l-2.1-1.9 2.6 1c.3.1.4.4.3.7-.1.3-.4.4-.7.3 0 0-.1 0-.1-.1zM295.7 278.4l-1.3-2.8 2.1 2.2c.2.2.2.5 0 .7-.2.2-.5.2-.7 0 0 0-.1 0-.1-.1zM301.2 275.6l-.3-2.8 1.2 2.6c.1.3 0 .6-.2.7s-.6 0-.7-.2v-.3zM326.9 291s-.2-.8-.7-2.1c-.5-1.3-1.4-3.2-2.8-5.1-1.5-1.9-3.6-3.9-6.3-5.2-2.7-1.3-6-1.9-9.2-1.9-1.6 0-3.2.2-4.8.6-1.5.4-3 .9-4.3 1.7-2.6 1.5-4.7 3.5-6.2 5.4-1.5 1.9-2.4 3.8-2.9 5.1-.5 1.3-.6 2.1-.6 2.1s.1-.8.5-2.2c.5-1.3 1.3-3.2 2.7-5.2 1.4-2 3.5-4.1 6.2-5.6 1.3-.8 2.8-1.3 4.4-1.8 1.6-.4 3.2-.6 4.9-.6 3.3 0 6.6.6 9.4 2 2.8 1.4 4.9 3.4 6.4 5.4 1.5 2 2.2 3.9 2.7 5.3.5 1.3.6 2.1.6 2.1z"/><path class="st11" d="M190.6 296.2c0-9.7 9.8-17.5 19.5-17.5s19.5 7.8 19.5 17.5v7.3h-38.8l-.2-7.3z"/><path class="st2" d="M190.6 299.4v-.6c0-.4 0-1 .1-1.8.1-.4.1-.8.2-1.3l.4-1.5c.2-.5.4-1.1.7-1.6.3-.5.6-1.1 1-1.7.8-1.1 1.7-2.3 2.8-3.4 1.1-1.1 2.5-2.1 3.9-3 1.5-.9 3.1-1.6 4.8-2.1 1.7-.5 3.5-.8 5.4-.8 1.8 0 3.7.3 5.4.8 1.7.5 3.4 1.2 4.8 2.1 1.5.9 2.8 1.9 3.9 3 1.2 1.1 2 2.3 2.8 3.4.4.6.7 1.2 1 1.7.2.6.5 1.1.7 1.6.2.5.3 1 .4 1.5.1.5.2.9.2 1.3.2.8.1 1.4.1 1.8v.6s0-.2-.1-.6c-.1-.4-.1-1-.3-1.8-.1-.4-.1-.8-.3-1.3-.2-.4-.3-.9-.5-1.4-.2-.5-.5-1-.7-1.6-.3-.5-.6-1.1-1-1.6-.8-1.1-1.7-2.2-2.8-3.2-1.1-1.1-2.4-2-3.9-2.8-1.4-.8-3-1.5-4.7-2-1.7-.5-3.4-.7-5.2-.7-1.7 0-3.5.3-5.2.7-1.7.5-3.3 1.1-4.7 2-1.4.8-2.8 1.8-3.9 2.8-1.2 1-2.1 2.1-2.8 3.2-.4.6-.7 1.1-1 1.6-.3.6-.5 1.1-.7 1.6-.2.5-.3 1-.5 1.4-.2.4-.2.9-.3 1.3-.2.8-.2 1.4-.3 1.8.3.4.3.6.3.6zM212.9 275.3s.3.1.9.2c.3.1.6.1 1 .2s.9.2 1.4.3c.5.1 1.1.3 1.6.5.6.2 1.1.4 1.7.7l1.8.9c.6.4 1.2.7 1.7 1.1l1.6 1.2c.3.2.5.4.8.7l.7.7c.5.4.8.9 1.2 1.4.3.5.7.9 1 1.3 1.1 1.7 1.6 3 1.6 3s-.5-1.3-1.7-2.9c-.3-.4-.6-.8-1-1.3-.4-.4-.8-.9-1.3-1.3l-.7-.6-.8-.6c-.5-.4-1.1-.8-1.6-1.1-.6-.4-1.2-.6-1.7-1l-1.8-.8c-.6-.2-1.2-.4-1.7-.6-.5-.2-1.1-.3-1.6-.4-.5-.1-.9-.2-1.3-.3-.4-.1-.8-.1-1.1-.1-.6-.1-.9-.1-.9-.1-.3 0-.5-.3-.4-.6.1-.3.3-.5.6-.5zM226.3 286.2l2.3-.8-1.7 1.7c-.2.2-.5.2-.7 0-.2-.2-.2-.5 0-.7 0-.1.1-.2.1-.2zM221.2 281.9l2.1-2.2-1.3 2.8c-.1.3-.4.4-.7.2-.3-.1-.4-.4-.2-.7l.1-.1zM215.6 279.4l1.2-2.6-.3 2.8c0 .3-.3.5-.6.5s-.5-.3-.5-.6c.1 0 .2 0 .2-.1zM207.1 276.2s-.3 0-.9.1c-.3 0-.7.1-1.1.2-.4 0-.9.2-1.3.3-.5.1-1 .2-1.6.4-.5.2-1.1.4-1.7.6l-1.8.8c-.6.3-1.2.6-1.7 1l-1.6 1.1c-.5.4-1 .8-1.5 1.3-.5.4-.9.9-1.3 1.3s-.7.9-1 1.3c-1.2 1.6-1.7 2.9-1.7 2.9s.4-1.3 1.6-3c.3-.4.6-.9 1-1.3s.8-.9 1.2-1.4c.4-.5.9-.9 1.4-1.4.5-.5 1.1-.8 1.6-1.2.6-.4 1.2-.7 1.7-1.1l1.8-.9c.6-.2 1.2-.5 1.7-.7.6-.2 1.1-.3 1.6-.5.5-.1 1-.3 1.4-.3.4-.1.8-.1 1.1-.2.6-.1.9-.2.9-.2.3-.1.5.1.6.4.1.1-.1.4-.4.5zM193.2 287.3l-2.1-1.9 2.6 1c.3.1.4.4.3.7-.1.3-.4.4-.7.3 0-.1 0-.1-.1-.1zM197.7 282.4l-1.3-2.8 2.1 2.2c.2.2.2.5 0 .7-.2.2-.5.2-.7 0l-.1-.1zM203.2 279.7l-.3-2.8 1.2 2.6c.1.3 0 .6-.2.7s-.6 0-.7-.2v-.3zM228.9 295s-.2-.8-.7-2.1c-.5-1.3-1.4-3.2-2.8-5.1-1.5-1.9-3.6-3.9-6.3-5.2-2.7-1.3-6-1.9-9.2-1.9-1.6 0-3.2.2-4.8.6-1.5.4-3 .9-4.3 1.7-2.6 1.5-4.7 3.5-6.2 5.4-1.5 1.9-2.4 3.8-2.9 5.1-.5 1.3-.6 2.1-.6 2.1s.1-.8.5-2.2c.5-1.3 1.3-3.2 2.7-5.2 1.4-2 3.5-4.1 6.2-5.6 1.3-.8 2.8-1.3 4.4-1.8 1.6-.4 3.2-.6 4.9-.6 3.3 0 6.6.6 9.4 2 2.8 1.4 4.9 3.4 6.4 5.4 1.5 2 2.2 3.9 2.7 5.3.5 1.3.6 2.1.6 2.1zM207.2 273.9s0 .2.1.4c0 .1.1.3.1.5 0 .1 0 .2.1.3l.1.3.3.5c.1.1.2.2.3.2l.3.2.7.3.4.1h.4c.2 0 .6 0 .8-.1.2 0 .5-.1.7-.2.2-.1.4-.2.6-.4l.4-.5c.1-.2.1-.4.2-.5 0-.2.1-.4.1-.5.1-.3.1-.4.1-.4s0 .2.1.4c0 .1.1.3.1.5s.1.5 0 .7c-.1.3-.2.5-.4.8-.2.2-.4.5-.7.7-.3.2-.6.3-1 .4-.4.1-.6.1-1 .1l-.5-.1-.5-.1c-.3-.1-.7-.3-.9-.5l-.4-.3c-.1-.1-.2-.2-.3-.4-.2-.2-.3-.6-.3-.9v-.6c0-.2.1-.4.1-.5-.1-.3 0-.4 0-.4z"/><path class="st11" d="M210 277.2v1.3"/><circle class="st4" cx="209.5" cy="260.4" r="1.3"/><path class="st6" d="M209.5 261.7s-.1 3.8-2.2 6.3v1.3l4.6-.1v-1.3s-1.9-1.6-2.4-6.2z"/><circle class="st4" cx="406.4" cy="260.4" r="1.3"/><path class="st6" d="M406.4 261.7s.1 3.8 2.2 6.3v1.3l-4.6-.1v-1.3s1.9-1.6 2.4-6.2z"/><circle class="st4" cx="356.9" cy="258.4" r="1.3"/><path class="st6" d="M356.9 259.7s.1 3.8 2.2 6.3v1.3l-4.6-.1v-1.3s1.9-1.6 2.4-6.2z"/><circle class="st4" cx="259.6" cy="258.4" r="1.3"/><path class="st6" d="M259.6 259.7s.1 3.8 2.2 6.3v1.3l-4.6-.1v-1.3s1.9-1.6 2.4-6.2z"/><path class="st1" d="M565.7 282.9c.4-.8.7-1.8.7-2.8 0-3.3-2.7-6-6-6-1.1 0-2.1.3-2.9.8v-.8c0-5.8-4.7-10.5-10.5-10.5s-10.5 4.7-10.5 10.5c0 1 .2 2.1.4 3h-.2c-3.7 0-6.7 3-6.7 6.7 0 3.1 2.1 5.7 4.9 6.5-.7 1.5-1.1 3.2-1.1 4.9 0 1.6.3 3.1.9 4.5-.9 1.5-1.4 3.3-1.4 5.1 0 5.6 4.6 10.2 10.2 10.2 1.8 0 3.6-.5 5.1-1.4 1.2 2 3.4 3.4 5.9 3.4 3.8 0 7-3.1 7-7 0-1.3-.4-2.5-1-3.5h1c6.8 0 12.2-5.5 12.2-12.2 0-5.2-3.3-9.7-8-11.4z"/><path class="st3" d="M534 297.2s.9 3.7 3.1 4.4"/><path class="st2" d="M534.4 297s0 .3.2.8c.1.5.3 1.1.6 1.7.1.3.3.6.5.9.2.3.4.5.6.7.2.2.4.3.5.4.1.1.2.1.2.1s-.1 0-.2-.1c-.2 0-.3-.1-.6-.3-.2-.1-.5-.3-.7-.6-.2-.2-.5-.5-.7-.8-.4-.6-.8-1.2-1-1.7-.2-.5-.4-.8-.4-.8l1-.3z"/><path class="st3" d="M557.4 272.6s.3 2.9-1.6 5.2"/><path class="st2" d="M557.9 272.6s0 .4-.1.9c0 .3-.1.6-.2.9l-.3 1c-.1.3-.3.7-.5.9-.2.3-.3.6-.5.8-.3.4-.6.7-.6.7s.2-.3.4-.7c.1-.2.2-.5.3-.8.1-.3.2-.6.3-1 .1-.3.1-.7.1-1v-.9c0-.5-.1-.8-.1-.8h1.2z"/><path class="st3" d="M564 306.3s-4.8.9-5.4-1.5"/><path class="st2" d="M564.1 306.8s-1.6.2-3.1-.2c-.4-.1-.8-.2-1.1-.4l-.5-.3-.4-.3c-.1-.1-.2-.2-.2-.3-.1-.1-.1-.2-.1-.3 0-.2-.1-.3-.1-.3s0 .1.1.2c0 .1.1.2.2.2.1.1.1.2.3.3.1.1.2.2.4.2.1.1.3.1.5.2.3.1.7.1 1.1.2.7 0 1.5-.1 2-.1.6-.1.9-.2.9-.2v1.1z"/><path class="st1" d="M523.4 168.5l-2 143h27.5l-2-143s-7.3-2.7-23.5 0z"/><path class="st12" d="M516.1 156.8h37.6v6.3h-37.6z"/><path class="st13" d="M524.2 134.2c11.7-2.3 21.3 0 21.3 0s.7 2.3 0 5-1.4 6.5 0 17.7"/><path class="st12" d="M545.5 156.8h-21.3c1.4-11.2.7-15 0-17.7-.7-2.7 0-5 0-5s9.7-2.3 21.3 0c0 0 .8 1.9.2 4.6-.6 2.8-1.6 6-.2 18.1z"/><path class="st13" d="M545.8 138.5s-7.6-2.3-21.9 0"/><path class="st14" d="M534.9 156.8M534.9 146.8M538.6 156.8v-11.2c0-1.1-.9-1.9-1.9-1.9h-3.7c-1.1 0-1.9.9-1.9 1.9v11.2M532.5 143.6s-.2 13.4 0 13.2"/><path class="st2" d="M545.5 311.5s-.2-17.7-.5-44.2c-.1-13.2-.3-28.7-.4-45.3-.1-8.3-.2-16.8-.2-25.5 0-4.3-.1-8.7-.1-13.1 0-2.2 0-4.4-.1-6.6v-3.3c0-.5 0-1.2-.1-1.5-.1-.2-.2-.3-.4-.4-.2-.1-.3-.1-.6-.1h-.4c-.2 0-.2 0-.3.1-.2.1-.3.2-.4.4l-.1.3v49.7c0 16.6.1 32 .1 45.3v44.2s-.1-17.7-.4-44.2c-.1-13.2-.2-28.7-.2-45.3 0-8.3-.1-16.8-.1-25.5 0-4.3 0-8.7-.1-13.1v-11.1c0-.2.1-.4.1-.5.1-.3.4-.6.7-.8.1-.1.4-.2.5-.1h.4c.2 0 .7 0 1 .2.3.2.6.4.7.8l.1.3v11.399999999999999c0 4.4 0 8.8.1 13.1 0 8.7.1 17.2.1 25.5.1 16.6.2 32 .2 45.3.3 26.3.4 44 .4 44zM539.6 311.5s-.1-17.7-.2-44.2c0-13.2-.1-28.7-.1-45.3v-48.5c0-.5.1-1.2-.1-1.5-.1-.2-.2-.3-.4-.4-.2-.1-.3-.1-.6-.1h-.4c-.2 0-.2 0-.3.1-.2.1-.3.2-.4.4l-.1.3v11.1c0 4.4 0 8.8-.1 13.1 0 8.7-.1 17.2-.1 25.5-.1 16.6-.2 32-.2 45.3-.2 26.5-.4 44.2-.4 44.2v-44.2c0-13.2.1-28.7.1-45.3v-49.699999999999996c0-.2.1-.4.1-.5.1-.3.4-.6.7-.8.4-.2.7-.2 1-.2.2 0 .7 0 1 .2.3.2.6.4.7.8.1.2.1.4.1.5v49.8c0 16.6-.1 32-.1 45.3-.1 26.4-.2 44.1-.2 44.1zM531.2 311.5s-.1-17.7-.2-44.2c0-13.2-.1-28.7-.1-45.3v-49.8c0-.1 0-.3.1-.5.1-.3.4-.6.7-.8.3-.2.7-.2 1-.2.3 0 .6 0 1 .2.3.2.6.4.7.8.1.2.1.3.1.5v49.7c0 16.6.1 32 .1 45.3v44.2s-.1-17.7-.4-44.2c-.1-13.2-.2-28.7-.2-45.3 0-8.3-.1-16.8-.1-25.5 0-4.3 0-8.7-.1-13.1v-11.1c0-.1 0-.2-.1-.3-.1-.2-.2-.3-.4-.4-.1 0-.1-.1-.3-.1h-.4c-.3 0-.5 0-.6.1-.2.1-.3.2-.4.4l-.1 1.5v48.5c0 16.6-.1 32-.1 45.3-.1 26.6-.2 44.3-.2 44.3zM525.3 311.5s0-17.7.1-44.2c.1-13.2.2-28.7.2-45.3 0-8.3.1-16.8.1-25.5 0-4.3 0-8.7.1-13.1v-11.399999999999999l.1-.3c.1-.3.4-.6.7-.8.3-.2.7-.2 1-.2h.4l.5.1c.3.2.6.4.7.8.1.2.1.3.1.5v11.1c0 4.4 0 8.8-.1 13.1 0 8.7-.1 17.2-.1 25.5-.1 16.6-.2 32-.2 45.3-.2 26.5-.4 44.2-.4 44.2v-44.2c0-13.2.1-28.7.1-45.3v-49.699999999999996c0-.1 0-.2-.1-.3-.1-.2-.2-.3-.4-.4-.1 0-.1-.1-.3-.1h-.4c-.3 0-.5 0-.6.1-.2.1-.3.2-.4.4l-.1 1.5v3.3c0 2.2 0 4.4-.1 6.6 0 4.4-.1 8.8-.1 13.1-.1 8.7-.2 17.2-.2 25.5-.1 16.6-.3 32-.4 45.3 0 26.7-.2 44.4-.2 44.4z"/><path class="st14" d="M551.1 156.8v-5.9c0-.4-.3-.7-.7-.7h-30.3c-.4 0-.7.3-.7.7v5.9"/><path class="st15" d="M548.3 150.2v6.6M544.5 150.2v6.6M540.6 150.2v6.6M536.8 150.2v6.6M532.9 150.2v6.6M529.1 150.2v6.6M525.2 150.2v6.6M521.4 150.2v6.6"/><path class="st16" d="M524.7 230.5h-135.3l4-28.6h127.3z"/><path class="st2" d="M394.6 203.6s7.8-.1 19.5-.1 27.2-.1 42.8-.1c15.6 0 31.1.1 42.8.1 11.7.1 19.5.1 19.5.1s-7.8.1-19.5.1-27.2.1-42.8.1c-15.6 0-31.1-.1-42.8-.1-11.7 0-19.5-.1-19.5-.1z"/><path class="st1" d="M524.7 230.5l-20.9-22h-.2l-21.4 21.8h-4.9l-.5-.5-19.6-22.8c0-.1-.1-.1-.2 0l-20 23.2h-4.6l-21.4-21.7h-.2l-20.9 22-.1-.1c-.1 0-.1.1-.1.1v25.3l1.6 1.7v47.5l131.5-.8h.1v-46.5l1.4-1.5h.1c.1 0 .1-.1.1-.1v-25.4l.1.1h.2c0-.1 0-.2-.1-.3z"/><path class="st11" d="M390 230.5l21-22.1 21.4 21.8h4.7l20-23.3 19.7 22.8.5.5h5l21.4-21.8 20.9 22.1"/><path class="st2" d="M391.4 230.9c3.1-3.4 6.3-6.8 9.4-10.1l4.8-5 4.8-4.9c.2-.2.5-.2.7 0l4.9 4.9c1.6 1.6 3.3 3.2 4.9 4.9l4.8 5 4.8 5c-1.7-1.5-3.4-3.1-5.1-4.7l-5-4.8-5-4.8-5-4.8h.7l-4.9 4.9c-1.6 1.6-3.2 3.3-4.9 4.9-3.2 3.2-6.5 6.4-9.9 9.5zM474.6 229.7c-3.1-3.1-6.1-6.4-9.1-9.6l-4.5-4.9-4.5-4.9h.7l-4.4 5c-1.5 1.7-2.9 3.4-4.5 5l-4.5 4.9c-1.5 1.6-3 3.3-4.6 4.9 1.4-1.8 2.8-3.5 4.2-5.2l4.3-5.1c1.4-1.7 2.9-3.4 4.4-5.1l4.4-5.1c.2-.2.5-.2.7-.1l4.4 5 4.4 5c3 3.5 5.8 6.8 8.6 10.2zM410.1 211h1.5v17.5h-1.5zM402.5 228l7.9-7.8-.1-2.3-10.1 10.2h.1c.8 0 1.5-.1 2.2-.1zM421.3 227.8l-9.9-9.9-.1 2.3 7.7 7.7c.7-.1 1.5-.1 2.3-.1zM456.4 211.9h1.5v16.3h-1.5zM452.8 228.4l3.9-4.2-.1-2.3-6 6.5h2.2zM446.6 228.2l10.1-11-.1-2.3-12.1 13.1c.7.1 1.4.2 2.1.2zM463.3 228.2l-5.8-6.3-.1 2.2 3.7 4.1h2.2zM451.4 216.4h11.1l1.4 1.1h-13.8c0 .1.3 0 .4 0 .5-.5.4-.5.9-1.1zM469.5 227.9l-12-13-.1 2.3 9.9 10.8c.8-.1 1.5-.1 2.2-.1z"/><path class="st4" d="M410.8 214.5c-.6 0-1-.4-1-1v-5c0-.5.4-1 1-1 .5 0 1 .4 1 1v5c0 .6-.5 1-1 1z"/><circle class="st4" cx="410.8" cy="206.5" r="1"/><path class="st4" d="M410.3 205.5s-1.1-4.6.7-7.9c0 0 1.7 2.2.3 8"/><path class="st4" d="M457 212.5c-.6 0-1-.4-1-1v-5c0-.5.4-1 1-1 .5 0 1 .4 1 1v5c0 .6-.5 1-1 1z"/><circle class="st4" cx="457" cy="204.5" r="1"/><path class="st4" d="M456.5 203.5s-1.1-5.6.7-8.9c0 0 1.7 3.2.3 9"/><path class="st2" d="M428.4 228.5c-.1-.1-.6-.4-.7-.6l-.3-.3h-32.5c-.5.4-.8.7-1 .9.1.1.7.1.9.1h32.9c.1 0 .6 0 .7-.1zM430.7 230.6c-.1-.1-.7-.4-.8-.6l-.4-.3h-37c-.6.4-.9.7-1.1.9.1.1.8.1 1 .1h37.4c.3 0 .8 0 .9-.1zM475.5 230.7h-36.1c-.2 0-.3.2-.4 0 .3-.2.4-.7.8-.9l34.9-.1.8 1"/><path class="st2" d="M393.1 229.2s2.3-.1 5.6-.1c1.7 0 3.7 0 5.8-.1h13.2c2.1 0 4.1.1 5.8.1 3.4.1 5.6.1 5.6.1s-2.3.1-5.6.1c-1.7 0-3.7 0-5.8.1h-13.2c-2.1 0-4.1-.1-5.8-.1-3.4 0-5.6-.1-5.6-.1zM440.2 229.2s2.1-.1 5.3-.1c1.6 0 3.5 0 5.4-.1h12.4c2 0 3.9.1 5.4.1 3.2.1 5.3.1 5.3.1s-2.1.1-5.3.1c-1.6 0-3.5 0-5.4.1h-12.4c-2 0-3.9-.1-5.4-.1-3.2 0-5.3-.1-5.3-.1zM523.2 230.9c-3.4-3.1-6.7-6.3-10-9.6-1.7-1.6-3.3-3.2-4.9-4.9l-4.9-4.9h.7l-5 4.8-5 4.8-5 4.8-5.1 4.7c1.6-1.7 3.2-3.4 4.8-5l4.8-5c1.6-1.7 3.3-3.3 4.9-4.9l4.9-4.9c.2-.2.5-.2.7 0l4.8 4.9 4.8 5c3.3 3.4 6.4 6.8 9.5 10.2zM503.1 211h1.5v17.5h-1.5zM512.1 227.9l-7.9-7.8.1-2.3 10.1 10.2h-.6c-.7 0-.9-.1-1.7-.1zM493.4 227.8l9.9-9.9.1 2.2-7.7 7.7h-2.3z"/><path class="st4" d="M503.8 214.5c.6 0 1-.4 1-1v-5c0-.5-.4-1-1-1-.5 0-1 .4-1 1v5c.1.6.5 1 1 1z"/><circle class="st4" cx="503.9" cy="206.5" r="1"/><path class="st4" d="M504.4 205.5s1.1-4.6-.7-7.9c0 0-1.7 2.2-.3 8"/><path class="st2" d="M486.3 228.5c.1-.1.6-.4.7-.6l.3-.3h32.5c.5.4.8.7 1 .9-.1.1-.7.1-.9.1h-32.9c-.2 0-.6 0-.7-.1zM472.7 227.6h-30.9l-.3.3c-.1.1-.6.4-.7.6.1.1.6.1.7.1h32.2c-.4-.3-.9-.6-1-1zM483.9 230.6c.1-.1.7-.4.8-.6l.4-.3h37c.6.4.9.7 1.1.9-.1.1-.8.1-1 .1h-37.4c-.3 0-.8 0-.9-.1zM521.6 229.2s-2.3.1-5.6.1c-1.7 0-3.7 0-5.8.1h-13.2c-2.1 0-4.1-.1-5.8-.1-3.4-.1-5.6-.1-5.6-.1s2.3-.1 5.6-.1c1.7 0 3.7 0 5.8-.1h13.2c2.1 0 4.1.1 5.8.1 3.3.1 5.6.1 5.6.1z"/><path class="st14" d="M389.8 255.7l1.6 1.8v47.2"/><path class="st10" d="M470 247.6c0 2 1.7 3.7 3.7 3.7M468.9 247.6c0 2-1.7 3.7-3.7 3.7M468.9 255.8c0-2-1.7-3.7-3.7-3.7M470 255.8c0-2 1.7-3.7 3.7-3.7"/><path class="st17" d="M453.3 247.6c0 2 1.6 3.7 3.6 3.7M452.3 247.6c0 2-1.6 3.7-3.6 3.7M452.3 255.8c0-2-1.6-3.7-3.6-3.7M453.3 255.8c0-2 1.6-3.7 3.6-3.7"/><path class="st10" d="M461.5 247.6c0 2 1.7 3.7 3.7 3.7M460.4 247.6c0 2-1.7 3.7-3.7 3.7M460.4 255.8c0-2-1.7-3.7-3.7-3.7M461.5 255.8c0-2 1.7-3.7 3.7-3.7"/><path class="st18" d="M456.7 247.5h8.5v8.5h-8.5zM448.7 247.5h8v8.5h-8zM465.2 247.5h8.5v8.5h-8.5z"/><path class="st10" d="M419.2 247.6c0 2-1.7 3.7-3.7 3.7M420.3 247.6c0 2 1.7 3.7 3.7 3.7M420.3 255.8c0-2 1.7-3.7 3.7-3.7M419.2 255.8c0-2-1.7-3.7-3.7-3.7M410.7 247.6c0 2-1.7 3.7-3.7 3.7M411.8 247.6c0 2 1.7 3.7 3.7 3.7M411.8 255.8c0-2 1.7-3.7 3.7-3.7M410.7 255.8c0-2-1.7-3.7-3.7-3.7"/><path class="st17" d="M435.8 247.6c0 2-1.6 3.7-3.6 3.7M436.9 247.6c0 2 1.6 3.7 3.6 3.7M436.9 255.8c0-2 1.6-3.7 3.6-3.7M435.8 255.8c0-2-1.6-3.7-3.6-3.7M435.8 239.1c0 2-1.6 3.7-3.6 3.7M436.9 239.1c0 2 1.6 3.7 3.6 3.7M436.9 247.3c0-2 1.6-3.7 3.6-3.7M435.8 247.3c0-2-1.6-3.7-3.6-3.7M435.8 230.8c0 2-1.6 3.7-3.6 3.7M436.9 230.8c0 2 1.6 3.7 3.6 3.7M436.9 239c0-2 1.6-3.7 3.6-3.7M435.8 239c0-2-1.6-3.7-3.6-3.7"/><path class="st10" d="M427.7 247.6c0 2-1.7 3.7-3.7 3.7M428.8 247.6c0 2 1.7 3.7 3.7 3.7M428.8 255.8c0-2 1.7-3.7 3.7-3.7M427.7 255.8c0-2-1.7-3.7-3.7-3.7M402 247.6c0 2-1.7 3.7-3.7 3.7M403.1 247.6c0 2 1.7 3.7 3.7 3.7M403.1 255.8c0-2 1.7-3.7 3.7-3.7M402 255.8c0-2-1.7-3.7-3.7-3.7"/><path class="st18" d="M424 247.5h8.5v8.5h-8.5zM432.5 247.5h8v8.5h-8z"/><path class="st17" d="M444 247.6c0 2-1.6 3.7-3.6 3.7M445.1 247.6c0 2 1.6 3.7 3.6 3.7M445.1 255.8c0-2 1.6-3.7 3.6-3.7M444 255.8c0-2-1.6-3.7-3.6-3.7"/><path class="st18" d="M440.6 247.5h8v8.5h-8zM407 247.5h8.5v8.5h-8.5zM398.3 247.5h8.5v8.5h-8.5zM415.5 247.5h8.5v8.5h-8.5z"/><path class="st19" d="M424 247.5l-4.1 1h-17.4l-4.2-1v-17l4.2.5h17.4l4.1-.5z"/><path class="st6" d="M408.3 231.3v17.2M414.1 231.3v17.2M419.9 231.3v17.2M402.5 231.3v17.2"/><path class="st20" d="M424 236.7l-4.1.8h-17.4l-4.2-.8"/><path class="st2" d="M424 246.3c-1.3.4-2.7.8-4 1.1l-4.3.1h-4.3c-2.9 0-5.8 0-8.7-.1-1.4-.4-2.8-.8-4.2-1.1 1.4.3 2.8.5 4.3.9 2.9-.1 5.8-.1 8.7-.1h4.3l4.3.1c1.1-.3 2.5-.6 3.9-.9z"/><path class="st21" d="M408.3 247.3M414.1 247.3M419.9 247.3M402.5 247.3"/><path class="st22" d="M473.7 247.4l-4.3 1h-24.4l-4.5-1v-16.9l4.5.5h24.4l4.3-.5z"/><path class="st23" d="M457.2 231.2v17.2M450.9 231.2v17.2M463.3 231.2v17.2M469.4 231.2v17.2M445 231.2v17.2"/><path class="st24" d="M473.7 236.6l-4.3.9h-24.4l-4.5-.9"/><path class="st2" d="M473.7 246.3l-4.3 1.1-6.1.1h-12.2c-2 0-4.1 0-6.1-.1-1.5-.4-2.9-.8-4.4-1.1 1.5.3 3 .5 4.5.9l6.1-.1h12.2l6.1.1 4.2-.9z"/><path class="st21" d="M457.2 247.3M463.3 247.3M469.4 247.3M445 247.3"/><path class="st22" d="M473.7 279.4l-4.3 1h-24.4l-4.5-1v-19.4l4.5.5h24.4l4.3-.5z"/><path class="st23" d="M457.2 260.7v19.7M450.9 260.7v19.7M463.3 260.7v19.7M469.4 260.7v19.7M445 260.7v19.7"/><path class="st24" d="M473.7 267.1l-4.3.9h-24.4l-4.5-.9"/><path class="st2" d="M473.7 278.3l-4.3 1.1-6.1.1h-12.2c-2 0-4.1 0-6.1-.1-1.5-.4-2.9-.8-4.4-1.1 1.5.3 3 .5 4.5.9l6.1-.1h12.2l6.1.1 4.2-.9z"/><path class="st21" d="M457.2 279.3M463.3 279.3M469.4 279.3M445 279.3"/><path class="st25" d="M423.6 279.4l-4 1h-17.1l-4.2-1v-19.4l4.2.5h17.1l4-.5z"/><path class="st26" d="M408.2 260.7v19.7M413.9 260.7v19.7M419.6 260.7v19.7M402.5 260.7v19.7"/><path class="st27" d="M423.6 267.1l-4 .9h-17.1l-4.2-.9"/><path class="st2" d="M423.6 278.3c-1.3.4-2.6.8-4 1.1l-4.3.1h-4.3c-2.9 0-5.7 0-8.6-.1-1.4-.4-2.8-.8-4.1-1.1 1.4.3 2.8.5 4.2.9 2.9-.1 5.7-.1 8.6-.1h4.3l4.3.1c1.2-.4 2.6-.6 3.9-.9z"/><path class="st21" d="M408.2 279.3M413.9 279.3M419.6 279.3M402.5 279.3"/><path class="st18" d="M424 230.5h8.5v8.5h-8.5zM432.5 230.5h8v8.5h-8zM424 239h8.5v8.5h-8.5zM389.8 247.5h8.5v8.5h-8.5zM389.8 239h8.5v8.5h-8.5zM432.5 239h8v8.5h-8zM389.8 230.5h8.5v8.5h-8.5z"/><path class="st10" d="M393.5 230.6c0 2-1.7 3.7-3.7 3.7M394.6 230.6c0 2 1.7 3.7 3.7 3.7M394.6 238.9c0-2 1.7-3.7 3.7-3.7M393.5 238.9c0-2-1.7-3.7-3.7-3.7M393.5 239.1c0 2-1.7 3.7-3.7 3.7M394.6 239.1c0 2 1.7 3.7 3.7 3.7M394.6 247.3c0-2 1.7-3.7 3.7-3.7M393.5 247.3c0-2-1.7-3.7-3.7-3.7M427.7 230.6c0 2-1.7 3.7-3.7 3.7M428.8 230.6c0 2 1.7 3.7 3.7 3.7M428.8 238.9c0-2 1.7-3.7 3.7-3.7M427.7 238.9c0-2-1.7-3.7-3.7-3.7M427.7 239.1c0 2-1.7 3.7-3.7 3.7M428.8 239.1c0 2 1.7 3.7 3.7 3.7M428.8 247.3c0-2 1.7-3.7 3.7-3.7M427.7 247.3c0-2-1.7-3.7-3.7-3.7M393.5 247.6c0 2-1.7 3.7-3.7 3.7M394.6 247.6c0 2 1.7 3.7 3.7 3.7M394.6 255.8c0-2 1.7-3.7 3.7-3.7M393.5 255.8c0-2-1.7-3.7-3.7-3.7M495 247.6c0 2 1.7 3.7 3.7 3.7M493.9 247.6c0 2-1.7 3.7-3.7 3.7M493.9 255.8c0-2-1.7-3.7-3.7-3.7M495 255.8c0-2 1.7-3.7 3.7-3.7M503.5 247.6c0 2 1.7 3.7 3.7 3.7M502.4 247.6c0 2-1.7 3.7-3.7 3.7M502.4 255.8c0-2-1.7-3.7-3.7-3.7M503.5 255.8c0-2 1.7-3.7 3.7-3.7"/><path class="st17" d="M478.3 247.6c0 2 1.6 3.7 3.6 3.7M477.2 247.6c0 2-1.6 3.7-3.6 3.7M477.2 255.8c0-2-1.6-3.7-3.6-3.7M478.3 255.8c0-2 1.6-3.7 3.6-3.7M478.3 239.1c0 2 1.6 3.7 3.6 3.7M477.2 239.1c0 2-1.6 3.7-3.6 3.7M477.2 247.3c0-2-1.6-3.7-3.6-3.7M478.3 247.3c0-2 1.6-3.7 3.6-3.7M478.3 230.8c0 2 1.6 3.7 3.6 3.7M477.2 230.8c0 2-1.6 3.7-3.6 3.7M477.2 239c0-2-1.6-3.7-3.6-3.7M478.3 239c0-2 1.6-3.7 3.6-3.7"/><path class="st10" d="M486.5 247.6c0 2 1.7 3.7 3.7 3.7M485.4 247.6c0 2-1.7 3.7-3.7 3.7M485.4 255.8c0-2-1.7-3.7-3.7-3.7M486.5 255.8c0-2 1.7-3.7 3.7-3.7M512.1 247.6c0 2 1.7 3.7 3.7 3.7M511 247.6c0 2-1.7 3.7-3.7 3.7M511 255.8c0-2-1.7-3.7-3.7-3.7M512.1 255.8c0-2 1.7-3.7 3.7-3.7"/><path class="st18" d="M481.7 247.5h8.5v8.5h-8.5zM473.7 247.5h8v8.5h-8zM498.7 247.5h8.5v8.5h-8.5zM507.3 247.5h8.5v8.5h-8.5zM490.2 247.5h8.5v8.5h-8.5z"/><path class="st19" d="M490.2 247.5l4 1h17.4l4.2-1v-17l-4.2.5h-17.4l-4-.5z"/><path class="st6" d="M505.8 231.3v17.2M500 231.3v17.2M494.2 231.3v17.2M511.6 231.3v17.2"/><path class="st20" d="M490.2 236.7l4 .8h17.4l4.2-.8"/><path class="st2" d="M490.2 246.3l4.1.9 4.3-.1h4.3c2.9 0 5.8 0 8.7.1 1.4-.3 2.8-.6 4.3-.9-1.4.4-2.8.8-4.2 1.1-2.9.1-5.8.1-8.7.1h-4.3l-4.3-.1c-1.6-.3-2.9-.7-4.2-1.1z"/><path class="st21" d="M505.8 247.3M500 247.3M494.2 247.3M511.6 247.3"/><path class="st18" d="M481.7 230.5h8.5v8.5h-8.5zM473.7 230.5h8v8.5h-8zM481.7 239h8.5v8.5h-8.5zM515.8 247.5h8.5v8.5h-8.5zM515.8 239h8.5v8.5h-8.5zM473.7 239h8v8.5h-8zM515.8 230.5h8.5v8.5h-8.5z"/><path class="st10" d="M520.6 230.6c0 2 1.7 3.7 3.7 3.7M519.5 230.6c0 2-1.7 3.7-3.7 3.7M519.5 238.9c0-2-1.7-3.7-3.7-3.7M520.6 238.9c0-2 1.7-3.7 3.7-3.7M520.6 239.1c0 2 1.7 3.7 3.7 3.7M519.5 239.1c0 2-1.7 3.7-3.7 3.7M519.5 247.3c0-2-1.7-3.7-3.7-3.7M520.6 247.3c0-2 1.7-3.7 3.7-3.7M486.5 230.6c0 2 1.7 3.7 3.7 3.7M485.4 230.6c0 2-1.7 3.7-3.7 3.7M485.4 238.9c0-2-1.7-3.7-3.7-3.7M486.5 238.9c0-2 1.7-3.7 3.7-3.7M486.5 239.1c0 2 1.7 3.7 3.7 3.7M485.4 239.1c0 2-1.7 3.7-3.7 3.7M485.4 247.3c0-2-1.7-3.7-3.7-3.7M486.5 247.3c0-2 1.7-3.7 3.7-3.7M520.6 247.6c0 2 1.7 3.7 3.7 3.7M519.5 247.6c0 2-1.7 3.7-3.7 3.7M519.5 255.8c0-2-1.7-3.7-3.7-3.7M520.6 255.8c0-2 1.7-3.7 3.7-3.7"/><path class="st14" d="M391.4 257.7h131.4M391.4 286.2h131.4M391.4 288h131.4"/><path class="st28" d="M391.7 258.6h130.8"/><path class="st2" d="M424 259s-.4.1-1.1.1c-.7.1-1.7.2-2.9.2-1.2.1-2.6.2-4.1.2-1.5 0-3.1.1-4.7.1s-3.2-.1-4.7-.1-2.9-.1-4.1-.2c-1.2-.1-2.2-.2-2.9-.2-.7-.1-1.1-.1-1.1-.1h12.8c6.4-.1 12.8-.1 12.8 0zM472.4 259s-.5.1-1.3.1c-.8.1-2 .2-3.4.3-1.4.1-3 .2-4.7.2-1.7 0-3.6.1-5.4.1-1.9 0-3.7-.1-5.4-.1-1.7 0-3.4-.2-4.7-.2-1.4-.1-2.5-.2-3.4-.3-.8-.1-1.3-.1-1.3-.1h14.8c7.4-.1 14.8-.1 14.8 0zM419.9 261.4s-.3 0-.7.1c-.5 0-1.2.1-2 .2-.8 0-1.8.1-2.8.2-1 0-2.1 0-3.2.1-1.1 0-2.2 0-3.2-.1-1 0-2-.1-2.8-.2-.8 0-1.5-.2-2-.2-.5-.1-.7-.1-.7-.1h8.7c4.4-.1 8.7-.1 8.7 0zM468.4 261.4s-.4 0-1 .1c-.6 0-1.5.1-2.5.2-1.1 0-2.3.1-3.6.2-1.3 0-2.7 0-4.1.1-1.4 0-2.8 0-4.1-.1-1.3 0-2.5-.1-3.6-.2-1.1 0-1.9-.2-2.5-.2-.6-.1-1-.1-1-.1h11.2c5.6-.1 11.2-.1 11.2 0z"/><path class="st29" d="M394.9 257.7v28.6M398.3 257.7v28.6M391.4 266h6.9M391.4 277.3h6.9M427.4 257.7v28.6M430.8 257.7v28.6M423.9 266h6.9M423.9 277.3h6.9M434.1 257.7v28.6M437.5 257.7v28.6M440.5 257.7v28.6M473.7 257.7v28.6M430.6 266h9.9M430.6 277.3h9.9M402.1 280.4v5.9M405.7 280.4v5.9M409.4 280.4v5.9M413 280.4v5.9M416.6 280.4v5.9M420.2 280.4v5.9M444.1 280.4v5.9M447.3 280.4v5.9M450.6 280.4v5.9M453.8 280.4v5.9M460.3 280.4v5.9M457 280.4v5.9M463.5 280.4v5.9M466.8 280.4v5.9M470 280.4v5.9M423.9 257.7v28.6"/><path class="st14" d="M524.4 255.7l-1.6 1.8v46.4"/><path class="st25" d="M490.6 279.4l4 1h17.1l4.2-1v-19.4l-4.2.5h-17.1l-4-.5z"/><path class="st26" d="M506 260.7v19.7M500.3 260.7v19.7M494.6 260.7v19.7M511.7 260.7v19.7"/><path class="st27" d="M490.6 267.1l4 .9h17.1l4.2-.9"/><path class="st2" d="M490.6 278.3l4 .9 4.3-.1h4.3c2.9 0 5.7 0 8.6.1l4.2-.9c-1.4.4-2.7.8-4.1 1.1-2.9.1-5.7.1-8.6.1h-4.3l-4.3-.1c-1.5-.3-2.8-.7-4.1-1.1z"/><path class="st21" d="M506 279.3M500.3 279.3M494.6 279.3M511.7 279.3"/><path class="st28" d="M522.5 287.3h-130.8"/><path class="st2" d="M490.2 258.9s.4-.1 1.1-.1c.7-.1 1.7-.2 2.9-.2 1.2-.1 2.6-.2 4.1-.2 1.5 0 3.1-.1 4.7-.1s3.2.1 4.7.1 2.9.1 4.1.2c1.2.1 2.2.2 2.9.2.7.1 1.1.1 1.1.1h-12.8c-6.4.1-12.8.1-12.8 0zM494.3 261.3s.3 0 .7-.1c.5 0 1.2-.1 2-.2.8 0 1.8-.1 2.8-.2 1 0 2.1 0 3.2-.1 1.1 0 2.2 0 3.2.1 1 0 2 .1 2.8.2.8 0 1.5.2 2 .2.5.1.7.1.7.1h-8.7c-4.4.1-8.7.1-8.7 0 0 .1-.1.1 0 0z"/><path class="st29" d="M519.2 257.7v28.6M515.9 257.7v28.6M522.8 266h-6.9M522.8 277.3h-6.9M486.8 257.7v28.6M483.4 257.7v28.6M490.3 266h-6.9M490.3 277.3h-6.9M480.1 257.7v28.6M476.7 257.7v28.6M483.6 266h-6.9M483.6 277.3h-6.9M512.1 280.4v5.9M508.5 280.4v5.9M504.8 280.4v5.9M501.2 280.4v5.9M497.6 280.4v5.9M494 280.4v5.9M490.3 257.7v28.6"/><path class="st14" d="M396.5 304.7v-13.3h12.3v13.3M501 304.2v-12.8h12.4v12.8M436.6 304.7v-13.3h12.4v13.3M411.8 304.7v-13.3h22.2v13.3M452.3 304.2v-13h34.6v13M460.3 291.4v12.6M469.6 291.4v12.6M478.3 291.4v12.6M452.3 297.7h34.6M497.6 303.9v-7.2h-1.2v-.2c0-1.1-.9-2-2-2s-2 .9-2 2v.2h-1.1v7.2M521.3 294.3h-4.2v9.9"/><path class="st3" d="M438.1 304.7v-12.2"/><path class="st2" d="M437.8 304.7l.3-12.2.2 12.2z"/><path class="st3" d="M447.8 304.7v-12.2"/><path class="st2" d="M447.6 304.7l.2-12.2.3 12.2z"/><path class="st3" d="M397.6 304.7v-12.2"/><path class="st2" d="M397.3 304.7l.3-12.2.2 12.2z"/><path class="st3" d="M407.4 304.7v-12.2"/><path class="st2" d="M407.1 304.7l.3-12.2.2 12.2z"/><path class="st1" d="M513.4 293.4h-10.2v10.5M503.2 293.8l-2.3-2.3"/><path class="st1" d="M505.9 247.1c-.4-.8-.7-1.8-.7-2.8 0-3.3 2.7-6 6-6 1.1 0 2.1.3 2.9.8v-.8c0-5.8 4.7-10.5 10.5-10.5s10.5 4.7 10.5 10.5c0 1-.2 2.1-.4 3h.2c3.7 0 6.7 3 6.7 6.7 0 3.1-2.1 5.7-4.9 6.5.7 1.5 1.1 3.2 1.1 4.9 0 1.6-.3 3.1-.9 4.5.9 1.5 1.4 3.3 1.4 5.1 0 5.6-4.6 10.2-10.2 10.2-1.8 0-3.6-.5-5.1-1.4-1.2 2-3.4 3.4-5.9 3.4-3.8 0-7-3.1-7-7 0-1.3.4-2.5 1-3.5h-1c-6.8 0-12.2-5.5-12.2-12.2 0-5.2 3.3-9.7 8-11.4zM521.8 263.3s-3.5 19.2 2.2 43h-9.8c4.2-21.8 2.5-45 2.5-45"/><path class="st2" d="M525.5 264.4c-.4.1-.8.1-1.2 0-.4-.1-.8-.1-1.2-.3-.4-.1-.8-.3-1.1-.5-.2-.1-.4-.2-.5-.4l-.5-.4c-.3-.3-.6-.6-.8-1-.3-.3-.5-.7-.7-1.1-.2-.4-.3-.8-.5-1.1l-.4-1.2h.9c-.1.4-.3.7-.5 1l-.3.4-.3.4c-.2.3-.5.5-.7.7l-.4.3-.4.3-.4.3c-.1.1-.3.1-.5.2-.3.1-.6.2-1 .3-.3.1-.7.1-1 .1-.3 0-.7 0-1 .1l.9-.3c.3-.1.6-.1.9-.3.3-.2.6-.3.8-.4.3-.1.5-.3.8-.5l.4-.3.3-.3c.2-.2.4-.4.6-.7l.3-.4.2-.4c.1-.2.3-.5.3-.8l.5-1.4.5 1.4.4 1.1.5 1c.2.3.3.7.6 1 .2.3.4.6.7.9.1.2.3.3.4.4l.4.4c.3.2.6.5.9.6.5.5 1.3.8 2.1.9z"/><path class="st3" d="M537.7 261.4s-.9 3.7-3.1 4.4"/><path class="st2" d="M538.1 261.5s-.1.4-.4.8c-.2.5-.6 1.1-1 1.7-.2.3-.5.6-.7.8l-.7.6-.6.3c-.1 0-.2.1-.2.1s.1 0 .2-.1.3-.2.5-.4.4-.4.6-.7c.2-.3.4-.6.5-.9.3-.6.5-1.3.6-1.7.1-.5.2-.8.2-.8l1 .3z"/><path class="st3" d="M514.2 236.8s-.3 2.9 1.6 5.2"/><path class="st2" d="M514.7 236.9s-.1.3-.1.8v.9c0 .3 0 .6.1 1 .1.3.1.7.3 1 .1.3.2.6.3.8.3.4.4.7.4.7s-.2-.3-.6-.7c-.2-.2-.3-.5-.5-.8l-.5-.9-.3-1-.2-.9c-.1-.5-.1-1-.1-.9h1.2z"/><path class="st3" d="M507.6 270.5s4.8.9 5.4-1.5"/><path class="st2" d="M507.7 270s.3.1.9.2c.5.1 1.3.2 2 .1.4 0 .7-.1 1.1-.2.2 0 .3-.1.5-.2s.3-.2.4-.2l.3-.3c.1-.1.1-.2.2-.2.1-.1.1-.2.1-.2s0 .1-.1.3c0 .1 0 .2-.1.3l-.2.3c-.1.1-.2.2-.4.3-.1.1-.3.2-.5.3-.3.2-.7.3-1.1.4-1.6.3-3.1.2-3.1.2v-1.1z"/><path class="st30" d="M520.2 261.1c-3.4 31.5 3 45.1 3 45.1"/><path class="st4" d="M179.4 297.8c.6-13.1-9.5-25.7-21.4-21.5-12 4.3-12.3 17.2-12.3 17.2l-.2 11h-23.5v-37.7l-2.9-3.7 6.3-2.1v-51.4c0-.2.3-.3.4-.1 0 0 2.9.6 2.4 4.6 0 0 .2 6.9 4.4 4.7l29.5-29.2h1.1l17.4 17.2 5.7 5.6 6.5 6.4c4.2 2.2 4.4-4.7 4.4-4.7-.6-4 2.4-4.6 2.4-4.6.1-.2.4-.1.4.1v51.4l6.4 2.1-2.9 3.7v37.7h-23.8l-.3-6.7M199.8 214s-.6.8-2.7-.2"/><path class="st11" d="M161.7 189.7v-5.1c0-.5.4-.9.9-.9s.9.4.9.9v5.1"/><path class="st4" d="M161.6 187h-1c-.5 0-.9-.4-.9-.9s.4-.9.9-.9h4c.5 0 .9.4.9.9s-.4.9-.9.9h-3z"/><path class="st2" d="M133.8 219.4c4.6-4.8 9.2-9.5 13.9-14.2 2.3-2.4 4.7-4.7 7-7l7-7c.1-.1.2-.1.3-.1h1l.3.1 7 7 7 7c4.7 4.7 9.3 9.4 13.9 14.2-4.9-4.5-9.6-9.1-14.4-13.7l-7.1-6.9-7.1-7 .3.1h-1l.3-.1-7.1 7c-2.4 2.3-4.7 4.7-7.1 6.9-4.6 4.6-9.4 9.2-14.2 13.7z"/><path class="st11" d="M155.8 204.5h-3.8l1 1.9h19.2l1-1.9h-3.8z"/><circle class="st11" cx="162.6" cy="215.8" r="7.2"/><path class="st2" d="M162.6 210.6c.2.9.3 1.7.4 2.6.1.9.1 1.7.1 2.6l-.7-.4c1.1-.5 2.2-.9 3.4-1.1-.9.8-2 1.4-3 1.9-.2.1-.5 0-.6-.2 0-.1 0-.1-.1-.2 0-.9 0-1.7.1-2.6 0-.9.1-1.7.4-2.6z"/><path class="st31" d="M153.7 206.4h17.8v18.8h-17.8z"/><path class="st10" d="M156.9 209.1s-.1-1.8-1.4-1.7c-1.3.1 1.4 1.7 1.4 1.7zM168.5 209.1s.1-1.8 1.4-1.7c1.3.1-1.4 1.7-1.4 1.7zM168.5 222.3s.1 1.8 1.4 1.7l-1.4-1.7zM156.9 222.3s-.1 1.8-1.4 1.7l1.4-1.7z"/><path class="st11" d="M125.4 214s.6.8 2.7-.2"/><path class="st4" d="M125.4 234l-1.2-1.5h77l-1.2 1.5z"/><path class="st11" d="M179.5 295.2c0-13.8-7.6-22-17-22s-17 8.2-17 22v11h34v-11zM179.5 297.7c0-13.8-7.6-22-17-22s-17 8.2-17 22v11h34v-11z"/><path class="st2" d="M142.6 303.2s-.2-1.3-.3-3.7c-.1-2.4-.1-5.8.5-9.9.3-2 .8-4.2 1.6-6.4s1.9-4.5 3.6-6.5c1.6-2 3.8-3.8 6.3-4.9 2.5-1.2 5.3-1.7 8.1-1.8 2.8-.1 5.6.3 8.1 1.4 2.6 1 4.7 2.8 6.4 4.8 1.6 2 2.7 4.3 3.5 6.6.8 2.2 1.3 4.4 1.6 6.5.6 4.1.6 7.5.5 9.9-.1 2.4-.3 3.7-.3 3.7s.1-1.4.1-3.7c0-2.4-.1-5.8-.8-9.8-.4-2-.9-4.1-1.7-6.3-.8-2.2-2-4.3-3.5-6.3-1.6-1.9-3.6-3.5-6.1-4.5-2.4-1-5.1-1.3-7.8-1.2-2.7.1-5.3.6-7.7 1.7-2.4 1.1-4.4 2.7-6 4.6-1.6 1.9-2.7 4.1-3.6 6.2-.8 2.2-1.4 4.3-1.8 6.3-.7 4-.9 7.4-.9 9.8.1 2.1.2 3.5.2 3.5z"/><path class="st11" d="M119.5 263l86.6.2"/><path class="st32" d="M125.4 261.1l74.4-.1"/><path class="st10" d="M162.5 270.4v2.7M152.7 273l1.5 2.3M147 279l1.9 1.3M178 279l-1.9 1.3M180.9 286.3l-2.4.7M143.8 286.3l2.3.7M142.6 294.6l2.4.1M182.1 294.6l-2.4.1M172.1 273l-1.5 2.3"/><path class="st4" d="M200.3 279.5h3.7v5.5h-3.7zM206.5 288.5h-4.2l-2-3.5h3.7zM202.3 288.5h4.2v15.2h-4.2z"/><path class="st33" d="M179.4 295.9h27.1v1.8h-27.1z"/><path class="st4" d="M120.8 279.5h3.7v5.5h-3.7zM118.3 288.5h4.2l2-3.5h-3.7zM118.3 288.5h4.2v15.2h-4.2z"/><path class="st34" d="M118.3 295.9h27.1v1.8h-27.1z"/><path class="st4" d="M156.9 229.2h9.9v1.2h-9.9z"/><path class="st35" d="M152.7 205.4h20"/><path class="st4" d="M167.5 254.7h-10.6v-19.3l5.3-4.1 5.3 4.1z"/><path class="st2" d="M156.9 236.6c.8-.8 1.7-1.5 2.5-2.2l2.6-2.1c.1-.1.2-.1.3 0 .9.7 1.8 1.4 2.6 2.1.9.7 1.7 1.4 2.5 2.2-.9-.6-1.9-1.2-2.8-1.9-.9-.6-1.8-1.3-2.7-2h.3l-2.7 2c-.8.7-1.7 1.3-2.6 1.9z"/><path class="st36" d="M146.1 235.4h8.7v19.2h-8.7zM169.3 235.4h8.7v19.2h-8.7zM150.4 235.4v19.3M173.7 235.4v19.3M146.1 245.1h8.7M169.3 245.1h8.7"/><path class="st37" d="M153.7 256.4h16.9M172.1 256.4h6v2.5M151.9 256.4h-6v2.5"/><path class="st38" d="M154.8 256.4v2.5h14.5v-2.5"/><path class="st14" d="M159.7 254.7s.2-5.2 0-7.1c-.2-1.9-.8-3.7 0-5.4.8-1.8 1.6-2.8 1.3-3.8s-.5-2.8.9-2.9c1.4-.2 1.8 1.3 1.7 3.3-.2 2 1.4 1.6 1.4 6.3 0 3.2-.9 5.2-.2 9.6"/><path class="st2" d="M163 249.8s-.3.1-.6.3l-.3.2-.2.2v.7c0 .6-.1 1.2-.1 1.6 0 .4-.1.7-.1.7s-.1-.3-.2-.7c0-.2-.1-.5-.1-.8v-1.3c0-.1 0-.3.1-.5s.3-.3.4-.3c.1-.1.2-.1.4-.1h.7zM159.5 253.5h-1.3c-.1 0-.2-.1-.2-.2l.2-16.7.2 16.7-.2-.2h1.3c.1 0 .3.1.3.2-.1.1-.2.2-.3.2zM165 253h1.3l-.2.2.2-16.7.2 16.7c0 .1-.1.2-.2.2h-1.3c-.1 0-.3-.1-.3-.2 0 0 .1-.2.3-.2zM132.2 249.8s0-.4-.1-1.1c0-.7-.1-1.7-.2-2.9 0-1.2-.1-2.6-.2-4v-.30000000000000004c0-.1 0-.1.1-.3.2-.4.4-.5.7-.6l.4-.1h6.899999999999998c.1 0 .3.1.4.2.2.1.2.2.3.4.1.3.2.6.1.8 0 1.5-.1 2.9-.2 4 0 1.2-.1 2.2-.2 2.9-.1.7-.1 1.1-.1 1.1s0-.4-.1-1.1c0-.7-.1-1.7-.2-2.9 0-1.2-.1-2.6-.2-4 0-.2 0-.3-.1-.3 0 0 0-.1-.1-.1h-6.999999999999999.1c-.1 0-.1.1-.1.1v.4-.1c0 1.5-.1 2.9-.2 4 0 1.2-.1 2.2-.2 2.9.3.6.2 1 .2 1zM184.9 249.8s0-.4-.1-1.1c0-.7-.1-1.7-.2-2.9 0-1.2-.1-2.6-.2-4v-.30000000000000004c0-.1 0-.1.1-.3.2-.4.4-.5.7-.6l.4-.1h6.899999999999998c.1 0 .3.1.4.2.2.1.2.2.3.4.1.3.2.6.1.8 0 1.5-.1 2.9-.2 4 0 1.2-.1 2.2-.2 2.9-.1.7-.1 1.1-.1 1.1s0-.4-.1-1.1c0-.7-.1-1.7-.2-2.9 0-1.2-.1-2.6-.2-4 0-.2 0-.3-.1-.3 0 0 0-.1-.1-.1h-6.999999999999999.1c-.1 0-.1.1-.1.1v.4-.1c0 1.5-.1 2.9-.2 4 0 1.2-.1 2.2-.2 2.9.2.6.2 1 .2 1z"/><path class="st3" d="M126.7 273h19.2"/><path class="st2" d="M126.7 273s1.2-.1 3-.1c.9 0 2-.1 3.1-.1h7c1.1 0 2.2.1 3.1.1 1.8.1 3 .1 3 .1s-1.2.1-3 .1c-.9 0-2 .1-3.1.1h-7c-1.1 0-2.2-.1-3.1-.1-1.8 0-3-.1-3-.1z"/><path class="st3" d="M127.7 281.5h15.9"/><path class="st2" d="M127.7 281.5s1-.1 2.5-.1c.7 0 1.6-.1 2.5-.1h5.8c.9 0 1.8.1 2.5.1 1.5.1 2.5.1 2.5.1s-1 .1-2.5.1c-.7 0-1.6.1-2.5.1h-5.8c-.9 0-1.8-.1-2.5-.1-1.5 0-2.5-.1-2.5-.1z"/><path class="st3" d="M127.7 268.8h25"/><path class="st2" d="M127.7 268.8s1.6-.1 3.9-.1c1.2 0 2.5 0 4-.1h9.2c1.5 0 2.8.1 4 .1 2.3.1 3.9.1 3.9.1s-1.6.1-3.9.1c-1.2 0-2.5 0-4 .1h-9.2c-1.5 0-2.8-.1-4-.1-2.3 0-3.9-.1-3.9-.1z"/><path class="st3" d="M174.7 268.8h25"/><path class="st2" d="M174.7 268.8s1.6-.1 3.9-.1c1.2 0 2.5 0 4-.1h9.2c1.5 0 2.8.1 4 .1 2.3.1 3.9.1 3.9.1s-1.6.1-3.9.1c-1.2 0-2.5 0-4 .1h-9.2c-1.5 0-2.8-.1-4-.1-2.4-.1-3.9-.1-3.9-.1z"/><path class="st3" d="M183 281.7h15.8"/><path class="st2" d="M183 281.7s1-.1 2.5-.1c.7 0 1.6-.1 2.5-.1h5.8c.9 0 1.8.1 2.5.1 1.5.1 2.5.1 2.5.1s-1 .1-2.5.1c-.7 0-1.6.1-2.5.1h-5.8c-.9 0-1.8-.1-2.5-.1-1.5 0-2.5-.1-2.5-.1z"/><path class="st3" d="M179.8 273h19.7"/><path class="st2" d="M179.8 273s1.2-.1 3.1-.1c.9 0 2-.1 3.2-.1h7.2c1.2 0 2.2.1 3.2.1 1.8.1 3.1.1 3.1.1s-1.2.1-3.1.1c-.9 0-2 .1-3.2.1h-7.2c-1.2 0-2.2-.1-3.2-.1-1.9 0-3.1-.1-3.1-.1z"/><path class="st3" d="M124.2 277.2h22.2"/><path class="st2" d="M124.2 277.2s1.4-.1 3.5-.1c1 0 2.3 0 3.6-.1h8.2c1.3 0 2.5.1 3.6.1 2.1.1 3.5.1 3.5.1s-1.4.1-3.5.1c-1 0-2.3.1-3.6.1h-8.2c-1.3 0-2.5-.1-3.6-.1-2.1 0-3.5-.1-3.5-.1z"/><path class="st3" d="M179.8 277.2h22.2"/><path class="st2" d="M179.8 277.2s1.4-.1 3.5-.1c1 0 2.3 0 3.6-.1h8.2c1.3 0 2.5.1 3.6.1 2.1.1 3.5.1 3.5.1s-1.4.1-3.5.1c-1 0-2.3.1-3.6.1h-8.2c-1.3 0-2.5-.1-3.6-.1-2.1 0-3.5-.1-3.5-.1z"/><path class="st39" d="M135.3 273v4.2M139.6 277.3v4M139.6 268.8v4.2M132.2 268.9v3.8M130.6 277.3v4M196.1 277.3v4.2M191.9 273.2v4M186.8 277.3v4.2M186.8 269.1v3.7M194.5 269.1v3.7"/><path class="st2" d="M147 285.7s.2-.6.8-1.6c.5-1 1.4-2.4 2.6-3.9.6-.7 1.4-1.5 2.2-2.2l1.3-1.1c.5-.3 1-.6 1.5-1 .5-.3 1.1-.6 1.7-.8l1.8-.6 1.9-.4c.6 0 1.3-.1 2-.1l1.9.2c.6.1 1.3.2 1.9.4.6.2 1.2.4 1.8.7.6.3 1.1.5 1.6.9 1 .6 2 1.4 2.8 2.1.8.8 1.5 1.6 2.1 2.3.6.8 1.1 1.5 1.5 2.2.4.7.7 1.3.9 1.8.5 1 .7 1.6.7 1.6s-.2-.6-.7-1.6c-.2-.5-.6-1.1-1-1.8s-.9-1.4-1.5-2.2c-.6-.8-1.3-1.6-2.1-2.3-.8-.8-1.7-1.5-2.8-2.1l-1.6-.8-1.8-.6c-.6-.2-1.2-.3-1.9-.4-.6-.1-1.3-.1-1.9-.1l-1.9.1c-.6 0-1.3.2-1.9.3l-1.8.6-1.7.8c-.5.3-1 .6-1.5 1s-.9.7-1.3 1.1c-.8.7-1.6 1.5-2.2 2.2-1.3 1.5-2.1 2.8-2.7 3.8-.4.9-.7 1.5-.7 1.5z"/><circle class="st20" cx="147" cy="215.3" r="2.2"/><circle class="st20" cx="177.2" cy="215.3" r="2.2"/><circle class="st6" cx="146" cy="272.4" r="2.2"/><circle class="st6" cx="178.2" cy="272.4" r="2.2"/><path class="st1" d="M133.9 247.1c.4-.8.7-1.8.7-2.8 0-3.3-2.7-6-6-6-1.1 0-2.1.3-2.9.8v-.8c0-5.8-4.7-10.5-10.5-10.5s-10.5 4.7-10.5 10.5c0 1 .2 2.1.4 3h-.2c-3.7 0-6.7 3-6.7 6.7 0 3.1 2.1 5.7 4.9 6.5-.7 1.5-1.1 3.2-1.1 4.9 0 1.6.3 3.1.9 4.5-.9 1.5-1.4 3.3-1.4 5.1 0 5.6 4.6 10.2 10.2 10.2 1.8 0 3.6-.5 5.1-1.4 1.2 2 3.4 3.4 5.9 3.4 3.8 0 7-3.1 7-7 0-1.3-.4-2.5-1-3.5h1c6.8 0 12.2-5.5 12.2-12.2-.1-5.2-3.4-9.7-8-11.4zM117.9 263.3s3.5 19.2-2.2 43h9.8c-4.2-21.8-2.5-45-2.5-45"/><path class="st2" d="M114.2 264.4c.8-.1 1.6-.3 2.2-.7.3-.2.7-.4.9-.6.1-.1.3-.2.4-.4l.4-.4.7-.9.6-1 .5-1c.1-.4.2-.7.4-1.1l.5-1.4.5 1.4c.1.2.2.5.3.8l.2.4.3.4.6.7.3.3.4.3c.3.2.5.4.8.5.3.1.6.3.8.4.3.2.6.2.9.3l.9.3c-.3 0-.6 0-1-.1-.3 0-.7 0-1-.1-.3-.1-.6-.2-1-.3-.2 0-.3-.1-.5-.2l-.4-.3-.4-.3-.4-.3c-.3-.2-.5-.4-.7-.7l-.3-.4-.3-.4c-.2-.3-.3-.6-.5-1h.9c-.1.4-.2.8-.4 1.2-.2.4-.3.8-.5 1.1-.2.4-.4.7-.7 1.1-.2.3-.5.7-.8 1-.1.2-.3.3-.5.4l-.5.4c-.4.2-.7.4-1.1.5-.4.2-.8.2-1.2.3-.5-.1-.9-.1-1.3-.2z"/><path class="st3" d="M102.1 261.4s.9 3.7 3.1 4.4"/><path class="st2" d="M102.6 261.2s0 .3.2.8c.1.5.3 1.1.6 1.7.1.3.3.6.5.9.2.3.4.5.6.7.2.2.4.3.5.4.1.1.2.1.2.1s-.1 0-.2-.1c-.2 0-.3-.1-.6-.3-.2-.1-.5-.3-.7-.6-.2-.2-.5-.5-.7-.8-.4-.6-.8-1.2-1-1.7-.2-.5-.4-.8-.4-.8l1-.3z"/><path class="st3" d="M125.5 236.8s.3 2.9-1.6 5.2"/><path class="st2" d="M126 236.8s0 .4-.1.9c0 .3-.1.6-.2.9l-.3 1c-.1.3-.3.7-.5.9-.2.3-.3.6-.5.8-.3.4-.6.7-.6.7s.2-.3.4-.7c.1-.2.2-.5.3-.8.1-.3.2-.6.3-1 .1-.3.1-.7.1-1v-.9c0-.5-.1-.8-.1-.8h1.2z"/><path class="st3" d="M132.1 270.5s-4.8.9-5.4-1.5"/><path class="st2" d="M132.2 271s-1.6.2-3.1-.2c-.4-.1-.8-.2-1.1-.4l-.5-.3-.4-.3c-.1-.1-.2-.2-.2-.3-.1-.1-.1-.2-.1-.3 0-.2-.1-.3-.1-.3s0 .1.1.2c0 .1.1.2.2.2.1.1.1.2.3.3.1.1.2.2.4.2.1.1.3.1.5.2.3.1.7.1 1.1.2.7 0 1.5-.1 2-.1.6-.1.9-.2.9-.2v1.1z"/><path class="st30" d="M119.6 261.1c3.4 31.5-3 45.1-3 45.1"/></svg>