<svg xmlns="http://www.w3.org/2000/svg" viewBox="0 0 175.5 108.3" enable-background="new 0 0 175.5 108.3"><style type="text/css">.st0{display:none;} .st1{display:inline;fill:none;stroke:#333433;stroke-width:0.75;stroke-linecap:round;stroke-linejoin:round;stroke-miterlimit:10;} .st2{display:inline;} .st3{fill:none;stroke:#020202;stroke-width:0.5;stroke-linecap:round;stroke-linejoin:round;stroke-miterlimit:10;} .st4{fill:none;stroke:#020202;stroke-width:0.1;stroke-miterlimit:10;} .st5{fill:none;stroke:#020202;stroke-width:0.1;stroke-linecap:round;stroke-linejoin:round;stroke-miterlimit:10;} .st6{display:inline;fill:none;stroke:#333433;stroke-linecap:round;stroke-linejoin:round;stroke-miterlimit:10;} .st7{fill:none;stroke:#333433;stroke-linecap:round;stroke-linejoin:round;stroke-miterlimit:10;} .st8{fill:none;stroke:#333433;stroke-width:0.5;stroke-linecap:round;stroke-linejoin:round;stroke-miterlimit:10;} .st9{fill:#C0503E;} .st10{fill:none;stroke:#333433;stroke-width:0.75;stroke-linecap:round;stroke-linejoin:round;stroke-miterlimit:10;} .st11{fill:#FFFFFF;stroke:#333433;stroke-width:0.75;stroke-linecap:round;stroke-linejoin:round;stroke-miterlimit:10;} .st12{fill:#333433;} .st13{fill:#C0503E;stroke:#333433;stroke-width:0.75;stroke-linecap:round;stroke-linejoin:round;stroke-miterlimit:10;} .st14{fill:#FFFFFF;} .st15{fill:none;stroke:#333433;stroke-width:0.25;stroke-linecap:round;stroke-linejoin:round;stroke-miterlimit:10;} .st16{fill:#C0503E;stroke:#333433;stroke-width:0.25;stroke-linecap:round;stroke-linejoin:round;stroke-miterlimit:10;}</style><g id="Layer_1" class="st0"><path class="st1" d="M105.1 4.9h42.7v27.6h-42.7z"/><g class="st2"><path class="st3" d="M131.2 7.8c-11.9 0-21.5 9.6-21.5 21.5"/><path class="st4" d="M131.2 21.1h13.5v8.2h-13.5z"/><path class="st3" d="M144.7 21.1c0-7.4-6-13.4-13.4-13.4M136.5 29.4c4.5 0 8.2-3.7 8.2-8.2M131.2 24.1c0 2.9 2.3 5.2 5.2 5.2M134.2 21.1c-1.6 0-3 1.3-3 3"/><path class="st5" d="M109.7 7.8h21.5v21.6h-21.5zM131.2 7.8h13.5v13.4h-13.5zM131.2 24.1h5.3v5.2h-5.3zM131.2 21.1h3v3h-3zM134.2 21.1h2.3v2.3h-2.3z"/><path class="st3" d="M136.5 23.4c0-1.3-1-2.3-2.3-2.3"/></g><path class="st6" d="M28 64.1v37.9c0 .7.6 1.3 1.3 1.3s1.3-.6 1.3-1.3v-37.9M68.5 64.1v37.9c0 .7.6 1.3 1.3 1.3s1.3-.6 1.3-1.3v-37.9M128.7 64.1v37.9c0 .7.6 1.3 1.3 1.3.7 0 1.3-.6 1.3-1.3v-37.9M169 64.1v37.9c0 .7.6 1.3 1.3 1.3.7 0 1.3-.6 1.3-1.3v-37.9"/><g class="st2"><path class="st7" d="M28.2 4.3c0 6.8-5.5 12.2-12.2 12.2s-12.3-5.5-12.3-12.2h24.5zM11.4 16s.2 2.8 3.2 2.8h1.8c3 0 3.2-2.8 3.2-2.8M14.7 18.7v76.5c0 2.1-1.7 3.8-3.8 3.8h-.1c-1.5 0-2.7 1.2-2.7 2.7 0 0-.1 1.5 7.5 1.5l7.5-1.5c0-1.5-1.2-2.7-2.7-2.7h-.1c-2.1 0-3.8-1.7-3.8-3.8v-76.5"/></g><g class="st2"><path class="st7" d="M83 54h-39.8c-.4 0-.7-.3-.7-.7v-6.9M42.5 29.2v-3.5c0-.4.3-.7.7-.7h44.4c.4 0 .7.3.7.7v13.9"/><path class="st8" d="M42.5 27.7h45.9M42.5 48.7h41.1"/><circle class="st8" cx="65.4" cy="51.3" r=".8"/><path class="st7" d="M63 54s.6 5.8-2 5.8M67.8 54s-.6 5.8 2 5.8"/><path class="st9" d="M66.7 31.7l.4 5.3 5.1 1.3-4.9 2 .3 5.3-3.4-4-5 1.9 2.8-4.5-3.4-4.1 5.2 1.2z"/></g><g class="st2"><path class="st10" d="M41.8 30l-2.7.3.9 7.4 7.4-.9-1-7.4-3 .4"/><path class="st11" d="M46.9 35.1l-6.9.8"/><circle class="st10" cx="42.7" cy="30" r=".6"/></g><g class="st2"><path class="st10" d="M42.1 38.4l-3-.9-2.1 7.1 7.1 2.1 2.1-7.1-2.8-.8"/><path class="st11" d="M44.3 45l-6.7-2"/><circle class="st10" cx="42.7" cy="38.4" r=".6"/></g><path class="st6" d="M27.3 59.7h145.7v4.3h-145.7zM128.7 72.6h-57.3M128.7 68.7h-57.3M68.3 64.1v25h-37.6"/><path class="st12" d="M67.3 76.5s-2.2.1-5.6.2c-1.7 0-3.6.1-5.7.1h-13c-2.1 0-4-.1-5.7-.1-3.3-.1-5.6-.2-5.6-.2s2.2-.1 5.6-.2c1.7 0 3.6-.1 5.7-.1h13c2.1 0 4 .1 5.7.1 3.3.1 5.6.2 5.6.2z"/><path class="st6" d="M44.4 71.1h10.8c.3 0 .6-.3.6-.6v-.6c0-.3-.3-.6-.6-.6h-10.8c-.3 0-.6.3-.6.6v.6c-.1.3.2.6.6.6zM44.4 83.6h10.8c.3 0 .6-.3.6-.6v-.6c0-.3-.3-.6-.6-.6h-10.8c-.3 0-.6.3-.6.6v.6c-.1.3.2.6.6.6zM131.4 64.1v25h37.6"/><path class="st12" d="M132.4 76.5s2.2-.1 5.6-.2c1.7 0 3.6-.1 5.7-.1h13c2.1 0 4 .1 5.7.1 3.3.1 5.6.2 5.6.2s-2.2.1-5.6.2c-1.7 0-3.6.1-5.7.1h-13c-2.1 0-4-.1-5.7-.1-3.4-.1-5.6-.2-5.6-.2z"/><path class="st6" d="M155.3 71.1h-10.8c-.3 0-.6-.3-.6-.6v-.6c0-.3.3-.6.6-.6h10.8c.3 0 .6.3.6.6v.6c0 .3-.3.6-.6.6zM155.3 83.6h-10.8c-.3 0-.6-.3-.6-.6v-.6c0-.3.3-.6.6-.6h10.8c.3 0 .6.3.6.6v.6c0 .3-.3.6-.6.6z"/><g class="st2"><path class="st10" d="M37.8 53.3h-.9l.1-3.7h.7z"/><path class="st8" d="M37.1 49.6s-.1-.8.2-.8h.1c.3 0 .2.8.2.8"/><path class="st10" d="M36.9 53.3s.1 2-.2 4.4v.6M37.8 53.3s-.1 2 .2 4.4v.6M35.4 59.4c0-1 .8-1.2 1.8-1.2s1.8.2 1.8 1.2"/></g><g class="st2"><path class="st7" d="M116.4 56.9h-33.7l2-17.3h29.2z"/><path class="st13" d="M113.2 54.9h-28.2l1.5-13.4h25.1z"/><path class="st7" d="M114 49.5l.7 5.4M113.7 47.6l.1.6M113.3 44.4l.2 1.7M112.9 41.5l.3 1.7M90.5 56.9s-1.9.4-2.1 2.4h3.2s0-2.4 3-2.4M109.3 56.9s1.9.4 2.1 2.4h-3.2s0-2.4-3-2.4"/><path class="st14" d="M100.3 43.9l.2 3 3 .8-2.9 1.2.2 3-2-2.3-2.8 1.1 1.6-2.6-1.9-2.4 2.9.8z"/></g><g class="st2"><path class="st7" d="M135.2 59.7h7.1l.9-9h-9zM134.2 52.6h-2.4s.2 4.7 3.1 4.5"/></g><path class="st6" d="M160.9 43.3h4.2v16.4h-4.2zM148.4 59.5l-1.8-.2 2.6-18.6 1.8.2z"/><g class="st2"><path class="st7" d="M151.9 38h8.5v21.6h-8.5z"/><circle class="st8" cx="156.2" cy="55.2" r="1.1"/></g><g class="st2"><path class="st10" d="M97.394 31.259l-1.959-23.921 5.681-.465 1.959 23.921z"/><path class="st15" d="M101.5 10.7l-5.7.5"/><path class="st12" d="M96.8 8.8s0-.1.1-.2.1-.2.3-.3c.1-.1.3-.1.4 0l.2.2c.2.1.4 0 .6-.1.1 0 .2-.1.4-.1s.3.1.4.1h.2s.1-.2.2-.2c.2-.1.4 0 .5 0 .1 0 .2.1.2.1h-.2c-.1 0-.3 0-.4.1-.1 0-.1.1-.2.2s-.3.1-.4.1l-.3-.1s-.2.1-.3.1c-.2.1-.5.1-.8 0l-.3-.2c0-.1-.1-.1-.2 0l-.4.3z"/><path class="st15" d="M103 29.8l-5.6.4M102.6 25l-5.6.5M102.2 20.1l-5.6.4M101.8 15.3l-5.6.5"/><path class="st12" d="M96.9 9.7s.2-.1.5-.1c.3-.1.7-.1 1.1-.1h1.6s-.2.1-.5.1c-.3.1-.7.1-1.1.1h-1.6z"/><circle class="st10" cx="98.1" cy="6.7" r=".7"/></g></g><g id="Layer_2" class="st0"><g class="st2"><path class="st7" d="M72 64.2v37.8c0 .7.6 1.3 1.3 1.3s1.3-.6 1.3-1.3v-37.9M128.4 64.2v37.8c0 .7.6 1.3 1.3 1.3.7 0 1.3-.6 1.3-1.3v-37.8M167.1 64.3v37.9c0 .7.6 1.3 1.3 1.3.7 0 1.3-.6 1.3-1.3v-37.9"/><path class="st7" d="M70.7 59.8h100v4.3h-100zM74.8 72.7h53.6M131.1 64.2v25h36"/><path class="st12" d="M132.1 76.6s2.1-.1 5.4-.2c1.6 0 3.5-.1 5.5-.1h12.6c2 0 3.9.1 5.5.1 3.2.1 5.4.2 5.4.2s-2.1.1-5.4.2c-1.6 0-3.5.1-5.5.1h-12.6c-2 0-3.9-.1-5.5-.1-3.3-.1-5.4-.2-5.4-.2z"/><path class="st7" d="M154.7 71.2h-10.8c-.3 0-.6-.3-.6-.6v-.6c0-.3.3-.6.6-.6h10.8c.3 0 .6.3.6.6v.6c0 .3-.3.6-.6.6zM154.7 83.7h-10.8c-.3 0-.6-.3-.6-.6v-.6c0-.3.3-.6.6-.6h10.8c.3 0 .6.3.6.6v.5c0 .4-.3.7-.6.7z"/></g><g class="st2"><path class="st7" d="M126.6 54.1h-43c-.4 0-.7-.3-.7-.7v-27.6c0-.4.3-.7.7-.7h44.4c.4 0 .7.3.7.7v24.6"/><path class="st8" d="M82.8 27.8h45.9M82.8 48.8h45.9"/><circle class="st8" cx="105.8" cy="51.4" r=".8"/><path class="st7" d="M103.4 54.1s.6 5.8-2 5.8M108.2 54.1s-.6 5.8 2 5.8"/><path class="st16" d="M106.6 31.2h20.5v15.8h-20.5z"/><path class="st8" d="M106.6 29.4h20.5v17.7h-20.5z"/><path class="st14" d="M117.8 34.4l.2 2.9 2.8.8-2.6 1.1.1 2.8-1.8-2.2-2.7 1.1 1.5-2.5-1.8-2.2 2.8.7z"/><path class="st8" d="M85.5 30.7h18.5M85.5 31.8h12.3M85.5 35.2h14.1M85.5 36.3h12.3M85.5 38.6h12.3M85.5 37.5h16.3M85.5 39.7h14.1M85.5 40.9h12.3M85.5 43.1h12.3M85.5 42h16.3M85.5 32.9h1M85.5 34.1h1M85.5 44.3h1M85.5 45.4h1M85.5 46.5h1"/></g><path class="st6" d="M137.1 22.9c0-5.1 4.2-9.3 9.3-9.3s9.3 4.2 9.3 9.3h-18.6zM149.5 14.1s-.2-2.1-2.5-2.1h-1.3c-2.3 0-2.5 2.1-2.5 2.1"/><g class="st2"><path class="st7" d="M147.1 12v-2.7c0-2.3 1.8-4 4.1-4h4.9c2.3 0 4.1 1.7 4.1 4v43.9c0 2.1-1.7 3.8-3.8 3.8h-.1c-1.5 0-2.7 1.2-2.7 2.7M145.5 12v-2.9c0-3 2.4-5.4 5.4-5.4h5.8c3 0 5.4 2.4 5.4 5.4v44.2c0 2.1 1.7 3.8 3.8 3.8h.1c1.5 0 2.7 1.2 2.7 2.7"/></g><g class="st2"><path class="st7" d="M30.5 103.4h-17c-1.2 0-2.2-1-2.2-2.2v-42.2c0-1.2 1-2.2 2.2-2.2h16.9c1.2 0 2.2 1 2.2 2.2v42.1c0 1.3-.9 2.3-2.1 2.3zM13.3 60.8h17.5v25.5h-17.5z"/><path class="st10" d="M13.3 66.4h17.4M13.3 73.2h17.4M13.3 80.1h17.4"/><circle class="st7" cx="22" cy="97.4" r="1.2"/><path class="st10" d="M15 90.4h13.9M15 92.1h13.9M15 93.8h13.9M23.2 66.4v-1.6h7.5M23.2 86.4v-1.7h7.5M23.2 73.2v-1.6h7.5M23.2 79.9v-1.6h7.5"/></g><g class="st2"><path class="st7" d="M56.5 103.4h-16.9c-1.2 0-2.2-1-2.2-2.2v-42.2c0-1.2 1-2.2 2.2-2.2h16.9c1.2 0 2.2 1 2.2 2.2v42.1c0 1.3-1 2.3-2.2 2.3zM39.3 60.8h17.5v25.5h-17.5z"/><path class="st10" d="M39.3 66.4h17.5M39.3 73.2h17.5M39.3 80.1h17.5"/><circle class="st7" cx="48" cy="97.4" r="1.2"/><path class="st10" d="M41.1 90.4h13.9M41.1 92.1h13.9M41.1 93.8h13.9M49.2 66.4v-1.6h7.6M49.2 86.4v-1.7h7.6M49.2 73.2v-1.6h7.6M49.2 79.9v-1.6h7.6"/></g><g class="st2"><path class="st7" d="M6.9 33.3h54.8v3.9h-54.8zM14.9 37.3l2.5 4.5v-4.5M54.2 37.3l-2.5 4.5v-4.5"/><path class="st7" d="M27.61 32.914l-4.109-.87 3.604-17.022 4.109.87z"/><path class="st8" d="M29.3 16l-3.7 16.6"/><path class="st7" d="M46.6 10.9h8.5v22.3h-8.5zM38.2 10.9h8.5v22.3h-8.5zM31.2 13.1h7v20.1h-7z"/><circle class="st8" cx="50.9" cy="29" r="1.1"/><circle class="st8" cx="42.5" cy="29" r="1.1"/><path class="st8" d="M38.2 15.3s-2.5.6-7 0"/><path class="st12" d="M6.9 35.3s3.4-.1 8.6-.1c2.6 0 5.6 0 8.8-.1h20.2c3.2 0 6.2.1 8.8.1 5.1.1 8.6.1 8.6.1s-3.4.1-8.6.1c-2.6 0-5.6 0-8.8.1h-20.2c-3.2 0-6.2-.1-8.8-.1-5.2-.1-8.6-.1-8.6-.1z"/></g><path class="st6" d="M128.4 68.8h-53.6"/><g class="st2"><path class="st7" d="M134.5 59.8h-7.1l-.9-9.1h9zM135.5 52.7h2.4s-.2 4.7-3.1 4.5"/></g></g><g id="Layer_3"><path class="st16" d="M99.2 26.8h46v21.2h-46z"/><path class="st7" d="M88.1 7.4h3.7v36h-43.1v-36h4.7M56.3 7.4h29.1"/><path class="st7" d="M53.5 3.2h2.8v6.8h-2.8zM85.4 3.2h2.8v6.8h-2.8z"/><path class="st10" d="M65.1 12.4h11.3v3.4h-11.3zM55.8 18.3h11.3v3.4h-11.3zM74.1 18.3h11.3v3.4h-11.3zM74.1 32.5h11.3v5.1h-11.3zM55.8 24.2h15v5.1h-15zM55.8 32.5h15v5.1h-15z"/><path class="st11" d="M60.4 21.7v2.5M60.4 29.3v3.2"/><path class="st10" d="M60.4 18.3c0-2.3 2.1-4.2 4.8-4.2M81.3 18.3c0-2.3-2.1-4.2-4.8-4.2"/><path class="st11" d="M74.6 24.5h10.7M74.6 26.3h8.4M74.6 29.8h8.4M74.6 28.1h9.8"/><path class="st7" d="M173.2 3.5c0 6.8-5.5 12.2-12.2 12.2s-12.2-5.5-12.2-12.2h24.4zM156.5 15.2s.2 2.8 3.2 2.8h1.8c3 0 3.2-2.8 3.2-2.8M159.7 18v76.5c0 2.1-1.7 3.8-3.8 3.8h-.1c-1.5 0-2.7 1.2-2.7 2.7 0 0-.1 1.5 7.5 1.5l7.5-1.5c0-1.5-1.2-2.7-2.7-2.7h-.1c-2.1 0-3.8-1.7-3.8-3.8v-76.5M145.2 63.3v37.9c0 .7-.6 1.3-1.3 1.3-.7 0-1.3-.6-1.3-1.3v-37.9M88.9 63.3v37.9c0 .7-.6 1.3-1.3 1.3-.7 0-1.3-.6-1.3-1.3v-37.9M50.2 63.4v37.9c0 .7-.6 1.3-1.3 1.3-.7 0-1.3-.6-1.3-1.3v-37.9"/><path class="st7" d="M46.5 59h100v4.3h-100zM142.4 71.8h-53.5M86.2 63.3v25h-36"/><path class="st12" d="M85.2 75.8s-2.1.1-5.4.2c-1.6 0-3.5.1-5.5.1h-12.6c-2 0-3.9-.1-5.5-.1-3.2-.1-5.4-.2-5.4-.2s2.1-.1 5.4-.2c1.6 0 3.5-.1 5.5-.1h12.6c2 0 3.9.1 5.5.1 3.3 0 5.4.2 5.4.2z"/><path class="st7" d="M62.6 70.3h10.7c.3 0 .6-.3.6-.6v-.6c0-.3-.3-.6-.6-.6h-10.7c-.3 0-.6.3-.6.6v.6c0 .4.2.6.6.6zM62.6 82.8h10.7c.3 0 .6-.3.6-.6v-.6c0-.3-.3-.6-.6-.6h-10.7c-.3 0-.6.3-.6.6v.6c0 .4.2.6.6.6zM144.4 53.3h-44.4c-.4 0-.7-.3-.7-.7v-27.6c0-.4.3-.7.7-.7h44.4c.4 0 .7.3.7.7v27.5c0 .4-.3.8-.7.8z"/><path class="st8" d="M99.2 27h45.9M99.2 48h45.9"/><circle class="st8" cx="122.2" cy="50.5" r=".8"/><path class="st7" d="M119.8 53.3s.6 5.8-2 5.8M124.6 53.3s-.6 5.8 2 5.8"/><path class="st14" d="M124.2 30.4l.4 5.3 5.1 1.4-4.9 2 .3 5.3-3.4-4-4.9 1.9 2.7-4.5-3.3-4.2 5.1 1.3z"/><path class="st7" d="M142.4 68h-53.5"/><path class="st7" d="M37.6 13.7c0-.4-.3-.6-.6-.6h-32.1c-.4 0-.6.3-.6.6v88c0 .4.3.6.6.6h32.1c.4 0 .6-.3.6-.6v-88zm-31.5 85.5v-26.2h29.5v26.2h-29.5zm.6-84.2h28.3c.3 0 .6.3.6.6v26.7h-29.5v-26.6c0-.4.3-.7.6-.7zm-.6 56.5v-27.6h29.5v27.7h-29.5z"/><path class="st12" d="M7.9 16.9s1.6-.1 4-.1c1.2 0 2.6 0 4.1-.1h9.4c1.5 0 2.9.1 4.1.1 2.4.1 4 .1 4 .1s-1.6.1-4 .1c-1.2 0-2.6 0-4.1.1h-9.4c-1.5 0-2.9-.1-4.1-.1-2.4 0-4-.1-4-.1zM7.9 45.9s1.6-.1 4-.1c1.2 0 2.6 0 4.1-.1h9.4c1.5 0 2.9.1 4.1.1 2.4.1 4 .1 4 .1s-1.6.1-4 .1c-1.2 0-2.6 0-4.1.1h-9.4c-1.5 0-2.9-.1-4.1-.1-2.4 0-4-.1-4-.1zM7.9 75.1s1.6-.1 4-.1c1.2 0 2.6 0 4.1-.1h9.4c1.5 0 2.9.1 4.1.1 2.4.1 4 .1 4 .1s-1.6.1-4 .1c-1.2 0-2.6 0-4.1.1h-9.4c-1.5 0-2.9-.1-4.1-.1-2.4-.1-4-.1-4-.1z"/><path class="st7" d="M23.4 19.1h10.2v3h-10.2zM23.4 48.1h10.2v3h-10.2zM23.4 77.1h10.2v3h-10.2zM85 59h7.1l1-9.1h-9zM84.1 51.8h-2.4s.2 4.7 3.1 4.5"/></g></svg>